<svg xmlns="http://www.w3.org/2000/svg" width="34" height="50" fill="none"><path fill="url(#a)" fill-rule="evenodd" d="m9.367 45.032-1.417.815 1.388.863c6.923 4.306 16.119 2.936 22.735-1.294l1.363-.871-1.406-.802c-7.055-4.026-15.885-2.611-22.663 1.29ZM0 28.782l.752 1.357c3.7 6.672 11.516 11.886 19.353 10.706l1.452-.218-.763-1.257C16.792 32.787 9.376 28.214 1.547 28.69L0 28.782Zm2.403-18.677-.07 1.645c-.305 7.204 3.376 14.365 9.557 18.128l1.453.883.035-1.699c.143-7.167-3.342-14.367-9.563-18.108l-1.412-.85ZM14.32 0l-.74 1.27c-3.496 6.007-3.93 13.909-.185 19.91l.82 1.317.833-1.307c3.713-5.827 4.482-14.291.159-20.017L14.32 0Z" clip-rule="evenodd"/><path fill="#fff" fill-opacity=".517" fill-rule="evenodd" d="m9.367 45.032-1.417.815 1.388.863c6.923 4.306 16.119 2.936 22.735-1.294l1.363-.871-1.406-.802c-7.055-4.026-15.885-2.611-22.663 1.29ZM0 28.782l.752 1.357c3.7 6.672 11.516 11.886 19.353 10.706l1.452-.218-.763-1.257C16.792 32.787 9.376 28.214 1.547 28.69L0 28.782Zm2.403-18.677-.07 1.645c-.305 7.204 3.376 14.365 9.557 18.128l1.453.883.035-1.699c.143-7.167-3.342-14.367-9.563-18.108l-1.412-.85ZM14.32 0l-.74 1.27c-3.496 6.007-3.93 13.909-.185 19.91l.82 1.317.833-1.307c3.713-5.827 4.482-14.291.159-20.017L14.32 0Z" clip-rule="evenodd"/><defs><linearGradient id="a" x1="0" x2="0" y1="0" y2="49.341" gradientUnits="userSpaceOnUse"><stop stop-color="#FFEA98"/><stop offset="1" stop-color="#FF9619"/></linearGradient></defs></svg>