<svg width="408" height="125" fill="none" xmlns="http://www.w3.org/2000/svg"><path fill-rule="evenodd" clip-rule="evenodd" d="M13.715 52.55c4.083 2.193 8.668 3.29 13.755 3.29 5.087 0 9.66-1.097 13.72-3.29 4.06-2.193 7.257-5.215 9.59-9.065 2.333-3.85 3.5-8.178 3.5-12.985 0-4.807-1.167-9.135-3.5-12.985-2.333-3.85-5.53-6.872-9.59-9.065-4.06-2.193-8.633-3.29-13.72-3.29-5.087 0-9.672 1.097-13.755 3.29s-7.28 5.215-9.59 9.065C1.815 21.365.66 25.693.66 30.5c0 4.807 1.155 9.135 3.465 12.985 2.31 3.85 5.507 6.872 9.59 9.065Zm21.595-8.365c-2.333 1.33-4.947 1.995-7.84 1.995s-5.507-.665-7.84-1.995S15.465 41 14.135 38.62c-1.33-2.38-1.995-5.087-1.995-8.12 0-3.033.665-5.74 1.995-8.12 1.33-2.38 3.162-4.235 5.495-5.565s4.947-1.995 7.84-1.995 5.507.665 7.84 1.995S39.475 20 40.805 22.38c1.33 2.38 1.995 5.087 1.995 8.12 0 3.033-.665 5.74-1.995 8.12-1.33 2.38-3.162 4.235-5.495 5.565ZM93.41 22.135c-2.707-1.47-5.857-2.205-9.45-2.205-2.707 0-5.203.478-7.49 1.435-2.287.957-4.247 2.322-5.88 4.095.373-3.593 1.598-6.37 3.675-8.33s5.262-3.36 9.555-4.2l15.82-3.15L98.17.4 80.25 3.97c-6.813 1.4-11.865 4.352-15.155 8.855-3.29 4.503-4.935 10.535-4.935 18.095 0 8.167 1.878 14.362 5.635 18.585 3.757 4.223 8.925 6.335 15.505 6.335 3.967 0 7.513-.758 10.64-2.275 3.127-1.517 5.565-3.663 7.315-6.44 1.75-2.777 2.625-5.962 2.625-9.555 0-3.5-.735-6.58-2.205-9.24-1.47-2.66-3.558-4.725-6.265-6.195ZM88.125 44.64c-1.703 1.82-3.955 2.73-6.755 2.73-2.753 0-5.017-.898-6.79-2.695-1.773-1.797-2.66-4.118-2.66-6.965 0-2.847.863-5.11 2.59-6.79 1.727-1.68 4.013-2.52 6.86-2.52 2.8 0 5.052.84 6.755 2.52 1.703 1.68 2.555 3.943 2.555 6.79 0 2.8-.852 5.11-2.555 6.93ZM139.12 19.16c-2.987-1.587-6.487-2.38-10.5-2.38-4.153 0-7.793.817-10.92 2.45-3.127 1.633-5.553 3.92-7.28 6.86-1.727 2.94-2.59 6.347-2.59 10.22v32.27h10.92V51.01c2.707 3.033 6.463 4.55 11.27 4.55 3.64 0 6.86-.805 9.66-2.415 2.8-1.61 4.97-3.873 6.51-6.79s2.31-6.288 2.31-10.115c0-3.92-.817-7.35-2.45-10.29-1.633-2.94-3.943-5.203-6.93-6.79Zm-4.06 24.57c-1.773 1.913-4.083 2.87-6.93 2.87-2.894 0-5.203-.957-6.93-2.87-1.727-1.913-2.59-4.433-2.59-7.56s.875-5.647 2.625-7.56c1.75-1.913 4.048-2.87 6.895-2.87 2.847 0 5.157.968 6.93 2.905 1.773 1.937 2.66 4.468 2.66 7.595 0 3.08-.887 5.577-2.66 7.49ZM194.21 55V17.34h-10.92v3.99c-2.707-3.033-6.463-4.55-11.27-4.55-3.547 0-6.755.793-9.625 2.38-2.87 1.587-5.122 3.85-6.755 6.79s-2.45 6.347-2.45 10.22.817 7.28 2.45 10.22c1.633 2.94 3.885 5.203 6.755 6.79 2.87 1.587 6.078 2.38 9.625 2.38 5.133 0 9.053-1.633 11.76-4.9V55h10.43Zm-13.44-11.235c-1.82 1.89-4.107 2.835-6.86 2.835-2.8 0-5.11-.945-6.93-2.835-1.82-1.89-2.73-4.422-2.73-7.595s.91-5.705 2.73-7.595c1.82-1.89 4.13-2.835 6.93-2.835 2.753 0 5.04.945 6.86 2.835 1.82 1.89 2.73 4.422 2.73 7.595s-.91 5.705-2.73 7.595Z" fill="#4B8702"/><path d="M252.66 16.78c4.713 0 8.458 1.388 11.235 4.165 2.777 2.777 4.165 6.942 4.165 12.495V55h-10.92V35.12c0-2.987-.618-5.215-1.855-6.685-1.237-1.47-2.998-2.205-5.285-2.205-2.567 0-4.597.828-6.09 2.485-1.493 1.657-2.24 4.118-2.24 7.385V55h-10.92V35.12c0-5.927-2.38-8.89-7.14-8.89-2.52 0-4.527.828-6.02 2.485-1.493 1.657-2.24 4.118-2.24 7.385V55h-10.92V17.34h10.43v4.34c1.4-1.587 3.115-2.8 5.145-3.64 2.03-.84 4.258-1.26 6.685-1.26 2.66 0 5.063.525 7.21 1.575a12.769 12.769 0 0 1 5.18 4.585c1.54-1.96 3.488-3.477 5.845-4.55 2.357-1.073 4.935-1.61 7.735-1.61ZM277.58 17.34h10.85v14.7h16.38v-14.7h10.92V55h-10.92V40.93h-16.38V55h-10.85V17.34Z" fill="#4B8702"/><path fill-rule="evenodd" clip-rule="evenodd" d="M364.17 55V17.34h-10.92v3.99c-2.707-3.033-6.463-4.55-11.27-4.55-3.547 0-6.755.793-9.625 2.38-2.87 1.587-5.122 3.85-6.755 6.79s-2.45 6.347-2.45 10.22.817 7.28 2.45 10.22c1.633 2.94 3.885 5.203 6.755 6.79 2.87 1.587 6.078 2.38 9.625 2.38 5.133 0 9.053-1.633 11.76-4.9V55h10.43Zm-13.44-11.235c-1.82 1.89-4.107 2.835-6.86 2.835-2.8 0-5.11-.945-6.93-2.835-1.82-1.89-2.73-4.422-2.73-7.595s.91-5.705 2.73-7.595c1.82-1.89 4.13-2.835 6.93-2.835 2.753 0 5.04.945 6.86 2.835 1.82 1.89 2.73 4.422 2.73 7.595s-.91 5.705-2.73 7.595ZM407.92 55V17.34h-17.99c-5.6 0-9.998 1.202-13.195 3.605-3.197 2.403-4.795 5.822-4.795 10.255 0 2.753.688 5.098 2.065 7.035 1.377 1.937 3.372 3.418 5.985 4.445L371.38 55H383l7.14-10.78h8.05V55h9.73Zm-23.065-27.51c1.19-.84 2.952-1.26 5.285-1.26h8.05v10.71H390c-2.333 0-4.072-.432-5.215-1.295-1.143-.863-1.715-2.228-1.715-4.095 0-1.867.595-3.22 1.785-4.06Z" fill="#4B8702"/><path d="M77.17 123.56c-4.013 0-7.618-.828-10.815-2.485-3.197-1.657-5.693-3.955-7.49-6.895-1.797-2.94-2.695-6.277-2.695-10.01 0-3.733.898-7.07 2.695-10.01 1.797-2.94 4.293-5.238 7.49-6.895 3.197-1.657 6.802-2.485 10.815-2.485 3.967 0 7.432.828 10.395 2.485 2.963 1.657 5.122 4.025 6.475 7.105l-8.47 4.55c-1.96-3.453-4.783-5.18-8.47-5.18-2.847 0-5.203.933-7.07 2.8-1.867 1.867-2.8 4.41-2.8 7.63 0 3.22.933 5.763 2.8 7.63 1.867 1.867 4.223 2.8 7.07 2.8 3.733 0 6.557-1.727 8.47-5.18l8.47 4.62c-1.353 2.987-3.512 5.32-6.475 7-2.963 1.68-6.428 2.52-10.395 2.52Z" fill="#4B8702"/><path fill-rule="evenodd" clip-rule="evenodd" d="M129.46 103.33c4.433 1.493 6.65 4.48 6.65 8.96 0 3.407-1.283 6.043-3.85 7.91s-6.393 2.8-11.48 2.8h-20.09V85.34h19.25c4.713 0 8.4.852 11.06 2.555 2.66 1.703 3.99 4.095 3.99 7.175 0 1.867-.478 3.512-1.435 4.935-.957 1.423-2.322 2.532-4.095 3.325Zm-18.76-2.52h8.26c3.827 0 5.74-1.353 5.74-4.06 0-2.66-1.913-3.99-5.74-3.99h-8.26v8.05Zm15.19 10.64c0 2.753-2.007 4.13-6.02 4.13h-9.17v-8.33h9.38c2.007 0 3.477.338 4.41 1.015.933.677 1.4 1.738 1.4 3.185ZM177.69 123V85.34H159.7c-5.6 0-9.998 1.202-13.195 3.605-3.197 2.403-4.795 5.822-4.795 10.255 0 2.753.688 5.098 2.065 7.035 1.377 1.937 3.372 3.418 5.985 4.445L141.15 123h11.62l7.14-10.78h8.05V123h9.73Zm-23.065-27.51c1.19-.84 2.952-1.26 5.285-1.26h8.05v10.71h-8.19c-2.333 0-4.072-.432-5.215-1.295-1.143-.863-1.715-2.228-1.715-4.095 0-1.867.595-3.22 1.785-4.06Z" fill="#4B8702"/><path d="M212.27 103.4c2.24.7 3.978 1.773 5.215 3.22 1.237 1.447 1.855 3.173 1.855 5.18 0 2.38-.817 4.468-2.45 6.265-1.633 1.797-3.873 3.185-6.72 4.165-2.847.98-6.067 1.47-9.66 1.47-2.94 0-5.833-.303-8.68-.91-2.847-.607-5.483-1.517-7.91-2.73l2.94-7.63c3.967 1.913 8.353 2.87 13.16 2.87 2.567 0 4.585-.385 6.055-1.155 1.47-.77 2.205-1.855 2.205-3.255 0-1.213-.513-2.135-1.54-2.765-1.027-.63-2.52-.945-4.48-.945h-7.7v-6.79h6.72c1.913 0 3.383-.303 4.41-.91 1.027-.607 1.54-1.493 1.54-2.66 0-1.213-.642-2.147-1.925-2.8s-3.115-.98-5.495-.98c-3.64 0-7.607.863-11.9 2.59l-2.66-7.56c5.227-2.287 10.313-3.43 15.26-3.43 3.407 0 6.452.42 9.135 1.26 2.683.84 4.795 2.065 6.335 3.675 1.54 1.61 2.31 3.488 2.31 5.635 0 1.773-.537 3.372-1.61 4.795s-2.543 2.555-4.41 3.395Z" fill="#4B8702"/><path fill-rule="evenodd" clip-rule="evenodd" d="M230.995 120.06c3.057 2.66 7.572 3.99 13.545 3.99 5.74 0 10.255-1.283 13.545-3.85 3.29-2.567 4.935-6.253 4.935-11.06 0-4.48-1.33-7.887-3.99-10.22-2.66-2.333-6.347-3.5-11.06-3.5-2.287 0-4.352.233-6.195.7-1.843.467-3.348 1.12-4.515 1.96V85.34h-10.85v22.96c0 5.18 1.528 9.1 4.585 11.76Zm18.97-5.6c-1.283 1.26-3.092 1.89-5.425 1.89-2.287 0-4.072-.618-5.355-1.855-1.283-1.237-1.925-2.952-1.925-5.145v-3.08c.7-1.12 1.703-1.983 3.01-2.59 1.307-.607 2.8-.91 4.48-.91 2.287 0 4.048.583 5.285 1.75s1.855 2.777 1.855 4.83c0 2.147-.642 3.85-1.925 5.11Z" fill="#4B8702"/></svg>