<svg xmlns="http://www.w3.org/2000/svg">  
    <symbol viewBox="0 0 29 19" id="sidebar-icon"><path fill-rule="evenodd" d="M29 0H0v3h29V0Zm-8 8H0v3h21V8ZM0 16h29v3H0v-3Z" clip-rule="evenodd"/></symbol>
    <symbol viewBox="0 0 14 7" id="dropdown-arrow"><path fill-rule="evenodd" clip-rule="evenodd" d="M12 0 7 5 2 0H0l7 7 7-7h-2Z"/></symbol>
    <symbol viewBox="0 0 15 20" id="call-icon"><g clip-path="url(#a)"><path d="m13.953 16.568-1.924-2.448c-.683-.872-1.965-1.017-2.813-.312l-.973.81a.562.562 0 0 1-.724-.042 17.116 17.116 0 0 1-3.806-7.054c-.062-.27.083-.56.352-.643l1.179-.394a2.012 2.012 0 0 0 1.262-2.552L5.47 1.03A1.54 1.54 0 0 0 3.3.179c-3.124 1.7-5.027 5.393-1.055 12.696 3.972 7.302 8.11 7.676 11.233 5.975.828-.436 1.055-1.536.476-2.282Z"/></g><defs><clipPath id="a"><path fill="#fff" d="M0 0h14.275v19.69H0z"/></clipPath></defs></symbol>
    <symbol viewBox="0 0 22 31" id="phone-icon-mobi"><path fill-rule="evenodd" d="M19.472 19.508a4.112 4.112 0 0 0-5.763-1.551l-.77.463s-1.01-1.681-1.808-3.543-1.393-3.925-1.393-3.925l.872-.53c1.98-1.2 2.661-3.79 1.552-5.838L10.818 2.16A4.128 4.128 0 0 0 5.065.59L2.123 2.376C-1.194 4.398-.62 11.1 3.815 19.167c4.482 8.13 9.098 12.455 12.516 10.385l.077-.052c.08-.055.145-.1.223-.15.081-.04.108-.053.146-.07l.149-.079 2.336-1.416c1.985-1.224 2.662-3.808 1.547-5.865l-1.337-2.412Zm-4.211 1.017a1.114 1.114 0 0 1 1.582.43l1.337 2.411c.348.65.13 1.482-.484 1.86l-2.258 1.369a17.57 17.57 0 0 0-.27.13l-.193.089-.16.138a1.645 1.645 0 0 1-.116.084c-1.035.623-4.622-2.727-8.255-9.315-1.7-3.093-2.159-5.404-2.646-7.855l-.171-.854c-.485-2.37-.303-3.854.057-4.073l2.928-1.78c.555-.33 1.257-.137 1.577.448l1.34 2.419c.346.636.128 1.465-.477 1.831l-1.96 1.194-1.07.651.45 1.169s.853 2.92 2.03 5.454c1.178 2.533 2.823 4.988 2.823 4.988l.812 1.09 3.124-1.878Z" clip-rule="evenodd"/></symbol>
    <symbol viewBox="0 0 27 26" id="search"><path fill-rule="evenodd" clip-rule="evenodd" d="M18.197 19.319A10.957 10.957 0 0 1 11 22C4.925 22 0 17.075 0 11S4.925 0 11 0s11 4.925 11 11c0 2.24-.67 4.322-1.819 6.06l6.269 6.268-2.122 2.122-6.13-6.131ZM19 11a8 8 0 1 1-16 0 8 8 0 0 1 16 0Z"/></symbol>
    <symbol viewBox="0 0 27 26" id="favorites"><path fill-rule="evenodd" d="M12.874 1.085 13.5.723l.626.362a8.22 8.22 0 0 1 4.088 6.529l.006.107.143-.037a8.218 8.218 0 0 1 7.253 1.68l.22.19.538.483-.152.708a8.22 8.22 0 0 1-4.946 5.905l-.156.059.099.152a8.219 8.219 0 0 1 .637 7.39l-.117.278-.294.661-.72.075a8.22 8.22 0 0 1-7.144-2.88l-.094-.115-.068.085a8.218 8.218 0 0 1-6.855 2.904l-.29-.025-.72-.075-.293-.662a8.22 8.22 0 0 1 .52-7.667l.082-.127-.14-.053a8.22 8.22 0 0 1-4.88-5.622l-.065-.283-.152-.708.539-.483a8.22 8.22 0 0 1 7.471-1.87l.144.038.006-.108a8.218 8.218 0 0 1 3.839-6.379l.249-.15Zm.791 2.715-.165-.132-.165.132a5.712 5.712 0 0 0-2.025 5.121 1.534 1.534 0 0 1-2.18 1.58 5.712 5.712 0 0 0-5.492.309l-.21.136.074.199a5.713 5.713 0 0 0 3.315 3.248l.233.081c.241.079.486.14.73.186a1.532 1.532 0 0 1 .838 2.562 5.714 5.714 0 0 0-1.341 5.522l.009.031a5.71 5.71 0 0 0 4.318-2.15l.156-.204a5.8 5.8 0 0 0 .385-.605 1.532 1.532 0 0 1 2.694 0 5.714 5.714 0 0 0 4.874 2.99l.08-.297a5.713 5.713 0 0 0-.785-4.464l-.152-.22a5.752 5.752 0 0 0-.49-.59 1.533 1.533 0 0 1 .83-2.57l.254-.052a5.713 5.713 0 0 0 4.048-3.467l.073-.2-.209-.136a5.712 5.712 0 0 0-4.548-.66l-.246.074c-.239.077-.472.17-.695.276a1.532 1.532 0 0 1-2.183-1.575A5.712 5.712 0 0 0 13.665 3.8Z" clip-rule="evenodd"/></symbol>
    <symbol viewBox="0 0 24 24" id="lk"><path fill-rule="evenodd" d="M24 21.096c0-1.929-1.313-3.61-3.184-4.078l-4.598-1.149.006-.586c.006-.526.224-1.05.623-1.487 1.312-1.439 1.952-2.825 2.16-4.437.078-.606.093-1.066.093-2.107 0-3.978-3.13-7.18-7.076-7.252A7.214 7.214 0 0 0 4.9 7.251c0 1.04.015 1.501.093 2.107.208 1.612.848 2.998 2.16 4.437.399.437.617.96.623 1.487l.006.586-4.598 1.15A4.205 4.205 0 0 0 0 21.095v1.618C0 23.424.576 24 1.286 24h21.428c.71 0 1.286-.576 1.286-1.286v-1.618Zm-3.73-1.512a1.647 1.647 0 0 1 1.247 1.598v.335H2.483v-.335c0-.756.515-1.415 1.248-1.6l4.882-1.22a2.28 2.28 0 0 0 1.727-2.236l-.008-.84c-.013-1.188-.486-2.324-1.307-3.224-.964-1.057-1.382-1.96-1.523-3.06-.06-.465-.073-.856-.073-1.795 0-2.602 2.03-4.677 4.595-4.724 2.518.047 4.547 2.122 4.547 4.725 0 .939-.013 1.33-.073 1.795-.141 1.1-.559 2.003-1.523 3.06-.82.9-1.294 2.036-1.306 3.225l-.01.84a2.28 2.28 0 0 0 1.729 2.236l4.882 1.22Z" clip-rule="evenodd"/></symbol>
    <symbol viewBox="0 0 30 24" id="basket"><path fill-rule="evenodd" d="M0 2.526h6.03L10.395 16h16.068L30 4.525H9.305L7.84 0H0v2.526Zm24.627 10.948H12.205l-2.081-6.422h16.482l-1.98 6.422Zm-7.146 7.579c0 1.627-1.304 2.947-2.913 2.947-1.61 0-2.914-1.32-2.914-2.947 0-1.628 1.305-2.948 2.914-2.948 1.609 0 2.913 1.32 2.913 2.948ZM23.724 24c1.61 0 2.914-1.32 2.914-2.947 0-1.628-1.305-2.948-2.914-2.948-1.609 0-2.913 1.32-2.913 2.948 0 1.627 1.304 2.947 2.913 2.947Z" clip-rule="evenodd"/></symbol>
</svg>