<svg xmlns="http://www.w3.org/2000/svg" width="46" height="13" fill="none"><path fill="#57BD69" fill-rule="evenodd" d="M18.241.018h3.793v7.754c.174.063.268.027.346-.137.996-2.093 1.996-4.184 3.002-6.271.397-.825 1.06-1.305 1.953-1.34a54.102 54.102 0 0 1 2.479-.02c.349.003.697.006 1.045.006.012 0 .025.003.041.008l.031.008v12.963h-3.794V5.23c-.367-.064-.372-.063-.509.223L25.89 6.99a618.777 618.777 0 0 0-2.145 4.495l-.03.066c-.186.396-.366.78-.737 1.037-.347.24-.726.396-1.144.4-.861.01-1.723.011-2.584.011l-.92.001a.272.272 0 0 1-.053-.007l-.036-.007V.018ZM15.07 12.979V.02l-.04-.009a.264.264 0 0 0-.053-.007L13.918.002c-.923-.001-1.846-.003-2.768.01-.582.007-1.056.278-1.428.743-.281.352-.396.776-.512 1.202l-.013.048c-.502 1.837-1.006 3.673-1.512 5.509-.016.057-.058.129-.105.146-.05.02-.146.004-.176-.035a.42.42 0 0 1-.062-.166l-.015-.063-.514-1.871v-.001c-.358-1.305-.716-2.61-1.076-3.914C5.447.558 4.732.004 3.676.001H0v12.98h3.752V5.345c.188-.054.261.006.31.186.362 1.308.726 2.615 1.09 3.922.311 1.12.623 2.237.932 3.356.041.148.1.191.244.19.562-.005 1.124-.005 1.686-.004h.772l2.136-7.655h.385v7.638h3.762Zm28.588-4.568c.692-.463 1.206-1.086 1.55-1.911H33.31V13h3.716V9.1H41.232c.869.003 1.685-.194 2.425-.69ZM31.951.006h-.216l-.006.03a.069.069 0 0 0-.005.027c.008.044.016.089.028.132a5.84 5.84 0 0 0 1.788 2.882c1.37 1.221 3.02 1.786 4.89 1.793 1.683.007 3.367.005 5.05.004l2.172-.001h.192c.282-.784.16-1.534-.2-2.239C44.75.884 43.229.025 41.194.011 39.03-.004 36.869 0 34.707.003c-.919.001-1.837.003-2.756.003Z" clip-rule="evenodd"/></svg>