<svg width="880" height="880" xmlns="http://www.w3.org/2000/svg"><path d="m244.571 42.389 8.315 15.862 2.758-1.459 2.982 5.687-1.712.909-2.147-4.094-15.177 8.019-9.15-17.462 1.817-.958 8.315 15.862 10.504-5.546-8.315-15.869 1.81-.951Zm19.054-2.58c1.144.198 1.965.846 2.484 1.953.344.732.428 1.451.274 2.156-.162.704-.533 1.353-1.13 1.945 2.014-.423 3.431.246 4.252 2.015.548 1.177.534 2.283-.042 3.319-.568 1.036-1.712 1.952-3.424 2.755l-6.083 2.847-6.231-13.438 5.9-2.762c1.523-.719 2.857-.98 4-.79Zm-.322 7.992-4.428 2.071 2.175 4.672 4.245-1.987c1.158-.543 1.93-1.135 2.337-1.776.4-.641.42-1.367.049-2.17-.372-.796-.912-1.269-1.614-1.402-.709-.141-1.628.056-2.764.592Zm-3.144-5.715-4.02 1.881 2.112 4.552 4.02-1.881c1.032-.486 1.733-1.057 2.105-1.705.372-.649.379-1.346.035-2.093-.35-.754-.884-1.184-1.607-1.304-.73-.12-1.606.064-2.645.55Zm18.794-9.033a6.802 6.802 0 0 1 3.382 1.472c1.003.81 1.789 1.896 2.35 3.249l.21.585-11.394 4.763c.687 1.381 1.712 2.305 3.059 2.77 1.347.465 2.772.38 4.273-.247a6.346 6.346 0 0 0 2.147-1.43 5.528 5.528 0 0 0 1.284-2.114l1.53.768a6.275 6.275 0 0 1-1.579 2.607c-.744.768-1.663 1.374-2.75 1.832-1.397.585-2.765.803-4.091.655-1.326-.148-2.52-.62-3.558-1.43-1.045-.803-1.845-1.875-2.4-3.206-.547-1.34-.757-2.657-.617-3.954.14-1.303.59-2.459 1.354-3.473.772-1.015 1.783-1.783 3.046-2.312 1.256-.521 2.512-.704 3.754-.535Zm16.741-7.373.625 1.663-5.228 1.973 4.568 12.219-1.866.704-4.568-12.218-5.227 1.973-.625-1.663 12.321-4.651Zm-19.843 9.5c-1.312.55-2.238 1.431-2.778 2.643-.54 1.212-.59 2.523-.148 3.925l9.662-4.045c-.68-1.303-1.642-2.184-2.884-2.656-1.235-.465-2.519-.43-3.852.134Zm34.799-1.43a4.978 4.978 0 0 0 1.2-2.558c.168-.987.07-2.016-.288-3.087-.358-1.07-.898-1.945-1.62-2.635a5.032 5.032 0 0 0-2.499-1.31c-.94-.191-1.908-.114-2.905.218-.989.338-1.803.86-2.441 1.585a5.049 5.049 0 0 0-1.214 2.565c-.176.987-.085 2.015.273 3.086.358 1.072.905 1.945 1.635 2.629a5.104 5.104 0 0 0 2.512 1.31c.94.19 1.909.113 2.898-.218.996-.338 1.81-.86 2.449-1.585m-5.838 3.572a7.036 7.036 0 0 1-3.403-1.684c-.99-.88-1.712-2.008-2.168-3.375-.456-1.374-.562-2.706-.302-4.003a7.058 7.058 0 0 1 1.705-3.403c.884-.966 1.993-1.677 3.34-2.135 1.354-.451 2.666-.564 3.95-.317 1.284.24 2.421.796 3.39 1.677.975.88 1.69 2.008 2.154 3.375.456 1.374.56 2.706.315 4.002a6.946 6.946 0 0 1-1.69 3.404c-.87.98-1.986 1.698-3.334 2.15-1.347.457-2.666.556-3.957.31m21.869-21.482 4.105 14.24-1.909.558-1.712-5.934c-1.424 1.198-2.933 2.03-4.512 2.488-1.705.5-3.15.493-4.329-.014-1.179-.508-2-1.544-2.449-3.115l-1.354-4.686 1.916-.557 1.319 4.574c.308 1.07.884 1.775 1.726 2.128.842.352 1.866.352 3.066 0 1.333-.388 2.723-1.17 4.168-2.36l-1.95-6.766 1.915-.556Zm6.133-1.662 1.936-.472 1.55 6.377 9.024-2.212-1.55-6.378 1.936-.479 3.502 14.403-1.937.48-1.544-6.356-9.023 2.212 1.543 6.356-1.936.472-3.501-14.403Zm33.418-7.335 1.958-.38 2.785 14.557-1.957.38-2.786-14.557Zm-3.087 13.325c.575-.698.764-1.586.554-2.678-.204-1.071-.695-1.797-1.474-2.177-.778-.388-1.852-.458-3.213-.219l-3.677.655 1.242 6.476 3.677-.648c1.34-.24 2.308-.712 2.89-1.41Zm.449-6.215c1.108.613 1.803 1.663 2.09 3.156.295 1.55.008 2.84-.862 3.87-.87 1.028-2.26 1.718-4.175 2.07l-5.74 1.079-2.786-14.558 1.958-.38.975 5.094 4.147-.747c1.818-.331 3.284-.19 4.393.416Zm13.623-5.886c-.828 1.036-1.2 2.297-1.123 3.763l10.364-1.494c-.337-1.437-1.053-2.536-2.133-3.298-1.081-.76-2.337-1.042-3.761-.838-1.41.204-2.526.831-3.347 1.867Zm11.318 3.474-12.224 1.769c.323 1.508 1.088 2.657 2.274 3.439 1.193.789 2.596 1.07 4.203.838.912-.134 1.719-.416 2.435-.852a5.595 5.595 0 0 0 1.768-1.727l1.291 1.128a6.388 6.388 0 0 1-2.175 2.135c-.912.55-1.95.909-3.123 1.078-1.501.218-2.87.091-4.125-.388a6.993 6.993 0 0 1-3.088-2.269c-.807-1.043-1.319-2.283-1.522-3.713-.204-1.43-.085-2.755.378-3.982.457-1.226 1.18-2.233 2.176-3.023.996-.789 2.168-1.282 3.515-1.472 1.354-.198 2.61-.057 3.775.422a6.843 6.843 0 0 1 2.912 2.27c.765 1.035 1.256 2.283 1.466 3.734l.064.613Zm20.027 2.572c.758-.585 1.291-1.382 1.6-2.39l-.203-2.416-4.617.401c-2.512.212-3.698 1.198-3.55 2.96.07.86.455 1.515 1.15 1.952.695.444 1.628.613 2.807.514 1.115-.098 2.056-.437 2.813-1.021m1.284-11.43c1.11.88 1.74 2.262 1.902 4.157l.772 9.154-1.902.162-.19-2.304c-.385.81-.989 1.458-1.824 1.966-.828.507-1.838.81-3.03.916-1.643.134-2.983-.141-4.021-.853-1.032-.697-1.607-1.698-1.712-2.988-.106-1.254.26-2.304 1.101-3.15.835-.845 2.239-1.352 4.217-1.521l4.673-.402-.077-.895c-.112-1.275-.547-2.213-1.312-2.819-.765-.599-1.824-.845-3.186-.725-.933.077-1.81.31-2.645.69-.835.38-1.53.867-2.098 1.466l-1.024-1.41c.694-.704 1.543-1.268 2.56-1.705a10.373 10.373 0 0 1 3.257-.803c1.915-.162 3.43.19 4.54 1.064m18.168 10.146a5.043 5.043 0 0 0 1.888-2.128c.442-.902.631-1.916.59-3.044-.05-1.127-.33-2.114-.85-2.966a5.163 5.163 0 0 0-2.063-1.96c-.863-.45-1.81-.655-2.834-.612-1.046.049-1.979.33-2.786.86a5.168 5.168 0 0 0-1.873 2.12c-.442.895-.639 1.91-.59 3.03.05 1.128.33 2.121.842 2.988.512.86 1.2 1.515 2.056 1.952.85.444 1.803.641 2.842.599 1.031-.042 1.958-.324 2.778-.839m.59-11.676a6.715 6.715 0 0 1 2.757 2.544c.681 1.12 1.053 2.41 1.116 3.876.07 1.48-.196 2.811-.786 3.98a6.739 6.739 0 0 1-2.505 2.777c-1.08.677-2.33 1.043-3.733 1.107-1.192.049-2.28-.148-3.27-.606-.982-.458-1.803-1.149-2.462-2.08l.358 8.252-1.993.085-.87-20.28 1.901-.078.127 2.925a6.25 6.25 0 0 1 2.273-2.354c.961-.564 2.056-.88 3.29-.93 1.383-.063 2.653.197 3.797.782m15.75 11.535c.8-.529 1.382-1.29 1.76-2.27l-.034-2.423-4.638.077c-2.52.042-3.775.944-3.74 2.706.014.867.35 1.543 1.01 2.03.667.486 1.586.725 2.765.704 1.122-.021 2.084-.296 2.877-.824m2.062-11.31c1.046.951 1.586 2.375 1.614 4.27l.148 9.189-1.909.035-.035-2.311c-.435.775-1.088 1.388-1.95 1.832-.864.451-1.895.684-3.088.698-1.649.028-2.968-.346-3.95-1.114-.983-.775-1.488-1.81-1.509-3.107-.021-1.262.414-2.283 1.312-3.066.891-.789 2.337-1.19 4.315-1.226l4.688-.077-.014-.902c-.021-1.276-.393-2.241-1.116-2.896-.716-.656-1.761-.973-3.13-.952a7.844 7.844 0 0 0-2.687.508c-.856.324-1.586.76-2.196 1.317l-.92-1.48c.737-.648 1.629-1.155 2.667-1.521a10.504 10.504 0 0 1 3.305-.578c1.93-.028 3.417.43 4.455 1.38m7.675-1.19 1.992.078-.26 6.56 9.284.374.26-6.567 1.992.084-.582 14.812-2-.077.267-6.532-9.29-.367-.253 6.532-1.993-.077.583-14.82Zm31.955 10.261-3.185-.289-.59 6.575-1.979-.183.583-6.568-3.186-.289-5.087 6.166-2.372-.218 5.958-7.131-4.224-7.597 2.154.198 3.726 6.87 3.185.289.583-6.483 1.978.176-.575 6.483 3.185.289 4.912-6.095 2.154.19-5.508 6.75 4.603 8.062-2.371-.219-3.944-6.976Zm11.745-6.995 1.971.282-1.635 11.662L509.524 5.11l1.747.254-2.056 14.678-1.972-.282 1.628-11.662-11.36 10.288-1.775-.254 2.056-14.678Zm27.635 17.114c.92-.31 1.691-.86 2.323-1.642.631-.775 1.045-1.719 1.255-2.832.211-1.107.155-2.128-.154-3.08a5.168 5.168 0 0 0-1.565-2.374c-.736-.642-1.613-1.05-2.624-1.24-1.031-.198-2-.135-2.905.197a5.199 5.199 0 0 0-2.308 1.642c-.625.768-1.046 1.705-1.256 2.818-.21 1.106-.162 2.135.147 3.094.309.958.821 1.747 1.558 2.374.723.627 1.607 1.036 2.638 1.226 1.01.198 1.972.134 2.891-.183m3.22-11.24a6.774 6.774 0 0 1 2.099 3.108c.414 1.248.484 2.587.217 4.031-.273 1.459-.828 2.692-1.663 3.7a6.778 6.778 0 0 1-3.073 2.135c-1.207.408-2.498.486-3.873.225-1.18-.218-2.197-.67-3.053-1.339-.856-.662-1.501-1.529-1.93-2.586l-1.515 8.118-1.964-.367 3.74-19.948 1.866.359-.533 2.875a6.146 6.146 0 0 1 2.743-1.776c1.06-.331 2.196-.387 3.41-.155 1.361.254 2.533.796 3.53 1.62m14.506 15.145c.92-.274 1.705-.789 2.365-1.543.66-.754 1.108-1.677 1.368-2.776.252-1.1.252-2.128 0-3.094-.253-.965-.73-1.782-1.432-2.438-.701-.655-1.564-1.106-2.582-1.346-1.024-.246-1.992-.225-2.912.05-.919.282-1.712.789-2.378 1.543-.667.747-1.123 1.677-1.383 2.77-.252 1.099-.245 2.134.014 3.1.267.972.744 1.783 1.446 2.438.702.662 1.558 1.106 2.582 1.346 1.017.246 1.993.225 2.912-.05m-6.841-.049a7.17 7.17 0 0 1-2.007-3.234c-.372-1.269-.4-2.607-.07-4.017.323-1.402.94-2.593 1.838-3.558a6.924 6.924 0 0 1 3.235-1.987c1.256-.367 2.575-.381 3.964-.057 1.383.331 2.554.93 3.523 1.818a6.903 6.903 0 0 1 2 3.22c.364 1.262.385 2.6.056 4.01-.323 1.41-.934 2.6-1.825 3.566a7.036 7.036 0 0 1-3.22 2.008c-1.263.366-2.583.387-3.972.063-1.382-.324-2.554-.937-3.522-1.832m19.065-2.889 4.267 1.198c1.108.303 2.006.338 2.708.085.702-.254 1.158-.776 1.382-1.579.225-.79.092-1.473-.379-2.036-.477-.564-1.263-.994-2.364-1.304l-4.273-1.198-1.34 4.834Zm5.663 7.85c.716-.226 1.2-.768 1.438-1.62.232-.846.127-1.558-.315-2.122-.45-.564-1.277-1.015-2.484-1.353l-4.701-1.317-1.383 4.967 4.519 1.269c1.22.345 2.196.401 2.926.176Zm3.298-.98c-.344 1.248-1.074 2.08-2.175 2.495-1.102.409-2.568.36-4.393-.148l-6.462-1.811 3.964-14.283 6.28 1.761c1.614.451 2.8 1.128 3.55 2.016.737.894.948 1.923.625 3.1-.224.782-.617 1.388-1.193 1.818-.575.437-1.284.677-2.112.74 1.804.994 2.442 2.431 1.916 4.312Zm38.547 14.77c.393.162.681.437.828.81.148.374.148.762-.02 1.163a2.86 2.86 0 0 1-.365.641 5.692 5.692 0 0 1-.61.726l-2.548 3.164-1.249-.514 2.414-3.425a1.405 1.405 0 0 1-.477-.76c-.085-.304-.056-.621.077-.952.168-.402.428-.684.8-.846.372-.169.75-.169 1.15-.007Zm-14.24-18.192 1.874.698-4.084 11.049 13.318-7.61 1.655.62-5.136 13.895-1.866-.697 4.077-11.042-13.283 7.617-1.684-.627 5.13-13.903Zm-16.211-5.367 1.894.613-1.993 6.194 3.228 1.05 6.933-4.594 2.056.67-7.719 5.045 3.593 9.188-2.253-.725-3.157-7.956-3.207-1.036-2.02 6.272-1.895-.613 4.54-14.108Zm68.424 27.776c1.27.641 2.266 1.515 2.996 2.6a6.956 6.956 0 0 1 1.179 3.608c.063 1.318-.239 2.621-.891 3.91-.653 1.29-1.53 2.298-2.618 3.024a6.999 6.999 0 0 1-3.606 1.184c-1.305.056-2.596-.24-3.866-.888-1.263-.642-2.267-1.522-2.983-2.615a7.107 7.107 0 0 1-1.192-3.622c-.064-1.324.224-2.628.884-3.917.645-1.29 1.522-2.298 2.631-3.023A6.881 6.881 0 0 1 637 46.497c1.305-.056 2.596.247 3.859.895Zm-3.62.909c-.962.05-1.853.36-2.681.93-.821.57-1.488 1.36-1.993 2.36-.52 1.008-.758 2.009-.73 3.017.028 1.007.302 1.91.828 2.72.527.803 1.256 1.444 2.197 1.923.933.48 1.873.69 2.834.641a4.943 4.943 0 0 0 2.66-.937c.814-.57 1.48-1.36 1.985-2.367.513-1.001.758-2.009.744-3.01-.021-1-.295-1.902-.828-2.705-.52-.81-1.249-1.445-2.182-1.924-.94-.48-1.888-.69-2.835-.648Zm-16.764-10.564 1.818.831-2.709 5.92 3.08 1.423 7.431-3.735 1.958.902-8.259 4.094 2.477 9.555-2.14-.993-2.203-8.273-3.067-1.416-2.736 5.996-1.81-.838 6.16-13.466Zm94.261 58.52c1.25.198 2.407.727 3.467 1.593 1.059.867 1.817 1.889 2.252 3.073.449 1.184.547 2.41.316 3.685-.232 1.275-.814 2.48-1.733 3.615l-.414.465-9.585-7.815c-.884 1.269-1.207 2.608-.969 4.017.232 1.416.976 2.635 2.246 3.664a6.307 6.307 0 0 0 2.266 1.22c.8.232 1.628.267 2.463.133l.056 1.72c-1.003.19-2.02.14-3.038-.156-1.025-.303-1.993-.824-2.905-1.57-1.179-.96-2.014-2.066-2.519-3.306a7 7 0 0 1-.435-3.82c.21-1.303.765-2.522 1.677-3.642.905-1.128 1.965-1.93 3.172-2.431a6.909 6.909 0 0 1 3.683-.444Zm-1.249 1.727c-1.312.099-2.484.677-3.508 1.734l8.125 6.624c.814-1.227 1.137-2.495.962-3.813-.169-1.317-.821-2.43-1.937-3.34-1.109-.902-2.323-1.303-3.642-1.205Zm-6.543-8.91 1.606 1.183-8.764 11.937-1.6-1.184 8.758-11.937Zm-11.564-8.562 1.6 1.19-3.06 4.172 3.355 2.55c1.48 1.121 2.371 2.298 2.68 3.524.309 1.233.007 2.46-.891 3.686-.933 1.268-2.07 1.937-3.41 1.994-1.348.056-2.793-.508-4.35-1.677l-4.68-3.503 8.756-11.936Zm-2.344 6.567-3.894 5.306 2.975 2.269c1.08.832 2.084 1.226 2.99 1.177.89-.042 1.676-.508 2.336-1.402.638-.874.842-1.734.59-2.565-.246-.839-.92-1.678-2.029-2.516l-2.968-2.27Zm-14.35-17.844 1.586 1.057-1.607 2.445a6.13 6.13 0 0 1 3.213-.564c1.11.106 2.176.508 3.207 1.191 1.15.768 2.02 1.727 2.61 2.875a6.733 6.733 0 0 1 .73 3.686c-.098 1.303-.554 2.572-1.361 3.79-.814 1.24-1.804 2.157-2.968 2.763a6.756 6.756 0 0 1-3.649.76c-1.277-.09-2.498-.528-3.67-1.31-.99-.662-1.76-1.473-2.287-2.424a6.203 6.203 0 0 1-.772-3.136l-4.547 6.878-1.663-1.1 11.178-16.911Zm-.204 5.165c-.877.465-1.62 1.163-2.245 2.1-.617.937-.975 1.91-1.06 2.91-.09 1 .085 1.938.513 2.798.428.86 1.073 1.578 1.95 2.163.856.57 1.769.895 2.737.958.968.07 1.894-.134 2.778-.599.878-.472 1.635-1.176 2.253-2.12.624-.938.968-1.903 1.052-2.897a5.271 5.271 0 0 0-.519-2.804 5.49 5.49 0 0 0-1.937-2.164c-.87-.585-1.789-.902-2.75-.958a5.192 5.192 0 0 0-2.772.613ZM664.35 61.408c1.305.042 2.568.43 3.789 1.17 1.214.733 2.154 1.67 2.8 2.812a6.947 6.947 0 0 1 .918 3.678c-.028 1.318-.42 2.593-1.171 3.84-.737 1.233-1.684 2.178-2.821 2.826a6.882 6.882 0 0 1-3.677.916c-1.312-.035-2.582-.416-3.796-1.156-1.214-.733-2.147-1.677-2.8-2.825a7.11 7.11 0 0 1-.926-3.7c.028-1.325.421-2.6 1.158-3.84.744-1.24 1.698-2.185 2.842-2.826a6.904 6.904 0 0 1 3.684-.895Zm.105 1.818c-.961-.02-1.874.226-2.737.733-.863.514-1.578 1.247-2.16 2.213-.583.965-.885 1.952-.934 2.952-.042 1.008.161 1.931.639 2.77.463.845 1.143 1.536 2.041 2.078.891.543 1.825.825 2.786.846a4.975 4.975 0 0 0 2.722-.74c.857-.514 1.565-1.254 2.148-2.22.575-.965.89-1.952.947-2.945.056-1-.148-1.924-.625-2.762-.463-.846-1.143-1.537-2.042-2.08-.898-.542-1.83-.824-2.785-.845Zm-15.704-11.62 11.522 6.406-.856 1.55-4.884-2.72-6.3 11.415-1.748-.965 6.301-11.415-4.89-2.72.855-1.55Zm111.565 85.513 1.39 1.437-10.574 10.338-1.39-1.43 10.574-10.345Zm-10.026-10.337 1.396 1.43-3.705 3.622 2.898 3.072c1.284 1.34 1.972 2.65 2.07 3.911.105 1.262-.38 2.424-1.474 3.488-1.122 1.1-2.357 1.572-3.683 1.41-1.34-.17-2.674-.959-4.021-2.368l-4.056-4.221 10.575-10.344Zm-3.369 6.095-4.708 4.601 2.561 2.727c.94.994 1.867 1.544 2.765 1.65.898.105 1.74-.226 2.526-1.001.779-.761 1.116-1.579 1.01-2.438-.112-.867-.638-1.804-1.592-2.812l-2.562-2.727Zm-13.4-21.899 1.488 1.381-2.625 12.106 11.9-3.495 1.362 1.262-10.027 10.887-1.333-1.248 7.922-8.61-11.094 3.213-.66-.613 2.337-11.38-7.95 8.631-1.333-1.247 10.013-10.887Zm100.16 131.133 4.61 9.407-1.592.782-3.719-7.617-11.662 5.757-.884-1.797 13.248-6.532Zm-10.03-15.089c.92.36 1.775.923 2.575 1.684a10.437 10.437 0 0 1 2.021 2.692c.912 1.698 1.186 3.242.828 4.609-.365 1.367-1.382 2.494-3.045 3.396l-8.062 4.34-.898-1.683 2.027-1.1c-.89-.028-1.726-.33-2.526-.895-.785-.563-1.466-1.38-2.034-2.438-.772-1.458-1.046-2.804-.814-4.037.231-1.233.919-2.157 2.056-2.77 1.101-.592 2.203-.676 3.311-.232 1.109.437 2.126 1.536 3.067 3.29l2.217 4.151.786-.43c1.123-.606 1.81-1.381 2.056-2.325.252-.944.056-2.023-.59-3.228a8.104 8.104 0 0 0-1.684-2.163 6.795 6.795 0 0 0-2.175-1.36l.884-1.5Zm-6.89 5.51c-.765.41-1.207 1.022-1.333 1.833-.127.817.084 1.747.645 2.79.526.994 1.214 1.727 2.042 2.192.835.465 1.775.641 2.814.528l2.133-1.141-2.19-4.101c-1.192-2.234-2.567-2.932-4.111-2.1Zm.349-20.562 5.494 9.344-12.715 7.533-1.01-1.72 11.192-6.638-3.6-6.11-3.242 1.692c-2.722 1.43-4.925 2.333-6.63 2.685-1.706.36-2.92-.092-3.656-1.339-.197-.338-.372-.79-.533-1.353l1.55-.754c.099.331.19.557.253.67.393.662.996.979 1.81.958.807-.021 1.698-.247 2.667-.663.968-.422 2.217-1.035 3.753-1.832l4.667-2.473Zm-10.224-16.181 5.93 9.168-10.919 7.13 1.25 1.938-4.442 2.904-1.032-1.586 2.996-1.952-7.199-11.133-2.996 1.952-1.024-1.586 4.448-2.903.463.712c.59.803 1.565.972 2.933.507 1.376-.472 3.15-1.339 5.34-2.614l4.252-2.537Zm-.512 2.48-2.842 1.656c-1.81 1.064-3.347 1.86-4.63 2.382-1.285.521-2.316.641-3.102.345l5.01 7.752 9.437-6.152-3.873-5.983Zm-9.722-15.777c1.15.528 2.126 1.346 2.912 2.466.792 1.12 1.242 2.312 1.354 3.566a6.838 6.838 0 0 1-.688 3.636c-.561 1.163-1.438 2.17-2.631 3.016l-.52.338-7.15-10.112c-1.185.98-1.852 2.185-2.006 3.608-.154 1.423.238 2.798 1.179 4.136.533.747 1.157 1.346 1.866 1.783a5.552 5.552 0 0 0 2.337.79l-.407 1.67a6.299 6.299 0 0 1-2.884-.966c-.905-.57-1.698-1.332-2.386-2.297-.877-1.24-1.39-2.53-1.543-3.862a7.105 7.105 0 0 1 .603-3.798c.554-1.198 1.417-2.22 2.596-3.058 1.172-.839 2.4-1.332 3.698-1.48a6.724 6.724 0 0 1 3.67.564Zm-5.508 2.043 6.055 8.57c1.123-.952 1.761-2.094 1.95-3.404.183-1.318-.147-2.565-.982-3.75-.82-1.162-1.88-1.874-3.178-2.134-1.298-.261-2.575-.021-3.845.718Zm-7.16-20.184 1.172 1.515-2.309 1.796a6.178 6.178 0 0 1 3.235.494c1.01.458 1.894 1.176 2.66 2.156.848 1.1 1.367 2.283 1.564 3.558a6.738 6.738 0 0 1-.477 3.728c-.506 1.212-1.334 2.262-2.491 3.164-1.165.909-2.393 1.466-3.691 1.663a6.618 6.618 0 0 1-3.698-.444c-1.179-.5-2.203-1.304-3.066-2.417-.73-.944-1.2-1.952-1.404-3.023a6.183 6.183 0 0 1 .267-3.22l-6.497 5.066-1.214-1.578 15.949-12.458Zm-1.825 4.833c-.975.156-1.908.578-2.8 1.276-.883.69-1.529 1.494-1.936 2.417-.393.923-.533 1.853-.393 2.811.133.952.52 1.847 1.165 2.678.631.818 1.396 1.41 2.287 1.783.892.373 1.839.48 2.821.317.99-.169 1.93-.592 2.814-1.282.884-.691 1.53-1.501 1.915-2.41.4-.916.527-1.86.393-2.826a5.57 5.57 0 0 0-1.143-2.678c-.646-.824-1.41-1.423-2.309-1.783a5.153 5.153 0 0 0-2.814-.303Zm-10.937-20.08 8.603 10.125-11.234 9.626-1.284-1.53 9.88-8.47-6.007-7.074-9.893 8.477-1.284-1.53 11.22-9.625Zm60.09 117.538c.794.528 1.72.768 2.772.733l2.204-.994-1.895-4.242c-1.031-2.318-2.35-3.115-3.957-2.396-.78.36-1.27.937-1.453 1.74-.182.804-.042 1.748.442 2.826.463 1.03 1.088 1.804 1.888 2.333m11.163-2.544c-.463 1.339-1.55 2.396-3.276 3.164l-8.35 3.756-.786-1.748 2.105-.944c-.884-.099-1.698-.458-2.449-1.078-.744-.62-1.368-1.48-1.852-2.58-.674-1.507-.85-2.867-.527-4.08.316-1.218 1.067-2.092 2.246-2.614 1.143-.521 2.245-.521 3.326 0 1.066.515 2.006 1.685 2.813 3.503l1.916 4.298.82-.373c1.166-.522 1.902-1.24 2.218-2.164.316-.93.19-2.015-.365-3.27a7.975 7.975 0 0 0-1.522-2.275c-.632-.663-1.327-1.17-2.07-1.508l.989-1.438c.884.43 1.698 1.05 2.449 1.867a10.78 10.78 0 0 1 1.824 2.826c.786 1.762.947 3.32.491 4.658m2.22 9.484c-1.2-.564-2.499-.627-3.91-.204l3.895 9.76c1.305-.67 2.203-1.622 2.687-2.855.478-1.24.457-2.53-.077-3.875-.526-1.325-1.396-2.27-2.596-2.826Zm-.703 11.86-4.582-11.515c-1.382.684-2.315 1.691-2.792 3.037-.491 1.346-.428 2.784.182 4.299.337.852.8 1.578 1.39 2.17a5.48 5.48 0 0 0 2.084 1.318l-.78 1.529a6.228 6.228 0 0 1-2.581-1.62c-.751-.762-1.34-1.692-1.776-2.791-.561-1.41-.765-2.784-.596-4.115a6.955 6.955 0 0 1 1.473-3.552c.814-1.036 1.888-1.825 3.228-2.36 1.333-.536 2.652-.726 3.943-.571 1.299.162 2.442.634 3.432 1.416 1.003.782 1.754 1.811 2.266 3.086.505 1.269.66 2.53.477 3.784a6.815 6.815 0 0 1-1.515 3.369c-.821 1-1.909 1.768-3.27 2.311l-.583.204Zm14.674 17.571-13.95 4.848-.596-1.726 11.03-3.84-11.29-2.424-.287-.853 7.395-8.928-11.058 3.84-.596-1.726 13.949-4.855.666 1.924-7.999 9.435 12.132 2.544.604 1.761Zm-9.518 10.932c-.19.36-.49.599-.905.726-.21.063-.456.105-.723.12a7.28 7.28 0 0 1-.947-.015l-4.049.014-.4-1.29 4.175-.288c0-.317.092-.599.281-.86.183-.253.442-.43.786-.535a1.525 1.525 0 0 1 1.158.077c.358.19.603.486.73.895.126.416.09.803-.106 1.156m18.728 21.94 2.877 12.902-1.72.387-1.227-5.475-12.672 2.854-.443-1.945 12.687-2.86-1.228-5.476 1.726-.388Zm-6.844-12.557c1.263.345 2.357 1 3.263 1.959.905.958 1.543 2.142 1.908 3.566.323 1.233.372 2.395.147 3.502a5.814 5.814 0 0 1-1.508 2.854l-1.361-1.191a4.669 4.669 0 0 0 1.13-2.213 5.66 5.66 0 0 0-.085-2.516c-.274-1.035-.75-1.91-1.417-2.614a5.103 5.103 0 0 0-2.477-1.423c-.976-.24-2-.219-3.088.07-1.108.29-2.013.775-2.736 1.459a5.064 5.064 0 0 0-1.453 2.445c-.245.951-.238 1.945.029 2.98.224.853.603 1.6 1.136 2.235.526.634 1.214 1.099 2.042 1.388l-.603 1.705a5.717 5.717 0 0 1-2.709-1.769c-.73-.852-1.256-1.895-1.572-3.114-.371-1.417-.392-2.763-.07-4.045a7.042 7.042 0 0 1 1.909-3.312c.954-.93 2.126-1.571 3.515-1.938 1.404-.366 2.73-.373 4-.028Zm-.256 39.468a5.012 5.012 0 0 0 2.358 1.55c.954.296 1.979.346 3.08.141 1.109-.211 2.042-.627 2.828-1.254a5.016 5.016 0 0 0 1.635-2.297c.316-.91.379-1.882.182-2.918-.19-1.035-.59-1.916-1.214-2.65a5.127 5.127 0 0 0-2.357-1.563c-.954-.31-1.979-.36-3.088-.155-1.101.204-2.048.627-2.82 1.26-.772.635-1.326 1.403-1.635 2.312-.316.91-.379 1.889-.19 2.925.197 1.028.597 1.916 1.221 2.65m-2.715-6.308a7.137 7.137 0 0 1 2.14-3.15c1.003-.86 2.21-1.416 3.635-1.684 1.41-.267 2.736-.176 3.978.261a6.88 6.88 0 0 1 3.116 2.163c.835 1.008 1.389 2.22 1.648 3.622.26 1.403.183 2.727-.238 3.968a6.862 6.862 0 0 1-2.126 3.142c-1.004.846-2.217 1.403-3.628 1.663-1.417.275-2.743.19-3.985-.24a6.95 6.95 0 0 1-3.13-2.148c-.842-1.008-1.396-2.213-1.656-3.622-.26-1.403-.175-2.727.246-3.975m18.256 25.54-14.616 2.1-.28-1.98 12.861-1.853-1.003-7.032-3.635.324c-3.066.289-5.452.275-7.157-.05-1.705-.324-2.666-1.204-2.87-2.635-.056-.387-.049-.874.021-1.458l1.712-.1a4.238 4.238 0 0 0-.014.713c.113.76.548 1.29 1.312 1.578.751.289 1.663.423 2.716.409 1.06-.021 2.442-.106 4.16-.261l5.256-.5 1.537 10.746Zm-10.71 16.486c.639.64 1.509.909 2.604.796 1.08-.113 1.845-.543 2.294-1.283.456-.747.617-1.818.498-3.199l-.337-3.847-6.54.676.338 3.848c.119 1.367.498 2.367 1.143 3.009m6.126 1.014c-.702 1.043-1.81 1.642-3.319 1.797-1.558.162-2.814-.232-3.76-1.184-.941-.951-1.503-2.41-1.685-4.369l-.582-5.947 14.686-1.515.203 1.987-5.136.529.386 4.355c.175 1.853-.091 3.304-.793 4.347m-.199 26.408-.126-3.213-6.56.26-.078-2 6.568-.254-.126-3.214-6.743-4.277-.092-2.396 7.81 5.025 6.96-5.18.085 2.17-6.315 4.588.126 3.213 6.483-.253.07 2-6.469.254.12 3.214 6.644 4.108.084 2.17-7.367-4.622-7.368 5.616-.09-2.389 6.384-4.82Zm5.448 12.404c-.891-.987-2.063-1.55-3.522-1.706l-.169 10.514c1.467-.113 2.66-.641 3.572-1.593.926-.951 1.403-2.156 1.424-3.6.021-1.424-.414-2.629-1.305-3.615Zm-5.206 10.668.196-12.402c-1.536.092-2.778.662-3.747 1.72-.961 1.05-1.452 2.395-1.48 4.03-.014.923.133 1.769.442 2.55a5.556 5.556 0 0 0 1.424 2.023l-1.312 1.107a6.424 6.424 0 0 1-1.761-2.495c-.393-.993-.583-2.079-.561-3.262.02-1.53.371-2.868 1.038-4.031a6.883 6.883 0 0 1 2.715-2.706c1.151-.641 2.456-.944 3.895-.923 1.438.021 2.73.36 3.859 1.008 1.13.648 2 1.529 2.624 2.635.618 1.106.912 2.347.891 3.72-.02 1.368-.358 2.6-1.017 3.679a6.736 6.736 0 0 1-2.695 2.516c-1.136.606-2.434.894-3.894.873l-.617-.042Zm-.988 18.068.217-3.375-6.553-.43.126-1.994 14.735.958-.133 2.001-6.47-.422-.217 3.403 6.132 5.623-.133 2.164-6.771-6.286-7.992 5.75.154-2.36 6.905-5.032Zm-6.12 21.03c.386.888.997 1.62 1.818 2.192.82.57 1.796.916 2.905 1.035 1.115.12 2.14-.007 3.045-.394.92-.38 1.67-.966 2.238-1.755.576-.789.92-1.698 1.025-2.727.112-1.043-.035-2.015-.421-2.896a5.288 5.288 0 0 0-1.818-2.177c-.813-.571-1.782-.916-2.89-1.036-1.116-.12-2.14.014-3.067.394-.926.38-1.67.966-2.231 1.748-.561.775-.905 1.691-1.017 2.734-.106 1.029.028 1.994.414 2.882m11.409 2.333a6.716 6.716 0 0 1-2.92 2.353c-1.2.507-2.525.69-3.978.536-1.466-.162-2.736-.62-3.803-1.374a6.76 6.76 0 0 1-2.357-2.904c-.513-1.183-.681-2.473-.54-3.875.133-1.191.497-2.248 1.094-3.157a6.16 6.16 0 0 1 2.407-2.135l-8.175-.881.218-1.987 20.089 2.163-.204 1.903-2.898-.31a6.205 6.205 0 0 1 1.979 2.607c.414 1.036.554 2.17.42 3.41-.14 1.374-.589 2.6-1.332 3.65m-13.767 14.07c.393.874 1.031 1.586 1.937 2.114l2.385.367.695-4.602c.372-2.508-.309-3.896-2.049-4.157-.85-.127-1.572.099-2.161.67-.59.577-.961 1.451-1.144 2.62-.161 1.114-.056 2.108.337 2.988m10.764 3.904c-1.102.881-2.59 1.177-4.463.895l-9.045-1.367.281-1.895 2.28.345c-.694-.564-1.185-1.304-1.48-2.234-.295-.93-.358-1.987-.183-3.17.246-1.643.828-2.883 1.748-3.728.926-.853 2.02-1.177 3.305-.987 1.234.183 2.168.79 2.785 1.804.632 1.015.8 2.509.498 4.482l-.694 4.65.884.134c1.263.19 2.266-.02 3.038-.627.758-.606 1.242-1.585 1.445-2.938.134-.93.12-1.847-.056-2.749a6.796 6.796 0 0 0-.933-2.388l1.607-.677c.512.839.87 1.804 1.052 2.896.183 1.093.19 2.213.022 3.369-.288 1.91-.983 3.311-2.091 4.185m-14.04 7.258a6.902 6.902 0 0 1 3.137-2.17c1.256-.43 2.582-.508 4.006-.24 1.418.267 2.625.831 3.621 1.69a7.031 7.031 0 0 1 2.112 3.179c.414 1.254.477 2.6.204 4.038-.232 1.26-.688 2.332-1.362 3.22a5.793 5.793 0 0 1-2.582 1.945l-.715-1.67a4.614 4.614 0 0 0 1.957-1.515c.505-.67.835-1.438.997-2.305.196-1.05.147-2.043-.162-2.973a5.067 5.067 0 0 0-1.635-2.347c-.772-.634-1.712-1.057-2.813-1.268-1.123-.212-2.155-.17-3.102.14a5.022 5.022 0 0 0-2.35 1.586c-.632.747-1.046 1.65-1.242 2.706a5.488 5.488 0 0 0 .07 2.509c.203.803.624 1.515 1.249 2.135l-1.27 1.282a5.657 5.657 0 0 1-1.691-2.769c-.302-1.092-.33-2.255-.098-3.488.273-1.445.827-2.67 1.67-3.685m10.963 16.574-.449 1.945-11.43-2.678 9.178 12.317-.393 1.734-14.378-3.382.45-1.945 11.423 2.684-9.185-12.289.407-1.761 14.377 3.375Zm-11.566 19.653-1.2 4.284c-.309 1.114-.337 2.015-.084 2.72.252.705.772 1.163 1.564 1.388.793.226 1.467.099 2.028-.373.562-.486.997-1.276 1.305-2.375l1.2-4.291-4.813-1.353Zm-7.824 5.68c.225.718.758 1.204 1.607 1.444s1.55.127 2.112-.31c.561-.451 1.017-1.283 1.347-2.495l1.326-4.72-4.946-1.396-1.27 4.538c-.344 1.226-.393 2.206-.176 2.938Zm.968 3.311c-1.242-.345-2.062-1.078-2.476-2.191-.414-1.107-.358-2.572.147-4.404l1.81-6.49 14.223 4.002-1.754 6.3c-.463 1.62-1.137 2.811-2.02 3.558-.885.74-1.916.952-3.088.628-.772-.226-1.376-.62-1.81-1.198-.429-.578-.674-1.29-.73-2.128-.997 1.81-2.428 2.452-4.302 1.923Zm-5.8 12.63c.322.846 1.01 1.445 2.056 1.797 1.024.346 1.901.268 2.617-.225.716-.5 1.305-1.402 1.754-2.713l1.228-3.544-6.238-2.072-1.228 3.537c-.442 1.297-.512 2.368-.19 3.22Zm5.178 3.432c-1.066.67-2.322.768-3.76.29-1.495-.494-2.47-1.375-2.94-2.643-.471-1.262-.387-2.819.238-4.672l1.866-5.553 14.012 4.665-.631 1.903-4.898-1.635-1.375 3.995c-.603 1.762-1.438 2.98-2.512 3.65Zm4.898 5.786-.632 1.895-14.012-4.665.624-1.895 14.02 4.665Zm-5.656 15.439-.751 1.853-10.862-4.46 7.129 13.613-.66 1.65-13.675-5.61.758-1.853 10.861 4.453-7.15-13.585.688-1.67 13.662 5.609ZM728.883 750.629l10.153 10.76-1.453 1.375-10.153-10.76 1.453-1.375Zm10.433-9.921 10.154 10.753-1.446 1.374-3.557-3.763-3.095 2.868c-1.354 1.269-2.659 1.945-3.922 2.03-1.263.084-2.414-.423-3.452-1.523-1.088-1.155-1.537-2.388-1.354-3.734.182-1.332.989-2.67 2.413-3.996l4.26-4.01Zm-.385 2.494-2.751 2.537c-1.003.93-1.565 1.846-1.684 2.748-.12.902.203 1.755.968 2.558.744.796 1.544 1.135 2.407 1.043.863-.099 1.803-.613 2.828-1.557l2.743-2.537-4.511-4.792Zm13.61-16.219 10.666 10.253-1.375 1.445-4.73-4.538-6.42 6.736 4.722 4.538-1.382 1.445-10.658-10.253 1.375-1.445 4.701 4.524 6.427-6.736-4.7-4.524 1.375-1.445Zm13.462-9.888c1.298.275 2.484.888 3.565 1.846 1.08.951 1.838 2.065 2.259 3.312a7.021 7.021 0 0 1 .203 3.805c-.287 1.297-.912 2.487-1.873 3.587-.835.958-1.775 1.656-2.814 2.071a5.589 5.589 0 0 1-3.2.346l.232-1.79c.87.12 1.684.014 2.45-.31a5.43 5.43 0 0 0 2.027-1.473c.709-.803 1.158-1.684 1.368-2.642a5.07 5.07 0 0 0-.21-2.847c-.344-.952-.94-1.79-1.783-2.544-.856-.754-1.768-1.24-2.73-1.466a5.13 5.13 0 0 0-2.84.162 5.86 5.86 0 0 0-2.436 1.691c-.575.663-.989 1.396-1.214 2.199-.224.796-.224 1.62-.007 2.473l-1.74.451a5.727 5.727 0 0 1-.056-3.241c.302-1.092.863-2.107 1.691-3.051.968-1.1 2.07-1.875 3.305-2.319a6.985 6.985 0 0 1 3.803-.26Zm9.468-17.093 11.466 9.337-1.256 1.557-9.115-7.42 2.919 15.108-1.116 1.374-11.465-9.33 1.249-1.557 9.115 7.42-2.926-15.087 1.13-1.402Zm11.365-15.254 11.879 8.801-7.866 10.711-11.879-8.808 1.186-1.614 10.455 7.758 5.5-7.483-10.454-7.751 1.179-1.614Zm13.327-13.37c1.305.092 2.56.543 3.76 1.353 1.193.804 2.084 1.804 2.667 2.988a6.986 6.986 0 0 1 .702 3.742c-.106 1.304-.555 2.55-1.348 3.735-.793 1.183-1.775 2.078-2.94 2.67a6.82 6.82 0 0 1-3.705.74c-1.312-.098-2.554-.556-3.753-1.36-1.193-.81-2.091-1.804-2.674-2.98a7.093 7.093 0 0 1-.737-3.735c.106-1.318.555-2.558 1.348-3.742.793-1.19 1.782-2.079 2.954-2.664a7.016 7.016 0 0 1 3.726-.746Zm-3.046 2.446c-.863.43-1.578 1.078-2.168 1.952-.582.866-.912 1.79-.982 2.748-.07.965.14 1.888.603 2.77.463.887 1.172 1.634 2.105 2.268.933.627 1.888.987 2.884 1.092a4.975 4.975 0 0 0 2.772-.479c.856-.43 1.585-1.085 2.168-1.959.582-.867.912-1.783.982-2.741a5.247 5.247 0 0 0-.59-2.783c-.47-.888-1.164-1.65-2.097-2.276-.933-.635-1.895-.994-2.891-1.086-.996-.098-1.93.064-2.786.494Zm8.914-18.596 12.58 7.758-3.403 5.574c-.884 1.437-1.852 2.396-2.911 2.868-1.053.472-2.105.387-3.137-.254-.688-.423-1.158-.972-1.41-1.642-.267-.676-.302-1.43-.134-2.248-1.445 1.466-2.996 1.685-4.652.67-1.101-.684-1.698-1.614-1.789-2.79-.091-1.184.358-2.58 1.34-4.193l3.516-5.743Zm5.97 5.961-2.315 3.798c-.603.98-.877 1.84-.828 2.58.056.753.421 1.338 1.13 1.768.702.437 1.382.5 2.056.197.667-.303 1.298-.944 1.894-1.923l2.316-3.791-4.252-2.629Zm-5.648-3.48-2.448 4.009c-.667 1.092-.99 2.015-.969 2.783.014.754.4 1.367 1.151 1.825.75.465 1.452.564 2.119.289.66-.282 1.32-.951 1.972-2.03l2.554-4.171-4.379-2.706Zm9.239-19.466 12.903 7.195-.968 1.747-10.251-5.714 5.473 14.368-.856 1.55-12.911-7.202.968-1.747 10.252 5.715-5.48-14.34.87-1.572Zm11.43-22.938 4.49 8.152 8.575-1.233-.947 1.952-7.733 1.022-1.403 2.882 5.817 2.875-.877 1.79-5.824-2.868-1.41 2.882 3.9 6.793-.947 1.952-4.3-7.59-9.137 1.431 1.046-2.15 7.9-1.19 1.411-2.882-5.894-2.91.877-1.797 5.894 2.91 1.41-2.89-3.894-6.975 1.046-2.156ZM723.71 758.61c-.407-.028-.744-.205-1.032-.529a3.872 3.872 0 0 1-.414-.613 7.748 7.748 0 0 1-.372-.874l-1.684-3.7 1.01-.887 1.98 3.685c.287-.126.582-.162.89-.098.31.07.583.232.814.507.288.317.414.684.407 1.092-.02.402-.189.747-.519 1.03-.323.288-.673.422-1.08.387m-36.836 26.15 8.385 12.197-1.635 1.135-3.69-5.349-2.793 1.931-.59 8.322-1.782 1.233.716-9.23-9.445-2.735 1.937-1.346 8.216 2.326 2.772-1.917-3.733-5.433 1.642-1.134Zm13.67-8.842c1.255.05 2.259.592 3.03 1.628.758 1.008.997 2.093.73 3.256-.266 1.162-1.193 2.339-2.778 3.537l-3.754 2.826.54.718c.758 1.022 1.628 1.586 2.596 1.692.961.105 1.993-.254 3.087-1.071a8.164 8.164 0 0 0 1.881-1.995c.505-.768.842-1.557 1.01-2.36l1.614.655c-.224.958-.645 1.896-1.277 2.805a10.568 10.568 0 0 1-2.343 2.41c-1.544 1.162-3.018 1.663-4.414 1.507-1.403-.162-2.673-.993-3.803-2.515l-5.48-7.357 1.53-1.148 1.375 1.853c-.105-.888.07-1.769.505-2.636.442-.866 1.137-1.663 2.098-2.388 1.32-.994 2.603-1.459 3.852-1.417Zm-.506 1.811c-.828 0-1.712.346-2.652 1.057-.898.677-1.516 1.459-1.853 2.36-.336.896-.372 1.861-.105 2.876l1.446 1.945 3.718-2.79c2.021-1.523 2.498-2.988 1.453-4.405-.52-.69-1.186-1.036-2.007-1.043Zm12.592-12.85 9.29 11.528-1.55 1.254-4.077-5.06-2.638 2.143.042 8.343-1.677 1.367.014-9.252-9.627-2.002 1.831-1.486 8.364 1.684 2.617-2.135-4.14-5.123 1.551-1.262Zm-93.313 59.027 5.402 11.874 5.08-2.333.737 1.614-11.977 5.496-.73-1.613 5.08-2.333-5.403-11.873 1.81-.832Zm14.964-6.343a6.852 6.852 0 0 1 3.62 1.198c1.102.733 1.972 1.754 2.618 3.051.638 1.29.926 2.6.849 3.918a7 7 0 0 1-1.235 3.615c-.737 1.085-1.768 1.952-3.073 2.614-1.144.57-2.267.853-3.382.86a5.659 5.659 0 0 1-3.095-.895l.884-1.571c.758.436 1.551.648 2.386.64a5.36 5.36 0 0 0 2.428-.605c.954-.472 1.705-1.12 2.252-1.931a4.936 4.936 0 0 0 .877-2.72c.028-1-.203-2.008-.701-3.023-.506-1.022-1.172-1.818-1.986-2.382a5.055 5.055 0 0 0-2.688-.923c-.975-.05-1.943.162-2.89.648a5.434 5.434 0 0 0-1.951 1.572 4.515 4.515 0 0 0-.926 2.29l-1.783-.24a5.573 5.573 0 0 1 1.165-3.023c.674-.894 1.579-1.627 2.702-2.191 1.305-.655 2.617-.958 3.929-.902Zm16.476-8.576c1.228.219 2.154.902 2.772 2.037.603 1.106.694 2.212.266 3.326-.42 1.113-1.515 2.156-3.249 3.107l-4.111 2.27.435.781c.61 1.12 1.382 1.804 2.33 2.044.947.24 2.013.035 3.213-.627a7.763 7.763 0 0 0 2.14-1.705c.596-.691 1.045-1.417 1.326-2.199l1.502.88c-.351.917-.898 1.784-1.65 2.601a10.805 10.805 0 0 1-2.652 2.058c-1.698.923-3.22 1.212-4.588.866-1.369-.352-2.505-1.367-3.41-3.03l-4.4-8.054 1.67-.916 1.109 2.022c.02-.895.315-1.733.87-2.536.561-.804 1.36-1.494 2.413-2.072 1.439-.79 2.786-1.078 4.014-.853Zm-3.53 2.39c-.982.542-1.712 1.232-2.168 2.078-.449.838-.624 1.783-.498 2.825l1.158 2.129 4.063-2.234c2.21-1.22 2.898-2.6 2.056-4.15-.414-.762-1.032-1.199-1.846-1.325-.807-.113-1.733.105-2.764.676Zm19.595-13.18 7.64 12.691-1.704 1.03-3.39-5.61-7.942 4.82 3.375 5.623-1.698 1.036-7.641-12.69 1.705-1.037 3.368 5.595 7.95-4.82-3.368-5.602 1.705-1.035Zm-63.787 35.386a4.938 4.938 0 0 0-1.024 2.636c-.092 1 .07 2.015.505 3.058.428 1.043 1.024 1.874 1.796 2.516.772.634 1.628 1.014 2.582 1.134.954.127 1.909-.02 2.877-.416.975-.408 1.747-.993 2.337-1.747a5.132 5.132 0 0 0 1.031-2.65c.105-1-.056-2.022-.491-3.058-.428-1.043-1.032-1.881-1.81-2.508-.78-.635-1.642-1.015-2.597-1.142-.954-.113-1.908.021-2.877.43-.968.402-1.747.986-2.33 1.747m5.58-3.967a7.014 7.014 0 0 1 3.515 1.445c1.038.81 1.838 1.874 2.392 3.213.548 1.339.737 2.664.576 3.974a7.104 7.104 0 0 1-1.467 3.51c-.814 1.028-1.88 1.817-3.185 2.36-1.32.55-2.618.754-3.923.599a6.808 6.808 0 0 1-3.494-1.445c-1.032-.81-1.831-1.888-2.379-3.22-.554-1.332-.75-2.656-.596-3.967a7.125 7.125 0 0 1 1.452-3.516c.807-1.036 1.867-1.825 3.179-2.375 1.319-.55 2.624-.747 3.93-.578m-16.988 12.734-4.19 1.55 2.288 6.237 4.056-1.494c2.701-1 3.67-2.551 2.905-4.651-.758-2.065-2.442-2.607-5.06-1.642Zm-3.003 10.09-5.094-13.916 1.712-.634 1.684 4.608 4.343-1.607.526-.19 1.53-5.8 2.028-.746-1.67 6.145c1.186-.1 2.189.112 3.045.62.842.507 1.466 1.31 1.873 2.43.569 1.544.478 2.925-.28 4.13-.758 1.19-2.05 2.135-3.88 2.812l-5.817 2.149Zm-35.612-4.392 3.6 14.375-1.93.486-2.862-11.422-6.694 13.84-1.712.436-3.607-14.382 1.937-.493 2.862 11.43 6.666-13.833 1.74-.437Zm25.051-7.534 4.372 14.156-1.902.592-3.859-12.493-6.911 2.156 3.859 12.494-1.909.591-3.859-12.486-6.827 2.128 3.852 12.486-1.901.592-3.858-12.491 2.005-.622-.512-1.668 17.45-5.435Zm-20.79 3.08.954 3.1.379-.12.514 1.665-2.17.674-1.473-4.763 1.796-.557ZM534.452 864.7c.765-1.085 1.06-2.36.898-3.826l-10.258 2.12c.428 1.41 1.2 2.46 2.322 3.158 1.13.697 2.4.902 3.81.613 1.39-.29 2.47-.98 3.228-2.065Zm-11.5-2.79 12.096-2.495c-.42-1.487-1.249-2.586-2.484-3.305-1.228-.711-2.645-.909-4.238-.577-.898.19-1.69.514-2.378.993a5.385 5.385 0 0 0-1.656 1.832l-1.369-1.05a6.369 6.369 0 0 1 2.05-2.262c.876-.606 1.894-1.028 3.052-1.261 1.487-.31 2.862-.26 4.14.14a6.95 6.95 0 0 1 3.22 2.087c.87.98 1.453 2.184 1.74 3.6.288 1.417.246 2.756-.14 4.01-.386 1.24-1.053 2.297-1.993 3.143-.947.845-2.09 1.402-3.424 1.684-1.34.275-2.603.211-3.796-.197a6.793 6.793 0 0 1-3.038-2.093c-.828-.994-1.39-2.199-1.684-3.643l-.099-.606Zm-28.25-.692-.765-5.42 1.86-.26.518 3.686 13.367-1.91 2.077 14.678-1.979.282-1.824-12.952-8.925 1.276 1.838 12.951-1.971.282-1.839-12.951-2.357.338Zm-5.194 7.046-4.414.437c-1.136.113-1.985.416-2.547.902-.561.493-.807 1.156-.723 1.973.085.825.443 1.41 1.088 1.762.646.352 1.537.472 2.673.36l4.407-.438-.484-4.996Zm-8.098-5.256c-.596.472-.849 1.148-.764 2.029.09.88.442 1.5 1.06 1.867.617.36 1.55.48 2.799.353l4.855-.48-.505-5.13-4.666.459c-1.256.134-2.19.43-2.779.902Zm-2.729 2.114c-.126-1.297.253-2.333 1.137-3.122.877-.782 2.26-1.268 4.14-1.459l6.672-.655 1.446 14.756-6.477.64c-1.677.17-3.024-.034-4.034-.591-1.018-.564-1.579-1.452-1.705-2.67-.077-.804.077-1.516.456-2.129.386-.606.954-1.092 1.712-1.451-2.042-.275-3.158-1.382-3.347-3.32Zm-6.822 8.297c.913-.965 1.39-2.185 1.439-3.657l-10.455.599c.217 1.458.828 2.621 1.845 3.474 1.01.852 2.239 1.233 3.677 1.155 1.417-.077 2.582-.599 3.494-1.571Zm-10.974-4.44 12.329-.697c-.197-1.536-.863-2.748-1.98-3.629-1.122-.888-2.49-1.29-4.118-1.19-.912.048-1.74.26-2.49.633a5.517 5.517 0 0 0-1.91 1.558l-1.192-1.22c.61-.831 1.396-1.472 2.35-1.951.955-.465 2.021-.733 3.2-.797 1.516-.091 2.877.155 4.077.733a7.002 7.002 0 0 1 2.884 2.537c.722 1.106 1.122 2.382 1.2 3.826.084 1.445-.155 2.755-.716 3.932a6.832 6.832 0 0 1-2.428 2.826c-1.053.698-2.266 1.092-3.628 1.17-1.368.077-2.603-.176-3.726-.754-1.122-.571-2.02-1.41-2.701-2.509-.68-1.1-1.067-2.382-1.144-3.84l-.007-.627Zm-14.317 6.607 5.586-.133-.295-13.044 1.993-.042.294 13.05 5.579-.134.042 1.776-13.157.303-.042-1.776Zm-12.282-10.851c-.716.556-1.081 1.388-1.102 2.494-.021 1.092.316 1.91.996 2.445.681.543 1.712.832 3.095.881l3.733.127.126-6.596-3.733-.126c-1.361-.043-2.4.211-3.115.775Zm-1.727 5.982c-.96-.831-1.424-2.001-1.396-3.516.035-1.585.583-2.783 1.642-3.608 1.06-.824 2.568-1.212 4.512-1.155l5.838.133-.281 14.826-1.993-.035.099-5.186-4.21-.141c-1.853-.056-3.256-.493-4.21-1.318Zm-4.055 6.406-1.986-.036.28-14.826 1.986.036-.28 14.826Zm-6.543-14.838c.274.317.4.697.38 1.12-.022.437-.19.79-.492 1.064-.309.282-.66.402-1.073.38a1.472 1.472 0 0 1-1.046-.493 1.46 1.46 0 0 1-.393-1.099c.021-.437.197-.796.505-1.085.316-.282.681-.409 1.095-.388.407.021.75.19 1.024.5m-28.076.145a7.652 7.652 0 0 0-3.235 2.6c-.842 1.17-1.34 2.523-1.501 4.052-.162 1.536.049 2.96.624 4.277a7.64 7.64 0 0 0 2.624 3.228c1.172.831 2.526 1.324 4.077 1.494 1.544.162 2.975-.036 4.308-.606a7.646 7.646 0 0 0 3.27-2.6c.842-1.163 1.347-2.523 1.509-4.052.161-1.53-.05-2.96-.639-4.278a7.652 7.652 0 0 0-2.652-3.227c-1.179-.832-2.54-1.332-4.091-1.494-1.544-.162-2.975.035-4.294.606m9.613-.599c1.487 1.036 2.589 2.36 3.312 3.967.722 1.607.989 3.355.792 5.243-.203 1.881-.82 3.544-1.866 4.96-1.038 1.417-2.393 2.481-4.063 3.186-1.656.705-3.459.951-5.395.74-1.937-.205-3.635-.818-5.102-1.84a9.655 9.655 0 0 1-3.29-3.967c-.73-1.613-1.004-3.368-.8-5.256.196-1.882.82-3.545 1.873-4.975a9.566 9.566 0 0 1 4.049-3.178c1.642-.698 3.43-.945 5.368-.74 1.936.211 3.641.831 5.122 1.86m-22.146 11.19-1.965-.31 1.01-6.49-9.17-1.445-1.018 6.483-1.972-.31 2.295-14.643 1.964.31-1.01 6.462 9.178 1.444 1.01-6.454 1.972.31-2.294 14.642Zm-19.358-3.2-1.95-.402 2.343-11.542-11.999 9.562-1.733-.353 2.961-14.523 1.944.395-2.344 11.542 11.97-9.562 1.762.352-2.954 14.53Zm-27.289-6.077-1.922-.521 1.719-6.342-8.968-2.438-1.719 6.328-1.922-.522 3.88-14.304 1.916.521-1.706 6.307 8.968 2.452 1.705-6.307 1.922.522-3.873 14.304Zm-20.101-8.835c1.193-.571 2.077-1.537 2.638-2.89l-9.964-3.199c-.322 1.438-.161 2.734.477 3.897.646 1.163 1.65 1.966 3.025 2.403 1.354.437 2.63.366 3.824-.211Zm-8.666-8.083 11.76 3.77c.358-1.508.176-2.875-.554-4.101s-1.867-2.093-3.417-2.593a6.334 6.334 0 0 0-2.554-.296 5.403 5.403 0 0 0-2.344.775l-.674-1.586a6.21 6.21 0 0 1 2.884-.958c1.067-.099 2.154.028 3.277.395 1.446.465 2.624 1.176 3.544 2.156a6.968 6.968 0 0 1 1.789 3.396c.28 1.297.203 2.629-.239 4.01-.435 1.374-1.13 2.516-2.07 3.418a6.797 6.797 0 0 1-3.277 1.761c-1.234.275-2.504.197-3.803-.211-1.305-.423-2.371-1.1-3.213-2.037a6.813 6.813 0 0 1-1.628-3.319c-.246-1.275-.14-2.607.302-4.002l.217-.578Zm-19.802 1.352 5.101-13.917 1.867.69-4.484 12.248 8.687 3.213 4.49-12.247 1.867.69-5.094 13.91-12.434-4.587Zm-5.864-18.553c1.312.55 2.371 1.353 3.171 2.39a7.03 7.03 0 0 1 1.453 3.53c.161 1.303-.035 2.628-.59 3.96-.561 1.339-1.354 2.41-2.4 3.213a6.958 6.958 0 0 1-3.522 1.423c-1.29.148-2.596-.056-3.908-.606-1.312-.55-2.372-1.346-3.179-2.374a6.94 6.94 0 0 1-1.445-3.51c-.154-1.31.049-2.628.603-3.967.562-1.332 1.355-2.41 2.393-3.213a7.014 7.014 0 0 1 3.508-1.445c1.299-.148 2.604.05 3.916.6Zm-3.558 1.205a4.984 4.984 0 0 0-2.589 1.128c-.772.634-1.368 1.472-1.803 2.515-.435 1.036-.604 2.058-.512 3.052a4.944 4.944 0 0 0 1.01 2.635c.582.775 1.361 1.36 2.323 1.762.968.408 1.93.55 2.883.437a5.175 5.175 0 0 0 2.597-1.128c.778-.627 1.382-1.459 1.817-2.501.435-1.043.603-2.065.505-3.059-.098-1-.442-1.888-1.031-2.65-.583-.767-1.355-1.352-2.323-1.754-.968-.409-1.922-.556-2.877-.437Zm-18.854-15.164 1.698.803-1.516 3.242 11.964 5.651 1.515-3.234 1.698.803-2.26 4.82-.757-.36c-.92-.373-1.845 0-2.765 1.121-.912 1.12-1.971 2.805-3.164 5.045l-2.28 4.404-9.859-4.65 5.543-11.839-2.077-.986 2.26-4.82Zm1.628 6.66-4.8 10.224 6.427 3.037 1.551-2.91c.975-1.868 1.874-3.362 2.688-4.482.813-1.12 1.634-1.762 2.462-1.93l-8.328-3.94Zm-12.602-8.363 5.943 3.129-6.848 13.134-5.768-3.03c-1.487-.782-2.505-1.69-3.052-2.72-.54-1.028-.526-2.078.035-3.164.372-.711.884-1.226 1.537-1.529.66-.303 1.396-.394 2.224-.282-1.558-1.345-1.887-2.889-.982-4.615.596-1.149 1.48-1.811 2.645-1.98 1.172-.176 2.59.176 4.266 1.057Zm-6.125 6.807c-.737.099-1.298.514-1.684 1.247-.38.733-.393 1.424-.05 2.072.351.655 1.025 1.247 2.042 1.776l3.93 2.064 2.315-4.446-3.93-2.065c-1.01-.528-1.887-.754-2.623-.648Zm2.645-6.152c-.75.078-1.333.493-1.747 1.283-.4.782-.442 1.5-.126 2.135.315.648 1.031 1.261 2.14 1.846l4.329 2.276 2.379-4.573-4.154-2.185c-1.123-.592-2.063-.852-2.821-.782Zm-17.562-12.484 1.733 1.008-5.887 10.19 14.377-5.243 1.558.902-7.41 12.825-1.726-1.008 5.887-10.19-14.405 5.23-1.53-.896 7.403-12.818Zm-21.597-13.857 2 1.304.238 8.019 2.68 1.748 3.58-5.532 1.67 1.092-3.572 5.532 2.68 1.747 7.368-3.058 2 1.304-8.596 3.502.204 8.702-1.818-1.176-.091-7.836-2.68-1.748-3.537 5.468-1.67-1.092 3.537-5.46-2.688-1.756-7.178 3.087-1.817-1.184 8.013-3.382-.323-9.28Zm-13.341-9.721 1.62 1.17-3.817 5.299 7.53 5.468 3.816-5.306 1.614 1.176-8.644 12.015-1.614-1.17 3.824-5.327-7.529-5.461-3.831 5.327-1.614-1.17 8.645-12.021Zm-12.93-9.083c1.292.212 2.499.754 3.614 1.642 1.116.881 1.923 1.938 2.414 3.157.498 1.22.645 2.48.449 3.784-.19 1.31-.737 2.53-1.635 3.672-.891 1.134-1.95 1.944-3.171 2.43a6.9 6.9 0 0 1-3.768.423c-1.284-.204-2.491-.76-3.607-1.649-1.116-.887-1.923-1.93-2.42-3.142a6.923 6.923 0 0 1-.45-3.77c.204-1.304.751-2.516 1.642-3.657.898-1.135 1.95-1.952 3.165-2.446a6.96 6.96 0 0 1 3.768-.444Zm-2.932 2.227c-.913.395-1.72 1.036-2.414 1.924-.695.88-1.13 1.818-1.312 2.804a4.997 4.997 0 0 0 .266 2.82c.358.894.948 1.662 1.769 2.317.82.656 1.705 1.05 2.652 1.198.954.141 1.887.014 2.807-.38.919-.395 1.726-1.036 2.42-1.917.702-.888 1.137-1.825 1.305-2.818.176-.987.085-1.931-.28-2.826-.351-.895-.94-1.663-1.768-2.318-.814-.656-1.705-1.05-2.653-1.191a4.868 4.868 0 0 0-2.792.387Zm-18.433-21.765 1.762 1.565-.302 8.568 2.512 2.248 4.371-4.925 1.488 1.339-9.824 11.063-1.487-1.332 4.315-4.862-2.54-2.27-8.188 1.396-1.607-1.445 9.093-1.486.407-9.859Zm-10.963-9.516c1.235.324 2.35.98 3.36 1.966.864.831 1.467 1.769 1.811 2.797.351 1.036.407 2.107.19 3.228l5.725-5.933 1.432 1.395-14.069 14.572-1.368-1.332 2.035-2.107a6.06 6.06 0 0 1-3.27-.035c-1.074-.31-2.049-.895-2.933-1.761-.996-.966-1.677-2.065-2.049-3.305a6.83 6.83 0 0 1-.049-3.756c.337-1.269 1.017-2.431 2.035-3.481 1.024-1.071 2.168-1.79 3.417-2.17a6.794 6.794 0 0 1 3.733-.078Zm-3.116 1.98c-.96.296-1.824.853-2.603 1.663-.786.803-1.305 1.691-1.572 2.657-.26.958-.26 1.902.007 2.846a5.509 5.509 0 0 0 1.51 2.488c.75.733 1.592 1.219 2.532 1.444.933.233 1.88.198 2.82-.091.955-.296 1.818-.846 2.604-1.656.779-.81 1.305-1.698 1.572-2.664.266-.972.273-1.923.007-2.84-.267-.93-.78-1.754-1.53-2.494-.737-.712-1.579-1.198-2.512-1.445a5.048 5.048 0 0 0-2.835.092Zm-9.65-16.39 1.312 1.395-1.67 1.585c.87-.204 1.755-.134 2.667.205.912.338 1.775.944 2.603 1.818 1.13 1.19 1.747 2.417 1.845 3.671.099 1.254-.322 2.325-1.256 3.213-.912.867-1.957 1.24-3.136 1.107-1.179-.134-2.456-.924-3.817-2.368l-3.228-3.418-.652.62c-.92.881-1.383 1.811-1.376 2.784.007.98.485 1.966 1.425 2.96a8.002 8.002 0 0 0 2.189 1.648c.814.409 1.635.663 2.449.733l-.456 1.684c-.976-.105-1.958-.423-2.926-.944a10.682 10.682 0 0 1-2.653-2.058c-1.326-1.402-1.992-2.818-2.006-4.235-.007-1.416.673-2.769 2.049-4.08l6.637-6.32Zm-1.845 4.517-1.754 1.67 3.185 3.368c1.74 1.846 3.25 2.163 4.52.944.63-.592.897-1.304.806-2.12-.091-.818-.54-1.664-1.354-2.517-.772-.824-1.621-1.353-2.547-1.578-.926-.233-1.88-.148-2.856.233Zm-8.525-15.32c1.038.438 1.971 1.121 2.8 2.066.968 1.106 1.585 2.297 1.866 3.593.287 1.29.203 2.558-.225 3.82-.435 1.254-1.193 2.36-2.273 3.319-1.08.95-2.267 1.557-3.558 1.818a6.808 6.808 0 0 1-3.789-.275c-1.242-.444-2.343-1.22-3.305-2.326-.842-.95-1.403-1.98-1.69-3.058a5.763 5.763 0 0 1 .07-3.234l1.74.45c-.225.853-.232 1.685-.007 2.488.217.81.617 1.543 1.2 2.206.701.81 1.508 1.374 2.434 1.691.92.331 1.867.38 2.842.162.975-.218 1.88-.712 2.73-1.452.856-.76 1.46-1.606 1.796-2.536a5.126 5.126 0 0 0 .203-2.847c-.203-.959-.66-1.84-1.36-2.643-.583-.662-1.25-1.162-2.015-1.494-.757-.33-1.571-.43-2.441-.317l-.225-1.79a5.625 5.625 0 0 1 3.207.36Zm-12.156-15.81 1.249 1.563-9.129 7.392 15.304.275 1.122 1.41-11.486 9.308-1.249-1.557 9.129-7.4-15.318-.295-1.108-1.381 11.486-9.316Zm-10.843-12.81c1.13.36 2.252 1.303 3.368 2.832l3.986 5.412-11.873 8.809-3.866-5.257c-1.003-1.36-1.523-2.622-1.565-3.784-.035-1.163.428-2.107 1.41-2.826.646-.486 1.334-.719 2.05-.705.722.014 1.424.254 2.119.726-.814-1.895-.435-3.424 1.13-4.587 1.038-.768 2.118-.973 3.241-.62Zm-7.157 6.645c-.66.486-.975 1.099-.947 1.839.028.74.386 1.564 1.066 2.487l2.632 3.587 4.02-2.988-2.631-3.58c-.68-.923-1.375-1.5-2.084-1.733-.709-.232-1.39-.113-2.056.388Zm4.989-4.37c-.702.53-1.06 1.15-1.053 1.868.007.719.386 1.586 1.13 2.593l2.905 3.946 4.126-3.065-2.786-3.784c-.75-1.022-1.487-1.677-2.196-1.945-.709-.268-1.417-.14-2.126.388Zm-7.373-15.914c1.284.409 2.456 1.43 3.522 3.065l3.228 4.884-12.272 8.244-1.11-1.663 4.295-2.882-2.294-3.544c-1.018-1.558-1.46-2.967-1.333-4.228.126-1.262.82-2.319 2.076-3.164 1.313-.874 2.61-1.107 3.888-.712Zm-2.758 2.403c-.905.606-1.382 1.346-1.431 2.213-.05.873.301 1.888 1.06 3.05l2.027 3.158 5.46-3.672-2.029-3.15c-.744-1.148-1.55-1.86-2.414-2.128-.87-.26-1.754-.091-2.673.529Zm.407-8.11 1.109 1.662-12.272 8.245-1.11-1.663 12.273-8.245Zm-19.78-3.973-.996-1.733 10.167-5.884-15.08-2.692-.883-1.543 12.791-7.392.997 1.733-10.168 5.884 15.065 2.664.898 1.564-12.791 7.4Zm-20.835-39.444 13.262-6.518.8 1.649-10.49 5.151 11.5 1.036.4.81-6.273 9.76 10.511-5.165.8 1.641-13.254 6.519-.892-1.818 6.8-10.338-12.35-1.057-.814-1.67Zm5.188-19.151a5 5 0 0 0-2.639-.994c-.996-.07-2.006.106-3.038.557-1.031.444-1.86 1.057-2.484 1.832-.617.79-.982 1.656-1.094 2.607-.106.966.049 1.924.463 2.897.414.958 1.003 1.733 1.775 2.31a4.986 4.986 0 0 0 2.638 1.001c1.004.092 2.014-.084 3.046-.528 1.031-.444 1.859-1.064 2.476-1.86.618-.79.983-1.663 1.088-2.622.105-.951-.042-1.916-.463-2.882-.414-.965-1.003-1.74-1.768-2.318m4.027 5.546a7.065 7.065 0 0 1-1.396 3.551c-.786 1.057-1.838 1.874-3.165 2.445-1.326.578-2.638.782-3.943.641a6.879 6.879 0 0 1-3.515-1.437c-1.039-.796-1.839-1.846-2.4-3.164-.568-1.304-.779-2.614-.646-3.918a6.874 6.874 0 0 1 1.39-3.53c.786-1.057 1.845-1.868 3.171-2.438 1.326-.571 2.639-.79 3.937-.649a7.03 7.03 0 0 1 3.522 1.403c1.046.803 1.853 1.853 2.414 3.164.561 1.31.772 2.628.631 3.932m-21.23-19.997 3.052 7.913 12.118-4.714.716 1.867-13.767 5.356-3.768-9.781 1.649-.641Zm-6.928-14.492 18.04 1.55c1.502.106 2.66.437 3.467.994.806.55 1.389 1.352 1.754 2.402.231.677.344 1.346.336 1.995a4.459 4.459 0 0 1-.428 1.853l-1.712-.388c.463-.951.52-1.93.176-2.924-.225-.641-.583-1.12-1.095-1.452-.512-.33-1.256-.542-2.245-.634l-1.565-.14-11.746 11.119-.68-1.966 10.02-9.414-13.676-1.128-.646-1.867Zm-2.528-14.245 1.65 5.362L39.596 563l.59 1.903-12.413 3.854 1.648 5.363-1.69.521-3.888-12.627 1.691-.529Zm-7.928-23.404 14.328-3.565.477 1.944-12.616 3.136 2.232 9.027 12.616-3.136.477 1.938-14.328 3.573-3.186-12.917Zm8.757-18.861c-.632-.733-1.432-1.248-2.386-1.55-.954-.297-1.986-.332-3.08-.113-1.102.218-2.035.655-2.793 1.296a5.188 5.188 0 0 0-1.607 2.347c-.315.923-.364 1.895-.168 2.91.203 1.029.631 1.91 1.27 2.628a5.1 5.1 0 0 0 2.379 1.536c.947.296 1.971.339 3.073.12 1.102-.218 2.035-.648 2.807-1.296.764-.649 1.305-1.417 1.606-2.333.31-.916.358-1.888.148-2.917-.204-1.015-.618-1.896-1.25-2.628m-11.577 1.204a6.794 6.794 0 0 1 2.077-3.121c.997-.853 2.21-1.424 3.642-1.705 1.452-.296 2.793-.233 4.042.162a6.777 6.777 0 0 1 3.115 2.064c.835.973 1.382 2.15 1.656 3.538.238 1.176.21 2.29-.091 3.333a6.043 6.043 0 0 1-1.67 2.762l8.069-1.614.386 1.96-19.815 3.974-.372-1.875 2.863-.57a6.126 6.126 0 0 1-2.667-1.903c-.708-.86-1.186-1.896-1.424-3.115-.274-1.367-.21-2.663.19-3.89m.23-11.1c1.045.817 2.3 1.177 3.76 1.085l-1.6-10.387c-1.424.353-2.504 1.079-3.255 2.17-.75 1.1-1.018 2.361-.8 3.792.224 1.41.856 2.523 1.894 3.34Zm3.346-11.401 1.888 12.26c1.494-.345 2.631-1.12 3.403-2.325.772-1.205 1.031-2.614.779-4.228a6.286 6.286 0 0 0-.87-2.43 5.435 5.435 0 0 0-1.733-1.755l1.108-1.318a6.321 6.321 0 0 1 2.147 2.163c.562.916.927 1.952 1.11 3.122.224 1.508.111 2.889-.345 4.15a6.97 6.97 0 0 1-2.231 3.122c-1.025.831-2.252 1.353-3.677 1.571-1.424.219-2.75.106-3.971-.338-1.228-.45-2.239-1.163-3.031-2.156-.793-.987-1.299-2.163-1.51-3.516-.21-1.353-.076-2.622.387-3.798a6.828 6.828 0 0 1 2.231-2.939c1.025-.782 2.26-1.29 3.698-1.515l.617-.07Zm2.797-14.099a5 5 0 0 0-2.239-1.719c-.926-.366-1.95-.486-3.066-.366-1.116.127-2.084.472-2.905 1.036-.82.57-1.424 1.29-1.803 2.177-.38.88-.512 1.846-.4 2.896.12 1.043.463 1.959 1.024 2.734a5.17 5.17 0 0 0 2.239 1.734c.933.373 1.95.5 3.066.373 1.116-.12 2.084-.472 2.912-1.05a5.102 5.102 0 0 0 1.796-2.184c.386-.888.52-1.847.4-2.896-.12-1.043-.456-1.96-1.024-2.735m2.245 6.483a7.03 7.03 0 0 1-2.365 2.988c-1.06.782-2.308 1.254-3.74 1.416-1.431.155-2.75-.02-3.957-.55a6.908 6.908 0 0 1-2.947-2.395c-.758-1.064-1.221-2.304-1.375-3.728-.162-1.416.014-2.734.519-3.939a6.877 6.877 0 0 1 2.35-2.973c1.067-.776 2.309-1.24 3.74-1.403 1.439-.162 2.751.014 3.958.536a6.94 6.94 0 0 1 2.96 2.375c.773 1.064 1.236 2.31 1.39 3.727.162 1.424-.014 2.734-.533 3.946m-3.66-25.238a4.957 4.957 0 0 0-2.133-1.768c-.891-.41-1.874-.571-2.961-.494-1.08.07-2.014.367-2.807.874a4.804 4.804 0 0 0-1.79 2.03c-.399.845-.567 1.796-.497 2.846.077 1.05.365 1.966.877 2.748.52.783 1.2 1.382 2.049 1.783.856.402 1.824.564 2.905.494 1.08-.078 2.034-.374 2.87-.895a4.987 4.987 0 0 0 1.866-2.065c.42-.853.596-1.797.526-2.833-.07-1.029-.372-1.938-.905-2.72m-11.339-.437a6.407 6.407 0 0 1 2.379-2.684c1.052-.684 2.273-1.064 3.676-1.163 1.439-.099 2.73.127 3.888.683a6.594 6.594 0 0 1 2.764 2.446c.695 1.085 1.095 2.353 1.193 3.819.169 2.46-.561 4.418-2.19 5.884-1.627 1.473-3.95 2.311-6.974 2.515-3.157.219-5.613-.218-7.374-1.31-1.761-1.092-3.031-2.903-3.803-5.433L0 462.856l1.796-.465 1.853 6.144c.61 2.086 1.543 3.587 2.8 4.496 1.255.916 3.038 1.339 5.36 1.275a6.742 6.742 0 0 1-2.849-2.325c-.715-1.022-1.115-2.227-1.214-3.615-.09-1.367.127-2.607.66-3.735m10.455-19.096a5.026 5.026 0 0 0-2.077-1.938c-.891-.458-1.902-.676-3.024-.648-1.123.028-2.112.289-2.968.79a5.232 5.232 0 0 0-1.993 2.036c-.463.852-.68 1.804-.66 2.832.028 1.05.295 1.995.793 2.812a5.256 5.256 0 0 0 2.084 1.93c.884.459 1.88.677 3.01.649 1.116-.028 2.112-.296 2.982-.796a5.022 5.022 0 0 0 1.986-2.016c.456-.845.674-1.796.653-2.853-.028-1.036-.288-1.966-.786-2.798m-11.613-.824a6.766 6.766 0 0 1 2.59-2.713c1.13-.663 2.42-1.015 3.88-1.05 1.473-.035 2.792.253 3.95.866a6.798 6.798 0 0 1 2.709 2.565c.66 1.107.996 2.361 1.031 3.77.028 1.205-.197 2.298-.667 3.277-.47.98-1.178 1.79-2.119 2.431l8.224-.197.049 2.001-20.201.48-.05-1.917 2.92-.064a6.14 6.14 0 0 1-2.302-2.325c-.547-.98-.835-2.086-.863-3.326-.035-1.388.246-2.657.85-3.798m11.807-15.495c-.498-.818-1.235-1.43-2.196-1.84l-2.414-.049-.084 4.658c-.042 2.53.814 3.82 2.575 3.848.856.014 1.544-.303 2.049-.952.505-.648.772-1.564.793-2.748.02-1.127-.218-2.1-.723-2.917m-11.185-2.452c.983-1.015 2.414-1.508 4.309-1.473l9.15.162-.036 1.917-2.301-.043c.758.465 1.347 1.135 1.761 2.016.414.888.61 1.923.59 3.128-.029 1.65-.443 2.96-1.25 3.925-.8.959-1.845 1.43-3.136 1.41-1.256-.021-2.26-.494-3.01-1.417-.744-.93-1.109-2.388-1.074-4.376l.084-4.707-.898-.014c-1.277-.021-2.245.317-2.926 1.022-.673.698-1.024 1.733-1.045 3.107-.021.938.12 1.847.414 2.713.295.867.709 1.621 1.235 2.248l-1.502.881c-.624-.768-1.094-1.677-1.424-2.734a10.492 10.492 0 0 1-.463-3.333c.035-1.938.54-3.418 1.522-4.432m7.759-16.527c.631-.543 1.375-.783 2.231-.74.863.049 1.607.387 2.252 1.014.639.62 1.116 1.459 1.425 2.488.309 1.036.435 2.156.372 3.382a11.378 11.378 0 0 1-.632 3.122c-.372 1.015-.87 1.888-1.508 2.628l-1.446-.754a7.954 7.954 0 0 0 1.298-2.304c.33-.88.52-1.783.569-2.706.077-1.367-.12-2.501-.59-3.403-.463-.902-1.137-1.374-2.02-1.417-.78-.05-1.411.275-1.888.966-.477.69-.75 1.656-.814 2.889l-.14 2.536-1.453-.077.126-2.424c.057-1.106-.105-2.008-.49-2.706-.38-.698-.927-1.064-1.643-1.106-.779-.043-1.417.303-1.908 1.043-.484.732-.765 1.712-.828 2.931-.084 1.593.231 3.192.947 4.792l-1.572.479c-.82-1.811-1.178-3.664-1.073-5.56.056-1.127.273-2.135.652-3.03.38-.888.877-1.578 1.502-2.065a3.105 3.105 0 0 1 2.112-.662 2.93 2.93 0 0 1 1.95.88c.548.55.948 1.27 1.18 2.171.294-1.043.764-1.825 1.389-2.367m-7.918-6.417.182-1.994 11.683 1.113-10.75-10.957.162-1.769 14.7 1.395-.19 1.987-11.682-1.106 10.763 10.93-.168 1.796-14.7-1.395Zm5.197-30.179-.743 5.56 12.882 1.734-.266 1.98-12.883-1.727-.737 5.553-1.754-.232 1.747-13.1 1.754.232Zm12.585-10.573c-.442-.79-1.214-1.282-2.302-1.466-1.066-.183-1.922.029-2.554.62-.631.6-1.073 1.579-1.319 2.953l-.702 3.798 6.477 1.1.694-3.792c.253-1.353.148-2.424-.294-3.213m-5.635-2.621c.955-.818 2.176-1.1 3.67-.846 1.55.268 2.652.98 3.312 2.15.653 1.17.807 2.726.463 4.671l-1.024 5.884-14.553-2.48.33-1.973 5.094.866.779-4.298c.33-1.825.975-3.15 1.93-3.974m-1-26.347 14.385 3.326-.442 1.952-12.665-2.931-1.586 6.92 3.516 1.014c2.954.839 5.17 1.72 6.651 2.636 1.474.923 2.056 2.085 1.733 3.502-.09.38-.273.831-.54 1.346l-1.642-.522c.155-.317.239-.535.267-.662.175-.747-.042-1.395-.646-1.945-.603-.543-1.403-.994-2.392-1.36-.997-.366-2.316-.79-3.979-1.261l-5.08-1.445 2.42-10.57Zm17.697-17.788c-.246-.923-.73-1.727-1.445-2.417-.723-.698-1.621-1.198-2.702-1.501-1.08-.31-2.105-.36-3.08-.148a5.125 5.125 0 0 0-2.484 1.296 5.412 5.412 0 0 0-1.431 2.453c-.274.972-.295 1.923-.057 2.84a5.048 5.048 0 0 0 1.432 2.416c.715.691 1.614 1.191 2.694 1.501 1.08.31 2.105.353 3.08.141.976-.211 1.81-.64 2.498-1.296.688-.649 1.172-1.466 1.453-2.445.274-.973.288-1.924.042-2.84m-10.876-4.15a6.863 6.863 0 0 1 3.277-1.812c1.277-.296 2.603-.253 3.992.141 1.383.395 2.54 1.057 3.46 1.987a6.935 6.935 0 0 1 1.866 3.27c.316 1.254.288 2.544-.091 3.883-.358 1.268-.954 2.34-1.796 3.213a6.986 6.986 0 0 1-2.99 1.853c-1.15.367-2.378.423-3.67.176l-.918 3.249 6.322 1.804-.54 1.924-14.21-4.045.548-1.924 6.125 1.74.927-3.276c-1.18-.493-2.155-1.198-2.92-2.107a6.906 6.906 0 0 1-1.5-3.108c-.232-1.162-.176-2.367.175-3.614.378-1.34 1.024-2.453 1.943-3.355m-.563-23.43 1.838.267-.652 6.392c-.239 2.156.049 3.904.849 5.228.806 1.332 2.294 2.41 4.462 3.249a6.684 6.684 0 0 1-1.733-3.242c-.267-1.219-.182-2.494.267-3.805.442-1.303 1.122-2.36 2.042-3.192.926-.824 2-1.346 3.227-1.557 1.228-.219 2.512-.099 3.838.352 1.362.472 2.47 1.177 3.326 2.135a6.705 6.705 0 0 1 1.607 3.333c.225 1.269.105 2.593-.372 3.989-.786 2.325-2.21 3.854-4.273 4.58-2.063.726-4.533.599-7.403-.388-2.989-1.021-5.094-2.374-6.3-4.073-1.2-1.69-1.678-3.854-1.418-6.482l.695-6.786Zm10.616 5.348a4.828 4.828 0 0 0-2.435 1.184c-.694.627-1.214 1.43-1.55 2.431-.337.994-.422 1.952-.246 2.875a4.962 4.962 0 0 0 1.2 2.438c.638.705 1.466 1.226 2.49 1.579 1.032.352 2.029.45 2.99.295a5.013 5.013 0 0 0 2.519-1.183c.716-.627 1.235-1.43 1.572-2.41.33-.98.4-1.931.21-2.861a5.076 5.076 0 0 0-1.284-2.466c-.667-.712-1.516-1.24-2.54-1.593-1.032-.352-2.007-.451-2.926-.289Zm9.9-18.799c1.34.522 2.421 1.297 3.256 2.318a6.963 6.963 0 0 1 1.523 3.481c.19 1.304.021 2.622-.491 3.954-.52 1.331-1.284 2.417-2.302 3.248a7.073 7.073 0 0 1-3.473 1.543c-1.298.198-2.624.029-3.964-.493-1.348-.521-2.428-1.304-3.25-2.332a6.959 6.959 0 0 1-1.508-3.488c-.182-1.304-.014-2.615.505-3.947.513-1.331 1.277-2.417 2.28-3.255a6.866 6.866 0 0 1 3.46-1.536c1.298-.183 2.617-.021 3.965.507Zm-3.788 1.452c-.99.12-1.86.479-2.604 1.085-.75.606-1.312 1.395-1.69 2.375-.38.986-.499 1.952-.359 2.903.14.951.534 1.81 1.186 2.579.646.768 1.488 1.36 2.533 1.769 1.046.408 2.07.55 3.06.422.996-.126 1.866-.493 2.61-1.099.744-.599 1.312-1.395 1.69-2.375.38-.986.499-1.952.359-2.903a5.102 5.102 0 0 0-1.186-2.565c-.653-.76-1.502-1.346-2.547-1.754-1.046-.41-2.063-.55-3.052-.437Zm2.436-9.574c.442 1.254 1.306 2.233 2.59 2.938l4.21-9.626c-1.39-.465-2.695-.437-3.916.085-1.214.514-2.119 1.437-2.694 2.762-.568 1.31-.632 2.586-.19 3.84Zm8.919-7.815-4.968 11.359c1.452.514 2.82.472 4.119-.127 1.29-.599 2.266-1.649 2.919-3.143.371-.845.56-1.684.568-2.522a5.582 5.582 0 0 0-.526-2.417l1.635-.508c.456.916.673 1.91.66 2.981-.022 1.071-.267 2.15-.738 3.227-.61 1.396-1.445 2.502-2.505 3.32a6.985 6.985 0 0 1-3.557 1.43c-1.305.14-2.617-.078-3.936-.656-1.32-.584-2.38-1.395-3.172-2.43-.793-1.036-1.263-2.185-1.403-3.446-.148-1.269.063-2.53.61-3.784.547-1.255 1.333-2.255 2.35-2.995a6.768 6.768 0 0 1 3.453-1.283c1.284-.105 2.596.134 3.93.719l.56.275Zm4.317-26.823 13.128 6.779-.912 1.783-11.556-5.969-4.231 8.273 11.556 5.968-.912 1.776-13.128-6.779 6.055-11.831Zm13.031-16.108c1.313.014 2.597.388 3.86 1.114 1.284.74 2.266 1.67 2.933 2.79a6.795 6.795 0 0 1 1.003 3.615c-.007 1.282-.365 2.537-1.06 3.756-.596 1.05-1.354 1.867-2.259 2.459a6.24 6.24 0 0 1-3.066.98l7.129 4.108-.99 1.733-17.527-10.09.947-1.664 2.533 1.459a6.17 6.17 0 0 1-.772-3.185c.035-1.12.358-2.22.975-3.298.688-1.198 1.58-2.135 2.688-2.804a6.719 6.719 0 0 1 3.606-.973Zm-.077 1.987a5.108 5.108 0 0 0-2.75.705c-.842.486-1.516 1.184-2.028 2.079-.52.916-.779 1.853-.772 2.825.007.966.274 1.875.793 2.727.512.853 1.263 1.558 2.238 2.114.969.564 1.958.853 2.954.874a5.05 5.05 0 0 0 2.75-.69c.829-.494 1.495-1.191 2.022-2.107.512-.888.772-1.825.772-2.798a5.062 5.062 0 0 0-.78-2.74c-.526-.854-1.276-1.565-2.252-2.122-.975-.564-1.957-.853-2.947-.867Zm9.963-17.799c1.305.07 2.575.487 3.79 1.262 1.22.775 2.14 1.74 2.757 2.903a7.058 7.058 0 0 1 .828 3.713c-.07 1.318-.484 2.58-1.242 3.784-.758 1.205-1.72 2.121-2.877 2.742a7.067 7.067 0 0 1-3.705.845c-1.319-.056-2.582-.472-3.803-1.247-1.214-.775-2.126-1.748-2.743-2.917a7.015 7.015 0 0 1-.807-3.721c.07-1.31.49-2.565 1.249-3.77.765-1.212 1.719-2.12 2.87-2.748a6.833 6.833 0 0 1 3.683-.846Zm-2.968 2.516c-.849.45-1.55 1.12-2.112 2.008-.561.895-.863 1.818-.905 2.784a5.077 5.077 0 0 0 .667 2.755c.484.88 1.206 1.62 2.154 2.227.947.599 1.922.937 2.919 1a5.04 5.04 0 0 0 2.771-.57c.85-.452 1.551-1.114 2.112-2.009.562-.888.863-1.81.905-2.776a5.03 5.03 0 0 0-.673-2.748c-.491-.867-1.214-1.607-2.161-2.213-.948-.599-1.916-.937-2.912-1.015a4.959 4.959 0 0 0-2.765.557Zm12.352-17.544-.014 1.804a4.613 4.613 0 0 0-2.406.599 5.47 5.47 0 0 0-1.832 1.698c-.61.881-.961 1.811-1.052 2.79a5.09 5.09 0 0 0 .54 2.805c.456.895 1.144 1.67 2.07 2.311.94.649 1.902 1.03 2.884 1.128a5.028 5.028 0 0 0 2.8-.493c.877-.43 1.613-1.086 2.224-1.966.498-.726.814-1.501.947-2.319.133-.824.035-1.642-.288-2.466l1.677-.648a5.663 5.663 0 0 1 .435 3.213c-.168 1.113-.603 2.191-1.319 3.227-.828 1.205-1.831 2.107-3.01 2.692a6.879 6.879 0 0 1-3.747.705c-1.319-.113-2.568-.585-3.754-1.41-1.186-.817-2.063-1.825-2.631-3.016a7.03 7.03 0 0 1-.653-3.762c.134-1.318.61-2.572 1.439-3.784.723-1.05 1.579-1.847 2.554-2.39a5.665 5.665 0 0 1 3.136-.718Zm6.398-13.41 1.418 1.057-3.333 4.503 10.434 7.78-1.186 1.606-10.434-7.78-3.326 4.504-1.424-1.057 7.851-10.613Zm13.636-11.564c1.284.219 2.498.79 3.634 1.705 1.151.938 1.98 2.009 2.463 3.22.492 1.22.632 2.46.428 3.728-.21 1.262-.757 2.446-1.635 3.545-.75.937-1.62 1.628-2.61 2.072-.99.443-2.049.599-3.185.486l6.406 5.172-1.242 1.557-15.746-12.712 1.193-1.494 2.274 1.84c-.38-1.086-.47-2.178-.26-3.27.204-1.106.695-2.135 1.467-3.1.87-1.086 1.901-1.868 3.094-2.354 1.186-.486 2.428-.613 3.719-.395Zm-3.214 2.22c-.912.345-1.684.93-2.33 1.733-.652.818-1.059 1.706-1.2 2.671a5.184 5.184 0 0 0 .359 2.812c.379.923 1.003 1.74 1.88 2.445.87.704 1.803 1.148 2.786 1.332a5.109 5.109 0 0 0 2.82-.261c.892-.352 1.663-.937 2.323-1.762.646-.803 1.045-1.684 1.2-2.642a5.097 5.097 0 0 0-.344-2.826c-.386-.93-1.017-1.748-1.894-2.452-.87-.712-1.797-1.149-2.78-1.325a5.125 5.125 0 0 0-2.82.275Zm15.866-13.608 6.884 6.06-1.256 1.438-1.733-1.522c.28.845.294 1.74.049 2.684-.253.945-.772 1.868-1.558 2.77-1.088 1.247-2.245 1.973-3.48 2.191-1.228.212-2.33-.105-3.305-.965-.94-.825-1.403-1.84-1.382-3.03.02-1.191.687-2.537 1.992-4.038l3.088-3.544-.674-.592c-.961-.839-1.923-1.212-2.89-1.114-.97.092-1.902.663-2.8 1.692a8.012 8.012 0 0 0-1.432 2.346c-.33.853-.498 1.691-.498 2.516l-1.712-.31c.014-.98.238-1.987.673-3.01a10.639 10.639 0 0 1 1.79-2.846c1.27-1.452 2.603-2.248 4.006-2.389 1.404-.14 2.814.416 4.238 1.663Zm.414 3.03-3.045 3.502c-1.663 1.903-1.838 3.44-.512 4.602.645.578 1.368.775 2.175.606.807-.162 1.593-.69 2.372-1.586.743-.845 1.178-1.74 1.326-2.691.14-.952-.021-1.896-.498-2.833l-1.818-1.6Zm8.547-20.845 10.687 10.225-1.375 1.451-4.716-4.51-6.406 6.751 4.715 4.517-1.375 1.444-10.686-10.224 1.375-1.452 4.736 4.531 6.406-6.75-4.736-4.538 1.375-1.445Zm15.134-10.908-.372 1.769a4.674 4.674 0 0 0-2.477.112 5.47 5.47 0 0 0-2.133 1.311c-.765.74-1.29 1.585-1.572 2.523a5.024 5.024 0 0 0-.014 2.86c.267.966.786 1.854 1.572 2.664.793.825 1.663 1.381 2.61 1.677a4.98 4.98 0 0 0 2.835.07c.94-.246 1.796-.746 2.568-1.486a5.587 5.587 0 0 0 1.382-2.093c.295-.775.358-1.6.204-2.466l1.768-.31c.246 1.099.183 2.17-.203 3.234-.38 1.064-1.018 2.037-1.923 2.91-1.052 1.015-2.21 1.699-3.48 2.044a6.934 6.934 0 0 1-3.81-.042c-1.27-.38-2.407-1.086-3.41-2.128-.997-1.036-1.663-2.199-1.986-3.482a7.039 7.039 0 0 1 .098-3.812c.386-1.261 1.102-2.41 2.154-3.424.912-.888 1.902-1.501 2.968-1.84a5.63 5.63 0 0 1 3.221-.091Zm8.737-11.75 1.185 1.317-4.14 3.763 8.708 9.682-1.48 1.34-8.708-9.683-4.147 3.763-1.186-1.318 9.768-8.864Zm14.283-7.139c.52.62.793 1.29.821 2.009.035.726-.161 1.451-.582 2.177 1.831-.937 3.375-.655 4.624.839.835.993 1.109 2.064.82 3.213-.287 1.149-1.15 2.332-2.602 3.558l-5.13 4.327-9.5-11.352 4.989-4.207c1.29-1.085 2.512-1.684 3.663-1.797 1.15-.112 2.119.296 2.897 1.233Zm1.369 5.271c-.716.05-1.551.48-2.512 1.29l-3.74 3.157 3.298 3.946 3.592-3.023c.976-.825 1.572-1.6 1.796-2.326.225-.725.05-1.43-.512-2.106-.568-.677-1.207-.987-1.922-.938Zm-4.617-4.622c-.73.07-1.537.479-2.407 1.219l-3.403 2.86 3.213 3.848 3.397-2.868c.877-.74 1.41-1.465 1.6-2.191.189-.726.013-1.403-.513-2.037-.533-.634-1.158-.909-1.887-.831Zm17.541-12.223c1.207.514 2.253 1.339 3.13 2.487.884 1.149 1.417 2.368 1.6 3.671a7.026 7.026 0 0 1-.477 3.777c-.513 1.212-1.334 2.255-2.456 3.13-1.13.873-2.344 1.401-3.642 1.585a7.049 7.049 0 0 1-3.768-.473c-1.214-.507-2.26-1.331-3.143-2.48-.877-1.149-1.41-2.375-1.586-3.678a7.089 7.089 0 0 1 .505-3.777c.512-1.205 1.333-2.241 2.463-3.115 1.123-.874 2.33-1.41 3.62-1.606a6.917 6.917 0 0 1 3.754.479Zm-3.641 1.346c-.954.134-1.846.521-2.674 1.162-.828.642-1.424 1.41-1.796 2.297-.365.888-.47 1.833-.316 2.826.162.994.583 1.93 1.27 2.826.688.895 1.488 1.543 2.4 1.952.92.401 1.853.542 2.8.408.954-.126 1.838-.521 2.673-1.155.828-.648 1.425-1.417 1.796-2.304.365-.888.464-1.825.302-2.812-.168-.987-.596-1.924-1.284-2.819-.68-.895-1.48-1.55-2.386-1.959a4.977 4.977 0 0 0-2.785-.422Zm13.701 4.915a1.494 1.494 0 0 1-.996-.635 1.47 1.47 0 0 1-.288-1.127c.063-.416.26-.733.597-.98a1.447 1.447 0 0 1 1.122-.274c.407.056.744.26.997.606.252.352.344.74.28 1.155-.07.423-.266.754-.596.994a1.408 1.408 0 0 1-1.116.26" fill="#C87558" fill-rule="evenodd"/></svg>