<svg width="426" height="132" fill="none" xmlns="http://www.w3.org/2000/svg"><path fill-rule="evenodd" clip-rule="evenodd" d="M13.715 47.55c4.083 2.194 8.668 3.29 13.755 3.29 5.087 0 9.66-1.097 13.72-3.29 4.06-2.193 7.257-5.215 9.59-9.065 2.333-3.85 3.5-8.178 3.5-12.985 0-4.806-1.167-9.135-3.5-12.985-2.333-3.85-5.53-6.872-9.59-9.065C37.13 1.257 32.557.16 27.47.16c-5.087 0-9.672 1.097-13.755 3.29s-7.28 5.215-9.59 9.065C1.815 16.365.66 20.693.66 25.5c0 4.807 1.155 9.135 3.465 12.985 2.31 3.85 5.507 6.872 9.59 9.065Zm21.595-8.365c-2.333 1.33-4.947 1.995-7.84 1.995s-5.507-.665-7.84-1.995S15.465 36 14.135 33.62c-1.33-2.38-1.995-5.086-1.995-8.12 0-3.033.665-5.74 1.995-8.12 1.33-2.38 3.162-4.235 5.495-5.565s4.947-1.995 7.84-1.995 5.507.665 7.84 1.995S39.475 15 40.805 17.38c1.33 2.38 1.995 5.087 1.995 8.12 0 3.034-.665 5.74-1.995 8.12-1.33 2.38-3.162 4.235-5.495 5.565Z" fill="#4B8702"/><path d="M80.11 50.56c-4.013 0-7.618-.828-10.815-2.485-3.197-1.656-5.693-3.955-7.49-6.895-1.797-2.94-2.695-6.276-2.695-10.01 0-3.733.898-7.07 2.695-10.01 1.797-2.94 4.293-5.238 7.49-6.895 3.197-1.656 6.802-2.485 10.815-2.485 3.967 0 7.432.829 10.395 2.485 2.963 1.657 5.122 4.025 6.475 7.105l-8.47 4.55c-1.96-3.453-4.783-5.18-8.47-5.18-2.847 0-5.203.934-7.07 2.8-1.867 1.867-2.8 4.41-2.8 7.63 0 3.22.933 5.764 2.8 7.63 1.867 1.867 4.223 2.8 7.07 2.8 3.733 0 6.557-1.726 8.47-5.18l8.47 4.62c-1.353 2.987-3.512 5.32-6.475 7-2.963 1.68-6.428 2.52-10.395 2.52ZM151.79 11.78c4.713 0 8.458 1.389 11.235 4.165 2.777 2.777 4.165 6.942 4.165 12.495V50h-10.92V30.12c0-2.986-.618-5.215-1.855-6.685-1.237-1.47-2.998-2.205-5.285-2.205-2.567 0-4.597.829-6.09 2.485-1.493 1.657-2.24 4.119-2.24 7.385V50h-10.92V30.12c0-5.926-2.38-8.89-7.14-8.89-2.52 0-4.527.829-6.02 2.485-1.493 1.657-2.24 4.119-2.24 7.385V50h-10.92V12.34h10.43v4.34c1.4-1.586 3.115-2.8 5.145-3.64 2.03-.84 4.258-1.26 6.685-1.26 2.66 0 5.063.525 7.21 1.575a12.768 12.768 0 0 1 5.18 4.585c1.54-1.96 3.488-3.476 5.845-4.55 2.357-1.073 4.935-1.61 7.735-1.61Z" fill="#4B8702"/><path fill-rule="evenodd" clip-rule="evenodd" d="M214.72 50V12.34H203.8v3.99c-2.707-3.033-6.463-4.55-11.27-4.55-3.547 0-6.755.794-9.625 2.38-2.87 1.587-5.122 3.85-6.755 6.79s-2.45 6.347-2.45 10.22c0 3.874.817 7.28 2.45 10.22 1.633 2.94 3.885 5.204 6.755 6.79 2.87 1.587 6.078 2.38 9.625 2.38 5.133 0 9.053-1.633 11.76-4.9V50h10.43Zm-13.44-11.235c-1.82 1.89-4.107 2.835-6.86 2.835-2.8 0-5.11-.945-6.93-2.835-1.82-1.89-2.73-4.421-2.73-7.595 0-3.173.91-5.705 2.73-7.595 1.82-1.89 4.13-2.835 6.93-2.835 2.753 0 5.04.945 6.86 2.835 1.82 1.89 2.73 4.422 2.73 7.595 0 3.174-.91 5.705-2.73 7.595Z" fill="#4B8702"/><path d="M261.13 12.34V50h-10.92V21.3h-11.9l-.35 6.65c-.187 4.947-.653 9.053-1.4 12.32-.747 3.266-1.96 5.833-3.64 7.7-1.68 1.867-4.013 2.8-7 2.8-1.587 0-3.477-.28-5.67-.84l.56-8.96c.747.093 1.283.14 1.61.14 1.633 0 2.858-.595 3.675-1.785.817-1.19 1.365-2.707 1.645-4.55s.49-4.282.63-7.315l.56-15.12h32.2ZM308.8 12.34V50h-10.43v-4.41c-1.4 1.633-3.115 2.87-5.145 3.71-2.03.84-4.188 1.26-6.475 1.26-4.947 0-8.878-1.424-11.795-4.27-2.917-2.847-4.375-7.07-4.375-12.67V12.34h10.92v19.67c0 6.067 2.543 9.1 7.63 9.1 2.66 0 4.783-.852 6.37-2.555 1.587-1.703 2.38-4.235 2.38-7.595V12.34h10.92ZM337.15 50.56c-4.013 0-7.618-.828-10.815-2.485-3.197-1.656-5.693-3.955-7.49-6.895-1.797-2.94-2.695-6.276-2.695-10.01 0-3.733.898-7.07 2.695-10.01 1.797-2.94 4.293-5.238 7.49-6.895 3.197-1.656 6.802-2.485 10.815-2.485 3.967 0 7.432.829 10.395 2.485 2.963 1.657 5.122 4.025 6.475 7.105l-8.47 4.55c-1.96-3.453-4.783-5.18-8.47-5.18-2.847 0-5.203.934-7.07 2.8-1.867 1.867-2.8 4.41-2.8 7.63 0 3.22.933 5.764 2.8 7.63 1.867 1.867 4.223 2.8 7.07 2.8 3.733 0 6.557-1.726 8.47-5.18l8.47 4.62c-1.353 2.987-3.512 5.32-6.475 7-2.963 1.68-6.428 2.52-10.395 2.52Z" fill="#4B8702"/><path fill-rule="evenodd" clip-rule="evenodd" d="M364.415 47.06c3.057 2.66 7.572 3.99 13.545 3.99 5.74 0 10.255-1.283 13.545-3.85 3.29-2.567 4.935-6.254 4.935-11.06 0-4.48-1.33-7.887-3.99-10.22-2.66-2.334-6.347-3.5-11.06-3.5-2.287 0-4.352.233-6.195.7-1.843.466-3.348 1.12-4.515 1.96V12.34h-10.85V35.3c0 5.18 1.528 9.1 4.585 11.76Zm18.97-5.6c-1.283 1.26-3.092 1.89-5.425 1.89-2.287 0-4.072-.619-5.355-1.855-1.283-1.237-1.925-2.952-1.925-5.145v-3.08c.7-1.12 1.703-1.984 3.01-2.59 1.307-.607 2.8-.91 4.48-.91 2.287 0 4.048.583 5.285 1.75s1.855 2.777 1.855 4.83c0 2.146-.642 3.85-1.925 5.11ZM88.02 98.33c4.433 1.493 6.65 4.48 6.65 8.96 0 3.407-1.283 6.043-3.85 7.91s-6.393 2.8-11.48 2.8H59.25V80.34H78.5c4.713 0 8.4.852 11.06 2.555 2.66 1.703 3.99 4.095 3.99 7.175 0 1.867-.478 3.512-1.435 4.935-.957 1.423-2.322 2.532-4.095 3.325Zm-18.76-2.52h8.26c3.827 0 5.74-1.353 5.74-4.06 0-2.66-1.913-3.99-5.74-3.99h-8.26v8.05Zm15.19 10.64c0 2.753-2.007 4.13-6.02 4.13h-9.17v-8.33h9.38c2.007 0 3.477.338 4.41 1.015.933.677 1.4 1.738 1.4 3.185ZM109.755 116.075c3.15 1.657 6.708 2.485 10.675 2.485 3.967 0 7.513-.828 10.64-2.485 3.127-1.656 5.577-3.955 7.35-6.895 1.773-2.94 2.66-6.276 2.66-10.01 0-3.733-.887-7.07-2.66-10.01-1.773-2.94-4.223-5.238-7.35-6.895-3.127-1.656-6.673-2.485-10.64-2.485-3.967 0-7.525.829-10.675 2.485-3.15 1.657-5.612 3.955-7.385 6.895-1.773 2.94-2.66 6.277-2.66 10.01 0 3.734.887 7.07 2.66 10.01 1.773 2.94 4.235 5.239 7.385 6.895Zm17.57-9.31c-1.797 1.89-4.095 2.835-6.895 2.835s-5.11-.945-6.93-2.835c-1.82-1.89-2.73-4.421-2.73-7.595 0-3.173.91-5.705 2.73-7.595 1.82-1.89 4.13-2.835 6.93-2.835s5.098.945 6.895 2.835c1.797 1.89 2.695 4.422 2.695 7.595 0 3.174-.898 5.705-2.695 7.595Z" fill="#4B8702"/><path d="M186.02 80.34V118H175.1V89.3h-15.68V118h-10.85V80.34h37.45Z" fill="#4B8702"/><path fill-rule="evenodd" clip-rule="evenodd" d="M226.34 82.16c-2.987-1.586-6.487-2.38-10.5-2.38-4.153 0-7.793.817-10.92 2.45-3.127 1.634-5.553 3.92-7.28 6.86-1.727 2.94-2.59 6.347-2.59 10.22v32.27h10.92v-17.57c2.707 3.034 6.463 4.55 11.27 4.55 3.64 0 6.86-.805 9.66-2.415 2.8-1.61 4.97-3.873 6.51-6.79 1.54-2.916 2.31-6.288 2.31-10.115 0-3.92-.817-7.35-2.45-10.29-1.633-2.94-3.943-5.203-6.93-6.79Zm-4.06 24.57c-1.773 1.914-4.083 2.87-6.93 2.87-2.893 0-5.203-.956-6.93-2.87-1.727-1.913-2.59-4.433-2.59-7.56 0-3.126.875-5.646 2.625-7.56 1.75-1.913 4.048-2.87 6.895-2.87 2.847 0 5.157.969 6.93 2.905 1.773 1.937 2.66 4.469 2.66 7.595 0 3.08-.887 5.577-2.66 7.49ZM250.385 116.075c3.15 1.657 6.708 2.485 10.675 2.485 3.967 0 7.513-.828 10.64-2.485 3.127-1.656 5.577-3.955 7.35-6.895 1.773-2.94 2.66-6.276 2.66-10.01 0-3.733-.887-7.07-2.66-10.01-1.773-2.94-4.223-5.238-7.35-6.895-3.127-1.656-6.673-2.485-10.64-2.485-3.967 0-7.525.829-10.675 2.485-3.15 1.657-5.612 3.955-7.385 6.895-1.773 2.94-2.66 6.277-2.66 10.01 0 3.734.887 7.07 2.66 10.01 1.773 2.94 4.235 5.239 7.385 6.895Zm17.57-9.31c-1.797 1.89-4.095 2.835-6.895 2.835s-5.11-.945-6.93-2.835c-1.82-1.89-2.73-4.421-2.73-7.595 0-3.173.91-5.705 2.73-7.595 1.82-1.89 4.13-2.835 6.93-2.835s5.098.945 6.895 2.835c1.797 1.89 2.695 4.422 2.695 7.595 0 3.174-.898 5.705-2.695 7.595Z" fill="#4B8702"/><path d="M307.12 118.56c-4.013 0-7.618-.828-10.815-2.485-3.197-1.656-5.693-3.955-7.49-6.895-1.797-2.94-2.695-6.276-2.695-10.01 0-3.733.898-7.07 2.695-10.01 1.797-2.94 4.293-5.238 7.49-6.895 3.197-1.656 6.802-2.485 10.815-2.485 3.967 0 7.432.829 10.395 2.485 2.963 1.657 5.122 4.025 6.475 7.105l-8.47 4.55c-1.96-3.453-4.783-5.18-8.47-5.18-2.847 0-5.203.934-7.07 2.8-1.867 1.867-2.8 4.41-2.8 7.63 0 3.22.933 5.764 2.8 7.63 1.867 1.867 4.223 2.8 7.07 2.8 3.733 0 6.557-1.726 8.47-5.18l8.47 4.62c-1.353 2.987-3.512 5.32-6.475 7-2.963 1.68-6.428 2.52-10.395 2.52Z" fill="#4B8702"/><path fill-rule="evenodd" clip-rule="evenodd" d="M347.72 119.05c-5.973 0-10.453-1.33-13.44-3.99s-4.48-6.58-4.48-11.76V80.34h10.85v12.74c1.073-.747 2.485-1.377 4.235-1.89 1.75-.513 3.745-.77 5.985-.77 4.62 0 8.237 1.166 10.85 3.5 2.613 2.333 3.92 5.74 3.92 10.22 0 4.76-1.61 8.435-4.83 11.025-3.22 2.59-7.583 3.885-13.09 3.885Zm21.91-38.71h10.92V118h-10.92V80.34Zm-16.8 29.05c-1.167 1.307-2.87 1.96-5.11 1.96-2.287 0-4.037-.618-5.25-1.855s-1.82-2.952-1.82-5.145v-3.08c.7-1.073 1.645-1.925 2.835-2.555 1.19-.63 2.578-.945 4.165-.945 2.24 0 3.955.595 5.145 1.785 1.19 1.19 1.785 2.765 1.785 4.725 0 2.1-.583 3.803-1.75 5.11ZM404.385 94.97c-1.097 1.587-1.645 3.594-1.645 6.02h10.57c0-1.493.397-2.765 1.19-3.815.793-1.05 2.053-2.345 3.78-3.885 1.447-1.306 2.625-2.462 3.535-3.465.91-1.003 1.68-2.228 2.31-3.675.63-1.447.945-3.127.945-5.04 0-4.06-1.622-7.233-4.865-9.52-3.243-2.287-7.548-3.43-12.915-3.43-4.573 0-8.528.817-11.865 2.45-3.337 1.633-5.985 3.944-7.945 6.93l8.47 4.97c1.167-1.633 2.602-2.905 4.305-3.815 1.703-.91 3.652-1.365 5.845-1.365 2.287 0 4.118.502 5.495 1.505 1.377 1.004 2.065 2.369 2.065 4.095a5.26 5.26 0 0 1-1.085 3.255c-.723.957-1.855 2.135-3.395 3.535-2.1 1.913-3.698 3.663-4.795 5.25Zm-1.12 21.735c1.283 1.237 2.882 1.855 4.795 1.855 1.913 0 3.512-.618 4.795-1.855s1.925-2.742 1.925-4.515c0-1.773-.63-3.255-1.89-4.445-1.26-1.19-2.87-1.785-4.83-1.785s-3.57.595-4.83 1.785c-1.26 1.19-1.89 2.672-1.89 4.445 0 1.773.642 3.278 1.925 4.515Z" fill="#4B8702"/></svg>