<svg width="504" height="206" fill="none" xmlns="http://www.w3.org/2000/svg"><path d="M42.91 19.72a37.592 37.592 0 0 0-13.51-4.69V55H18.06V15.03a38.25 38.25 0 0 0-13.58 4.69L.63 11.25c3.36-2.007 7-3.523 10.92-4.55a47.598 47.598 0 0 1 12.11-1.54c4.2 0 8.271.513 12.215 1.54 3.943 1.027 7.572 2.543 10.885 4.55l-3.85 8.47Z" fill="#4B8702"/><path fill-rule="evenodd" clip-rule="evenodd" d="M79.31 19.16c-2.987-1.587-6.487-2.38-10.5-2.38-4.153 0-7.793.816-10.92 2.45-3.127 1.633-5.553 3.92-7.28 6.86-1.727 2.94-2.59 6.346-2.59 10.22v32.27h10.92V51.01c2.707 3.033 6.463 4.55 11.27 4.55 3.64 0 6.86-.806 9.66-2.416 2.8-1.61 4.97-3.873 6.51-6.79 1.54-2.916 2.31-6.288 2.31-10.115 0-3.92-.817-7.35-2.45-10.29-1.633-2.94-3.943-5.203-6.93-6.79Zm-4.06 24.57c-1.773 1.913-4.083 2.87-6.93 2.87-2.893 0-5.203-.957-6.93-2.87-1.727-1.914-2.59-4.434-2.59-7.56 0-3.127.875-5.647 2.625-7.56 1.75-1.914 4.048-2.87 6.895-2.87 2.847 0 5.157.968 6.93 2.904 1.773 1.937 2.66 4.469 2.66 7.595 0 3.08-.887 5.577-2.66 7.49ZM120.365 45.934c-1.517.584-3.255.875-5.215.875-2.473 0-4.562-.466-6.265-1.4-1.703-.933-2.952-2.333-3.745-4.2L133 35.82c0-3.92-.875-7.315-2.625-10.185s-4.095-5.063-7.035-6.58c-2.94-1.516-6.207-2.275-9.8-2.275-3.827 0-7.268.829-10.325 2.485-3.057 1.657-5.46 3.967-7.21 6.93-1.75 2.964-2.625 6.289-2.625 9.975 0 3.734.886 7.07 2.66 10.01 1.773 2.94 4.293 5.239 7.56 6.895 3.267 1.657 7.023 2.485 11.27 2.485 6.813 0 11.993-2.03 15.54-6.09l-5.81-6.3c-1.307 1.26-2.718 2.182-4.235 2.765ZM106.82 27.7c1.727-1.773 3.967-2.66 6.72-2.66 2.24 0 4.153.584 5.74 1.75 1.587 1.167 2.637 2.73 3.15 4.69l-18.34 3.57c.093-3.126 1.003-5.576 2.73-7.35ZM171.78 22.135c-2.706-1.47-5.856-2.205-9.45-2.205-2.706 0-5.203.479-7.49 1.435-2.286.957-4.246 2.322-5.88 4.095.374-3.593 1.599-6.37 3.675-8.33 2.077-1.96 5.262-3.36 9.555-4.2l15.82-3.15L176.54.4l-17.92 3.57c-6.813 1.4-11.865 4.352-15.155 8.855-3.29 4.504-4.935 10.535-4.935 18.095 0 8.167 1.879 14.362 5.635 18.585 3.757 4.224 8.925 6.335 15.505 6.335 3.967 0 7.514-.758 10.64-2.275 3.127-1.516 5.565-3.663 7.315-6.44 1.75-2.776 2.625-5.961 2.625-9.555 0-3.5-.735-6.58-2.205-9.24-1.47-2.66-3.558-4.725-6.265-6.195Zm-5.285 22.505c-1.703 1.82-3.955 2.73-6.755 2.73-2.753 0-5.016-.898-6.79-2.695-1.773-1.796-2.66-4.118-2.66-6.965 0-2.846.864-5.11 2.59-6.79 1.727-1.68 4.014-2.52 6.86-2.52 2.8 0 5.052.84 6.755 2.52 1.704 1.68 2.555 3.944 2.555 6.79 0 2.8-.851 5.11-2.555 6.93Z" fill="#4B8702"/><path d="M225.4 17.34V48.7c0 6.906-1.75 12.04-5.25 15.4-3.5 3.36-8.587 5.04-15.26 5.04-3.547 0-6.895-.444-10.045-1.33-3.15-.887-5.798-2.17-7.945-3.85l4.34-7.84c1.587 1.306 3.523 2.333 5.81 3.08a22.203 22.203 0 0 0 6.93 1.12c3.64 0 6.3-.84 7.98-2.52 1.68-1.68 2.52-4.247 2.52-7.7v-1.26c-1.4 1.4-3.057 2.473-4.97 3.22-1.913.746-3.967 1.12-6.16 1.12-4.947 0-8.867-1.412-11.76-4.235-2.893-2.824-4.34-7.059-4.34-12.705v-18.9h10.92v17.29c0 6.113 2.543 9.17 7.63 9.17 2.613 0 4.713-.852 6.3-2.555 1.587-1.703 2.38-4.235 2.38-7.595V17.34h10.92Z" fill="#4B8702"/><path fill-rule="evenodd" clip-rule="evenodd" d="M259.735 45.934c-1.517.584-3.255.875-5.215.875-2.473 0-4.562-.466-6.265-1.4-1.703-.933-2.952-2.333-3.745-4.2l27.86-5.39c0-3.92-.875-7.315-2.625-10.185s-4.095-5.063-7.035-6.58c-2.94-1.516-6.207-2.275-9.8-2.275-3.827 0-7.268.829-10.325 2.485-3.057 1.657-5.46 3.967-7.21 6.93-1.75 2.964-2.625 6.289-2.625 9.975 0 3.734.887 7.07 2.66 10.01 1.773 2.94 4.293 5.239 7.56 6.895 3.267 1.657 7.023 2.485 11.27 2.485 6.813 0 11.993-2.03 15.54-6.09l-5.81-6.3c-1.307 1.26-2.718 2.182-4.235 2.765ZM246.19 27.7c1.727-1.773 3.967-2.66 6.72-2.66 2.24 0 4.153.584 5.74 1.75 1.587 1.167 2.637 2.73 3.15 4.69l-18.34 3.57c.093-3.126 1.003-5.576 2.73-7.35Z" fill="#4B8702"/><path d="M328.09 16.78c4.713 0 8.458 1.388 11.235 4.164 2.777 2.777 4.165 6.942 4.165 12.495V55h-10.92V35.12c0-2.986-.618-5.215-1.855-6.685-1.237-1.47-2.998-2.205-5.285-2.205-2.567 0-4.597.829-6.09 2.485-1.493 1.657-2.24 4.119-2.24 7.385V55h-10.92V35.12c0-5.926-2.38-8.89-7.14-8.89-2.52 0-4.527.829-6.02 2.485-1.493 1.657-2.24 4.119-2.24 7.385V55h-10.92V17.34h10.43v4.34c1.4-1.586 3.115-2.8 5.145-3.64 2.03-.84 4.258-1.26 6.685-1.26 2.66 0 5.063.525 7.21 1.575a12.768 12.768 0 0 1 5.18 4.585c1.54-1.96 3.488-3.476 5.845-4.55 2.357-1.073 4.935-1.61 7.735-1.61ZM370.93 55.56c-4.013 0-7.618-.829-10.815-2.486-3.196-1.656-5.693-3.955-7.49-6.895-1.796-2.94-2.695-6.276-2.695-10.01 0-3.733.899-7.07 2.695-10.01 1.797-2.94 4.294-5.238 7.49-6.895 3.197-1.656 6.802-2.485 10.815-2.485 3.967 0 7.432.829 10.395 2.485 2.964 1.657 5.122 4.025 6.475 7.105l-8.47 4.55c-1.96-3.453-4.783-5.18-8.47-5.18-2.846 0-5.203.934-7.07 2.8-1.866 1.867-2.8 4.41-2.8 7.63 0 3.22.934 5.764 2.8 7.63 1.867 1.867 4.224 2.8 7.07 2.8 3.734 0 6.557-1.726 8.47-5.18l8.47 4.62c-1.353 2.987-3.511 5.32-6.475 7-2.963 1.68-6.428 2.52-10.395 2.52Z" fill="#4B8702"/><path fill-rule="evenodd" clip-rule="evenodd" d="M426.93 55V17.34h-17.99c-5.6 0-9.998 1.201-13.195 3.605-3.197 2.403-4.795 5.822-4.795 10.255 0 2.753.688 5.098 2.065 7.035 1.377 1.937 3.372 3.418 5.985 4.445L390.39 55h11.62l7.14-10.78h8.05V55h9.73Zm-23.065-27.51c1.19-.84 2.952-1.26 5.285-1.26h8.05v10.71h-8.19c-2.333 0-4.072-.432-5.215-1.295-1.143-.864-1.715-2.229-1.715-4.095 0-1.867.595-3.22 1.785-4.06Z" fill="#4B8702"/><path d="M82.32 85.34V123H71.4V94.3H55.72V123H44.87V85.34h37.45Z" fill="#4B8702"/><path fill-rule="evenodd" clip-rule="evenodd" d="M99.785 121.074c3.15 1.657 6.709 2.485 10.675 2.485 3.967 0 7.514-.828 10.64-2.485 3.127-1.656 5.577-3.955 7.35-6.895 1.774-2.94 2.66-6.276 2.66-10.01 0-3.733-.886-7.07-2.66-10.01-1.773-2.94-4.223-5.238-7.35-6.895-3.126-1.656-6.673-2.485-10.64-2.485-3.966 0-7.525.829-10.675 2.485-3.15 1.657-5.611 3.955-7.385 6.895-1.773 2.94-2.66 6.277-2.66 10.01 0 3.734.887 7.07 2.66 10.01 1.774 2.94 4.235 5.239 7.385 6.895Zm17.57-9.31c-1.796 1.89-4.095 2.835-6.895 2.835s-5.11-.945-6.93-2.835c-1.82-1.89-2.73-4.421-2.73-7.595 0-3.173.91-5.705 2.73-7.595 1.82-1.89 4.13-2.835 6.93-2.835s5.099.945 6.895 2.835c1.797 1.89 2.695 4.422 2.695 7.595 0 3.174-.898 5.705-2.695 7.595Z" fill="#4B8702"/><path d="M175.35 123v-22.54l-11.27 18.9h-4.62l-10.99-18.97V123h-9.87V85.34h11.41l12.04 21.77 12.81-21.77h10.22l.14 37.66h-9.87Z" fill="#4B8702"/><path fill-rule="evenodd" clip-rule="evenodd" d="M202.615 121.074c3.15 1.657 6.708 2.485 10.675 2.485 3.966 0 7.513-.828 10.64-2.485 3.126-1.656 5.576-3.955 7.35-6.895 1.773-2.94 2.66-6.276 2.66-10.01 0-3.733-.887-7.07-2.66-10.01-1.774-2.94-4.224-5.238-7.35-6.895-3.127-1.656-6.674-2.485-10.64-2.485-3.967 0-7.525.829-10.675 2.485-3.15 1.657-5.612 3.955-7.385 6.895-1.774 2.94-2.66 6.277-2.66 10.01 0 3.734.886 7.07 2.66 10.01 1.773 2.94 4.235 5.239 7.385 6.895Zm17.57-9.31c-1.797 1.89-4.095 2.835-6.895 2.835s-5.11-.945-6.93-2.835c-1.82-1.89-2.73-4.421-2.73-7.595 0-3.173.91-5.705 2.73-7.595 1.82-1.89 4.13-2.835 6.93-2.835s5.098.945 6.895 2.835c1.796 1.89 2.695 4.422 2.695 7.595 0 3.174-.899 5.705-2.695 7.595ZM298.9 114.04v-28.7h-10.85v28.7h10.85ZM294 123v7.49h10.15v-16.45h-5.25V123H294Zm-6.23 0v-8.96h-12.11v-28.7h-10.85v28.7h-12.53v-28.7h-10.85V123h46.34ZM313.145 120.06c3.057 2.66 7.572 3.99 13.545 3.99 5.74 0 10.255-1.283 13.545-3.85 3.29-2.567 4.935-6.253 4.935-11.06 0-4.48-1.33-7.887-3.99-10.22-2.66-2.334-6.347-3.5-11.06-3.5-2.287 0-4.352.233-6.195.7-1.843.466-3.348 1.12-4.515 1.96V85.34h-10.85v22.96c0 5.18 1.528 9.1 4.585 11.76Zm18.97-5.6c-1.283 1.26-3.092 1.89-5.425 1.89-2.287 0-4.072-.618-5.355-1.855-1.283-1.237-1.925-2.952-1.925-5.145v-3.08c.7-1.12 1.703-1.983 3.01-2.59 1.307-.607 2.8-.91 4.48-.91 2.287 0 4.048.583 5.285 1.75s1.855 2.777 1.855 4.83c0 2.147-.642 3.85-1.925 5.11ZM113.26 171.33c4.434 1.493 6.65 4.48 6.65 8.96 0 3.407-1.283 6.043-3.85 7.91-2.566 1.867-6.393 2.8-11.48 2.8H84.49v-37.66h19.25c4.714 0 8.4.852 11.06 2.555 2.66 1.703 3.99 4.095 3.99 7.175 0 1.867-.478 3.512-1.435 4.935-.956 1.423-2.321 2.532-4.095 3.325Zm-18.76-2.52h8.26c3.827 0 5.74-1.353 5.74-4.06 0-2.66-1.913-3.99-5.74-3.99H94.5v8.05Zm15.19 10.64c0 2.753-2.006 4.13-6.02 4.13H94.5v-8.33h9.38c2.007 0 3.477.338 4.41 1.015.934.677 1.4 1.738 1.4 3.185Z" fill="#4B8702"/><path d="M185.29 153.34V191h-10.92v-28.7h-15.68V191h-10.85v-37.66h37.45Z" fill="#4B8702"/><path fill-rule="evenodd" clip-rule="evenodd" d="M202.755 189.074c3.15 1.657 6.708 2.485 10.675 2.485 3.967 0 7.513-.828 10.64-2.485 3.127-1.656 5.577-3.955 7.35-6.895 1.773-2.94 2.66-6.276 2.66-10.01 0-3.733-.887-7.07-2.66-10.01-1.773-2.94-4.223-5.238-7.35-6.895-3.127-1.656-6.673-2.485-10.64-2.485-3.967 0-7.525.829-10.675 2.485-3.15 1.657-5.612 3.955-7.385 6.895-1.773 2.94-2.66 6.277-2.66 10.01 0 3.734.887 7.07 2.66 10.01 1.773 2.94 4.235 5.239 7.385 6.895Zm17.57-9.31c-1.797 1.89-4.095 2.835-6.895 2.835s-5.11-.945-6.93-2.835c-1.82-1.89-2.73-4.421-2.73-7.595 0-3.173.91-5.705 2.73-7.595 1.82-1.89 4.13-2.835 6.93-2.835s5.098.945 6.895 2.835c1.797 1.89 2.695 4.422 2.695 7.595 0 3.174-.898 5.705-2.695 7.595ZM280 184.699v-31.36h-10.36v4.83c-2.847-3.593-7-5.39-12.46-5.39-3.453 0-6.615.759-9.485 2.275-2.87 1.517-5.145 3.652-6.825 6.405-1.68 2.754-2.52 5.927-2.52 9.52 0 3.594.84 6.767 2.52 9.52 1.68 2.754 3.955 4.889 6.825 6.405 2.87 1.517 6.032 2.275 9.485 2.275 5.087 0 9.053-1.563 11.9-4.69v1.61c0 3.454-.898 6.032-2.695 7.735-1.797 1.704-4.585 2.555-8.365 2.555-2.427 0-4.853-.385-7.28-1.155-2.427-.77-4.433-1.808-6.02-3.115l-4.34 7.84c2.147 1.68 4.853 2.964 8.12 3.85 3.267.887 6.72 1.33 10.36 1.33 6.907 0 12.157-1.68 15.75-5.04 3.593-3.36 5.39-8.493 5.39-15.4Zm-13.545-7.035c-1.843 1.704-4.212 2.555-7.105 2.555-2.893 0-5.273-.851-7.14-2.555-1.867-1.703-2.8-3.931-2.8-6.685 0-2.753.933-4.981 2.8-6.685 1.867-1.703 4.247-2.555 7.14-2.555s5.262.852 7.105 2.555c1.843 1.704 2.765 3.932 2.765 6.685 0 2.754-.922 4.982-2.765 6.685ZM321.72 158.135c-2.707-1.47-5.857-2.205-9.45-2.205-2.707 0-5.204.479-7.49 1.435-2.287.957-4.247 2.322-5.88 4.095.373-3.593 1.598-6.37 3.675-8.33 2.076-1.96 5.261-3.36 9.555-4.2l15.82-3.15-1.47-9.38-17.92 3.57c-6.814 1.4-11.865 4.352-15.155 8.855-3.29 4.504-4.935 10.535-4.935 18.095 0 8.167 1.878 14.362 5.635 18.585 3.756 4.224 8.925 6.335 15.505 6.335 3.966 0 7.513-.758 10.64-2.275 3.126-1.516 5.565-3.663 7.315-6.44 1.75-2.776 2.625-5.961 2.625-9.555 0-3.5-.735-6.58-2.205-9.24-1.47-2.66-3.559-4.725-6.265-6.195Zm-5.285 22.505c-1.704 1.82-3.955 2.73-6.755 2.73-2.754 0-5.017-.898-6.79-2.695-1.774-1.796-2.66-4.118-2.66-6.965 0-2.846.863-5.11 2.59-6.79 1.726-1.68 4.013-2.52 6.86-2.52 2.8 0 5.051.84 6.755 2.52 1.703 1.68 2.555 3.944 2.555 6.79 0 2.8-.852 5.11-2.555 6.93ZM344.575 189.074c3.15 1.657 6.709 2.485 10.675 2.485 3.967 0 7.514-.828 10.64-2.485 3.127-1.656 5.577-3.955 7.35-6.895 1.774-2.94 2.66-6.276 2.66-10.01 0-3.733-.886-7.07-2.66-10.01-1.773-2.94-4.223-5.238-7.35-6.895-3.126-1.656-6.673-2.485-10.64-2.485-3.966 0-7.525.829-10.675 2.485-3.15 1.657-5.611 3.955-7.385 6.895-1.773 2.94-2.66 6.277-2.66 10.01 0 3.734.887 7.07 2.66 10.01 1.774 2.94 4.235 5.239 7.385 6.895Zm17.57-9.31c-1.796 1.89-4.095 2.835-6.895 2.835s-5.11-.945-6.93-2.835c-1.82-1.89-2.73-4.421-2.73-7.595 0-3.173.91-5.705 2.73-7.595 1.82-1.89 4.13-2.835 6.93-2.835s5.099.945 6.895 2.835c1.797 1.89 2.695 4.422 2.695 7.595 0 3.174-.898 5.705-2.695 7.595ZM413.21 155.159c-2.987-1.586-6.487-2.38-10.5-2.38-4.153 0-7.793.817-10.92 2.45-3.127 1.634-5.553 3.92-7.28 6.86-1.727 2.94-2.59 6.347-2.59 10.22v32.27h10.92v-17.57c2.707 3.034 6.463 4.55 11.27 4.55 3.64 0 6.86-.805 9.66-2.415 2.8-1.61 4.97-3.873 6.51-6.79 1.54-2.916 2.31-6.288 2.31-10.115 0-3.92-.817-7.35-2.45-10.29-1.633-2.94-3.943-5.203-6.93-6.79Zm-4.06 24.57c-1.773 1.914-4.083 2.87-6.93 2.87-2.893 0-5.203-.956-6.93-2.87-1.727-1.913-2.59-4.433-2.59-7.56 0-3.126.875-5.646 2.625-7.56 1.75-1.913 4.048-2.87 6.895-2.87 2.847 0 5.157.969 6.93 2.905 1.773 1.937 2.66 4.469 2.66 7.595 0 3.08-.887 5.577-2.66 7.49ZM454.265 181.934c-1.516.584-3.255.875-5.215.875-2.473 0-4.561-.466-6.265-1.4-1.703-.933-2.951-2.333-3.745-4.2l27.86-5.39c0-3.92-.875-7.315-2.625-10.185s-4.095-5.063-7.035-6.58c-2.94-1.516-6.206-2.275-9.8-2.275-3.826 0-7.268.829-10.325 2.485-3.056 1.657-5.46 3.967-7.21 6.93-1.75 2.964-2.625 6.289-2.625 9.975 0 3.734.887 7.07 2.66 10.01 1.774 2.94 4.294 5.239 7.56 6.895 3.267 1.657 7.024 2.485 11.27 2.485 6.814 0 11.994-2.03 15.54-6.09l-5.81-6.3c-1.306 1.26-2.718 2.182-4.235 2.765Zm-13.545-18.235c1.727-1.773 3.967-2.66 6.72-2.66 2.24 0 4.154.584 5.74 1.75 1.587 1.167 2.637 2.73 3.15 4.69l-18.34 3.57c.094-3.126 1.004-5.576 2.73-7.35ZM482.965 167.97c-1.097 1.587-1.645 3.593-1.645 6.02h10.57c0-1.493.397-2.765 1.19-3.815.793-1.05 2.053-2.345 3.78-3.885 1.447-1.307 2.625-2.462 3.535-3.465.91-1.003 1.68-2.228 2.31-3.675.63-1.447.945-3.127.945-5.04 0-4.06-1.622-7.233-4.865-9.52-3.243-2.287-7.548-3.43-12.915-3.43-4.573 0-8.528.817-11.865 2.45-3.337 1.633-5.985 3.943-7.945 6.93l8.47 4.97c1.167-1.633 2.602-2.905 4.305-3.815 1.703-.91 3.652-1.365 5.845-1.365 2.287 0 4.118.502 5.495 1.505 1.377 1.003 2.065 2.368 2.065 4.095a5.26 5.26 0 0 1-1.085 3.255c-.723.957-1.855 2.135-3.395 3.535-2.1 1.913-3.698 3.663-4.795 5.25Zm-1.12 21.735c1.283 1.237 2.882 1.855 4.795 1.855 1.913 0 3.512-.618 4.795-1.855s1.925-2.742 1.925-4.515c0-1.773-.63-3.255-1.89-4.445-1.26-1.19-2.87-1.785-4.83-1.785s-3.57.595-4.83 1.785c-1.26 1.19-1.89 2.672-1.89 4.445 0 1.773.642 3.278 1.925 4.515Z" fill="#4B8702"/></svg>