<svg xmlns="http://www.w3.org/2000/svg">
    <symbol viewBox="0 0 29 19" id="sidebar-icon"><path fill-rule="evenodd" d="M29 0H0v3h29V0Zm-8 8H0v3h21V8ZM0 16h29v3H0v-3Z" clip-rule="evenodd"/></symbol>
    <symbol viewBox="0 0 14 7" id="dropdown-arrow"><path fill-rule="evenodd" clip-rule="evenodd" d="M12 0 7 5 2 0H0l7 7 7-7h-2Z"/></symbol>
    <symbol viewBox="0 0 15 20" id="call-icon"><g clip-path="url(#a)"><path d="m13.953 16.568-1.924-2.448c-.683-.872-1.965-1.017-2.813-.312l-.973.81a.562.562 0 0 1-.724-.042 17.116 17.116 0 0 1-3.806-7.054c-.062-.27.083-.56.352-.643l1.179-.394a2.012 2.012 0 0 0 1.262-2.552L5.47 1.03A1.54 1.54 0 0 0 3.3.179c-3.124 1.7-5.027 5.393-1.055 12.696 3.972 7.302 8.11 7.676 11.233 5.975.828-.436 1.055-1.536.476-2.282Z"/></g><defs><clipPath id="a"><path fill="#fff" d="M0 0h14.275v19.69H0z"/></clipPath></defs></symbol>
    <symbol viewBox="0 0 22 31" id="phone-icon-mobi"><path fill-rule="evenodd" d="M19.472 19.508a4.112 4.112 0 0 0-5.763-1.551l-.77.463s-1.01-1.681-1.808-3.543-1.393-3.925-1.393-3.925l.872-.53c1.98-1.2 2.661-3.79 1.552-5.838L10.818 2.16A4.128 4.128 0 0 0 5.065.59L2.123 2.376C-1.194 4.398-.62 11.1 3.815 19.167c4.482 8.13 9.098 12.455 12.516 10.385l.077-.052c.08-.055.145-.1.223-.15.081-.04.108-.053.146-.07l.149-.079 2.336-1.416c1.985-1.224 2.662-3.808 1.547-5.865l-1.337-2.412Zm-4.211 1.017a1.114 1.114 0 0 1 1.582.43l1.337 2.411c.348.65.13 1.482-.484 1.86l-2.258 1.369a17.57 17.57 0 0 0-.27.13l-.193.089-.16.138a1.645 1.645 0 0 1-.116.084c-1.035.623-4.622-2.727-8.255-9.315-1.7-3.093-2.159-5.404-2.646-7.855l-.171-.854c-.485-2.37-.303-3.854.057-4.073l2.928-1.78c.555-.33 1.257-.137 1.577.448l1.34 2.419c.346.636.128 1.465-.477 1.831l-1.96 1.194-1.07.651.45 1.169s.853 2.92 2.03 5.454c1.178 2.533 2.823 4.988 2.823 4.988l.812 1.09 3.124-1.878Z" clip-rule="evenodd"/></symbol>
    <symbol viewBox="0 0 27 26" id="search"><path fill-rule="evenodd" clip-rule="evenodd" d="M18.197 19.319A10.957 10.957 0 0 1 11 22C4.925 22 0 17.075 0 11S4.925 0 11 0s11 4.925 11 11c0 2.24-.67 4.322-1.819 6.06l6.269 6.268-2.122 2.122-6.13-6.131ZM19 11a8 8 0 1 1-16 0 8 8 0 0 1 16 0Z"/></symbol>
    <symbol viewBox="0 0 27 26" id="favorites"><path fill-rule="evenodd" d="M12.874 1.085 13.5.723l.626.362a8.22 8.22 0 0 1 4.088 6.529l.006.107.143-.037a8.218 8.218 0 0 1 7.253 1.68l.22.19.538.483-.152.708a8.22 8.22 0 0 1-4.946 5.905l-.156.059.099.152a8.219 8.219 0 0 1 .637 7.39l-.117.278-.294.661-.72.075a8.22 8.22 0 0 1-7.144-2.88l-.094-.115-.068.085a8.218 8.218 0 0 1-6.855 2.904l-.29-.025-.72-.075-.293-.662a8.22 8.22 0 0 1 .52-7.667l.082-.127-.14-.053a8.22 8.22 0 0 1-4.88-5.622l-.065-.283-.152-.708.539-.483a8.22 8.22 0 0 1 7.471-1.87l.144.038.006-.108a8.218 8.218 0 0 1 3.839-6.379l.249-.15Zm.791 2.715-.165-.132-.165.132a5.712 5.712 0 0 0-2.025 5.121 1.534 1.534 0 0 1-2.18 1.58 5.712 5.712 0 0 0-5.492.309l-.21.136.074.199a5.713 5.713 0 0 0 3.315 3.248l.233.081c.241.079.486.14.73.186a1.532 1.532 0 0 1 .838 2.562 5.714 5.714 0 0 0-1.341 5.522l.009.031a5.71 5.71 0 0 0 4.318-2.15l.156-.204a5.8 5.8 0 0 0 .385-.605 1.532 1.532 0 0 1 2.694 0 5.714 5.714 0 0 0 4.874 2.99l.08-.297a5.713 5.713 0 0 0-.785-4.464l-.152-.22a5.752 5.752 0 0 0-.49-.59 1.533 1.533 0 0 1 .83-2.57l.254-.052a5.713 5.713 0 0 0 4.048-3.467l.073-.2-.209-.136a5.712 5.712 0 0 0-4.548-.66l-.246.074c-.239.077-.472.17-.695.276a1.532 1.532 0 0 1-2.183-1.575A5.712 5.712 0 0 0 13.665 3.8Z" clip-rule="evenodd"/></symbol>
    <symbol viewBox="0 0 24 24" id="lk"><path fill-rule="evenodd" d="M24 21.096c0-1.929-1.313-3.61-3.184-4.078l-4.598-1.149.006-.586c.006-.526.224-1.05.623-1.487 1.312-1.439 1.952-2.825 2.16-4.437.078-.606.093-1.066.093-2.107 0-3.978-3.13-7.18-7.076-7.252A7.214 7.214 0 0 0 4.9 7.251c0 1.04.015 1.501.093 2.107.208 1.612.848 2.998 2.16 4.437.399.437.617.96.623 1.487l.006.586-4.598 1.15A4.205 4.205 0 0 0 0 21.095v1.618C0 23.424.576 24 1.286 24h21.428c.71 0 1.286-.576 1.286-1.286v-1.618Zm-3.73-1.512a1.647 1.647 0 0 1 1.247 1.598v.335H2.483v-.335c0-.756.515-1.415 1.248-1.6l4.882-1.22a2.28 2.28 0 0 0 1.727-2.236l-.008-.84c-.013-1.188-.486-2.324-1.307-3.224-.964-1.057-1.382-1.96-1.523-3.06-.06-.465-.073-.856-.073-1.795 0-2.602 2.03-4.677 4.595-4.724 2.518.047 4.547 2.122 4.547 4.725 0 .939-.013 1.33-.073 1.795-.141 1.1-.559 2.003-1.523 3.06-.82.9-1.294 2.036-1.306 3.225l-.01.84a2.28 2.28 0 0 0 1.729 2.236l4.882 1.22Z" clip-rule="evenodd"/></symbol>
    <symbol viewBox="0 0 30 24" id="basket"><path fill-rule="evenodd" d="M0 2.526h6.03L10.395 16h16.068L30 4.525H9.305L7.84 0H0v2.526Zm24.627 10.948H12.205l-2.081-6.422h16.482l-1.98 6.422Zm-7.146 7.579c0 1.627-1.304 2.947-2.913 2.947-1.61 0-2.914-1.32-2.914-2.947 0-1.628 1.305-2.948 2.914-2.948 1.609 0 2.913 1.32 2.913 2.948ZM23.724 24c1.61 0 2.914-1.32 2.914-2.947 0-1.628-1.305-2.948-2.914-2.948-1.609 0-2.913 1.32-2.913 2.948 0 1.627 1.304 2.947 2.913 2.947Z" clip-rule="evenodd"/></symbol>
    <symbol viewBox="0 0 13 20" id="phone"><path fill-rule="evenodd" clip-rule="evenodd" d="M0 2a2 2 0 0 1 2-2h9a2 2 0 0 1 2 2v16a2 2 0 0 1-2 2H2a2 2 0 0 1-2-2V2Zm3 15a1 1 0 0 1 1-1h5a1 1 0 1 1 0 2H4a1 1 0 0 1-1-1ZM6.5 2a1.5 1.5 0 1 0 0 3 1.5 1.5 0 0 0 0-3Z"/></symbol>
    <symbol viewBox="0 0 20 16" id="email"><path fill-rule="evenodd" clip-rule="evenodd" d="m20 2-2-2-2 2-2-2-2 2-2-2-2 2-2-2-2 2-2-2-2 2 2 2-2 2 2 2-2 2 2 2-2 2 2 2 2-2 2 2 2-2 2 2 2-2 2 2 2-2 2 2 2-2-2-2 2-2-2-2 2-2-2-2 2-2Zm-10 9L4 6V4l6 4 6-4v2l-6 5Z"/></symbol>
    <symbol viewBox="0 0 24 14" id="vk"><path d="M23.058.615h-3.894a.876.876 0 0 0-.775.477s-1.553 2.94-2.052 3.931c-1.342 2.665-2.212 1.828-2.212.591V1.35c0-.742-.585-1.343-1.307-1.343H9.89a2.321 2.321 0 0 0-2.072.988S9.305.748 9.305 2.808c0 .51.025 1.98.049 3.212a.888.888 0 0 1-.546.848.847.847 0 0 1-.961-.234A26.44 26.44 0 0 1 4.89 1.105a.82.82 0 0 0-.746-.49H.605A.596.596 0 0 0 .11.88a.633.633 0 0 0-.071.57C1.112 4.478 5.74 14 11.023 14h2.224a.891.891 0 0 0 .878-.903v-1.38c0-.354.205-.674.52-.815a.845.845 0 0 1 .934.168l2.662 2.57c.239.231.555.36.883.36h3.495c1.685 0 1.685-1.203.766-2.133-.647-.655-2.98-3.184-2.98-3.184a1.266 1.266 0 0 1-.093-1.61c.754-1.02 1.988-2.692 2.511-3.407.715-.979 2.01-3.05.235-3.05Z"/></symbol>
    <symbol viewBox="0 0 21 23" id="viber"><path fill-rule="evenodd" clip-rule="evenodd" d="M13.455 8.952a.29.29 0 0 0 .076-.22c-.091-1.084-1.105-2.096-1.96-2.04-.112.007-.219.08-.325.164a.28.28 0 0 0-.052.392c.07.091.144.171.232.192.742.175 1.173.598 1.33 1.353.021.105.115.196.219.284.116.1.29.09.392-.025l.088-.1Zm1.078-1.787c-.73-1.294-1.915-1.962-3.38-2.103-.19-.018-.518.144-.579.3-.12.309.172.417.435.479.28.065.558.132.835.206 1.279.34 2.072 1.146 2.332 2.454.063.314.083.64.186.94.047.136.242.286.384.3.097.011.242-.186.32-.317.055-.092-.21-1.688-.533-2.26Zm2.209 2.416c-.036-2.209-1.355-4.341-3.357-5.424-.892-.483-1.847-.742-2.862-.7-.092.004-.18.073-.268.155a.279.279 0 0 0-.018.392c.074.08.15.153.241.186.264.099.563.098.843.157 1.708.36 3.196 1.088 3.915 2.782.356.839.484 1.776.704 2.671.063.26.045.588.421.58.38-.008.367-.325.381-.597.004-.067 0-.135 0-.202ZM3.412 5.959a.284.284 0 0 0 .01.1c.115.403.199.818.358 1.202 1.794 4.345 4.895 7.42 9.137 9.39 1.533.711 2.965.227 3.725-1.29.352-.703.27-1.224-.337-1.71a26.983 26.983 0 0 0-1.916-1.412c-.864-.573-1.51-.454-2.168.335-.489.587-.804.668-1.502.352-1.287-.583-2.296-1.472-2.972-2.723-.47-.868-.57-1.575.389-2.24.57-.394.69-.891.327-1.462a23.579 23.579 0 0 0-1.825-2.474c-.195-.232-.621-.387-.937-.38-1.176.025-2.191 1.118-2.289 2.312Zm1.64 16.511v-.007c-.021-.98-.073-1.961-.036-2.94.023-.623-.205-.958-.778-1.176-1.59-.605-2.801-1.654-3.394-3.274a13.14 13.14 0 0 1-.688-2.688c-.268-1.934-.159-3.87.083-5.81C.647 3.313 2.547 1.438 5.616.59 7.627.034 9.684-.112 11.747.08a28.91 28.91 0 0 1 4.19.688c2.78.683 4.332 2.534 4.759 5.352.39 2.575.461 5.138-.125 7.703-.616 2.694-2.254 4.296-4.938 4.893-1.874.416-3.764.65-5.68.56-.735-.034-1.329.164-1.815.702-.758.84-1.512 1.684-2.273 2.521-.065.07-.131.14-.2.207-.198.165-.61.165-.613-.236Z"/></symbol>
    <symbol viewBox="0 0 29 28" id="close"><g clip-path="url(#a)"><path fill-rule="evenodd" d="M2.566 0 .5 2.066 12.434 14 .5 25.934 2.566 28 14.5 16.066 26.434 28l2.066-2.066L16.566 14 28.5 2.066 26.434 0 14.5 11.934 2.566 0Z" clip-rule="evenodd"/></g><defs><clipPath id="a"><path d="M.5 0h28v28H.5z"/></clipPath></defs></symbol>
    <symbol viewBox="0 0 16 17" id="clear"><path fill-rule="evenodd" d="M8 .152c-4.4 0-8 3.6-8 8s3.6 8 8 8 8-3.6 8-8-3.6-8-8-8Zm4 11.05-1.12 1.186L8 9.338l-2.88 3.05L4 11.202l2.88-3.05L4 5.102l1.12-1.185L8 6.967l2.88-3.05L12 5.103l-2.88 3.05L12 11.201Z" clip-rule="evenodd"/></symbol>
    <symbol viewBox="0 0 38 30" id="thank"><path fill-rule="evenodd" d="M38 5.714 14.074 30l-5.63-5.714.121-.124L0 15.47l5.63-5.714 8.565 8.693L32.37 0 38 5.714Z" clip-rule="evenodd"/></symbol>
    <symbol viewBox="0 0 15 19" id="delete"><path fill-rule="evenodd" d="M15 3V2c0 .123-.063.11-.251.075C14.594 2.045 14.356 2 14 2h-4V1c.313-.552-.107-1-1-1H6c-.893 0-1.313.448-1 1v1H1a3.68 3.68 0 0 0-.749.075C.063 2.111 0 2.123 0 2v1c0 .776.21 1 1 1h13c.79 0 1-.224 1-1ZM3 19c-.312.002-1.124-.753-1-2L1 6h13l-1 11c.142 1.247-.67 2.002-1 2H3Z" clip-rule="evenodd"/></symbol>
    <symbol viewBox="0 0 18 18" id="favorites-btn"><path fill-rule="evenodd" d="M4.469 11.11a.22.22 0 0 0-.121-.37A5.456 5.456 0 0 1 0 6.509a5.455 5.455 0 0 1 6-.87.222.222 0 0 0 .316-.228A5.455 5.455 0 0 1 9 0a5.454 5.454 0 0 1 2.684 5.411.221.221 0 0 0 .316.228 5.454 5.454 0 0 1 6 .87 5.455 5.455 0 0 1-4.366 4.234.221.221 0 0 0-.121.371 5.455 5.455 0 0 1 1.04 5.99 5.455 5.455 0 0 1-5.365-2.824.22.22 0 0 0-.389 0 5.455 5.455 0 0 1-5.353 2.8 5.455 5.455 0 0 1 1.023-5.97Z" clip-rule="evenodd"/></symbol>
    <symbol viewBox="0 0 16 16" id="purchase"><path fill-rule="evenodd" clip-rule="evenodd" d="M7.101 9.928 1.182 15.55A.7.7 0 0 1 0 15.043V.957A.7.7 0 0 1 1.182.45l5.92 5.623V.957A.7.7 0 0 1 8.282.45l7.185 6.825a1 1 0 0 1 0 1.45l-7.185 6.826a.7.7 0 0 1-1.182-.508V9.928Z"/></symbol>
    <symbol viewBox="0 0 53 43" id="basket-empty"><path opacity=".503" fill-rule="evenodd" clip-rule="evenodd" d="M10.657 0C14.9 0 18.34 3.428 18.34 7.655s-3.44 7.654-7.682 7.654c-4.241 0-7.68-3.427-7.68-7.654S6.415 0 10.656 0Zm31.686 0c4.242 0 7.678 3.428 7.678 7.655s-3.437 7.654-7.678 7.654c-4.243 0-7.68-3.427-7.68-7.654S38.1 0 42.342 0ZM26.5 23.388A29.16 29.16 0 0 0 .861 38.608a2.968 2.968 0 0 0 1.202 4.033c1.451.782 3.261.245 4.045-1.198A23.197 23.197 0 0 1 26.5 29.334a23.2 23.2 0 0 1 20.393 12.11 2.988 2.988 0 0 0 4.045 1.195 2.968 2.968 0 0 0 1.2-4.03A29.16 29.16 0 0 0 26.5 23.388Z"/></symbol>
    <symbol viewBox="0 0 21 17" id="delivery"><path fill-rule="evenodd" clip-rule="evenodd" d="M11 0H.664C.266 0 0 .268 0 .537v10.725c0 .671.266 1.074.664 1.477.133.134.399.134.532-.135.531-1.208 1.86-2.013 3.321-2.013 1.595 0 2.924 1.074 3.455 2.416.133.134.266.268.399.268h1.86c1.063 0 1.86-.94 1.769-2.275V1c0-.87-.89-.983-1.005-.998-.008 0-.013-.001-.013-.002H11Zm6.201 3.684c.159 0 .475.16.633.32l2.85 2.878c.158.16.316.48.316.64v3.838c0 .799-.317 1.279-.791 1.758-.159.16-.475 0-.633-.16-.792-1.439-2.216-2.398-3.958-2.398-.633 0-1.107.16-1.74.48-.317 0-.475-.16-.475-.356v-6c0-.68.316-1 .791-1h3.007Zm-1.663 13.295a2.19 2.19 0 0 0 2.179-2.201 2.19 2.19 0 0 0-2.18-2.202 2.19 2.19 0 0 0-2.179 2.202 2.19 2.19 0 0 0 2.18 2.201Zm-11.076 0a2.19 2.19 0 0 0 2.18-2.201 2.19 2.19 0 0 0-2.18-2.202 2.19 2.19 0 0 0-2.179 2.202 2.19 2.19 0 0 0 2.18 2.201Z"/></symbol>
    <symbol viewBox="0 0 9 12" id="arrow-down"><path d="M4.943 0v8.763L8.25 5.44V7.88L4.13 12 0 7.879V5.44l3.313 3.323V0h1.63Z" fill-opacity=".43"/></symbol>
    <symbol viewBox="0 0 12 22" id="arrow-slider"><path fill-rule="evenodd" d="m1.334 21.307-.955-.955 9.546-9.546L.38 1.259l.955-.954 10.5 10.5-10.5 10.502Z" clip-rule="evenodd"/></symbol>
    <symbol viewBox="0 0 24 16" id="arrow"><path fill-rule="evenodd" clip-rule="evenodd" d="M0 7.245h21.012L14.252.5h2.251L24 7.995 16.503 15.5h-2.25l6.76-6.75H0V7.245Z"/></symbol>
    <symbol viewBox="0 0 58 21" id="arrow-slider-detail"><path fill-rule="evenodd" clip-rule="evenodd" d="M29 .502 29.003.5l.003.005 28.592 16.507-2.014 3.488L29 5.152 2.418 20.5.403 17.012 28.995.505 28.998.5 29 .502Z"/></symbol>
    <symbol viewBox="0 0 30 30" id="share"><mask id="a" maskUnits="userSpaceOnUse" x="0" y="0" width="30" height="30" fill="#000"><path fill="#fff" d="M0 0h30v30H0z"/><path fill-rule="evenodd" clip-rule="evenodd" d="M18.64 19.68c1.04-1.3 2.47-2.08 4.16-2.08 2.86 0 5.2 2.34 5.2 5.2 0 2.86-2.34 5.2-5.2 5.2-2.86 0-5.2-2.34-5.2-5.2 0-.13.033-.26.065-.39.033-.13.065-.26.065-.39l-6.37-2.6c-1.04 1.3-2.47 2.08-4.16 2.08-2.86 0-5.2-2.34-5.2-5.2 0-2.86 2.34-5.2 5.2-5.2 1.43 0 2.73.65 3.64 1.56l7.02-4.03a26.238 26.238 0 0 0-.066-.257c-.105-.4-.194-.742-.194-1.173 0-2.86 2.34-5.2 5.2-5.2C25.66 2 28 4.34 28 7.2c0 2.86-2.34 5.2-5.2 5.2-1.43 0-2.73-.65-3.77-1.56l-6.89 4.03c.022.09.044.174.066.257.104.4.194.742.194 1.173 0 .26 0 .52-.13.78l6.37 2.6ZM25.4 7.2c0-1.43-1.17-2.6-2.6-2.6-1.43 0-2.6 1.17-2.6 2.6 0 1.43 1.17 2.6 2.6 2.6 1.43 0 2.6-1.17 2.6-2.6ZM7.2 18.9c-1.43 0-2.6-1.17-2.6-2.6 0-1.43 1.17-2.6 2.6-2.6 1.43 0 2.6 1.17 2.6 2.6 0 1.43-1.17 2.6-2.6 2.6Zm13 3.9c0 1.43 1.17 2.6 2.6 2.6 1.43 0 2.6-1.17 2.6-2.6 0-1.43-1.17-2.6-2.6-2.6-1.43 0-2.6 1.17-2.6 2.6Z"/></mask><path fill-rule="evenodd" clip-rule="evenodd" d="M18.64 19.68c1.04-1.3 2.47-2.08 4.16-2.08 2.86 0 5.2 2.34 5.2 5.2 0 2.86-2.34 5.2-5.2 5.2-2.86 0-5.2-2.34-5.2-5.2 0-.13.033-.26.065-.39.033-.13.065-.26.065-.39l-6.37-2.6c-1.04 1.3-2.47 2.08-4.16 2.08-2.86 0-5.2-2.34-5.2-5.2 0-2.86 2.34-5.2 5.2-5.2 1.43 0 2.73.65 3.64 1.56l7.02-4.03a26.238 26.238 0 0 0-.066-.257c-.105-.4-.194-.742-.194-1.173 0-2.86 2.34-5.2 5.2-5.2C25.66 2 28 4.34 28 7.2c0 2.86-2.34 5.2-5.2 5.2-1.43 0-2.73-.65-3.77-1.56l-6.89 4.03c.022.09.044.174.066.257.104.4.194.742.194 1.173 0 .26 0 .52-.13.78l6.37 2.6ZM25.4 7.2c0-1.43-1.17-2.6-2.6-2.6-1.43 0-2.6 1.17-2.6 2.6 0 1.43 1.17 2.6 2.6 2.6 1.43 0 2.6-1.17 2.6-2.6ZM7.2 18.9c-1.43 0-2.6-1.17-2.6-2.6 0-1.43 1.17-2.6 2.6-2.6 1.43 0 2.6 1.17 2.6 2.6 0 1.43-1.17 2.6-2.6 2.6Zm13 3.9c0 1.43 1.17 2.6 2.6 2.6 1.43 0 2.6-1.17 2.6-2.6 0-1.43-1.17-2.6-2.6-2.6-1.43 0-2.6 1.17-2.6 2.6Z"/><path d="m18.64 19.68-.756 1.852 2.317-.602-1.561-1.25Zm-.975 2.73-1.94-.485 1.94.485Zm.065-.39h2l-1.244-1.852-.756 1.852Zm-6.37-2.6.756-1.852-2.318.602 1.562 1.25Zm-.52-6.76-1.414 1.414 2.41.32-.996-1.734Zm7.02-4.03.996 1.735.944-2.22-1.94.485Zm-.066-.257 1.935-.505v-.001l-1.935.506Zm0 0-1.939.492.004.014 1.935-.506Zm0 0 1.938-.493-.003-.013-1.935.506Zm1.236 2.467 1.317-1.505-2.327-.221 1.01 1.726Zm-6.89 4.03-1.01-1.726-.93 2.211 1.94-.485Zm.066.257 1.952-.434-.017-.071-1.935.505Zm0 0-1.952.434.017.072 1.935-.506Zm.064 1.953-1.79-.894 1.034 2.746.756-1.852ZM22.8 15.6c-2.37 0-4.35 1.115-5.722 2.83l3.123 2.5c.708-.885 1.588-1.33 2.599-1.33v-4Zm0 0v4-4Zm7.2 7.2c0-3.965-3.235-7.2-7.2-7.2v4c1.756 0 3.2 1.444 3.2 3.2h4ZM22.8 30c3.965 0 7.2-3.235 7.2-7.2h-4c0 1.755-1.444 3.2-3.2 3.2v4Zm-7.2-7.2c0 3.965 3.235 7.2 7.2 7.2v-4a3.215 3.215 0 0 1-3.2-3.2h-4Zm.125-.875c-.021.083-.125.456-.125.875h4a1.113 1.113 0 0 1-.014.174l.002-.01.017-.069-3.88-.97Zm.005.095a1.087 1.087 0 0 1 .014-.174l-.002.01a4.334 4.334 0 0 1-.017.069l3.88.97c.021-.083.125-.456.125-.875h-4Zm-5.126-.748 6.37 2.6 1.512-3.704-6.37-2.6-1.512 3.704ZM7.2 23.5c2.37 0 4.35-1.115 5.722-2.83l-3.124-2.5c-.707.885-1.587 1.33-2.598 1.33v4ZM0 16.3c0 3.965 3.235 7.2 7.2 7.2v-4A3.215 3.215 0 0 1 4 16.3H0Zm7.2-7.2C3.235 9.1 0 12.335 0 16.3h4c0-1.756 1.444-3.2 3.2-3.2v-4Zm5.054 2.146C11.028 10.02 9.238 9.1 7.2 9.1v4c.822 0 1.632.38 2.226.974l2.828-2.828Zm4.61-4.35-7.02 4.03 1.992 3.469 7.02-4.03-1.992-3.47ZM15.86 8.879l.06.236 3.881-.97-.071-.277-3.87 1.01Zm0 0 3.87-1.012-3.87 1.012Zm-.004-.014 3.877-.984-3.877.984ZM15.6 7.2c0 .72.158 1.294.259 1.678l3.87-1.01c-.11-.417-.13-.527-.13-.668h-4ZM22.8 0c-3.965 0-7.2 3.235-7.2 7.2h4c0-1.756 1.444-3.2 3.2-3.2V0ZM30 7.2C30 3.235 26.765 0 22.8 0v4C24.555 4 26 5.444 26 7.2h4Zm-7.2 7.2c3.965 0 7.2-3.235 7.2-7.2h-4c0 1.756-1.445 3.2-3.2 3.2v4Zm-5.087-2.055c1.286 1.126 3.035 2.055 5.087 2.055v-4c-.809 0-1.66-.37-2.453-1.065l-2.634 3.01Zm-4.564 4.251 6.89-4.03-2.02-3.452-6.89 4.03 2.02 3.452Zm.992-1.974-.061-.237-3.88.97.07.278 3.87-1.011Zm.017.071-3.904.868 3.904-.868ZM14.4 16.3c0-.72-.159-1.294-.259-1.678l-3.87 1.01c.109.417.129.527.129.668h4Zm-.341 1.674c.37-.74.34-1.464.34-1.674h-4v.133c-.001.024-.002.024 0 .009a.909.909 0 0 1 .082-.256l3.578 1.788Zm5.336-.146-6.37-2.6-1.511 3.704 6.37 2.6 1.511-3.704ZM22.8 6.6c.325 0 .6.275.6.6h4c0-2.535-2.066-4.6-4.6-4.6v4Zm-.6.6c0-.325.274-.6.6-.6v-4a4.608 4.608 0 0 0-4.6 4.6h4Zm.6.6a.608.608 0 0 1-.6-.6h-4c0 2.535 2.065 4.6 4.6 4.6v-4Zm.6-.6c0 .325-.275.6-.6.6v4c2.534 0 4.6-2.065 4.6-4.6h-4ZM2.6 16.3c0 2.535 2.065 4.6 4.6 4.6v-4a.608.608 0 0 1-.6-.6h-4Zm4.6-4.6a4.608 4.608 0 0 0-4.6 4.6h4c0-.325.274-.6.6-.6v-4Zm4.6 4.6c0-2.535-2.066-4.6-4.6-4.6v4c.325 0 .6.275.6.6h4Zm-4.6 4.6c2.534 0 4.6-2.065 4.6-4.6h-4c0 .325-.275.6-.6.6v4Zm15.6 2.5a.608.608 0 0 1-.6-.6h-4c0 2.535 2.065 4.6 4.6 4.6v-4Zm.6-.6c0 .325-.275.6-.6.6v4c2.534 0 4.6-2.065 4.6-4.6h-4Zm-.6-.6c.325 0 .6.274.6.6h4c0-2.535-2.066-4.6-4.6-4.6v4Zm-.6.6c0-.326.274-.6.6-.6v-4a4.608 4.608 0 0 0-4.6 4.6h4Z" fill="transparent" mask="url(#a)"/></symbol>
    <symbol viewBox="0 0 17 18" id="reset"><path fill-rule="evenodd" clip-rule="evenodd" d="M11 1a8.003 8.003 0 0 1 1.956 14.703L15 17.748H9v-6l1.703 1.702a5.002 5.002 0 0 0 .298-9.286V1ZM6 16.748A8.003 8.003 0 0 1 4.043 2.045L2 0h6v6L6.297 4.298a5.002 5.002 0 0 0-.298 9.285v3.165Z"/></symbol>
    <symbol viewBox="0 0 24 14" id="arrow-pogin" ><path fill-rule="evenodd" clip-rule="evenodd" d="M23.253 6.296H3.642L9.95 0h-2.1L.852 6.995 7.85 14h2.101l-6.31-6.3h19.612V6.296Z"/></symbol>
    <symbol viewBox="0 0 20 20" id="setting"><path fill-rule="evenodd" d="M2 0h2v3.17a3.001 3.001 0 0 1 0 5.66V20H2V8.83a3.001 3.001 0 0 1 0-5.66V0Zm5 14c0 1.306.835 2.418 2 2.83V20h2v-3.17a3.001 3.001 0 0 0 0-5.66V0H9v11.17A3.001 3.001 0 0 0 7 14ZM18 0h-2v5.17a3.001 3.001 0 0 0 0 5.66V20h2v-9.17a3.001 3.001 0 0 0 0-5.66V0Zm0 8a1 1 0 1 1-2 0 1 1 0 0 1 2 0Zm-8 7a1 1 0 1 0 0-2 1 1 0 0 0 0 2ZM4 6a1 1 0 1 1-2 0 1 1 0 0 1 2 0Z" clip-rule="evenodd"/></symbol>
    <symbol viewBox="0 0 74 68" id="empty"><path fill-rule="evenodd" clip-rule="evenodd" d="M37 18.224c.801 0 1.451-.653 1.451-1.458V1.458C38.451.653 37.801 0 37 0s-1.451.653-1.451 1.458v15.308c0 .805.65 1.458 1.451 1.458Zm-19.567 6.925L0 43.007V61.26a5.804 5.804 0 0 0 5.804 5.803h62.392A5.804 5.804 0 0 0 74 61.26V43.007L56.568 25.15a3.627 3.627 0 0 0-2.596-1.094H20.028c-.977 0-1.913.394-2.595 1.094Zm2.155 1.822L5.441 41.55h18.137v2.946a6.53 6.53 0 0 0 6.53 6.53h13.784a6.53 6.53 0 0 0 6.53-6.53V41.55h18.137L54.412 26.97H19.588ZM2.891 44.516h17.922a9.134 9.134 0 0 0 9.134 9.134h14.106a9.134 9.134 0 0 0 9.135-9.134h17.921v16.187a3.469 3.469 0 0 1-3.468 3.469H6.359a3.469 3.469 0 0 1-3.468-3.469V44.516ZM47.833 18.08a1.45 1.45 0 1 1-2.803-.755l3.943-14.786a1.45 1.45 0 1 1 2.803.754L47.834 18.08ZM28.26 19.11a1.459 1.459 0 0 0 1.026-1.785L25.343 2.539a1.45 1.45 0 1 0-2.803.754l3.943 14.787a1.45 1.45 0 0 0 1.777 1.03Z"/></symbol>
    <symbol viewBox="0 0 23 15" id="order-location"><path d="m22.948 7.09-.747-2.4.516-1.678-.666-.946.561-1.607c.103-.295-.173-.573-.409-.412l-.95.65-.954.399-1.718 2.056-1.467.23-.78 1.052-1.86-.143.059-.943c.046-.746-.668-1.225-1.2-.804l-2.02 1.6-.815-.816-1.244.843-2.46-.999.063-.932c.055-.825-.71-1.382-1.324-.963l-1.23.84-1.189-.268c-.505-.114-.957.38-.892.974l.073.651-.41 2.241L.454 6.741c-.382.274-.549.819-.4 1.311.11.366.258 1.28.42 2.224.145.853 1.16.947 1.42.131l.431-1.362.386-.309c.32-.254.747-.214 1.027.097l.705.784 1.152-.105 2.08.32.737 1.907c.075.195.212.35.382.431l1.569.756a.627.627 0 0 0 .51.017l1.547-.62.892.854 2.252.558c.25.061.5-.1.588-.38l.655-2.095 1.122 1.205 1.447.114-.353 1.43c-.08.326.03.675.274.862.332.255.78.119.962-.292l.944-2.133-.949-2.382-1.364-.338.07-1.3.933-.745.329-2.261.779 1.705.377.795c.228.48.744.66 1.16.404.382-.235.557-.761.41-1.234Z"/></symbol>
    <symbol viewBox="0 0 20 20" id="order-customer"><path d="M17.346 14.182A3.503 3.503 0 0 1 20 17.58v1.349C20 19.52 19.52 20 18.929 20H1.07C.48 20 0 19.52 0 18.929V17.58a3.504 3.504 0 0 1 2.653-3.399l3.832-.957-.005-.49c-.005-.437-.187-.874-.52-1.238-1.093-1.199-1.626-2.354-1.8-3.698-.064-.505-.076-.888-.076-1.755A6.012 6.012 0 0 1 10.02 0c3.288.06 5.896 2.729 5.896 6.044 0 .867-.012 1.25-.077 1.755-.173 1.344-.706 2.499-1.8 3.697-.332.364-.514.801-.519 1.24l-.005.489 3.831.957Z"/></symbol>
    <symbol viewBox="0 0 21 21" id="order-deliveri"><path fill-rule="evenodd" clip-rule="evenodd" d="M0 8.475C0 3.784 4.714 0 10.5 0S20.978 3.784 21 8.475c0 .11-.045.222-.134.31l-6.859 7.236a1.791 1.791 0 0 0-.647-.642l6.635-6.992c-.112-.465-1.162-1.085-2.815-1.085-1.765 0-2.726.576-2.882 1.151l-2.078 6.639h-.96l2.033-6.506a.556.556 0 0 0-.045-.376c-.29-.42-1.273-.908-2.726-.908-1.496 0-2.502.487-2.77.93a.484.484 0 0 0 0 .354l2.033 6.506h-.983L6.724 8.453c-.156-.509-1.117-1.15-2.86-1.15-1.652 0-2.702.619-2.814 1.084l6.59 6.992a1.792 1.792 0 0 0-.647.642L.134 8.785A.435.435 0 0 1 0 8.475Zm7.663 8.498c0-.531.424-.952.96-.952h3.754c.536 0 .983.443.983.974v3.053a.949.949 0 0 1-.961.952H8.623a.949.949 0 0 1-.96-.951v-3.076Z"/></symbol>
    <symbol viewBox="0 0 19 15" id="order-payment"><path fill-rule="evenodd" clip-rule="evenodd" d="M10.292 9.681V5.32a2.372 2.372 0 0 1 2.375-2.369H19v-.582A2.372 2.372 0 0 0 16.625 0H2.375A2.372 2.372 0 0 0 0 2.368v10.264A2.372 2.372 0 0 0 2.375 15h14.25A2.372 2.372 0 0 0 19 12.632v-.582h-6.333a2.372 2.372 0 0 1-2.375-2.369Zm7.916-5.152h-5.541a.79.79 0 0 0-.792.79V9.68c0 .437.354.79.792.79h5.541A.79.79 0 0 0 19 9.68V5.32a.79.79 0 0 0-.792-.79Zm-3.562 4.155c-.656 0-1.188-.53-1.188-1.184 0-.654.532-1.184 1.188-1.184.656 0 1.187.53 1.187 1.184 0 .654-.531 1.184-1.187 1.184Z"/></symbol>
    <symbol viewBox="0 0 22 15" id="order-info"><path fill-rule="evenodd" clip-rule="evenodd" d="M19.8 0H2.2C.99 0 0 .988 0 2.195v10.61C0 14.012.99 15 2.2 15h17.6c1.21 0 2.2-.988 2.2-2.195V2.195C22 .988 21.01 0 19.8 0Zm-9.518 12.522H4.1c-.684 0-1.223-.774-1.223-1.51.036-1.105 1.15-1.768 2.337-2.32.827-.369.935-.7.935-1.068 0-.369-.216-.7-.503-.958-.468-.442-.755-1.105-.755-1.841 0-1.4.826-2.578 2.265-2.578 1.438 0 2.265 1.178 2.265 2.578 0 .736-.252 1.4-.755 1.841-.288.258-.504.59-.504.958s.108.7.935 1.03c1.186.516 2.3 1.253 2.337 2.358.072.736-.467 1.51-1.15 1.51ZM19 9.429c0 .314-.346.571-.77.571h-3.46c-.424 0-.77-.257-.77-.571V8.57c0-.314.346-.571.77-.571h3.46c.424 0 .77.257.77.571v.858Zm0-4c0 .314-.332.571-.737.571h-5.526C12.332 6 12 5.743 12 5.429V4.57c0-.314.332-.571.737-.571h5.526c.405 0 .737.257.737.571v.858Z"/></symbol>
    <symbol viewBox="0 0 14 20" id="order-address"><path fill-rule="evenodd" d="M0 7c0 5.2 7 13 7 13s7-7.8 7-13c0-3.9-3.1-7-7-7S0 3.1 0 7Zm4.5 0c0-1.4 1.1-2.5 2.5-2.5S9.5 5.6 9.5 7 8.4 9.5 7 9.5 4.5 8.4 4.5 7Z" clip-rule="evenodd"/></symbol>
    <symbol viewBox="0 0 28 28" id="call"><path fill-rule="evenodd" d="M24.5 10.208C24.325 4.55 19.717 0 14 0S3.675 4.55 3.5 10.208c-2.042.7-3.5 2.684-3.5 4.959 0 2.45 1.692 4.491 3.908 5.075C5.192 24.733 9.217 28 14 28s8.808-3.267 10.092-7.758C26.308 19.658 28 17.617 28 15.167c0-2.275-1.458-4.259-3.5-4.959ZM5.833 17.267c0-1.167.234-2.917.7-3.967.059-.175.175-.35.234-.525 1.75-.7 3.266-1.925 4.258-3.5 2.042 2.567 5.25 4.317 8.808 4.317 1.225 0 1.575.058 1.692 0 .233.758.467 1.691.525 2.625-.35 1.458-2.625 2.858-5.833 3.033-.117-.292-.467-.583-.817-.583h-2.917c-.466 0-.816.466-.816.933v1.75c0 .467.35.817.816.817H15.4c.408 0 .7-.175.817-.525 2.1-.059 3.966-.642 5.425-1.517-1.109 3.208-4.084 5.542-7.642 5.542-4.492 0-8.167-3.792-8.167-8.4Z" clip-rule="evenodd"/></symbol>
    <symbol viewBox="0 0 25 25" id="lk2"><path fill-rule="evenodd" d="M25 21.975c0-2.01-1.368-3.76-3.317-4.247l-4.79-1.197.007-.61c.006-.55.234-1.095.649-1.55 1.367-1.499 2.033-2.943 2.25-4.622.081-.631.096-1.11.096-2.194 0-4.144-3.26-7.48-7.37-7.555a7.515 7.515 0 0 0-7.42 7.554c0 1.083.015 1.563.096 2.194.217 1.68.883 3.123 2.25 4.622.415.455.643 1 .649 1.548l.006.612-4.79 1.197A4.38 4.38 0 0 0 0 21.975v1.686C0 24.4.6 25 1.34 25h22.32c.74 0 1.34-.6 1.34-1.34v-1.685Zm-10.762-6.05-.01.875c-.011 1.1-3.445 1.097-3.457-.002l-.01-.875c-.011-1.238-.505-2.421-1.36-3.358-1.005-1.101-1.44-2.043-1.587-3.188-.062-.484-.075-.892-.075-1.87 0-2.71 2.113-4.872 4.786-4.92 2.623.048 4.736 2.21 4.736 4.921 0 .978-.013 1.386-.075 1.87-.148 1.145-.582 2.087-1.587 3.188-.855.937-1.348 2.12-1.36 3.359Z" clip-rule="evenodd"/></symbol>
    <symbol viewBox="0 0 20 20" id="change-data"><path fill-rule="evenodd" clip-rule="evenodd" d="m18.146.225 1.63 1.829c.299.3.299.792 0 1.093l-1.602 1.611-2.716-2.92L17.06.224c.299-.3.788-.3 1.086 0ZM1.92 18.113h14.16V9.394L18 7.362v11.024c0 .901-.739 1.614-1.646 1.614H1.646C.739 20 0 19.287 0 18.386V4.34c0-.88.739-1.614 1.646-1.614h10.466l-1.92 1.908H1.92v13.48ZM14.584 2.726 9.14 8.451l2.798 2.935 5.444-5.725-2.798-2.935Zm-7.611 7.94c-.109.101-.163.201-.217.352l-.733 3.035c-.136.501.353.953.923.852l2.778-1.18a.792.792 0 0 0 .38-.2l.896-.828-3.131-2.858-.896.828Z"/></symbol>
    <symbol viewBox="0 0 20 20" id="file"><path fill-rule="evenodd" clip-rule="evenodd" d="M16 15a1 1 0 0 1-1 1H5a1 1 0 0 1 0-2h10a1 1 0 0 1 1 1ZM5 10h10a1 1 0 0 1 0 2H5a1 1 0 0 1 0-2Zm13 7a1 1 0 0 1-1 1H3a1 1 0 0 1-1-1V3a1 1 0 0 1 1-1h9v4a2 2 0 0 0 2 2h4v9Zm1.707-11.293L14.293.293A1 1 0 0 0 13.586 0H2a2 2 0 0 0-2 2v16a2 2 0 0 0 2 2h16a2 2 0 0 0 2-2V6.414a1 1 0 0 0-.293-.707Z"/></symbol>
    <symbol viewBox="0 0 12 19" id="enter"><path d="M5 16C6.06922 16.5062 6.25623 17.8468 6 18C5.56139 18.0418 5.18811 17.9474 5 18L0 13L5 8L5.3263 7.99585C5.59279 7.99447 5.91058 7.99585 6 8C6.66518 8.78971 6.13613 9.43494 5 10L3 12H10V1C9.99608 0.579773 10.4447 0.133077 11 0C11.5514 0.133077 12 0.579773 12 1V13C12 14.0423 10.9664 14.0423 11 14H3L5 16Z"/></symbol>
</svg>