<svg xmlns="http://www.w3.org/2000/svg" width="38" height="23" fill="none"><path fill="#FF6B00" fill-rule="evenodd" d="M18.962 2.933A11.387 11.387 0 0 1 26.608 0C32.878 0 38 5.171 38 11.5S32.877 23 26.608 23c-2.982 0-5.658-1.08-7.646-2.933C16.974 21.92 14.298 23 11.392 23 5.122 23 0 17.829 0 11.5S5.123 0 11.392 0c2.906 0 5.582 1.08 7.57 2.933Zm-1.759 8.721c.077-.54.383-.849.765-.849.678 0 .634.547.616.778a.996.996 0 0 0-.005.071h-1.376Zm-9.48 1.467c0 .309.152.463.458.463.535 0 .841-.463.918-1.158h-.306c-.688 0-1.07.232-1.07.695Zm19.573 0c0 .309.153.463.459.463.535 0 .84-.463.917-1.158h-.306c-.764 0-1.07.232-1.07.695Zm7.263-2.161c-.535 0-.994.694-.994 1.62 0 .618.23.927.612.927.612 0 .994-.695.994-1.621.077-.617-.153-.926-.612-.926ZM4.817 14.587l.688-4.476-1.606 4.476h-.84l-.077-4.476-.765 4.476H1.07l.994-5.866h1.759l.076 3.628 1.224-3.628h1.911l-.994 5.866H4.817Zm4.129-.463v.463s.84 0 .994-.077c.076-.386.306-1.852.382-2.547.076-.386.076-.694.076-.926 0-.926-.535-1.39-1.605-1.39-.459 0-.841.078-1.453.232 0 0-.153 1.004-.153 1.08.23-.076.688-.23 1.3-.23.535 0 .765.154.765.462 0 .077 0 .155-.077.309H8.64c-1.376 0-2.141.695-2.141 1.852 0 .772.459 1.312 1.147 1.312.535 0 .994-.154 1.3-.54Zm3.67-2.393c.611.31.84.695.84 1.313 0 1.08-.61 1.62-1.91 1.62-.701 0-.952-.064-1.225-.134l-.075-.02c0-.077.152-1.08.152-1.08.383.154.765.154 1.147.154.459 0 .688-.154.688-.463 0-.232-.076-.309-.611-.54-.688-.31-.918-.695-.918-1.313 0-.849.459-1.62 1.835-1.62.153 0 .344.019.535.038.192.02.383.039.536.039l-.153 1.08c-.306-.077-.612-.077-.918-.077-.382 0-.611.155-.611.386.076.309.152.386.688.617Zm2.982 1.699c-.077.077-.153.077-.306.077-.23 0-.383-.155-.535-.386 0-.083.065-.43.15-.878.073-.389.16-.853.232-1.283h.612l.152-1.158h-.611l.153-.695H14.22l-.535 3.242c-.076.463-.153 1.003-.153 1.235 0 .694.383 1.08.994 1.08.306 0 .612-.077.918-.154l.153-1.08Zm2.6.154c.458 0 .84-.077 1.299-.309l-.23 1.158c-.458.154-.84.154-1.3.154-1.375 0-2.064-.694-2.064-2.084 0-1.62.918-2.855 2.141-2.855.994 0 1.682.694 1.682 1.698 0 .295-.044.545-.1.854l-.053.303h-2.446c-.077.772.382 1.08 1.07 1.08Zm1.528 1.003h1.224l.014-.09c.446-2.854.529-3.382 1.286-3.306.076-.617.305-1.157.458-1.389-.535-.077-.84.232-1.223.772 0-.116.019-.232.038-.348.02-.115.038-.231.038-.347h-1.146c-.153 1.467-.383 2.933-.612 4.4l-.077.308Zm5.964-.077c-.459.154-.764.154-1.07.154-1.3 0-2.141-1.003-2.141-2.547 0-2.083 1.147-3.55 2.829-3.55.483 0 1.028.189 1.299.282l.077.027-.23 1.235c-.458-.232-.764-.309-1.07-.309-.917 0-1.605.926-1.605 2.161 0 .85.458 1.39 1.147 1.39.305 0 .611-.078 1.07-.31l-.306 1.467Zm2.83.077h.993c0-.386.23-1.852.382-2.624.077-.386.077-.694.077-.926 0-.926-.535-1.39-1.606-1.39-.459 0-.84.078-1.453.232 0 0-.152 1.004-.152 1.08.229-.076.688-.23 1.3-.23.535 0 .764.154.764.462 0 .077 0 .155-.076.309h-.536c-1.376 0-2.14.695-2.14 1.852 0 .772.458 1.312 1.146 1.312.535 0 .994-.154 1.3-.54v.463Zm2.675 0h-1.223l.076-.309c.23-1.466.459-2.932.612-4.399h1.147c0 .116-.02.232-.038.348-.02.115-.039.231-.039.347.383-.54.689-.85 1.224-.772-.153.232-.383.772-.459 1.39-.765-.078-.917.462-1.3 3.395Zm3.683-.077-.013.077v-.077h.013Zm.064-.386-.064.386h1.134l.918-5.866h-1.224l-.306 1.698c-.305-.386-.688-.617-1.146-.617-1.07 0-1.988 1.39-1.988 2.933 0 1.235.611 2.006 1.529 2.006.459 0 .84-.154 1.147-.54Z" clip-rule="evenodd"/></svg>