<svg width="772" height="245" fill="none" xmlns="http://www.w3.org/2000/svg"><path fill-rule="evenodd" clip-rule="evenodd" d="M55.974 61V.8H42.042v33.885c0 5.102-1.261 8.958-3.784 11.567-2.523 2.608-5.877 3.913-10.062 3.913-3.899 0-6.98-1.219-9.245-3.655-2.265-2.437-3.397-6.063-3.397-10.88V.8H1.622v35.26c0 8.314 1.992 14.721 5.977 19.222 3.985 4.5 9.532 6.75 16.641 6.75 8.027 0 14.104-2.78 18.232-8.341V61h13.502Zm22.317-2.364c3.928 2.035 8.356 3.053 13.287 3.053 4.873 0 9.13-1.032 12.771-3.096s6.292-4.93 7.955-8.6l-10.406-5.676c-2.35 4.242-5.82 6.364-10.406 6.364-3.497 0-6.392-1.147-8.686-3.44-2.293-2.294-3.44-5.418-3.44-9.374 0-3.956 1.147-7.08 3.44-9.374 2.294-2.294 5.189-3.44 8.686-3.44 4.53 0 7.998 2.121 10.406 6.364l10.406-5.59c-1.663-3.784-4.314-6.694-7.955-8.73-3.641-2.035-7.898-3.052-12.77-3.052-4.931 0-9.36 1.017-13.288 3.053-3.927 2.035-6.995 4.859-9.202 8.47-2.207 3.613-3.31 7.712-3.31 12.299 0 4.586 1.103 8.686 3.31 12.298s5.275 6.435 9.202 8.47Zm62.565-15.18h-6.966v17.545h-13.416V14.733h13.416v17.974h7.224l12.556-17.974h14.276L151.778 36.92 169.064 61H153.24l-12.384-17.544Zm80.324 9.805V14.733h-13.416V34.77c0 4.128-.975 7.238-2.924 9.33-1.949 2.093-4.529 3.14-7.74 3.14-6.249 0-9.374-3.755-9.374-11.266V14.733H174.31v23.22c0 6.937 1.777 12.14 5.332 15.609 3.555 3.468 8.371 5.203 14.448 5.203 2.695 0 5.217-.459 7.568-1.376 2.351-.918 4.386-2.236 6.106-3.956v1.548c0 4.242-1.032 7.396-3.096 9.46-2.064 2.064-5.332 3.096-9.804 3.096-2.867 0-5.705-.459-8.514-1.376-2.809-.918-5.189-2.179-7.138-3.784l-5.332 9.632c2.637 2.064 5.891 3.64 9.761 4.73 3.87 1.09 7.984 1.634 12.341 1.634 8.199 0 14.448-2.064 18.748-6.192 4.3-4.128 6.45-10.435 6.45-18.92Zm34.744 8.428c-4.931 0-9.36-1.018-13.287-3.053-3.927-2.036-6.995-4.86-9.202-8.471-2.207-3.612-3.311-7.712-3.311-12.298 0-4.587 1.104-8.686 3.311-12.298s5.275-6.436 9.202-8.471c3.927-2.036 8.356-3.053 13.287-3.053 4.873 0 9.131 1.017 12.771 3.053 3.641 2.035 6.292 4.945 7.955 8.729l-10.406 5.59c-2.408-4.243-5.877-6.364-10.406-6.364-3.497 0-6.393 1.146-8.686 3.44-2.293 2.293-3.44 5.418-3.44 9.374 0 3.956 1.147 7.08 3.44 9.374 2.293 2.293 5.189 3.44 8.686 3.44 4.587 0 8.055-2.122 10.406-6.364l10.406 5.676c-1.663 3.67-4.314 6.536-7.955 8.6-3.64 2.064-7.898 3.096-12.771 3.096Zm37.023-3.053c3.927 2.035 8.356 3.053 13.287 3.053 4.873 0 9.13-1.032 12.771-3.096s6.292-4.93 7.955-8.6l-10.406-5.676c-2.351 4.242-5.819 6.364-10.406 6.364-3.497 0-6.393-1.147-8.686-3.44-2.293-2.294-3.44-5.418-3.44-9.374 0-3.956 1.147-7.08 3.44-9.374 2.293-2.294 5.189-3.44 8.686-3.44 4.529 0 7.998 2.121 10.406 6.364l10.406-5.59c-1.663-3.784-4.314-6.694-7.955-8.73-3.641-2.035-7.898-3.052-12.771-3.052-4.931 0-9.36 1.017-13.287 3.053-3.927 2.035-6.995 4.859-9.202 8.47-2.207 3.613-3.311 7.712-3.311 12.299 0 4.586 1.104 8.686 3.311 12.298s5.275 6.435 9.202 8.47Zm101.351-44.591c5.791 0 10.392 1.705 13.803 5.117 3.411 3.411 5.117 8.528 5.117 15.35v26.489h-13.416V36.577c0-3.67-.76-6.407-2.279-8.213-1.519-1.806-3.684-2.71-6.493-2.71-3.153 0-5.647 1.018-7.482 3.054-1.834 2.035-2.752 5.06-2.752 9.073V61H367.38V36.577c0-7.282-2.924-10.922-8.772-10.922-3.096 0-5.561 1.017-7.396 3.053-1.834 2.035-2.752 5.06-2.752 9.073V61h-13.416V14.733h12.814v5.332c1.72-1.95 3.827-3.44 6.321-4.472 2.494-1.032 5.232-1.548 8.213-1.548 3.268 0 6.221.645 8.858 1.935a15.686 15.686 0 0 1 6.364 5.633c1.892-2.408 4.286-4.272 7.181-5.59 2.895-1.319 6.063-1.978 9.503-1.978Zm74.132 33.798c0-5.504-2.723-9.174-8.17-11.008 2.179-.975 3.856-2.337 5.031-4.085 1.175-1.749 1.763-3.77 1.763-6.063 0-3.784-1.634-6.723-4.902-8.815-3.268-2.093-7.797-3.14-13.588-3.14h-23.65v46.269h24.682c6.249 0 10.951-1.147 14.104-3.44 3.153-2.294 4.73-5.533 4.73-9.718Zm-21.07-14.104h-10.148v-9.89h10.148c4.701 0 7.052 1.634 7.052 4.902 0 3.325-2.351 4.988-7.052 4.988Zm1.118 18.146c4.931 0 7.396-1.692 7.396-5.074 0-1.778-.573-3.082-1.72-3.913-1.147-.832-2.953-1.247-5.418-1.247h-11.524v10.234h11.266Zm59.383-2.021c-1.863.716-3.999 1.075-6.407 1.075-3.039 0-5.604-.574-7.697-1.72-2.093-1.147-3.626-2.867-4.601-5.16l34.228-6.622c0-4.816-1.075-8.987-3.225-12.513-2.15-3.526-5.031-6.22-8.643-8.084-3.612-1.864-7.625-2.795-12.04-2.795-4.701 0-8.929 1.017-12.685 3.053-3.755 2.035-6.708 4.873-8.858 8.514-2.15 3.64-3.225 7.725-3.225 12.255 0 4.586 1.089 8.686 3.268 12.298s5.275 6.435 9.288 8.47c4.013 2.036 8.629 3.054 13.846 3.054 8.371 0 14.735-2.494 19.092-7.482l-7.138-7.74c-1.605 1.548-3.34 2.68-5.203 3.397ZM491.22 27.46c2.121-2.179 4.874-3.268 8.256-3.268 2.752 0 5.103.716 7.052 2.15 1.949 1.433 3.239 3.354 3.87 5.762l-22.532 4.386c.115-3.842 1.233-6.852 3.354-9.03Zm54.782-12.728h-13.33V61h13.33V43.715h20.124V61h13.416V14.733h-13.416v18.06h-20.124v-18.06Zm46.354 0h13.33v18.06h20.124v-18.06h13.416V61H625.81V43.715h-20.124V61h-13.33V14.733Zm64.156 42.656c3.67 3.268 9.173 4.902 16.512 4.902 6.765 0 12.126-1.591 16.082-4.773 3.956-3.182 5.934-7.697 5.934-13.545 0-5.504-1.605-9.69-4.816-12.556-3.211-2.867-7.654-4.3-13.33-4.3-2.752 0-5.203.315-7.353.946-2.15.63-3.884 1.404-5.203 2.322V14.733h-13.33V42.94c0 6.364 1.835 11.18 5.504 14.448Zm56.846-42.656h-13.416V61h13.416V14.733ZM673.024 52.83c2.752 0 4.845-.803 6.278-2.408 1.434-1.606 2.15-3.698 2.15-6.278 0-2.408-.731-4.343-2.193-5.805-1.462-1.462-3.569-2.193-6.321-2.193-1.949 0-3.655.387-5.117 1.16-1.462.775-2.623 1.821-3.483 3.14v3.784c0 2.694.745 4.801 2.236 6.32 1.491 1.52 3.641 2.28 6.45 2.28Zm82.603-2.967c-1.863.716-3.999 1.075-6.407 1.075-3.038 0-5.604-.574-7.697-1.72-2.092-1.147-3.626-2.867-4.601-5.16l34.228-6.622c0-4.816-1.075-8.987-3.225-12.513-2.15-3.526-5.031-6.22-8.643-8.084-3.612-1.864-7.625-2.795-12.04-2.795-4.701 0-8.93 1.017-12.685 3.053-3.755 2.035-6.708 4.873-8.858 8.514-2.15 3.64-3.225 7.725-3.225 12.255 0 4.586 1.09 8.686 3.268 12.298 2.179 3.612 5.275 6.435 9.288 8.47 4.014 2.036 8.629 3.054 13.846 3.054 8.371 0 14.735-2.494 19.092-7.482l-7.138-7.74c-1.605 1.548-3.339 2.68-5.203 3.397ZM738.986 27.46c2.122-2.179 4.873-3.268 8.256-3.268 2.752 0 5.103.716 7.052 2.15 1.95 1.433 3.24 3.354 3.87 5.762l-22.532 4.386c.115-3.842 1.233-6.852 3.354-9.03ZM53.566 154.149v-21.156h-6.708v-35.26H33.442v35.26H14.78v-35.26H1.45V144h39.646v10.148h12.47Zm43.774-34.314c5.447 1.834 8.17 5.504 8.17 11.008 0 4.185-1.577 7.424-4.73 9.718-3.153 2.293-7.855 3.44-14.104 3.44H61.994V97.733h23.65c5.79 0 10.32 1.046 13.588 3.139 3.268 2.092 4.902 5.031 4.902 8.815 0 2.293-.588 4.314-1.763 6.063-1.175 1.748-2.852 3.11-5.03 4.085Zm-23.048-3.096H84.44c4.701 0 7.052-1.663 7.052-4.988 0-3.268-2.35-4.902-7.052-4.902H74.292v9.89Zm18.662 13.072c0 3.382-2.465 5.074-7.396 5.074H74.292v-10.234h11.524c2.465 0 4.272.415 5.418 1.247 1.147.831 1.72 2.135 1.72 3.913Zm45.58 4.128c2.408 0 4.544-.359 6.407-1.075 1.863-.717 3.598-1.849 5.203-3.397l7.138 7.74c-4.357 4.988-10.721 7.482-19.092 7.482-5.217 0-9.833-1.018-13.846-3.053-4.013-2.036-7.109-4.859-9.288-8.471-2.179-3.612-3.268-7.712-3.268-12.298 0-4.53 1.075-8.615 3.225-12.255 2.15-3.641 5.103-6.479 8.858-8.514 3.755-2.035 7.984-3.053 12.685-3.053 4.415 0 8.428.931 12.04 2.795 3.612 1.863 6.493 4.558 8.643 8.084 2.15 3.526 3.225 7.697 3.225 12.513l-34.228 6.622c.975 2.293 2.508 4.013 4.601 5.16 2.093 1.146 4.658 1.72 7.697 1.72Zm-1.978-26.746c-3.383 0-6.135 1.089-8.256 3.268-2.121 2.178-3.239 5.188-3.354 9.03l22.532-4.386c-.631-2.408-1.921-4.329-3.87-5.762-1.949-1.434-4.3-2.15-7.052-2.15Zm92.364-10.148c5.791 0 10.392 1.706 13.803 5.117 3.411 3.411 5.117 8.528 5.117 15.351v26.488h-13.416v-24.424c0-3.67-.76-6.407-2.279-8.213-1.519-1.806-3.684-2.709-6.493-2.709-3.153 0-5.647 1.017-7.482 3.053-1.835 2.035-2.752 5.059-2.752 9.073v23.22h-13.416v-24.424c0-7.282-2.924-10.922-8.772-10.922-3.096 0-5.561 1.017-7.396 3.053-1.835 2.035-2.752 5.059-2.752 9.073v23.22h-13.416V97.733h12.814v5.332c1.72-1.95 3.827-3.44 6.321-4.472 2.494-1.032 5.232-1.548 8.213-1.548 3.268 0 6.221.645 8.858 1.935a15.684 15.684 0 0 1 6.364 5.633c1.892-2.408 4.286-4.272 7.181-5.59 2.895-1.319 6.063-1.978 9.503-1.978Zm35.088 43.344c3.669 3.268 9.173 4.902 16.512 4.902 6.765 0 12.126-1.591 16.082-4.773 3.956-3.182 5.934-7.697 5.934-13.545 0-5.504-1.605-9.69-4.816-12.556-3.211-2.867-7.654-4.3-13.33-4.3-2.752 0-5.203.315-7.353.946-2.15.63-3.884 1.404-5.203 2.322V97.733h-13.33v28.208c0 6.364 1.835 11.18 5.504 14.448Zm56.846-42.656h-13.416V144h13.416V97.733ZM280.52 135.83c2.752 0 4.845-.803 6.278-2.408 1.433-1.606 2.15-3.698 2.15-6.278 0-2.408-.731-4.343-2.193-5.805-1.462-1.462-3.569-2.193-6.321-2.193-1.949 0-3.655.387-5.117 1.161-1.462.774-2.623 1.82-3.483 3.139v3.784c0 2.694.745 4.801 2.236 6.321 1.491 1.519 3.641 2.279 6.45 2.279Zm86.043 5.805c3.87 2.035 8.242 3.053 13.115 3.053 4.874 0 9.231-1.018 13.072-3.053 3.841-2.036 6.852-4.859 9.03-8.471 2.179-3.612 3.268-7.712 3.268-12.298 0-4.587-1.089-8.686-3.268-12.298-2.178-3.612-5.189-6.436-9.03-8.471-3.841-2.035-8.198-3.053-13.072-3.053-4.873 0-9.245 1.017-13.115 3.053-3.87 2.035-6.894 4.859-9.073 8.471-2.179 3.612-3.268 7.711-3.268 12.298 0 4.586 1.089 8.686 3.268 12.298s5.203 6.435 9.073 8.471Zm21.586-11.438c-2.207 2.322-5.031 3.483-8.471 3.483-3.44 0-6.278-1.161-8.514-3.483-2.236-2.322-3.354-5.433-3.354-9.331 0-3.899 1.118-7.009 3.354-9.331 2.236-2.322 5.074-3.483 8.514-3.483 3.44 0 6.264 1.161 8.471 3.483 2.208 2.322 3.311 5.432 3.311 9.331 0 3.898-1.103 7.009-3.311 9.331Zm72.111 13.803V97.733h-46.01V144h13.33v-35.26h19.264v35.26h13.416Zm72.068-46.956c5.791 0 10.392 1.706 13.803 5.117 3.411 3.411 5.117 8.528 5.117 15.351v26.488h-13.416v-24.424c0-3.67-.759-6.407-2.279-8.213-1.519-1.806-3.683-2.709-6.493-2.709-3.153 0-5.647 1.017-7.482 3.053-1.835 2.035-2.752 5.059-2.752 9.073v23.22H505.41v-24.424c0-7.282-2.924-10.922-8.772-10.922-3.096 0-5.561 1.017-7.396 3.053-1.834 2.035-2.752 5.059-2.752 9.073v23.22h-13.416V97.733h12.814v5.332c1.72-1.95 3.827-3.44 6.321-4.472 2.494-1.032 5.232-1.548 8.213-1.548 3.268 0 6.221.645 8.858 1.935a15.684 15.684 0 0 1 6.364 5.633c1.892-2.408 4.286-4.272 7.181-5.59 2.896-1.319 6.063-1.978 9.503-1.978Zm52.288 47.644c-4.873 0-9.245-1.018-13.115-3.053-3.87-2.036-6.894-4.859-9.073-8.471-2.178-3.612-3.268-7.712-3.268-12.298 0-4.587 1.09-8.686 3.268-12.298 2.179-3.612 5.203-6.436 9.073-8.471s8.242-3.053 13.115-3.053c4.874 0 9.231 1.017 13.072 3.053 3.841 2.035 6.851 4.859 9.03 8.471 2.179 3.612 3.268 7.711 3.268 12.298 0 4.586-1.089 8.686-3.268 12.298s-5.189 6.435-9.03 8.471c-3.841 2.035-8.198 3.053-13.072 3.053Zm0-11.008c3.44 0 6.264-1.161 8.471-3.483s3.311-5.433 3.311-9.331c0-3.899-1.104-7.009-3.311-9.331-2.207-2.322-5.031-3.483-8.471-3.483-3.44 0-6.278 1.161-8.514 3.483-2.236 2.322-3.354 5.432-3.354 9.331 0 3.898 1.118 7.009 3.354 9.331 2.236 2.322 5.074 3.483 8.514 3.483Zm79.722 10.32v-27.692l-13.846 23.22h-5.676l-13.502-23.306v27.778h-12.126V97.733h14.018l14.792 26.746 15.738-26.746h12.556l.172 46.268h-12.126Zm-617.222 83v-46.268H33.7v22.876c0 4.128-.975 7.238-2.924 9.331-1.95 2.092-4.558 3.139-7.826 3.139-6.25 0-9.374-3.727-9.374-11.18v-24.166H.16v26.144c0 6.88 1.792 12.068 5.375 15.566 3.583 3.497 8.414 5.246 14.491 5.246 2.81 0 5.461-.516 7.955-1.548 2.494-1.032 4.601-2.552 6.321-4.558v5.418h12.814Zm72.498-24.166c5.447 1.834 8.17 5.504 8.17 11.008 0 4.185-1.577 7.424-4.73 9.718-3.153 2.293-7.855 3.44-14.104 3.44H84.268v-46.268h23.65c5.791 0 10.32 1.046 13.588 3.139 3.268 2.092 4.902 5.031 4.902 8.815 0 2.293-.588 4.314-1.763 6.063-1.175 1.748-2.852 3.11-5.031 4.085Zm-23.048-3.096h10.148c4.701 0 7.052-1.663 7.052-4.988 0-3.268-2.351-4.902-7.052-4.902H96.566v9.89Zm18.662 13.072c0 3.382-2.465 5.074-7.396 5.074H96.566v-10.234h11.524c2.465 0 4.271.415 5.418 1.247 1.147.831 1.72 2.135 1.72 3.913Zm70.606-32.766c4.931 0 9.231.974 12.9 2.924 3.67 1.949 6.507 4.73 8.514 8.342 2.007 3.612 3.01 7.826 3.01 12.642 0 4.701-.946 8.843-2.838 12.427-1.892 3.583-4.558 6.364-7.998 8.342-3.44 1.978-7.396 2.967-11.868 2.967-5.905 0-10.521-1.864-13.846-5.59v21.586h-13.416v-39.646c0-4.759 1.061-8.944 3.182-12.556 2.121-3.612 5.103-6.422 8.944-8.428 3.841-2.007 8.313-3.01 13.416-3.01Zm-.602 36.636c3.497 0 6.335-1.176 8.514-3.526 2.179-2.351 3.268-5.418 3.268-9.202 0-3.842-1.089-6.952-3.268-9.331-2.179-2.38-5.017-3.569-8.514-3.569-3.497 0-6.321 1.175-8.471 3.526-2.15 2.35-3.225 5.446-3.225 9.288 0 3.841 1.061 6.937 3.182 9.288 2.121 2.35 4.959 3.526 8.514 3.526Zm43.043 7.955c3.87 2.035 8.242 3.053 13.115 3.053 4.873 0 9.231-1.018 13.072-3.053 3.841-2.036 6.851-4.859 9.03-8.471 2.179-3.612 3.268-7.712 3.268-12.298 0-4.587-1.089-8.686-3.268-12.298s-5.189-6.436-9.03-8.471c-3.841-2.036-8.199-3.053-13.072-3.053-4.873 0-9.245 1.017-13.115 3.053-3.87 2.035-6.894 4.859-9.073 8.471-2.179 3.612-3.268 7.711-3.268 12.298 0 4.586 1.089 8.686 3.268 12.298s5.203 6.435 9.073 8.471Zm21.586-11.438c-2.207 2.322-5.031 3.483-8.471 3.483-3.44 0-6.278-1.161-8.514-3.483-2.236-2.322-3.354-5.433-3.354-9.331 0-3.899 1.118-7.009 3.354-9.331 2.236-2.322 5.074-3.483 8.514-3.483 3.44 0 6.264 1.161 8.471 3.483s3.311 5.432 3.311 9.331c0 3.898-1.104 7.009-3.311 9.331Zm61.662-6.321c-1.519-1.778-3.655-3.096-6.407-3.956 2.293-1.032 4.099-2.423 5.418-4.171 1.319-1.749 1.978-3.713 1.978-5.891 0-2.638-.946-4.945-2.838-6.923-1.892-1.978-4.486-3.483-7.783-4.515-3.297-1.032-7.038-1.548-11.223-1.548-6.077 0-12.327 1.404-18.748 4.214l3.268 9.288c5.275-2.122 10.148-3.182 14.62-3.182 2.924 0 5.174.401 6.751 1.204 1.577.802 2.365 1.949 2.365 3.44 0 1.433-.631 2.522-1.892 3.268-1.261.745-3.067 1.118-5.418 1.118h-8.256v8.342h9.46c2.408 0 4.243.387 5.504 1.161 1.261.774 1.892 1.906 1.892 3.397 0 1.72-.903 3.053-2.709 3.999-1.806.946-4.286 1.419-7.439 1.419-5.905 0-11.295-1.176-16.168-3.526l-3.612 9.374c2.981 1.49 6.221 2.608 9.718 3.354a51.04 51.04 0 0 0 10.664 1.118c4.415 0 8.371-.602 11.868-1.806 3.498-1.204 6.249-2.91 8.256-5.117 2.007-2.208 3.01-4.773 3.01-7.697 0-2.466-.759-4.587-2.279-6.364Zm11.997-26.144h13.33v18.06h20.124v-18.06h13.416v46.268h-13.416v-17.286H336.85v17.286h-13.33v-46.268Zm92.536 46.268h12.814v-46.268h-13.416v22.876c0 4.128-.975 7.238-2.924 9.331-1.949 2.092-4.558 3.139-7.826 3.139-6.249 0-9.374-3.727-9.374-11.18v-24.166h-13.416v26.144c0 6.88 1.792 12.068 5.375 15.566 3.583 3.497 8.414 5.246 14.491 5.246 2.809 0 5.461-.516 7.955-1.548 2.494-1.032 4.601-2.552 6.321-4.558v5.418Zm77.744-11.008v21.156h-12.47v-10.148h-39.646v-46.268h13.33v35.26h18.662v-35.26h13.416v35.26h6.708Zm54.782 3.268v-38.528h-13.416v20.038c0 4.128-.974 7.238-2.924 9.331-1.949 2.092-4.529 3.139-7.74 3.139-6.249 0-9.374-3.756-9.374-11.266v-21.242h-13.416v23.22c0 6.937 1.778 12.14 5.332 15.609 3.555 3.468 8.371 5.203 14.448 5.203 2.695 0 5.217-.459 7.568-1.376 2.351-.918 4.386-2.236 6.106-3.956v1.548c0 4.242-1.032 7.396-3.096 9.46-2.064 2.064-5.332 3.096-9.804 3.096-2.867 0-5.704-.459-8.514-1.376-2.809-.918-5.188-2.179-7.138-3.784l-5.332 9.632c2.637 2.064 5.891 3.64 9.761 4.73 3.87 1.089 7.984 1.634 12.341 1.634 8.199 0 14.448-2.064 18.748-6.192 4.3-4.128 6.45-10.435 6.45-18.92Z" fill="#4B8702"/></svg>