<svg xmlns="http://www.w3.org/2000/svg" width="236" height="47" fill="none"><path fill="#313C84" fill-rule="evenodd" d="M.105 26.77C.07 20.38 0 6.897 0 0h224.835C230.767 0 236 3.681 236 10.939v31.049l-198.834.001V42c-14.274-.002-24.274-.005-24.593-.012-8.093 0-12.451-5.93-12.451-11.73 0-.206-.007-1.506-.017-3.489ZM13.597 38.9c6.903-.002 15.598-.003 23.57-.003v-.006h195.461s.036-20.136.039-27.845c0-4.09-3.578-8.068-7.728-8.068C151.071 2.982 3.694 3 3.473 3.01c-.011.174-.036 19.202-.02 27.046.004 2.43.984 4.479 2.737 6.154 2.058 1.967 4.583 2.689 7.407 2.688Zm6.733-24.276c1.715-1.77 5.618-5.606 5.837-5.609 1.858-.02 3.718-.016 5.577-.012l1.244.001c.031 0 .062.009.117.023.034.009.077.02.135.033l-9.87 9.748C27.491 23.504 35 33 35 33h-8.081c-.36.001-.619-.089-.867-.375-.916-1.058-1.902-2.344-2.888-3.63-.974-1.27-1.947-2.539-2.851-3.586-.174-.2-.297-.52-.298-.785-.02-3.386-.02-5.846 0-9.232.002-.26.134-.581.315-.768ZM19 33c-.687 0-3.402-.005-3.956-.006a1.016 1.016 0 0 1-.1.005C12.766 33 11 31.25 11 29.088c0 0 .033-20 .053-20.088H19v24Zm59.37 0-.006-.007c-2.135-.003-3.864-1.752-3.864-3.91 0-.034.002-.067.005-.097l.005-5.497c-.59 0-5.51-.028-5.51-.028V33l-3.882-.007c-2.272-.003-4.113-1.747-4.118-3.9l.003-19.417V9H69v10.467h5.52V9H82v24c-2.018-.017-3.63 0-3.63 0ZM106 12.733c.016.441-.128.582-.586.578-1.747-.018-4.714-.011-5.62-.01l-.258.001V33H95.5l-.013-.013c-2.12-.113-3.804-1.818-3.804-3.905 0-.034.002-.066.005-.096l-.001-15.684h-.382c-1.093-.002-4.091-.007-5.7.007-.433.005-.616-.095-.605-.558.022-.88.018-1.761.014-2.659-.002-.36-.003-.725-.003-1.092h20.979l-.003.447v.006c-.004.866-.014 2.604.012 3.28ZM159 9h19v4.259h-11.5V28.55h11.497l.001 2.147v.046L178 33h-15.08l-.016-.015a3.916 3.916 0 0 1-3.891-3.6l-.01-.01L159 9Zm66 0h-21v4.329h6.521l.002 15.726-.001.021.001.039v.03c.039 2.122 1.808 3.832 3.99 3.84l.015.015h3.776c0-6.609-.012-19.708-.012-19.708H225V9Zm-23 24h-3.687l-.016-.017c-2.092-.038-3.777-1.768-3.782-3.9l-.009-.01-.002-5.654c-1.197 0-5.495-.044-5.495-.044S189 20.1 189 19.479h5.484V9H202v24Zm-13-13.521V33h-4.005l-.02-.018c-2.121-.072-3.835-1.655-3.974-3.648v-.003c-.006-.085.021-20.331.021-20.331H189v10.479ZM151.259 33H155V9h-7.508v10.46H142v4.024l5.453.003c.022.112.039 4.533.042 5.476a.7.7 0 0 0-.006.067l-.001.016v.029c0 2.121 1.671 3.847 3.754 3.908l.017.017Zm-34.823-9.765c-.326.188-.442.392-.436.757.016.888.014 1.777.012 2.666-.001.423-.002.845-.001 1.268.001.09.012.18.025.285l.021.178 6.802-3.78.012 4.356a.939.939 0 0 0-.007.11c0 2.155 1.799 3.902 4.02 3.91l.016.015h3.1V9h-7.141v.216c-.001 1.193-.006 6.885.009 9.694.003.402-.114.634-.482.845-1.052.605-2.097 1.22-3.143 1.837-.934.55-1.868 1.1-2.807 1.643ZM141 33h-4l-.019-.018c-2.129-.064-3.849-1.665-3.973-3.676L133 9h8v24Zm-29.265-.022.015.016s2.87-.015 3.25.006V9h-7v20.07c0 2.151 1.67 3.895 3.735 3.908ZM168 19h9v3.995l-8.999.005-.001-4ZM45.428 28.96c-1.62-.014-2.165-.58-2.165-2.21V13.346s2.679-.043 5.057-.043c.945 0 1.314.685 1.315 1.598.005 4.697-.03 14.019-.03 14.019s-2.762.052-4.177.04Zm7.59-19.943C51.283 9.012 36.22 8.992 36 9.003v20.078c0 2.163 1.74 3.912 3.889 3.912.04 0 .077-.002.112-.007l.008.008L56.992 33 57 12.92c0-2.158-1.741-3.908-3.889-3.908a.995.995 0 0 0-.094.005Z" clip-rule="evenodd"/><path fill="#fff" d="M11 36h214v10H11z"/><path fill="#313C84" d="M19.956 39.368h-2.057v4.633h-1.752v-4.633h-2.056v-1.446h5.865v1.446Z"/><path fill="#313C84" fill-rule="evenodd" d="M21.769 43.691c.509.267 1.083.401 1.723.401.64 0 1.213-.133 1.718-.4.505-.268.9-.64 1.186-1.114.287-.475.43-1.013.43-1.616 0-.603-.143-1.141-.43-1.616a2.992 2.992 0 0 0-1.186-1.113c-.505-.267-1.077-.401-1.718-.401-.64 0-1.215.134-1.723.401a2.981 2.981 0 0 0-1.192 1.113 3.067 3.067 0 0 0-.43 1.616c0 .603.144 1.141.43 1.616.286.475.683.846 1.192 1.113Zm2.836-1.503c-.29.305-.66.458-1.113.458-.452 0-.825-.153-1.118-.458-.294-.305-.441-.714-.441-1.226s.147-.92.44-1.226c.294-.305.667-.458 1.12-.458.451 0 .822.153 1.112.458.29.305.435.714.435 1.226s-.145.921-.435 1.226ZM33.16 38.222a3.098 3.098 0 0 0-1.543-.39c-.836 0-1.473.264-1.91.791v-.7h-1.684v8.271h1.763v-2.836c.445.49 1.055.734 1.83.734.566 0 1.08-.13 1.543-.39.464-.26.827-.625 1.09-1.096.264-.47.396-1.019.396-1.644s-.132-1.173-.395-1.644a2.798 2.798 0 0 0-1.09-1.096Zm-.735 3.966c-.29.305-.661.458-1.113.458-.452 0-.823-.153-1.113-.458-.29-.305-.435-.714-.435-1.226s.145-.92.435-1.226c.29-.305.66-.458 1.113-.458.452 0 .823.153 1.113.458.29.305.435.714.435 1.226s-.145.921-.435 1.226Z" clip-rule="evenodd"/><path fill="#313C84" d="M40.747 39.368H37.63v4.633h-1.752v-6.08h4.87v1.447Z"/><path fill="#313C84" fill-rule="evenodd" d="M42.561 43.691c.508.267 1.083.401 1.723.401.64 0 1.213-.133 1.718-.4.505-.268.9-.64 1.186-1.114.287-.475.43-1.013.43-1.616 0-.603-.143-1.141-.43-1.616a2.992 2.992 0 0 0-1.186-1.113c-.505-.267-1.077-.401-1.718-.401-.64 0-1.215.134-1.723.401a2.981 2.981 0 0 0-1.192 1.113 3.067 3.067 0 0 0-.43 1.616c0 .603.144 1.141.43 1.616.286.475.684.846 1.192 1.113Zm2.836-1.503c-.29.305-.66.458-1.113.458-.452 0-.825-.153-1.118-.458-.294-.305-.441-.714-.441-1.226s.147-.92.44-1.226c.294-.305.667-.458 1.12-.458.451 0 .822.153 1.112.458.29.305.435.714.435 1.226s-.145.921-.435 1.226ZM53.471 40.826c.716.241 1.074.723 1.074 1.446 0 .55-.207.976-.622 1.277-.414.302-1.032.452-1.853.452h-3.243v-6.08h3.108c.76 0 1.356.138 1.785.413.43.275.644.661.644 1.159 0 .3-.077.566-.231.796a1.52 1.52 0 0 1-.662.537Zm-3.028-.407h1.333c.618 0 .927-.218.927-.655 0-.43-.309-.644-.927-.644h-1.333v1.3Zm2.452 1.718c0 .444-.324.666-.972.666h-1.48V41.46h1.514c.324 0 .562.054.712.164.15.109.226.28.226.514ZM56.98 43.691c.508.267 1.083.401 1.723.401.64 0 1.213-.133 1.718-.4.505-.268.9-.64 1.186-1.114.287-.475.43-1.013.43-1.616 0-.603-.143-1.141-.43-1.616a2.992 2.992 0 0 0-1.186-1.113c-.505-.267-1.078-.401-1.718-.401-.64 0-1.215.134-1.723.401a2.982 2.982 0 0 0-1.192 1.113 3.067 3.067 0 0 0-.43 1.616c0 .603.144 1.141.43 1.616.286.475.683.846 1.192 1.113Zm2.836-1.503c-.29.305-.66.458-1.113.458-.452 0-.825-.153-1.119-.458-.293-.305-.44-.714-.44-1.226s.147-.92.44-1.226c.294-.305.667-.458 1.12-.458.451 0 .822.153 1.112.458.29.305.435.714.435 1.226s-.145.921-.435 1.226Z" clip-rule="evenodd"/><path fill="#313C84" d="M63.099 40.113h3.197v1.413H63.1v-1.413ZM73.495 37.922v6.08h-1.763v-4.634H69.81l-.057 1.074c-.03.798-.105 1.461-.226 1.989-.12.527-.316.941-.587 1.243-.271.3-.648.452-1.13.452-.256 0-.561-.046-.916-.136l.09-1.446c.121.015.208.022.26.022.264 0 .462-.096.594-.288.132-.192.22-.437.266-.734.045-.298.079-.692.101-1.181l.09-2.441h5.199Z"/><path fill="#313C84" fill-rule="evenodd" d="M76.314 43.691c.508.267 1.083.401 1.723.401.64 0 1.213-.133 1.718-.4.505-.268.9-.64 1.186-1.114.287-.475.43-1.013.43-1.616 0-.603-.143-1.141-.43-1.616a2.992 2.992 0 0 0-1.186-1.113c-.505-.267-1.078-.401-1.718-.401-.64 0-1.215.134-1.723.401a2.981 2.981 0 0 0-1.192 1.113 3.067 3.067 0 0 0-.43 1.616c0 .603.144 1.141.43 1.616.286.475.683.846 1.192 1.113Zm2.836-1.503c-.29.305-.66.458-1.113.458-.452 0-.825-.153-1.119-.458-.293-.305-.44-.714-.44-1.226s.147-.92.44-1.226c.294-.305.667-.458 1.12-.458.451 0 .822.153 1.112.458.29.305.435.714.435 1.226s-.145.921-.435 1.226Z" clip-rule="evenodd"/><path fill="#313C84" d="M87.45 39.368h-3.118v4.633H82.58v-6.08h4.87v1.447ZM88.389 37.922h1.751v3.616l2.96-3.616h1.617v6.08h-1.752v-3.617l-2.95 3.616H88.39v-6.08ZM99.304 44.092c-.648 0-1.23-.133-1.746-.4a3.004 3.004 0 0 1-1.209-1.114 3.037 3.037 0 0 1-.435-1.616c0-.603.145-1.141.435-1.616.29-.474.693-.845 1.21-1.113.515-.267 1.097-.401 1.745-.401.64 0 1.2.134 1.678.401.478.268.827.65 1.045 1.147l-1.367.735c-.316-.558-.772-.837-1.367-.837-.46 0-.84.151-1.142.452-.3.302-.451.712-.451 1.232s.15.93.451 1.232c.302.301.682.452 1.142.452.602 0 1.058-.279 1.367-.836l1.367.745a2.426 2.426 0 0 1-1.045 1.13c-.478.272-1.038.407-1.678.407ZM108.186 39.368h-2.057v4.633h-1.751v-4.633h-2.057v-1.446h5.865v1.446ZM109.124 37.922h1.752v3.616l2.96-3.616h1.616v6.08h-1.751v-3.617l-2.95 3.616h-1.627v-6.08ZM122.616 37.922v6.08h-1.763v-2.26a3.735 3.735 0 0 1-1.695.384c-.821 0-1.441-.187-1.859-.56-.418-.373-.627-.951-.627-1.734v-1.91h1.763v1.797c0 .369.096.636.288.802.192.166.469.248.83.248.46 0 .893-.097 1.3-.293v-2.554h1.763Z"/><path fill="#313C84" fill-rule="evenodd" d="M130.187 41.46c.022-.294.034-.453.034-.475 0-.633-.138-1.189-.413-1.667a2.8 2.8 0 0 0-1.136-1.102 3.387 3.387 0 0 0-1.615-.384c-.611 0-1.162.134-1.656.401-.493.268-.881.64-1.164 1.119a3.111 3.111 0 0 0-.424 1.61c0 .603.144 1.141.43 1.616a2.94 2.94 0 0 0 1.22 1.113c.528.267 1.134.401 1.82.401 1.099 0 1.936-.328 2.508-.983l-.938-1.017a2.046 2.046 0 0 1-.683.447 2.338 2.338 0 0 1-.842.14c-.46 0-.844-.108-1.153-.327a1.427 1.427 0 0 1-.587-.893h4.599Zm-4.125-1.956c.271-.226.607-.339 1.006-.339.392 0 .723.115.994.345.271.23.437.537.497.921h-2.994c.06-.392.226-.7.497-.927Z" clip-rule="evenodd"/><path fill="#313C84" d="M134.47 44.092c-.648 0-1.23-.133-1.746-.4a3.004 3.004 0 0 1-1.209-1.114 3.037 3.037 0 0 1-.435-1.616c0-.603.145-1.141.435-1.616.29-.474.693-.845 1.209-1.113.516-.267 1.098-.401 1.746-.401.64 0 1.2.134 1.678.401.478.268.827.65 1.045 1.147l-1.367.735c-.316-.558-.772-.837-1.367-.837-.46 0-.84.151-1.142.452-.301.302-.452.712-.452 1.232s.151.93.452 1.232c.302.301.682.452 1.142.452.602 0 1.058-.279 1.367-.836l1.367.745a2.426 2.426 0 0 1-1.045 1.13c-.478.272-1.038.407-1.678.407ZM140.945 41.696h-.916v2.305h-1.762v-6.08h1.762v2.363h.95l1.649-2.362h1.876l-2.124 2.915 2.271 3.164h-2.079l-1.627-2.305Z"/><path fill="#313C84" fill-rule="evenodd" d="M149.939 38.504c-.505-.448-1.228-.672-2.17-.672-.489 0-.966.064-1.429.192a3.817 3.817 0 0 0-1.192.542l.633 1.232c.218-.173.484-.31.796-.412a3.07 3.07 0 0 1 .955-.153c.467 0 .818.104 1.051.311.234.207.35.503.35.887h-1.401c-.889 0-1.546.162-1.972.486-.425.324-.638.768-.638 1.333 0 .354.09.67.271.95.181.278.443.497.785.655.343.158.748.237 1.215.237.904 0 1.522-.282 1.853-.847v.757h1.65v-3.47c0-.903-.252-1.58-.757-2.028Zm-1.503 4.193c-.233.139-.501.209-.802.209-.309 0-.552-.066-.729-.198a.635.635 0 0 1-.266-.537c0-.474.362-.712 1.085-.712h1.209v.622a1.142 1.142 0 0 1-.497.616ZM157.635 44.001v-6.08h-2.904c-.904 0-1.614.195-2.13.583-.516.388-.774.94-.774 1.655 0 .445.111.823.333 1.136.222.313.544.552.966.718L151.736 44h1.876l1.153-1.74h1.299v1.74h1.571Zm-3.723-4.44c.192-.136.476-.204.853-.204h1.299v1.729h-1.322c-.377 0-.657-.07-.842-.21-.184-.139-.277-.359-.277-.66 0-.302.096-.52.289-.656Z" clip-rule="evenodd"/><path fill="#313C84" d="M165.205 41.696h-.915v2.305h-1.763v-6.08h1.763v2.363h.949l1.65-2.362h1.876l-2.124 2.915 2.271 3.164h-2.079l-1.628-2.305Z"/><path fill="#313C84" fill-rule="evenodd" d="M170.714 43.691c.509.267 1.083.401 1.724.401.64 0 1.212-.133 1.717-.4.505-.268.9-.64 1.187-1.114a3.069 3.069 0 0 0 .429-1.616 3.07 3.07 0 0 0-.429-1.616 2.995 2.995 0 0 0-1.187-1.113c-.505-.267-1.077-.401-1.717-.401-.641 0-1.215.134-1.724.401a2.983 2.983 0 0 0-1.192 1.113 3.07 3.07 0 0 0-.429 1.616c0 .603.143 1.141.429 1.616.286.475.684.846 1.192 1.113Zm2.837-1.503c-.29.305-.661.458-1.113.458-.452 0-.825-.153-1.119-.458-.294-.305-.441-.714-.441-1.226s.147-.92.441-1.226c.294-.305.667-.458 1.119-.458.452 0 .823.153 1.113.458.29.305.435.714.435 1.226s-.145.921-.435 1.226Z" clip-rule="evenodd"/><path fill="#313C84" d="M182.913 44.001v-3.638l-1.819 3.05h-.746l-1.774-3.062v3.65h-1.594v-6.08h1.842l1.944 3.515 2.068-3.514h1.65l.022 6.08h-1.593ZM192.235 37.922v6.08h-1.763v-4.634h-2.531v4.633h-1.752v-6.08h6.046Z"/><path fill="#313C84" fill-rule="evenodd" d="M198.462 38.504c-.505-.448-1.228-.672-2.17-.672-.49 0-.966.064-1.43.192-.463.128-.86.309-1.192.542l.633 1.232c.219-.173.484-.31.797-.412.312-.102.631-.153.955-.153.467 0 .817.104 1.051.311.233.207.35.503.35.887h-1.401c-.889 0-1.547.162-1.972.486-.426.324-.639.768-.639 1.333 0 .354.091.67.272.95.18.278.442.497.785.655.343.158.748.237 1.215.237.904 0 1.521-.282 1.853-.847v.757h1.65v-3.47c0-.903-.253-1.58-.757-2.028Zm-1.503 4.193c-.234.139-.501.209-.803.209-.309 0-.551-.066-.729-.198a.634.634 0 0 1-.265-.537c0-.474.362-.712 1.085-.712h1.209v.622a1.146 1.146 0 0 1-.497.616Z" clip-rule="evenodd"/><path fill="#313C84" d="M200.756 37.922h1.751v2.373h2.645v-2.373h1.762v6.08h-1.762V41.73h-2.645v2.271h-1.751v-6.08ZM208.598 37.922h1.751v3.616l2.961-3.616h1.616v6.08h-1.752v-3.617l-2.949 3.616h-1.627v-6.08Z"/><path fill="#313C84" fill-rule="evenodd" d="M222.022 44.001v-6.08h-2.904c-.904 0-1.614.195-2.131.583-.516.388-.774.94-.774 1.655 0 .445.112.823.334 1.136.222.313.544.552.966.718L216.123 44h1.876l1.152-1.74h1.3v1.74h1.571Zm-3.724-4.44c.192-.136.477-.204.853-.204h1.3v1.729h-1.322c-.377 0-.657-.07-.842-.21-.185-.139-.277-.359-.277-.66 0-.302.096-.52.288-.656Z" clip-rule="evenodd"/></svg>