<svg xmlns="http://www.w3.org/2000/svg">
  <symbol viewBox="0 0 12 7" id="arrow-dropdown">
    <path fill-rule="evenodd" d="M.571 1.145 1.318.43 6 4.999l4.682-4.57.746.716L6 6.43.57 1.145Z" clip-rule="evenodd"></path>
  </symbol>
  <symbol viewBox="0 0 49 49" id="arrow-icon">
    <path fill-rule="evenodd" clip-rule="evenodd" d="M48.12 24c0-13.255-10.745-24-24-24s-24 10.745-24 24 10.745 24 24 24 24-10.745 24-24Zm-14.987-.755H12.12v1.505h21.013l-6.76 6.75h2.25l7.497-7.505-7.496-7.495h-2.251l6.76 6.745Z"/>
  </symbol>
  <symbol viewBox="0 0 14 40" id="arrow-slider">
    <path fill-rule="evenodd" clip-rule="evenodd" d="m11.884.04 1.732 1L2.67 19.997l10.946 18.96-1.732 1-11.5-19.919.07-.04-.07-.041L11.884.039Z"/>
  </symbol>
  <symbol viewBox="0 0 16 17" id="clear">
    <path fill-rule="evenodd" d="M8 .152c-4.4 0-8 3.6-8 8s3.6 8 8 8 8-3.6 8-8-3.6-8-8-8Zm4 11.05-1.12 1.186L8 9.338l-2.88 3.05L4 11.202l2.88-3.05L4 5.102l1.12-1.185L8 6.967l2.88-3.05L12 5.103l-2.88 3.05L12 11.201Z" clip-rule="evenodd"/>
  </symbol>
  <symbol viewBox="0 0 12 10" id="chek">
    <path d="M4.418 6.579 10.722.152 12 1.39 4.386 9.152 0 4.453l1.308-1.206 3.11 3.332Z"/>
  </symbol>
  <symbol viewBox="0 0 138 97" id="sharing">
    <path fill-rule="evenodd" d="M74.359 49.818V12.742a5.173 5.173 0 0 1 5.168-5.168h29.552l3.565-5.294A5.172 5.172 0 0 1 116.939 0h8.128a5.173 5.173 0 0 1 5.169 5.169v2.406h1.853a5.173 5.173 0 0 1 5.169 5.168v37.072a5.173 5.173 0 0 1-5.169 5.17H79.546c-2.87 0-5.187-2.317-5.187-5.169v.002Zm58.337-37.075a.617.617 0 0 0-.607-.623h-4.118a2.274 2.274 0 0 1-2.281-2.282l.001-4.67a.601.601 0 0 0-.606-.606h-8.128a.677.677 0 0 0-.517.268l-4.259 6.31a2.302 2.302 0 0 1-1.889.997H79.528a.605.605 0 0 0-.607.623v13.244h3.761V21.76a4.872 4.872 0 0 1 4.866-4.866l36.539.001a4.873 4.873 0 0 1 4.866 4.866v4.242h3.742l.001-13.26ZM87.246 25.97v-4.242h-.001c0-.161.125-.286.286-.303h36.539a.3.3 0 0 1 .303.303v4.242H87.246Zm45.45 23.848V30.549H78.921v19.268c0 .339.268.606.606.606h52.563a.6.6 0 0 0 .605-.606h.001ZM5.186 49.09H34.72l3.564-5.293a5.174 5.174 0 0 1 4.296-2.281l8.128-.001a5.173 5.173 0 0 1 5.168 5.169v2.405h1.836a5.173 5.173 0 0 1 5.168 5.17V91.33a5.173 5.173 0 0 1-5.168 5.169H5.168A5.173 5.173 0 0 1 0 91.331V54.26c0-2.851 2.317-5.169 5.186-5.169v.001Zm-.623 42.242c0 .34.268.607.606.607h52.56a.601.601 0 0 0 .607-.607V72.065H4.562l.001 19.268Zm45.45-28.072v4.242H12.868v-4.242c0-.16.143-.303.303-.303H49.71c.16 0 .303.143.303.303ZM4.582 67.504h3.742V63.26a4.872 4.872 0 0 1 4.866-4.866h36.538a4.872 4.872 0 0 1 4.866 4.866v4.242h3.76V54.26a.601.601 0 0 0-.606-.606h-4.117a2.274 2.274 0 0 1-2.281-2.281v-4.688a.617.617 0 0 0-.624-.606h-8.128a.648.648 0 0 0-.517.267l-4.26 6.31a2.3 2.3 0 0 1-1.888.997H5.188a.601.601 0 0 0-.606.607v13.244ZM60.6 12.588H46.394a2.587 2.587 0 0 0-2.585 2.585v8.788l3.458-3.458a2.281 2.281 0 1 1 3.226 3.226l-7.343 7.343a2.3 2.3 0 0 1-1.604.677c-.517.054-1.426-.48-1.64-.695l-7.325-7.325a2.281 2.281 0 1 1 3.227-3.226l3.458 3.458v-8.752c0-3.938 3.208-7.147 7.147-7.147h14.186a2.274 2.274 0 0 1 2.282 2.28c0 1.23-1.016 2.246-2.282 2.246Zm30.246 74.35H76.64a2.275 2.275 0 0 0-2.281 2.28 2.274 2.274 0 0 0 2.28 2.282h14.206c3.939 0 7.147-3.208 7.147-7.147v-8.751l3.458 3.457a2.187 2.187 0 0 0 1.604.678c.589 0 1.177-.232 1.623-.677a2.281 2.281 0 0 0 0-3.227l-7.326-7.325a2.304 2.304 0 0 0-1.64-.695c-.837 0-1.568.606-1.621.66l-7.344 7.343a2.281 2.281 0 1 0 3.227 3.226l3.458-3.458v8.77a2.587 2.587 0 0 1-2.585 2.585Z" clip-rule="evenodd"/>
  </symbol>
  <symbol viewBox="0 0 83 66" id="info">
    <path fill-rule="evenodd" d="M65.763 3.058a8.752 8.752 0 0 1 2.558 6.18v17.479a2.384 2.384 0 0 1-4.767 0V10.352L40.001 23.174a11.91 11.91 0 0 1-11.312.045L4.767 10.443v28.985c0 1.055.42 2.062 1.163 2.81A3.977 3.977 0 0 0 8.739 43.4h31.477a2.384 2.384 0 0 1 0 4.767H8.739a8.755 8.755 0 0 1-6.18-2.559A8.752 8.752 0 0 1 0 39.428V9.238c0-2.315.922-4.54 2.558-6.18A8.752 8.752 0 0 1 8.738.5h50.844c2.316 0 4.541.922 6.18 2.558Zm-6.18 2.21a3.97 3.97 0 0 1 2.162.64l-24.022 13.08a7.151 7.151 0 0 1-6.787.026L6.498 5.96a3.97 3.97 0 0 1 2.24-.693h50.844ZM82.32 37.696a5.559 5.559 0 0 0-5.56-5.561H51.337a5.559 5.559 0 0 0-5.56 5.56V59.94a5.56 5.56 0 0 0 5.56 5.561H76.76a5.56 5.56 0 0 0 5.561-5.56V37.695Zm-4.766 22.243a.795.795 0 0 1-.795.794H51.338a.795.795 0 0 1-.794-.794V37.696c0-.442.356-.795.794-.795h4.767v7.293a2.384 2.384 0 0 0 2.383 2.384H69.61a2.384 2.384 0 0 0 2.384-2.384v-7.293h4.766c.439 0 .794.353.794.794V59.94ZM67.227 36.901h-6.356v4.91h6.356v-4.91Z" clip-rule="evenodd"/>
  </symbol>
  <symbol viewBox="0 0 56 70" id="download">
    <path fill-rule="evenodd" d="M52 10.65h-2.667V9.318a4.002 4.002 0 0 0-4-3.993H29.2A6.675 6.675 0 0 0 22.667 0a6.675 6.675 0 0 0-6.532 5.325H4c-2.205 0-4 1.792-4 3.993v47.924a4.002 4.002 0 0 0 4 3.993h1.333v3.994a4.002 4.002 0 0 0 4 3.993H52c2.205 0 4-1.792 4-3.993V14.643a4.002 4.002 0 0 0-4-3.993ZM4 58.573a1.333 1.333 0 0 1-1.333-1.331V9.318c0-.734.597-1.33 1.333-1.33h12v2.662H9.333c-2.205 0-4 1.791-4 3.993v43.93H4Zm48 7.987c.736 0 1.333-.597 1.333-1.331V14.643c0-.735-.597-1.331-1.333-1.331H32V10.65h14.667V9.318c0-.734-.598-1.33-1.334-1.33H26.667V6.655a4.002 4.002 0 0 0-4-3.994c-2.206 0-4 1.792-4 3.994v10.65a4.002 4.002 0 0 0 4 3.993c2.205 0 4-1.792 4-3.993v-1.334a1.333 1.333 0 0 0-2.667 0v2.665h-2.667v-2.665a4.002 4.002 0 0 1 4-3.994c2.206 0 4 1.792 4 3.994v1.334c0 3.67-2.99 6.655-6.666 6.655S16 20.977 16 17.306v-3.994H9.333c-.736 0-1.333.596-1.333 1.331V65.23c0 .734.597 1.33 1.333 1.33H52ZM32 15.974h13.333v2.663H32v-2.663ZM45.333 21.3H32v2.663h13.333v-2.663ZM16 32.95a1 1 0 0 1 1-1h27.333a1 1 0 0 1 1 1v.662a1 1 0 0 1-1 1H17a1 1 0 0 1-1-1v-.662Zm1 4.325a1 1 0 0 0-1 1v.662a1 1 0 0 0 1 1h23.333a1 1 0 0 0 1-1v-.663a1 1 0 0 0-1-1H17Zm-1 6.324a1 1 0 0 1 1-1h27.333a1 1 0 0 1 1 1v.663a1 1 0 0 1-1 1H17a1 1 0 0 1-1-1v-.663Zm1.333 6.65H34c.679 0 1.24-.507 1.323-1.162.007.055.01.111.01.168v-.337c0 .057-.003.113-.01.169A1.333 1.333 0 0 0 34 47.923H17.333c-.678 0-1.24.507-1.322 1.163a1.344 1.344 0 0 1-.011-.17v.338c0-.057.004-.113.01-.168a1.333 1.333 0 0 0 1.323 1.162Z" clip-rule="evenodd"/>
  </symbol>
  <symbol viewBox="0 0 16 20" id="attach">
    <path fill-rule="evenodd" d="m15.905 8.946-4.715 9.899a2.033 2.033 0 0 1-2.688.967l-7.334-3.381a1.99 1.99 0 0 1-.978-2.658L6.187 1.155a2.032 2.032 0 0 1 2.69-.967l4.582 2.113a1.99 1.99 0 0 1 .978 2.658l-4.286 8.993a2.033 2.033 0 0 1-2.689.967l-1.833-.845a1.99 1.99 0 0 1-.979-2.658l3.004-6.274a1.017 1.017 0 0 1 1.344-.484.996.996 0 0 1 .49 1.329l-2.576 5.368a.995.995 0 0 0 .488 1.329 1.016 1.016 0 0 0 1.345-.484l3.432-7.179a.996.996 0 0 0-.49-1.33l-2.75-1.268a1.016 1.016 0 0 0-1.344.484l-5.14 10.801a1 1 0 0 0 .492 1.335l5.491 2.532a1.021 1.021 0 0 0 1.35-.486l4.285-8.988a1.017 1.017 0 0 1 1.345-.484.995.995 0 0 1 .49 1.329Z" clip-rule="evenodd"/>
  </symbol>
  <symbol viewBox="0 0 53 55" id="arms">
    <path fill-rule="evenodd" clip-rule="evenodd" d="M24.745 10.237a2.496 2.496 0 0 1-2.384-1.704l-.75-2.384a3.148 3.148 0 0 1 2.998-4.156h.477v-.068a1.073 1.073 0 0 1 .272-1.159l.41-.408c.476-.477 1.157-.477 1.634 0l.41.408c.272.273.408.75.272 1.159v.068h.477c2.18 0 3.679 2.112 2.997 4.156l-.75 2.384a2.496 2.496 0 0 1-2.384 1.704h-3.679ZM51.93 9.35c-.068-.204-.136-.34-.272-.477a.774.774 0 0 0-.545-.204c-.205 0-.409 0-.545.136-.136.068-.273.204-.409.409-.613 1.09-1.771 3.066-2.861 4.633-3.203 4.632-6.473 7.903-11.106 8.04-.545 0-1.09-.137-1.567-.342a3.703 3.703 0 0 1-2.112-3.951c0-.75.273-1.43.613-2.044a4.164 4.164 0 0 1 1.635-1.43c.954-.478 2.249-.546 3.27-.341.546.068 1.09.272 1.568.545.477.272.75.204.817-.41.068-1.43-.204-3.338-1.499-4.223-1.635-1.159-4.224-.341-5.859.545-1.703.885-3.134 2.248-4.36 3.747-.818 1.022-1.635 2.112-2.18 3.338a21.618 21.618 0 0 0-2.18-3.338c-1.227-1.499-2.658-2.862-4.361-3.747-1.567-.886-4.156-1.704-5.86-.545-1.294.885-1.566 2.793-1.498 4.224.068.545.34.681.817.409a4.3 4.3 0 0 1 1.567-.545c1.09-.205 2.317-.137 3.27.34.682.34 1.227.818 1.636 1.43.409.614.613 1.363.613 2.045.204 1.635-.681 3.27-2.112 3.951a4.041 4.041 0 0 1-1.567.341c-4.633-.136-7.903-3.407-11.105-8.04-1.09-1.566-2.249-3.542-2.862-4.632a.614.614 0 0 0-.409-.41 1.284 1.284 0 0 0-.545-.135c-.204 0-.34.068-.545.204-.136.136-.272.273-.272.477a33.448 33.448 0 0 0-.613 14.24c.613 3.678 2.793 9.333 6.472 11.241 3.68 1.908 6.745.477 8.857-.613 1.226-.681 2.044-1.022 2.725-.886.477.068.682.613.34 1.022l-2.724 3.407c-.75.817-.954 1.907-.75 2.93l-3.747 3.338-.818-.75c.273-.545.41-1.226.41-1.84 0-.749-.614-1.362-1.363-1.362-.75 0-1.363.613-1.363 1.363 0 .885-.75 1.567-1.567 1.567-.75 0-1.363.613-1.363 1.362 0 .75.614 1.363 1.363 1.363.75 0 1.43-.204 2.044-.477l1.84 1.635 3.27 2.93c.545.477 1.43.477 1.907-.136.477-.546.477-1.431-.136-1.908l-2.112-1.908 3.27-2.93a2.41 2.41 0 0 0 1.704.273c1.771-.204 3.542-1.09 5.11-1.976.727 2.35-1.67 4.333-3.532 5.872-.405.335-.785.65-1.101.941l-.134.132c-.685.678-1.655 1.636-.888 2.594.417.536 1.2.76 1.845.944l.267.078c.34.068.681.136 1.022.272a11.325 11.325 0 0 1 4.182 1.96c.195.144.357.263.519.425.136.136.34.204.545.204a.774.774 0 0 0 .545-.204c.11-.074.221-.168.343-.27.102-.088.213-.182.338-.275 1.158-.886 2.52-1.567 4.02-1.84.34-.068.681-.136 1.022-.272l.15-.041c.715-.193 1.516-.409 1.962-.981.817-1.022-.34-2.112-1.022-2.726a24.18 24.18 0 0 0-1.187-1.033c-1.826-1.526-4.159-3.476-3.446-5.78 1.567.886 3.338 1.704 5.11 1.976.613.068 1.158 0 1.635-.273l3.202 2.862c0 .068-.017.153-.034.238-.017.086-.034.17-.034.239a4.274 4.274 0 0 0 4.292 4.292 4.274 4.274 0 0 0 4.292-4.292 4.274 4.274 0 0 0-4.292-4.292c-1.226 0-2.316.477-3.066 1.294l-2.725-2.453c.204-1.021 0-2.112-.75-2.997l-2.725-3.407c-.272-.34-.068-.954.341-1.022.681-.136 1.499.273 2.725.886 2.112 1.09 5.178 2.589 8.857.613 3.68-1.908 5.791-7.563 6.473-11.241.681-4.77.477-9.607-.682-14.308Zm-9.947 36.314c.205-.613.818-1.09 1.5-1.09.885 0 1.566.75 1.566 1.567 0 .885-.75 1.567-1.567 1.567-.886 0-1.567-.75-1.567-1.567 0-.137 0-.341.068-.477Z"/>
  </symbol>
  <symbol viewBox="0 0 59 47" id="heart">
    <path fill-rule="evenodd" clip-rule="evenodd" d="M44.3639 2.77871C46.1874 4.5617 47.2079 6.98013 47.1998 9.49943L47.2 9.49981C47.1962 12.0178 46.1612 14.4301 44.3253 16.1989L31.1323 29.0774C30.5546 29.6409 29.6186 29.6409 29.0405 29.0774L15.8224 16.1808C13.3717 13.7897 12.4139 10.3038 13.3103 7.03649C14.2062 3.76916 16.8198 1.21658 20.1665 0.340299C23.5135 -0.536001 27.0845 0.39734 29.5353 2.7888L29.5357 2.78838L30.0801 3.31981L30.6121 2.80046C32.4296 1.01206 34.9025 0.00427834 37.4833 1.35856e-05C40.0641 -0.00425117 42.5404 0.995727 44.3639 2.77871ZM12.6463 46.02H27.14L27.08 40.904C27.0649 37.018 25.4997 33.2953 22.7256 30.5472L13.8489 21.7208C13.2494 21.1305 12.4268 20.8173 11.5824 20.858C10.7375 20.8987 9.94927 21.2896 9.41059 21.9352C8.94284 22.5301 8.71379 23.275 8.76707 24.0269C8.82035 24.7789 9.15217 25.4847 9.69963 26.009L13.9815 30.2493C14.1883 30.4529 14.294 30.7366 14.2709 31.0245C14.2479 31.3124 14.0981 31.5758 13.8611 31.7441C13.4382 32.0291 12.8677 31.9601 12.5258 31.5833L7.60041 26.7057C6.8881 26.0007 6.51392 25.0274 6.57221 24.0315L7.33613 12.7157C7.40577 11.6169 6.87803 10.5642 5.95216 9.95473C5.0259 9.3457 3.84168 9.27176 2.84572 9.76156C1.84982 10.2509 1.19327 11.2297 1.12325 12.3286L0.0169965 26.6286C-0.127737 28.7414 0.657154 30.8133 2.1699 32.3101L12.5983 42.6253L12.6463 46.02ZM58.983 26.6283C59.1277 28.7412 58.3429 30.813 56.8301 32.3098L46.4019 42.625V46.02H31.86L31.92 40.904C31.9355 37.0184 33.5007 33.2957 36.2744 30.5472L45.1509 21.7208C45.7504 21.1305 46.573 20.8173 47.4174 20.858C48.2623 20.8987 49.0505 21.2896 49.5892 21.9352C50.057 22.5301 50.286 23.275 50.2327 24.0269C50.1795 24.7789 49.8476 25.4847 49.3002 26.009L45.0184 30.2493C44.8116 30.4529 44.7058 30.7366 44.7289 31.0245C44.752 31.3124 44.9018 31.5758 45.1388 31.7441C45.5616 32.0291 46.1321 31.9601 46.4741 31.5833L51.3994 26.7057C52.1117 26.0007 52.4859 25.0274 52.4276 24.0315L51.6637 12.7157C51.594 11.6169 52.1217 10.5642 53.0476 9.95473C53.9739 9.3457 55.1581 9.27176 56.154 9.76156C57.1499 10.2509 57.8064 11.2297 57.8765 12.3286L58.983 26.6283Z"/>
  </symbol>
  <symbol viewBox="0 0 54 55" id="bus">
    <path fill-rule="evenodd" clip-rule="evenodd" d="M1.48302 13.5194C1.84229 13.1654 2.32766 12.9689 2.83207 12.973C2.90484 12.9677 2.97761 12.9677 3.05038 12.973V8.39592C2.98104 7.17834 3.33993 5.9748 4.06528 4.99374C4.79067 4.01306 5.83645 3.31737 7.02096 3.02712C12.0266 1.52875 17.1798 0.576264 22.3909 0.18692C31.0552 -0.449694 39.7621 0.543133 48.0611 3.1148C49.1293 3.42149 50.0688 4.06649 50.7394 4.95307C51.4103 5.83923 51.7752 6.91891 51.7806 8.03027V12.9895H52.0046C52.5106 12.9895 52.9959 13.1903 53.3545 13.5477C53.7126 13.9047 53.9145 14.3896 53.916 14.8956V20.1934C53.9103 20.6963 53.7072 21.1767 53.351 21.5311C52.9944 21.8858 52.5129 22.0858 52.01 22.0888C51.9353 22.0942 51.8606 22.0942 51.7859 22.0888V44.362C51.7859 46.4429 50.6937 47.9832 48.9187 48.5349C48.6889 48.6016 48.4515 48.6456 48.1982 48.6927L48.1981 48.6927C48.0781 48.715 47.9545 48.7379 47.8265 48.7642V52.4182C47.8265 52.9973 47.596 53.5532 47.1864 53.9627C46.7769 54.3727 46.221 54.6028 45.6415 54.6028H39.7592C39.1798 54.6028 38.6243 54.3727 38.2147 53.9627C37.8048 53.5532 37.5747 52.9973 37.5747 52.4182V48.7532H17.2902V52.4182C17.2902 52.9973 17.0601 53.5532 16.6501 53.9627C16.2406 54.3727 15.6851 54.6028 15.1056 54.6028H9.21759C8.6385 54.6028 8.08262 54.3727 7.67308 53.9627C7.26315 53.5532 7.03304 52.9973 7.03304 52.4182V48.7422L6.60138 48.6713C5.57848 48.549 4.6412 48.0404 3.98102 47.2495C3.32116 46.4586 2.98854 45.4448 3.05143 44.4165V22.0731C2.97676 22.0785 2.90209 22.0785 2.82741 22.0731C2.32109 22.0716 1.83572 21.8697 1.47758 21.5116C1.11908 21.1535 0.917538 20.6681 0.916016 20.1614V14.8691C0.917538 14.3617 1.12213 13.8759 1.48405 13.5201L1.48302 13.5194ZM38.4697 40.6262H42.3366H46.0013C46.463 40.662 46.9183 40.5005 47.2544 40.182C47.5904 39.8635 47.7763 39.4177 47.7656 38.9548C47.7839 38.5614 47.7778 38.1655 47.7717 37.7705C47.7687 37.5732 47.7656 37.3762 47.7656 37.1799C47.7816 36.7192 47.6033 36.2735 47.2738 35.9512C46.9442 35.6289 46.4943 35.4605 46.0341 35.4867C44.8965 35.4601 43.7577 35.5073 42.6262 35.6289C40.3323 35.9729 38.8411 37.4751 37.7109 39.359H37.7105C37.5322 39.6211 37.5223 39.9633 37.6853 40.2353C37.8484 40.5073 38.1543 40.6601 38.4698 40.6262L38.4697 40.6262ZM42.7245 28.2721C43.1394 28.6642 43.4731 29.1335 43.7074 29.6539C40.5483 30.1648 37.3591 30.4715 34.1604 30.5717C34.3376 29.5834 34.8557 28.6885 35.6242 28.0427C36.6338 27.213 37.9112 26.7782 39.2176 26.8206C40.524 26.8629 41.7702 27.3787 42.7245 28.2721ZM31.3971 30.6426C31.5674 28.8277 32.4417 27.1513 33.8331 25.9729C35.3639 24.6879 37.3149 24.0131 39.3124 24.0779C41.3098 24.1423 43.2132 24.9416 44.6583 26.3223C45.4511 27.0957 46.0545 28.0413 46.4222 29.0859L46.5479 29.0478C47.6402 28.7312 47.7713 28.5781 47.7713 27.4092V10.1286C47.7713 8.95447 47.58 8.70869 46.4332 8.41347C33.8917 5.18577 20.7358 5.2007 8.20107 8.45728C7.24519 8.70835 7.04328 8.95979 7.04328 9.97018V18.8017V27.6279C7.04328 28.5019 7.19605 28.8131 8.05896 28.9659C8.49213 29.0455 8.92462 29.1267 9.35693 29.2079C11.3885 29.5894 13.4161 29.9703 15.4923 30.1729L15.4927 30.1732C20.7784 30.6693 26.0904 30.8262 31.3971 30.643V30.6426ZM7.60964 40.1957C7.28581 39.8978 7.0957 39.4825 7.0816 39.0429L7.08156 39.0427C7.04423 38.3894 7.04803 37.7345 7.09261 37.0819C7.10518 36.6415 7.29491 36.2247 7.61836 35.9257C7.94219 35.6266 8.3727 35.4704 8.81312 35.4925H10.4517C13.4283 35.3451 15.5256 36.7813 17.0549 39.1956C17.2987 39.4665 17.3463 39.8612 17.1738 40.1824C17.0008 40.5035 16.6449 40.6811 16.2845 40.6266H12.5434H8.80215C8.36284 40.6487 7.93309 40.4936 7.60964 40.1957Z"/>
  </symbol>
  <symbol viewBox="0 0 57 62" id="career-growth">
    <path fill-rule="evenodd" clip-rule="evenodd" d="M19.4987 11C21.9817 11 24 8.83336 24 6.17378L23.9996 4.82344C23.9996 2.16386 21.9814 0 19.4987 0C17.0182 0 15 2.16386 15 4.82344V6.17378C14.9996 8.83336 17.0182 11 19.4987 11ZM6.12032 29.9683C7.26259 30.717 8.80217 30.3962 9.5515 29.2509L14.9568 20.9847C15.0708 20.8095 15.2622 20.7097 15.4634 20.7097C15.5215 20.7097 15.5796 20.717 15.6356 20.7341C15.8927 20.8121 16.0696 21.0477 16.0696 21.3175V35.0395C16.0696 35.9587 15.803 36.8509 15.3011 37.6191L11.6832 43.1528C10.9339 44.298 11.2539 45.8395 12.3962 46.5907C12.949 46.9552 13.6086 47.082 14.2587 46.9479C14.9063 46.8117 15.4639 46.4327 15.8278 45.878L20.1659 39.2407C20.5829 38.6038 20.8037 37.8645 20.8037 37.1013V33.1335C20.8037 30.7851 22.7099 28.874 25.0522 28.874H26.2184C28.5611 28.874 30.4668 30.7851 30.4668 33.1335V37.0088C30.4668 38.3802 31.5797 39.4933 32.9454 39.4933C33.6071 39.4933 34.2304 39.2355 34.7012 38.7639C35.1694 38.2945 35.4261 37.67 35.4261 37.0062C35.4235 33.8698 35.4235 29.4814 35.4235 29.4814V28.0226C35.4235 25.7517 33.5806 23.9041 31.3157 23.9041H28.4228C27.3681 23.9041 26.5073 23.0432 26.5073 21.9831V19.457C26.5073 18.6329 26.9097 17.8599 27.5816 17.3857L35.9422 11.5201C36.5048 11.1261 36.8709 10.5329 36.973 9.85233C37.0725 9.17176 36.8952 8.49799 36.4736 7.9558C35.6611 6.91289 34.1795 6.69149 33.1005 7.44998L25.7601 12.5994C24.4238 13.5353 22.8573 14.0338 21.2254 14.0363L16.6473 14.0436C14.7168 14.0462 12.932 15.0163 11.8726 16.6353L5.40532 26.5256C4.6556 27.6735 4.97557 29.217 6.12044 29.9682L6.12032 29.9683ZM47.6429 43.9413L45.7014 40L57 42.2611L51.8385 52.4489L50.0104 48.7418C49.9386 48.5952 49.8104 48.4831 49.6574 48.432C49.5022 48.3783 49.3319 48.3877 49.1863 48.4586L26.4449 59.4074L23.2298 52.388C23.1607 52.2393 23.0346 52.1224 22.8768 52.0661C22.7217 52.0124 22.5487 52.0197 22.3983 52.0928L1.82338 62L0 58.3001L24.9979 46.2612L28.2104 53.2806C28.2795 53.4319 28.4077 53.5487 28.5633 53.6024C28.7211 53.6609 28.8936 53.651 29.0419 53.5779L47.3591 44.7586C47.6651 44.6095 47.7933 44.2464 47.6429 43.9413Z"/>
  </symbol>
  <symbol viewBox="0 0 13 20" id="phone">
    <path fill-rule="evenodd" d="M0 2a2 2 0 0 1 2-2h9a2 2 0 0 1 2 2v16a2 2 0 0 1-2 2H2a2 2 0 0 1-2-2V2Zm3 15a1 1 0 0 1 1-1h5a1 1 0 1 1 0 2H4a1 1 0 0 1-1-1ZM6.5 2a1.5 1.5 0 1 0 0 3 1.5 1.5 0 0 0 0-3Z" clip-rule="evenodd"/>
  </symbol>
  <symbol viewBox="0 0 20 16" id="email">
    <path fill-rule="evenodd" d="m20 2-2-2-2 2-2-2-2 2-2-2-2 2-2-2-2 2-2-2-2 2 2 2-2 2 2 2-2 2 2 2-2 2 2 2 2-2 2 2 2-2 2 2 2-2 2 2 2-2 2 2 2-2-2-2 2-2-2-2 2-2-2-2 2-2Zm-10 9L4 6V4l6 4 6-4v2l-6 5Z" clip-rule="evenodd"/>
  </symbol>
  <symbol viewBox="0 0 107 62" id="warehouses-icon-1-1">
    <path fill-rule="evenodd" d="M7.737 16.26a7.737 7.737 0 1 1 0-15.475 7.737 7.737 0 0 1 0 15.475Zm45.526 0a7.737 7.737 0 1 1 0-15.475 7.737 7.737 0 0 1 0 15.475Zm0-4.738a3 3 0 1 1 0-6 3 3 0 0 1 0 6ZM31.958 1.795a1.962 1.962 0 0 1 2.803 0l5.27 5.382a1.962 1.962 0 0 1 0 2.804l-5.382 5.382a2.07 2.07 0 0 1-1.346.56 2.07 2.07 0 0 1-1.345-.56 1.962 1.962 0 0 1 0-2.803l2.13-2.131H22.316c-1.01 0-1.907-.897-1.907-1.906 0-1.01.785-1.906 1.907-1.906l11.66-.001-2.017-2.018a1.962 1.962 0 0 1 0-2.803ZM4.738 8.522a3 3 0 1 0 6 0 3 3 0 0 0-6 0Zm94.05 53.263a7.737 7.737 0 1 1 0-15.475 7.737 7.737 0 0 1 0 15.475Zm-3-7.737a3 3 0 1 0 6 0 3 3 0 0 0-6 0ZM80.287 47.32a1.962 1.962 0 0 0-2.804 0 1.962 1.962 0 0 0 0 2.803l2.018 2.018-11.774.001c-1.121 0-1.906.897-1.906 1.906 0 1.01.897 1.906 1.906 1.906h11.774l-2.018 2.018a1.962 1.962 0 0 0 0 2.804c.337.336.897.56 1.346.56a2.07 2.07 0 0 0 1.345-.56l5.382-5.383a1.962 1.962 0 0 0 0-2.803l-5.27-5.27Zm-34.762 6.728a7.738 7.738 0 1 0 15.475 0 7.738 7.738 0 0 0-15.475 0Zm10.738 0a3 3 0 1 1-6 0 3 3 0 0 1 6 0ZM51.357 34.76V22.987c0-1.009.784-1.906 1.906-1.906a2.01 2.01 0 0 1 2.018 2.019v11.549L57.3 32.63a1.962 1.962 0 0 1 2.803 0 1.962 1.962 0 0 1 0 2.803l-5.382 5.382a1.962 1.962 0 0 1-2.803 0l-5.383-5.382a2.07 2.07 0 0 1-.56-1.345c0-.448.224-1.01.56-1.346a1.962 1.962 0 0 1 2.804 0l2.018 2.018Z" clip-rule="evenodd"/>
  </symbol>
  <symbol viewBox="0 0 104 71" id="warehouses-icon-1-2">
    <path fill-rule="evenodd" d="M89.37 2.362c0-1.194.968-2.163 2.163-2.163h10.089c1.196 0 2.163.97 2.163 2.163l.001 65.676a2.162 2.162 0 0 1-2.163 2.161H41.082a2.162 2.162 0 0 1-2.163-2.161V37.767c0-1.193.97-2.161 2.163-2.161h10.09c1.194 0 2.163.967 2.163 2.16v10.812h5.764V20.47c0-1.195.969-2.162 2.163-2.162h10.09c1.194 0 2.163.968 2.163 2.162v15.136h7.927c1.195 0 2.163.967 2.163 2.16l-.001 8.65h5.766V2.362ZM59.1 65.876V52.903h-5.765v12.973H59.1ZM43.244 39.93h5.767v25.947h-5.767V39.93Zm25.947-17.296h-5.767v43.243h5.767V22.633Zm4.324 17.296h5.765v25.947h-5.765V39.93ZM89.37 50.741h-5.766v15.135h5.766V50.741Zm10.091 15.135h-5.766V4.525h5.766v61.351ZM15.135 13.983c4.769 0 8.649 3.88 8.649 8.648 0 2.136-.78 4.09-2.067 5.6 5.058 2.076 8.553 6.464 8.553 11.532v10.645a2.16 2.16 0 0 1-2.161 2.16h-4.324v15.136a2.163 2.163 0 0 1-4.325 0V46.415a2.163 2.163 0 0 1 4.325 0v1.83h2.161v-8.482c0-4.677-4.85-8.482-10.81-8.482-5.962 0-10.812 3.805-10.812 8.482v8.483h2.162v-1.83a2.163 2.163 0 0 1 4.325 0v21.288a2.163 2.163 0 0 1-4.324 0V52.569H2.162A2.162 2.162 0 0 1 0 50.408V39.763c0-5.068 3.496-9.456 8.553-11.531a8.606 8.606 0 0 1-2.066-5.6c0-4.77 3.88-8.65 8.648-8.65Zm0 4.324a4.328 4.328 0 0 0-4.324 4.324 4.329 4.329 0 0 0 4.325 4.325 4.33 4.33 0 0 0 4.324-4.325 4.33 4.33 0 0 0-4.325-4.324ZM12.974 57.06v10.644a2.162 2.162 0 1 0 4.325 0V57.06a2.162 2.162 0 0 0-4.325 0Z" clip-rule="evenodd"/>
  </symbol>
  <symbol viewBox="0 0 78 66" id="warehouses-icon-1-3">
    <path fill-rule="evenodd" d="m70.047 32.868 6.614 2.645-.154-.11a2.205 2.205 0 0 1 0 4.123l-13.648 4.96a2.209 2.209 0 0 1-1.565 0h-.001l-9.657-3.857-1.786.771a2.205 2.205 0 0 1-1.697 0l-13.03-5.203-4.014 14.728a2.203 2.203 0 0 1-2.204 1.631h-12.5V63.58a2.205 2.205 0 0 1-2.206 2.205H2.205A2.205 2.205 0 0 1 0 63.58V39.328c0-1.218.987-2.205 2.205-2.205h11.994a2.207 2.207 0 0 1 2.205 2.205v8.819H27.23l3.704-13.581L18.39 29.56a2.203 2.203 0 0 1-1.236-2.867l9.812-24.517A2.206 2.206 0 0 1 29.83.942l45.066 18.101a2.206 2.206 0 0 1 1.235 2.867l-3.683 9.215c-.213.544-.633.98-1.168 1.213l-1.234.53ZM4.409 61.419h7.585V41.576H4.409V61.42Zm44.449-24.384L22.07 26.319l8.136-20.46 40.987 16.425-2.535 6.328-13.98 5.93-4.012 1.72-1.808.773Zm8.444 1.168 4.785 1.918 7.585-2.711-5.38-2.205-6.99 2.998Z" clip-rule="evenodd"/>
  </symbol>
  <symbol viewBox="0 0 101 79" id="warehouses-icon-1-4">
    <path fill-rule="evenodd" d="M68.909 9.938 52.649.98h.039a5.028 5.028 0 0 0-4.533 0L31.63 9.938a4.725 4.725 0 0 0-2.666 4.426v16.338a4.944 4.944 0 0 0 2.44 4.252l16.54 9.223a4.72 4.72 0 0 0 4.878 0l16.314-9.223a4.946 4.946 0 0 0 2.44-4.252V14.364a4.896 4.896 0 0 0-2.666-4.426Zm-9.597 57.166c1.72-2.4-1.986-5.105-3.705-2.666l-1.627 2.253a.786.786 0 0 1-1.452-.36V52.495a2.306 2.306 0 0 0-4.612 0v13.876a.733.733 0 0 1-1.333.36l-1.626-2.253c-1.719-2.48-5.424.227-3.705 2.666l7.144 9.956a2.238 2.238 0 0 0 3.705.093l7.21-10.09ZM9.609 42.099l11.995-6.865c2.533-1.546 4.892 2.439 2.266 3.999l-11.996 6.878a.775.775 0 0 0 .28 1.44l2.8.28a2.264 2.264 0 0 1 2.342 2.432 2.262 2.262 0 0 1-2.675 2.06L2.41 51.148a2.264 2.264 0 0 1-1.986-3.252l5.146-11.222a2.292 2.292 0 0 1 4.157 1.906l-1.173 2.532a.773.773 0 0 0 1.093.986h-.04Zm67.11-2.88 11.995 6.878-.013-.026a.785.785 0 0 1-.359 1.44l-2.8.28a2.271 2.271 0 0 0 .453 4.518l12.21-1.173a2.374 2.374 0 0 0 1.986-3.253L95.032 36.66a2.292 2.292 0 0 0-4.158 1.906l1.173 2.533a.774.774 0 0 1-1.08.986L78.97 35.221a2.295 2.295 0 1 0-2.253 3.999Zm-24.35-14.194v8.663a2.08 2.08 0 0 1-4.158 0v-8.663a1.69 1.69 0 0 0-.814-1.332l-12.008-6.13a1.534 1.534 0 0 0-2.266 1.332v11.807a.494.494 0 0 0 .36.547l16.54 9.303c.231.093.489.093.72 0l16.354-9.21a.816.816 0 0 0 .28-.64v-11.82a1.522 1.522 0 0 0-2.266-1.334l-11.928 6.13a1.52 1.52 0 0 0-.814 1.334v.013Zm-1.333-4.878a2.093 2.093 0 0 1-1.452.001L37.922 14.15a1.509 1.509 0 0 1 .093-2.666l12.009-6.797c.232-.08.486-.08.72 0l11.86 6.797a1.52 1.52 0 0 1 .095 2.665l-11.663 5.998Z" clip-rule="evenodd"/>
  </symbol>
  <symbol viewBox="0 0 130 59" id="warehouses-icon-1-5">
    <path fill-rule="evenodd" d="M58.535.79a2.182 2.182 0 0 0-2.182 2.18v8.728c0 1.736.954 3.402 2.181 4.629 1.228 1.227 2.91 1.917 14.338 1.917v24.455a2.182 2.182 0 0 0 2.182 2.181h16.831a2.183 2.183 0 0 0 2.182-2.181V18.244c1.736 0 14.623-.69 15.85-1.917a6.548 6.548 0 0 0 1.917-4.629V2.971a2.183 2.183 0 0 0-2.182-2.182H58.535Zm31.169 39.727H77.236V18.244h12.468v22.273ZM106.83 13.24c.409-.409.639-.964.639-1.543V5.153H60.716v6.545c0 1.205.977 2.182 2.182 2.182h31.17c.578 0 12.354-.23 12.763-.639Zm-6.091 32.436a2.183 2.183 0 0 1-1.85-2.47c.17-1.193 1.295-2.111 2.47-1.85 4.515 1.002 6.814 1.755 8.594 2.337 3.276 1.073 4.794 1.57 15.136 1.987V17.335h-7.52a2.182 2.182 0 0 1 0-4.364h9.702a2.181 2.181 0 0 1 2.181 2.182V47.88a2.179 2.179 0 0 1-2.181 2.182c-17.679 0-24.819-3.545-26.26-4.26a1.806 1.806 0 0 0-.272-.125Zm-47.503-6.25a2.186 2.186 0 0 0-1.038 1.31l-.001.005c-.1.335-4.08 13.683-13.175 13.683h-4.909a4.363 4.363 0 1 1 0-8.727c2.315 0 4.535-.92 6.172-2.556a8.731 8.731 0 0 0 0-12.343 8.731 8.731 0 0 0-12.343 0 8.731 8.731 0 0 0-2.556 6.172 2.182 2.182 0 0 0 4.364 0 4.365 4.365 0 1 1 4.363 4.363 8.73 8.73 0 0 0-6.171 2.556 8.731 8.731 0 0 0-2.556 6.172 8.658 8.658 0 0 0 1.212 4.363h-5.758a4.365 4.365 0 0 1-4.363-4.363V21.698a4.365 4.365 0 0 1 4.363-4.364h29.092a2.182 2.182 0 0 0 0-4.364H20.84a8.73 8.73 0 0 0-8.727 8.728v1.593a4.982 4.982 0 0 0-2.089-.456H5a5 5 0 0 0-5 5v6.789a5 5 0 0 0 5 5h5.025a4.98 4.98 0 0 0 2.089-.456v10.894a8.73 8.73 0 0 0 2.556 6.171 8.73 8.73 0 0 0 6.171 2.556h18.182c10.265 0 15.298-11.056 16.843-15.272h9.495a2.15 2.15 0 1 0 0-4.302H55.075c-.072 0-.143.004-.213.01a2.183 2.183 0 0 0-1.625.202ZM6.944 26.73a3 3 0 0 0-3 3v3a3 3 0 0 0 3 3h2.069a3 3 0 0 0 3-3v-3a3 3 0 0 0-3-3H6.944Z" clip-rule="evenodd"/>
  </symbol>
  <symbol viewBox="0 0 96 96" id="warehouses-icon-1-6">
    <path fill-rule="evenodd" clip-rule="evenodd" d="M59.636 7.273H36.364V1.455a1.455 1.455 0 1 0-2.91 0v5.818h-8.727V1.455a1.455 1.455 0 1 0-2.909 0v5.818H4.364a1.455 1.455 0 1 0 0 2.909h4.363v68.364H7.273A7.273 7.273 0 0 0 0 85.818v8.728C0 95.349.651 96 1.455 96h93.09C95.35 96 96 95.349 96 94.546v-8.728a7.273 7.273 0 0 0-7.273-7.272h-1.454V10.181h4.363a1.455 1.455 0 0 0 0-2.91H74.182V1.456a1.455 1.455 0 1 0-2.91 0v5.818h-8.727V1.455a1.455 1.455 0 0 0-2.909 0v5.818Zm33.647 86.01H2.717v-7.359c0-2.438 1.962-4.415 4.382-4.415h81.802c2.42 0 4.382 1.977 4.382 4.415v7.359Zm-81.51-83.32v67.924h35.321V9.962h-35.32Zm38.038 67.924V9.962h35.321v67.925h-35.32Zm-26.626-41.66c-.8 0-1.45-.609-1.45-1.36 0-.75.65-1.358 1.45-1.358h11.592c.8 0 1.45.609 1.45 1.359s-.65 1.358-1.45 1.358H23.185Zm-1.45 8.603c0 .75.65 1.359 1.45 1.359h11.592c.8 0 1.45-.608 1.45-1.359 0-.75-.65-1.358-1.45-1.358H23.185c-.8 0-1.45.608-1.45 1.358Zm1.45 11.32c-.8 0-1.45-.607-1.45-1.358 0-.75.65-1.358 1.45-1.358h11.592c.8 0 1.45.608 1.45 1.358 0 .75-.65 1.359-1.45 1.359H23.185ZM70.98 43.86h-6.447l3.349-6.48c.363-.702.069-1.557-.658-1.909-.727-.351-1.61-.066-1.974.637l-4.413 8.539c-.49.946.222 2.06 1.315 2.06H68.6l-3.349 6.478c-.363.703-.069 1.558.658 1.91.727.351 1.61.066 1.974-.637l4.414-8.538c.489-.947-.223-2.06-1.316-2.06Z"/>
  </symbol>
  <symbol viewBox="0 0 96 56" id="warehouses-icon-2-1">
    <path fill-rule="evenodd" clip-rule="evenodd" d="M13.981 14.973a47.732 47.732 0 0 1 81.485 33.753 2.387 2.387 0 0 1-4.773 0 42.961 42.961 0 0 0-73.337-30.377A42.96 42.96 0 0 0 4.773 48.726a2.387 2.387 0 0 1-4.773 0 47.732 47.732 0 0 1 13.981-33.753Zm46.508 10.815Zm3.474-3.527-3.474 3.527a25.77 25.77 0 0 0-12.755-3.236A26.201 26.201 0 0 0 21.56 48.727a2.387 2.387 0 1 1-4.773 0A30.952 30.952 0 0 1 42.9 18.043a30.95 30.95 0 0 1 21.063 4.217v.001Zm6.63 13.735a25.859 25.859 0 0 1 3.314 12.729 2.387 2.387 0 1 0 4.774 0 30.625 30.625 0 0 0-4.589-16.203l-3.5 3.474Zm2.704-9.44-2.069 2.041-3.367 3.395L54.178 45.65a7.213 7.213 0 1 1-3.369-3.368v-.001l13.657-13.683 5.437-5.436a2.441 2.441 0 0 1 3.394 0c.93.94.93 2.454 0 3.394Z"/>
  </symbol>
  <symbol viewBox="0 0 113 109" id="warehouses-icon-2-2">
    <path fill-rule="evenodd" clip-rule="evenodd" d="M36.5 68.477H5a4.5 4.5 0 0 1-4.5-4.5v-58.5c0-2.484 2.011-4.5 4.5-4.5h31.5c2.49 0 4.501 2.016 4.501 4.5v58.5c0 2.484-2.011 4.5-4.5 4.5Zm0-62.998H5v4.5h31.5v-4.5Zm-31.5 9h31.5v40.499H5v-40.5Zm31.5 45H5v4.5h31.5v-4.5Zm18.001-36.002h4.5v4.5h-4.5v-4.5Zm-4.5 0H45.5v4.5H50v-4.5Zm13.5 0H68v4.5h-4.5v-4.5Zm13.499 0h-4.5v4.5H77v-4.5Zm4.501 0h4.5v4.5h-4.5v-4.5Zm4.5 9.001h-4.5v4.5h4.5v-4.5Zm-4.5 9h4.5v4.5h-4.5v-4.5Zm-22.5 49.498h-4.5v4.5h4.5v-4.5Zm-13.501 0H50v4.5h-4.5v-4.5Zm-4.499 0h-4.5v4.5H41v-4.5Zm-13.5 0h4.501v4.5h-4.5v-4.5Zm-4.5-8.999h-4.5v4.5H23v-4.5Zm-4.5 9H23v4.5h-4.5v-4.5ZM23 72.977h-4.5v4.5H23v-4.5Zm40.5 31.498V54.978c0-2.485 2.011-4.5 4.5-4.5H108.5a4.5 4.5 0 0 1 4.501 4.5v49.498a4.5 4.5 0 0 1-4.501 4.501H68a4.5 4.5 0 0 1-4.5-4.501Zm4.5 0h40.5v-13.5h-40.5v13.5Zm40.5-17.999h-40.5v-13.5h40.5v13.5Zm-40.5-18h40.5v-13.5h-40.5v13.5ZM77 59.478h-4.5v4.5H77v-4.5Zm-4.5 17.998H77v4.5h-4.5v-4.5ZM77 95.478h-4.5v4.5H77v-4.5Z"/>
  </symbol>
  <symbol viewBox="0 0 64 55" id="warehouses-icon-2-3">
    <path fill-rule="evenodd" clip-rule="evenodd" d="M.6 21.238C.6 9.883 9.822.988 21.597.988c14.627 0 21.458 9.495 21.744 18.532l5.577 10.228a3.341 3.341 0 0 1-.062 3.338 3.343 3.343 0 0 1-2.902 1.651H43.35v4.5c0 2.481-2.019 4.5-4.5 4.5h-4.443c.141 2.525.598 5.283 1.955 7.994a2.25 2.25 0 0 1-4.025 2.012c-2.19-4.378-2.487-8.652-2.487-12.255a2.249 2.249 0 0 1 2.25-2.25h6.75v-6.75a2.249 2.249 0 0 1 2.25-2.25h2.96l-4.935-9.05a2.253 2.253 0 0 1-.275-1.077c0-5.432-3.634-14.623-17.253-14.623-9.25 0-16.497 6.92-16.497 15.75 0 6.665 3.311 13.415 7.875 16.05a2.25 2.25 0 0 1 1.126 1.95c0 5.031-2.738 10.507-4.737 14.507a2.25 2.25 0 1 1-4.025-2.012c1.533-3.068 3.774-7.55 4.194-11.314C4.215 36.623.601 28.972.601 21.239H.6Zm49.5 18v2.25a2.25 2.25 0 1 1-4.501 0v-2.25a2.25 2.25 0 0 1 2.25-2.25 2.249 2.249 0 0 1 2.25 2.25Zm13.5 2.25v-2.25a2.25 2.25 0 1 0-4.5 0v2.25a2.25 2.25 0 1 0 4.5 0Zm-9 4.5a2.25 2.25 0 0 1-2.25-2.25v-9a2.25 2.25 0 1 1 4.5 0v9a2.249 2.249 0 0 1-2.25 2.25Zm-23.063-27a2.25 2.25 0 1 0 0 4.5h1.125a2.249 2.249 0 0 0 2.25-2.25 2.249 2.249 0 0 0-2.25-2.25h-1.125Z"/>
  </symbol>
  <symbol viewBox="0 0 96 57" id="warehouses-icon-2-4">
    <path fill-rule="evenodd" clip-rule="evenodd" d="M6.223 56.188C2.81 56.188 0 53.376 0 49.965V6.41C0 2.999 2.811.187 6.223.187h82.961c3.412 0 6.223 2.812 6.223 6.223v43.555c0 3.411-2.811 6.222-6.223 6.222H6.223ZM4.148 6.41v43.555c0 1.185.889 2.074 2.074 2.074h4.147V4.336H6.222c-1.185 0-2.074.89-2.074 2.074Zm10.37 45.629V4.336h62.221v47.703H14.518Zm66.37-47.704v47.703h8.296c1.185 0 2.074-.889 2.074-2.074V6.41c0-1.185-.889-2.074-2.074-2.074h-8.296Zm3.111 31.11a2.074 2.074 0 1 0 4.148 0V20.929a2.074 2.074 0 1 0-4.148 0v14.518ZM47.64 9.522a2.115 2.115 0 0 0-.972.291l-14.518 8.296a2.102 2.102 0 0 0-1.038 1.783v16.593c.001.717.41 1.421 1.038 1.782l14.518 8.296c.33.196.716.298 1.101.292.342-.017.679-.117.972-.292l14.518-8.296a2.102 2.102 0 0 0 1.038-1.782V19.89c0-.718-.41-1.421-1.038-1.782L48.74 9.811a2.118 2.118 0 0 0-1.101-.291Zm.065 4.471 10.338 5.899-10.338 5.898-10.338-5.898 10.338-5.899ZM45.63 29.386l-10.37-5.93v11.828l10.37 5.93V29.386Zm14.518-5.93v11.828l-10.37 5.93V29.386l10.37-5.93Z"/>
  </symbol>
  <symbol viewBox="0 0 76 75" id="warehouses-icon-3-1">
    <path fill-rule="evenodd" d="M37.056.099a2.666 2.666 0 0 1 2.667 2.666v8c0 .707-.281 1.386-.78 1.886l-1.501 1.501 2.145 6.436c.091.278.123.561.123.844h33.347a2.666 2.666 0 1 1 0 5.333H35.495l-.236.237 9.71 34.407a2.67 2.67 0 0 1-2.579 3.356 2.67 2.67 0 0 1-2.575-1.98L30.9 31.353a2.668 2.668 0 0 1-2.686.608l-6.436-2.145-.72.72V71.43a2.666 2.666 0 0 1-2.667 2.667h-15A2.666 2.666 0 0 1 .724 71.43V2.764A2.666 2.666 0 0 1 3.391.098h33.665Zm-8.72 26.282 5.668-5.669-.78-2.343-7.23 7.23 2.342.782ZM15.723 68.764H6.056V5.432H34.39V9.66L16.503 27.546c-.499.5-.78 1.179-.78 1.886v39.333Z" clip-rule="evenodd"/>
  </symbol>
  <symbol viewBox="0 0 87 76" id="warehouses-icon-3-2">
    <path fill-rule="evenodd" d="M19.79 14.977h-6.142c-3.37 0-6.132 2.762-6.132 6.132v24.808C3.12 48.961.5 53.901.5 59.26c0 8.946 7.264 16.217 16.217 16.217S32.94 68.21 32.94 59.26c0-5.358-2.62-10.299-7.017-13.343V21.109c0-3.37-2.763-6.132-6.133-6.132Zm4.953 44.283c0-4.42-3.6-8.02-8.02-8.02a8.024 8.024 0 0 0-8.02 8.02c0 4.42 3.6 8.02 8.02 8.02 4.414 0 8.02-3.606 8.02-8.02Zm-8.02-3.524A3.505 3.505 0 0 0 13.2 59.26a3.521 3.521 0 1 0 7.044 0 3.52 3.52 0 0 0-3.521-3.524Zm4.702-18.578h-4.738v4.499h4.738v6.773c4.284 2.456 7.016 5.666 7.016 10.83 0 6.484-5.24 11.72-11.725 11.72a11.704 11.704 0 0 1-11.72-11.72c0-5.159 2.725-8.38 7.017-10.83V21.108c0-.904.731-1.636 1.634-1.636h6.143c.91 0 1.635.725 1.635 1.636v1.651h-4.738v4.497h4.738v2.704h-3.399v4.497h3.4v2.701ZM55.405 19.76a12.285 12.285 0 0 1-.286 11.3v.001c-1.848 3.359-5.044 5.522-8.77 5.936a14.124 14.124 0 0 1-3.116 0c-3.726-.414-6.922-2.577-8.768-5.935a12.284 12.284 0 0 1-.288-11.301l8.506-17.467a2.344 2.344 0 0 1 4.215 0l8.507 17.465Zm28.749 29.364-14.32-29.4a2.343 2.343 0 0 0-4.214 0L53.63 44.36 51.3 49.125c-2.712 5.546-2.544 12.105.448 17.546 2.853 5.19 7.786 8.533 13.533 9.171a22.36 22.36 0 0 0 4.89 0c5.747-.639 10.68-3.981 13.533-9.172 2.992-5.44 3.16-12 .448-17.546ZM79.598 64.41c-2.109 3.835-5.733 6.303-9.941 6.77-1.276.142-2.584.141-3.858.001-4.21-.468-7.833-2.936-9.941-6.77-2.258-4.107-2.387-9.052-.344-13.23l12.215-25.078 9.885 20.314 2.33 4.764c2.042 4.177 1.913 9.123-.345 13.229Zm-28.587-35.61c-1.102 2.004-2.99 3.293-5.179 3.536a9.565 9.565 0 0 1-2.081 0c-2.19-.243-4.077-1.531-5.178-3.535a7.59 7.59 0 0 1-.184-6.984l6.402-13.143 6.402 13.144a7.592 7.592 0 0 1-.183 6.983Zm23.105 24.63a2.343 2.343 0 1 0-3.314-3.315l-9.465 9.464a2.343 2.343 0 1 0 3.315 3.315l9.464-9.465ZM61.9 48.848a2.472 2.472 0 0 1 2.469-2.468 2.471 2.471 0 0 1 2.468 2.468 2.472 2.472 0 0 1-2.468 2.469 2.471 2.471 0 0 1-2.469-2.469Zm9.522 17.78a2.472 2.472 0 0 0 2.468-2.469 2.471 2.471 0 0 0-2.468-2.468 2.472 2.472 0 0 0-2.47 2.468 2.471 2.471 0 0 0 2.47 2.47Z" clip-rule="evenodd"/>
  </symbol>
  <symbol viewBox="0 0 145 82" id="warehouses-icon-3-3">
    <path fill-rule="evenodd" d="M10.334 49.634a12.228 12.228 0 0 0 9.77 11.962v4.41a5.615 5.615 0 0 0 5.606 5.608h1.72v1.22a8.559 8.559 0 0 0 8.549 8.549 8.558 8.558 0 0 0 8.548-8.548v-1.221h2.44v7.327a2.443 2.443 0 0 0 2.443 2.442h21.98a2.443 2.443 0 0 0 2.442-2.442v-7.328h1.72a5.615 5.615 0 0 0 4.623-2.439h62.251a2.44 2.44 0 0 0 1.727-4.169l-9.769-9.769a2.442 2.442 0 0 0-1.727-.715H81.029C79.387 43.678 62.47 24.561 45.49 20.284l-18.515-4.3a5.607 5.607 0 0 0-6.873 5.461V56.54a7.339 7.339 0 0 1-4.885-6.905V16.625c.01-3.24-1.277-6.35-3.575-8.636L4.734 1.082A2.442 2.442 0 0 0 1.28 4.536l6.91 6.907a7.279 7.279 0 0 1 2.144 5.182v33.009Zm58.614 21.98H51.852v4.884h17.096v-4.885Zm-39.075-4.885H75.55a.725.725 0 0 0 .723-.723v-9.82c.025-7.209-17.454-27.243-31.89-31.146l-18.512-4.298a.723.723 0 0 0-.885.703v37.879l.002.079v.014l-.002.065v6.524c.001.4.324.722.723.723h4.164Zm2.442 6.106v-1.221h7.327v1.22a3.663 3.663 0 1 1-7.327 0Zm104.216-8.545H81.159v-4.885h50.488l4.884 4.885ZM86.049 47.194a2.443 2.443 0 0 0 2.442 2.442l41.725-.005a2.443 2.443 0 0 0 2.442-2.442V15.023a2.444 2.444 0 0 0-2.442-2.442h-13.421a2.415 2.415 0 0 0-.236 0h-14.418a2.404 2.404 0 0 0-.235 0H88.489a2.443 2.443 0 0 0-2.442 2.442l.002 32.171Zm13.532-29.729h-8.65l.002 27.287 36.84-.004V17.466h-8.654v17.092A2.442 2.442 0 0 1 116.677 37h-14.653a2.44 2.44 0 0 1-2.443-2.442V17.465Zm4.885 0v14.65h9.769v-14.65h-9.769Z" clip-rule="evenodd"/>
  </symbol>
  <symbol viewBox="0 0 72 81" id="warehouses-icon-3-4">
    <path fill-rule="evenodd" d="m62.93 17.953 4.486-4.538c.938-.95 2.428-.871 3.376.004.954.877.88 2.489 0 3.379l-.703.71-.703.71-3.434 3.475V34.117c0 2.534-1.128 4.87-3.33 6.216-1.138.695-2.368.906-3.628.965v6.126l.002 1.33c.001.886.003 1.773-.002 2.66-.01 1.965-.516 3.927-1.524 5.62-1.314 2.205-3.332 3.797-5.712 4.71-2.187.84-4.81.868-7.03.129a11.252 11.252 0 0 1-5.836-4.468c-1.357-2.033-1.758-4.385-1.758-6.775V22.836c.001-2.308.002-4.617 0-6.926 0-.136 0-.27-.003-.406-.006-.267-.02-.534-.042-.8l-.024-.255-.007-.066a14.756 14.756 0 0 0-.327-1.474c-.07-.246-.148-.49-.233-.732-.031-.086-.119-.275-.18-.409-.086-.183-.124-.264.094.152a17.75 17.75 0 0 1-.263-.53 11.494 11.494 0 0 0-.423-.819c-.161-.277-.343-.536-.524-.797a20.5 20.5 0 0 1-.312-.454c.259.392.203.315.083.15a6.92 6.92 0 0 0-.261-.346 13.433 13.433 0 0 0-.51-.55c-.34-.347-.701-.665-1.073-.976l-.054-.04-.2-.143A12.688 12.688 0 0 0 30.932 6.3l.08.027a2.517 2.517 0 0 1-.132-.05l-.007-.003a2.063 2.063 0 0 0-.055-.022l-.03-.012c-.043-.018-.085-.036-.127-.052a12.712 12.712 0 0 0-2.23-.612c-.04-.007-.081-.012-.122-.018l-.012-.002a1.538 1.538 0 0 0-.14-.023l-.026-.004a1.45 1.45 0 0 1-.08-.014l.065.015a12.875 12.875 0 0 0-2.292-.026c-.1.007-.317.046-.452.07-.165.03-.21.039.223-.058-.131.029-.265.05-.399.071-.12.02-.24.038-.358.063-.545.114-1.083.265-1.608.45-.092.033-.183.07-.274.106-.106.043-.212.085-.32.122.455-.154.36-.116.165-.04-.137.053-.322.125-.402.165a12.72 12.72 0 0 0-1.414.819c-.136.09-.27.186-.403.282l-.065.047-.065.053-.18.15a12.68 12.68 0 0 0-1.559 1.588l.043-.065a2.14 2.14 0 0 1-.068.094l-.009.012-.047.065-.015.02a12.652 12.652 0 0 0-1.273 2.17c-.014.029-.026.059-.039.09a1.768 1.768 0 0 1-.06.133l.031-.06a12.699 12.699 0 0 0-.645 2.316l-.021.13-.01.062c-.058.62-.08 1.237-.08 1.86v1.1h.095c.264-.004.53-.006.794.002 1.914.065 3.35 1.392 3.646 3.208a.806.806 0 0 1 .006.034l.004.021.004.026.005.03a2.195 2.195 0 0 1 .034.359v5.564c.3.175.593.361.88.561 3.832 2.674 6.168 6.972 6.197 11.666V43.3c.003.054.008.108.008.163v25.47l.006.848c.015 1.987.03 3.974-.015 5.957-.056 2.481-1.97 4.417-4.454 4.484-.265.007-.531.005-.797.002l-.398-.002H5.039c-.66.003-1.33.006-1.962-.224-1.878-.683-3.057-2.34-3.07-4.343a76.132 76.132 0 0 1 0-1.094V40.612c0-.21-.002-.42-.004-.631-.006-.864-.012-1.733.086-2.589.515-4.486 3.04-8.574 6.993-10.823V24.2c0-.352-.004-.707-.008-1.06-.008-.71-.016-1.421.008-2.128.07-2.054 1.638-3.619 3.691-3.689.244-.008.49-.005.735-.003l.236.002v-.969c0-1.801.18-3.612.765-5.325.759-2.22 1.99-4.258 3.652-5.921C19.627 1.64 24.511.184 29.316.907c4.478.674 8.558 3.619 10.723 7.58 1.337 2.445 1.874 5.108 1.874 7.872V51.451c.002.29.02.576.044.864l.023.12a8.628 8.628 0 0 0 .364 1.323l-.044-.08.04.077.01.022c.026.066.068.148.097.198l.013.03c.054.115.107.231.169.343a8.681 8.681 0 0 0 .558.884c.324.37.655.723 1.029 1.042a24.64 24.64 0 0 0-.09-.057c.06.038.117.081.174.124.043.033.087.066.13.096.207.142.42.276.639.399.189.108.384.203.58.298l.03.014.11.04a7.79 7.79 0 0 0 1.332.364l-.115-.005.073.004.054.003c.14.024.365.026.252.015l.086.005c.331.023.66.044.996.03.115-.005.23-.015.344-.025l-.059.017a.51.51 0 0 1 .028-.007l.046-.01.02-.002.019-.001c.09-.009.192-.036.243-.055l.055-.01c.118-.02.237-.04.351-.069a8.33 8.33 0 0 0 .849-.26l-.08.043c.06-.033.125-.061.19-.09.048-.02.096-.041.143-.064.414-.203.811-.44 1.187-.706l.011-.009a12.618 12.618 0 0 1 .108-.09 8.545 8.545 0 0 0 .711-.68c.061-.066.118-.136.175-.207l.02-.024c.04-.037.1-.098.142-.158l.01-.014.01-.014.015-.017a.924.924 0 0 1-.007.004 8.571 8.571 0 0 0 .622-1.033 274664227962.056 274664227962.056 0 0 1 .13-.27c.153-.435.292-.87.384-1.323a2.68 2.68 0 0 0 .032-.286l-.012.277c.003-.075.012-.15.021-.226.007-.056.014-.112.018-.167.018-.223.025-.445.026-.669V32.438c0-.437-.004-.874-.008-1.311a68.847 68.847 0 0 1 .008-2.627c.033-1.133.438-2.143 1.22-2.971.173-.183.352-.36.53-.538l.276-.277 1.468-1.485 1.468-1.485 3.75-3.791ZM10.765 22.1a.316.316 0 0 0 .086 0h-.002l-.034.001a.188.188 0 0 1-.05 0Zm50.408 11.394V26.525l-1.387 1.403c-.101.102-.2.207-.3.313-.161.171-.323.343-.494.502v.7l.001.402v6.69h.03c.087 0 .174 0 .26-.003.027-.001.055-.004.082-.007l.15-.036c.096-.023.192-.045.287-.075l.078-.03c.057-.034.117-.064.177-.095.07-.037.14-.073.207-.114a1.18 1.18 0 0 0 .088-.064c.038-.037.078-.072.118-.108.061-.055.122-.11.178-.168.026-.027.05-.06.076-.092l.035-.045.022-.032a3.06 3.06 0 0 0 .128-.2c.025-.044.077-.154.116-.233.02-.054.037-.104.044-.128.02-.069.035-.143.05-.217.013-.073.027-.146.048-.215l.002-.026a48.707 48.707 0 0 0 .005-1.153Zm-38.6 1.416a11.717 11.717 0 0 0-.337-.647 13.35 13.35 0 0 0-.716-1.113c-.035-.04-.068-.084-.1-.127a2.57 2.57 0 0 0-.092-.116 11.829 11.829 0 0 0-1.49-1.466l.06.04-.084-.06a2.16 2.16 0 0 0-.083-.062l-.01-.007a2.742 2.742 0 0 0-.023-.017l-.013-.01a11.48 11.48 0 0 0-.604-.404c-.41-.256-.835-.474-1.268-.685l.128.044a2.814 2.814 0 0 1-.176-.068l-.009-.004-.018-.01a1.013 1.013 0 0 0-.138-.053l-.032-.012a11.323 11.323 0 0 0-1.71-.496 14 14 0 0 0-.63-.112l-.028-.003-.017-.002-.018-.001a13.554 13.554 0 0 0-.517-.03h-.04l-.033-.001-.04-.001a14.245 14.245 0 0 0-.433-.008h-.033c-.126 0-.252.004-.377.008h-.017c-.106.007-.218.022-.332.037-.206.028-.417.056-.605.038l-.074.012a11.573 11.573 0 0 0-2.043.56c-.052.019-.103.04-.154.061-.073.03-.145.06-.219.085l.062-.02.048-.017-.005.002-.015.007-.008.003a11.74 11.74 0 0 0-1.718.994 7.217 7.217 0 0 0-.148.11c-.055.043-.111.085-.14.106a11.447 11.447 0 0 0-1.42 1.393c-.031.036-.06.075-.09.113l-.01.013a1.004 1.004 0 0 0-.113.133l-.01.015-.008.008-.014.019a.738.738 0 0 1-.049.055l.041-.042.002-.002a11.751 11.751 0 0 0-1.009 1.681c-.034.07-.067.142-.1.213l-.049.106-.032.087a11.52 11.52 0 0 0-.599 2.194c.001.131-.016.268-.034.404a4.136 4.136 0 0 0-.03.3c-.012.215-.016.43-.017.647v33.839l-.002.954v.001c0 .614-.002 1.228.001 1.841.17-.001.34.001.51.004h.003c.137.002.273.004.409.004h17.021c.117 0 .244-.008.374-.016.102-.006.205-.012.308-.015V71.47h-10.21a2.37 2.37 0 0 1-.304-.022c-1.014-.092-1.946-.475-2.705-1.18-.912-.846-1.365-2.051-1.376-3.28a39.775 39.775 0 0 1 0-.543V50.86c0-.75-.007-1.377-.013-1.966-.012-1.083-.023-2.043.013-3.418.051-1.93 1.205-3.503 3.004-4.171.589-.22 1.217-.231 1.836-.231h9.755v-2.286a12.56 12.56 0 0 0-.03-.844 8 8 0 0 0-.05-.394c-.026-.189-.038-.271.047.2l-.028-.154c-.07-.397-.14-.793-.245-1.185a14.345 14.345 0 0 0-.41-1.248l-.032-.07c-.028-.062-.056-.123-.085-.183Zm-7.783 31.78h-1.199v-.087l-.002-.234V45.85h3.354c.964 0 1.928.006 2.892.012h.001c1.19.007 2.381.014 3.571.01v20.819h-8.617Zm-2.933-44.59h2.195l.033.001H16.332v2.756a16.645 16.645 0 0 0-4.474 0v-2.757Z" clip-rule="evenodd"/>
  </symbol>
</svg>