<svg width="27" height="23" fill="none" xmlns="http://www.w3.org/2000/svg"><mask id="a" maskUnits="userSpaceOnUse" x=".643" y=".707" width="26" height="23" fill="#000"><path fill="#fff" d="M.643.707h26v23h-26z"/><path fill-rule="evenodd" clip-rule="evenodd" d="M21.879 8.361h2.018c.412 0 .746.334.746.746v1.619a.89.89 0 0 1-.886.885h-.26v4.942c.003.4-.167.782-.465 1.05v2.418a.955.955 0 0 1-.955.955h-2.38a.955.955 0 0 1-.956-.955v-2.06H8.544v2.06a.955.955 0 0 1-.956.955h-2.38a.955.955 0 0 1-.955-.955v-2.418a1.424 1.424 0 0 1-.466-1.07V11.59h-.26a.89.89 0 0 1-.884-.885V9.107c0-.412.333-.746.745-.746h2.018l1.07-3.735v-.02a2.783 2.783 0 0 1 2.636-1.899h9.06a2.78 2.78 0 0 1 2.653 1.899v.02l1.054 3.735Zm-8.237-3.525c-2.85 0-4.769.19-4.769.19a.412.412 0 0 0-.338.255L7.132 9.276a.412.412 0 0 0 .379.531h12.273a.411.411 0 0 0 .374-.531l-1.4-3.995a.412.412 0 0 0-.342-.268l-.03-.002c-.26-.022-2.093-.175-4.743-.175Zm7.174 8.492v1.194a.823.823 0 0 1-.823.824H17.76a.823.823 0 0 1-.824-.824v-1.194c0-.455.369-.824.824-.824h2.207a.824.824 0 0 1 .832.824h.016Zm-10.468 1.194v-1.194a.824.824 0 0 0-.824-.824H7.296a.824.824 0 0 0-.824.824v1.194c0 .455.37.824.824.824h2.228a.823.823 0 0 0 .824-.824Z"/></mask><path fill-rule="evenodd" clip-rule="evenodd" d="M21.879 8.361h2.018c.412 0 .746.334.746.746v1.619a.89.89 0 0 1-.886.885h-.26v4.942c.003.4-.167.782-.465 1.05v2.418a.955.955 0 0 1-.955.955h-2.38a.955.955 0 0 1-.956-.955v-2.06H8.544v2.06a.955.955 0 0 1-.956.955h-2.38a.955.955 0 0 1-.955-.955v-2.418a1.424 1.424 0 0 1-.466-1.07V11.59h-.26a.89.89 0 0 1-.884-.885V9.107c0-.412.333-.746.745-.746h2.018l1.07-3.735v-.02a2.783 2.783 0 0 1 2.636-1.899h9.06a2.78 2.78 0 0 1 2.653 1.899v.02l1.054 3.735Zm-8.237-3.525c-2.85 0-4.769.19-4.769.19a.412.412 0 0 0-.338.255L7.132 9.276a.412.412 0 0 0 .379.531h12.273a.411.411 0 0 0 .374-.531l-1.4-3.995a.412.412 0 0 0-.342-.268l-.03-.002c-.26-.022-2.093-.175-4.743-.175Zm7.174 8.492v1.194a.823.823 0 0 1-.823.824H17.76a.823.823 0 0 1-.824-.824v-1.194c0-.455.369-.824.824-.824h2.207a.824.824 0 0 1 .832.824h.016Zm-10.468 1.194v-1.194a.824.824 0 0 0-.824-.824H7.296a.824.824 0 0 0-.824.824v1.194c0 .455.37.824.824.824h2.228a.823.823 0 0 0 .824-.824Z" fill="#fff"/><path d="m23.897 8.361.13-1.995-.065-.005h-.065v2Zm-2.018 0-1.925.544.411 1.456h1.514v-2Zm2.018 0-.13 1.996.066.005h.064v-2Zm.746 2.364 2 .009v-.008h-2Zm-.886.886v2h.01l-.01-2Zm-.26 0v-2h-2v2h2Zm0 4.942h-2v.009l2-.009Zm-.465 1.05-1.337-1.488-.663.596v.892h2Zm-4.29.358h2v-2h-2v2Zm-10.198 0v-2h-2v2h2Zm-4.291-.358h2v-.884l-.654-.595-1.346 1.479Zm-.466-1.07 2 .023v-.024h-2Zm0-4.943h2v-2h-2v2Zm-.26 0-.008 2h.009v-2Zm-.884-.885h-2v.008l2-.008Zm2.763-2.344v2h1.507l.415-1.448-1.922-.552Zm1.07-3.735 1.923.551.078-.27v-.28h-2Zm0-.02L4.58 3.97l-.103.309v.326h2ZM7.489 3.23 6.32 1.608l1.168 1.623Zm1.624-.524v-2 2Zm9.06 0v2h.011l-.01-2Zm1.634.52L20.971 1.6l-1.165 1.626Zm1.019 1.379h2V4.28l-.103-.308-1.897.634Zm0 .02h-2v.277l.075.266 1.925-.543Zm-11.952.4-.237 1.986.217.025.217-.021-.197-1.99Zm0 0L9.11 3.04l-.226-.027-.226.024.215 1.989Zm-.338.255-1.854-.75-1.11 2.75h2.964v-2Zm0 0 1.887.663.937-2.663H8.536v2ZM7.132 9.276l-1.887-.664-.014.042-.013.042 1.914.58Zm.059.359-1.629 1.16.002.003L7.19 9.635Zm.32.172-.072 1.999.036.001h.036v-2Zm12.273 0v2h.045l.045-.002-.09-1.998Zm.317-.174 1.633 1.154.002-.002L20.1 9.633Zm.057-.357 1.915-.58-.43-1.42h-1.485v2Zm0 0-1.887.661.469 1.339h1.418v-2Zm-1.4-3.995 1.887-.661-.004-.013-.005-.013-1.878.687Zm-.342-.268.22-1.988-.03-.003-.03-.002-.16 1.993Zm-.03-.002-.167 1.993h.006l.16-1.993Zm2.431 8.317h2v-2.04l-2.038.04.038 2Zm-.24 1.777 1.414 1.414-1.415-1.414Zm-.608-2.6v2H19.986l-.018-2Zm.588.238-1.408 1.42 1.408-1.42Zm.244.585h-2v2.04l2.039-.04-.039-2Zm-10.694-.582 1.415-1.415-1.415 1.415Zm0 2.358L8.694 13.69l-.003.003 1.415 1.412Zm13.791-8.743h-2.018v4h2.018v-4Zm.13.005-.26 3.991.26-3.991Zm2.616 2.741a2.745 2.745 0 0 0-2.746-2.746v4a1.255 1.255 0 0 1-1.254-1.254h4Zm0 1.619V9.107h-4v1.619h4Zm-2.876 2.885a2.89 2.89 0 0 0 2.876-2.877l-4-.017a1.11 1.11 0 0 1 1.105-1.106l.019 4Zm-.27 0h.26v-4h-.26v4Zm2 2.942v-4.942h-4v4.942h4ZM24.37 19.09a3.403 3.403 0 0 0 1.129-2.546l-4 .018c0-.17.071-.333.197-.447l2.674 2.976Zm.663.93v-2.417h-4v2.418h4Zm-2.955 2.956a2.955 2.955 0 0 0 2.955-2.955h-4c0-.577.468-1.045 1.045-1.045v4Zm-2.38 0h2.38v-4h-2.38v4Zm-2.956-2.955a2.955 2.955 0 0 0 2.956 2.955v-4c.576 0 1.044.468 1.044 1.045h-4Zm0-2.06v2.06h4v-2.06h-4Zm-8.197 2H18.74v-4H8.544v4Zm2 .06v-2.06h-4v2.06h4Zm-2.956 2.955a2.955 2.955 0 0 0 2.956-2.955h-4c0-.577.468-1.045 1.044-1.045v4Zm-2.38 0h2.38v-4h-2.38v4Zm-2.955-2.955a2.955 2.955 0 0 0 2.955 2.955v-4c.577 0 1.045.468 1.045 1.045h-4Zm0-2.418v2.418h4v-2.418h-4Zm-.466-1.095a3.424 3.424 0 0 0 1.12 2.574l2.692-2.958c.122.111.19.269.188.432l-4-.048Zm0-4.918v4.942h4V11.59h-4Zm1.74 2h.26v-4h-.26v4ZM.644 10.713a2.89 2.89 0 0 0 2.876 2.877l.018-4a1.11 1.11 0 0 1 1.106 1.107l-4 .016Zm0-1.606v1.598h4V9.107h-4Zm2.745-2.746A2.745 2.745 0 0 0 .643 9.107h4c0 .692-.561 1.255-1.255 1.255v-4Zm2.018 0H3.388v4h2.018v-4Zm-.852-2.286L3.484 7.81l3.844 1.103L8.4 5.177 4.554 4.075Zm-.077.53v.021h4v-.02h-4ZM6.319 1.61A4.783 4.783 0 0 0 4.58 3.97l3.793 1.27a.783.783 0 0 1 .284-.387L6.32 1.609ZM9.111.707a4.781 4.781 0 0 0-2.791.901l2.337 3.246a.781.781 0 0 1 .456-.147l-.002-4Zm9.062 0h-9.06v4h9.06v-4Zm2.798.893a4.78 4.78 0 0 0-2.81-.893l.022 4a.78.78 0 0 1 .46.146L20.97 1.6Zm1.75 2.372a4.78 4.78 0 0 0-1.75-2.372l-2.329 3.253a.78.78 0 0 1 .286.386l3.794-1.267Zm.104.654v-.02h-4v.02h4Zm.979 3.192L22.75 4.083 18.9 5.169l1.054 3.736 3.85-1.087ZM8.874 5.026l.195 1.99h.002l.012-.001a14.081 14.081 0 0 1 .292-.025c.211-.017.525-.04.927-.062a59.699 59.699 0 0 1 3.34-.092v-4c-1.468 0-2.699.05-3.566.098a45.965 45.965 0 0 0-1.368.098l-.021.002a1.347 1.347 0 0 0-.009.001l.195 1.99Zm-.238 1.986L9.11 3.04l-.474 3.972Zm1.754-.982c-.22.543-.72.92-1.301.984l-.431-3.977A2.412 2.412 0 0 0 6.68 4.532L10.39 6.03ZM8.536 3.281v4-4Zm.482 6.658 1.404-3.995L6.65 4.618 5.244 8.612 9.018 9.94Zm-.2-1.465c.287.402.37.913.227 1.381L5.217 8.696a2.412 2.412 0 0 0 .344 2.1l3.257-2.322Zm-1.236-.666c.495.018.95.266 1.234.663l-3.253 2.327c.433.606 1.124.98 1.875 1.008l.144-3.998Zm12.2-.001H7.51v4h12.273v-4Zm-1.316.672a1.589 1.589 0 0 1 1.226-.67l.181 3.996a2.412 2.412 0 0 0 1.86-1.018L18.466 8.48Zm-.223 1.376a1.587 1.587 0 0 1 .222-1.374l3.27 2.304a2.413 2.413 0 0 0 .337-2.088l-3.829 1.158Zm1.914 1.42v-4 4ZM16.87 5.944l1.4 3.994 3.775-1.323-1.4-3.994-3.775 1.323ZM18.195 7a1.588 1.588 0 0 1-1.316-1.033l3.756-1.374a2.412 2.412 0 0 0-2-1.569l-.44 3.976Zm.029.003.031.003.32-3.987-.03-.003-.321 3.987Zm-4.582-.168c2.575 0 4.35.149 4.576.168l.332-3.986c-.29-.024-2.183-.182-4.908-.182v4Zm9.174 7.686v-1.194h-4v1.194h4Zm-.826 1.997c.53-.53.826-1.248.826-1.997h-4c0-.311.124-.61.345-.832l2.829 2.829Zm-1.997.827c.749 0 1.467-.298 1.997-.827L19.16 13.69c.22-.22.52-.344.832-.344v4Zm-2.232 0h2.232v-4H17.76v4Zm-2.824-2.824a2.823 2.823 0 0 0 2.824 2.824v-4c.65 0 1.176.527 1.176 1.176h-4Zm0-1.194v1.194h4v-1.194h-4Zm2.824-2.824a2.824 2.824 0 0 0-2.824 2.824h4c0 .649-.526 1.176-1.176 1.176v-4Zm2.207 0h-2.207v4h2.207v-4Zm1.995.818a2.824 2.824 0 0 0-2.013-.818l.036 4a1.176 1.176 0 0 1-.838-.34l2.816-2.842Zm.837 2.006c0-.754-.302-1.476-.837-2.006l-2.815 2.841a1.176 1.176 0 0 1-.348-.835h4Zm-2.022-2h-.017l.078 4h.016l-.077-4Zm-12.43 2v1.194h4v-1.194h-4Zm.344.832c-.22-.22-.344-.52-.344-.832h4c0-.749-.298-1.467-.827-1.997L8.692 14.16Zm.832.344c-.313 0-.612-.124-.832-.344l2.829-2.829a2.824 2.824 0 0 0-1.997-.827v4Zm-2.228 0h2.228v-4H7.296v4Zm1.176-1.176c0 .65-.526 1.176-1.176 1.176v-4a2.824 2.824 0 0 0-2.824 2.824h4Zm0 1.194v-1.194h-4v1.194h4Zm-1.176-1.176c.65 0 1.176.526 1.176 1.176h-4a2.824 2.824 0 0 0 2.824 2.824v-4Zm2.228 0H7.296v4h2.228v-4Zm-.833.346c.222-.223.522-.346.833-.346v4c.748 0 1.468-.297 1.998-.829l-2.831-2.825Zm-.343.83c0-.311.124-.611.346-.833l2.825 2.831c.531-.53.829-1.249.829-1.998h-4Z" fill="#5B5FA7" mask="url(#a)"/></svg>