<svg xmlns="http://www.w3.org/2000/svg" width="236" height="47" fill="none"><path fill="#fff" fill-rule="evenodd" d="M.105 26.77C.07 20.38 0 6.897 0 0h224.835C230.767 0 236 3.681 236 10.939v31.049l-198.834.001V42c-14.274-.002-24.274-.005-24.593-.012-8.093 0-12.451-5.93-12.451-11.73 0-.206-.007-1.506-.017-3.489ZM13.597 38.9c6.903-.002 15.598-.003 23.57-.003v-.006h195.461s.036-20.136.039-27.845c0-4.09-3.578-8.068-7.728-8.068C151.071 2.982 3.694 3 3.473 3.01c-.011.174-.036 19.202-.02 27.046.004 2.43.984 4.479 2.737 6.154 2.058 1.967 4.583 2.689 7.407 2.688Zm6.733-24.276c1.715-1.77 5.618-5.606 5.837-5.609 1.858-.02 3.718-.016 5.577-.012l1.244.001c.031 0 .062.009.117.023.034.009.077.02.135.033l-9.87 9.748C27.491 23.504 35 33 35 33h-8.081c-.36.001-.619-.089-.867-.375-.916-1.058-1.902-2.344-2.888-3.63-.974-1.27-1.947-2.539-2.851-3.586-.174-.2-.297-.52-.298-.785-.02-3.386-.02-5.846 0-9.232.002-.26.134-.581.315-.768ZM19 33c-.687 0-3.402-.005-3.956-.006a1.016 1.016 0 0 1-.1.005C12.766 33 11 31.25 11 29.088c0 0 .033-20 .053-20.088H19v24Zm59.37 0-.006-.007c-2.135-.003-3.864-1.752-3.864-3.91 0-.034.002-.067.005-.097l.005-5.497c-.59 0-5.51-.028-5.51-.028V33l-3.882-.007c-2.272-.003-4.113-1.747-4.118-3.9l.003-19.417V9H69v10.467h5.52V9H82v24c-2.018-.017-3.63 0-3.63 0ZM106 12.733c.016.441-.128.582-.586.578-1.747-.018-4.714-.011-5.62-.01l-.258.001V33H95.5l-.013-.013c-2.12-.113-3.804-1.818-3.804-3.905 0-.034.002-.066.005-.096l-.001-15.684h-.382c-1.093-.002-4.091-.007-5.7.007-.433.005-.616-.095-.605-.558.022-.88.018-1.761.014-2.659-.002-.36-.003-.725-.003-1.092h20.979l-.003.447v.006c-.004.866-.014 2.604.012 3.28ZM159 9h19v4.259h-11.5V28.55h11.497l.001 2.147v.046L178 33h-15.08l-.016-.015a3.916 3.916 0 0 1-3.891-3.6l-.01-.01L159 9Zm66 0h-21v4.329h6.521l.002 15.726-.001.021.001.039v.03c.039 2.122 1.808 3.832 3.99 3.84l.015.015h3.776c0-6.609-.012-19.708-.012-19.708H225V9Zm-23 24h-3.687l-.016-.017c-2.092-.038-3.777-1.768-3.782-3.9l-.009-.01-.002-5.654c-1.197 0-5.495-.044-5.495-.044S189 20.1 189 19.479h5.484V9H202v24Zm-13-13.521V33h-4.005l-.02-.018c-2.121-.072-3.835-1.655-3.974-3.648v-.003c-.006-.085.021-20.331.021-20.331H189v10.479ZM151.259 33H155V9h-7.508v10.46H142v4.024l5.453.003c.022.112.039 4.533.042 5.476a.7.7 0 0 0-.006.067l-.001.016v.029c0 2.121 1.671 3.847 3.754 3.908l.017.017Zm-34.823-9.765c-.326.188-.442.392-.436.757.016.888.014 1.777.012 2.666-.001.423-.002.845-.001 1.268.001.09.012.18.025.285l.021.178 6.802-3.78.012 4.356a.939.939 0 0 0-.007.11c0 2.155 1.799 3.902 4.02 3.91l.016.015h3.1V9h-7.141v.216c-.001 1.193-.006 6.885.009 9.694.003.402-.114.634-.482.845-1.052.605-2.097 1.22-3.143 1.837-.934.55-1.868 1.1-2.807 1.643ZM141 33h-4l-.019-.018c-2.129-.064-3.849-1.665-3.973-3.676L133 9h8v24Zm-29.265-.022.015.016s2.87-.015 3.25.006V9h-7v20.07c0 2.151 1.67 3.895 3.735 3.908ZM168 19h9v3.995l-8.999.005-.001-4ZM45.428 28.96c-1.62-.014-2.165-.58-2.165-2.21V13.346s2.679-.043 5.057-.043c.945 0 1.314.685 1.315 1.598.005 4.697-.03 14.019-.03 14.019s-2.762.052-4.177.04Zm7.59-19.943C51.283 9.012 36.22 8.992 36 9.003v20.078c0 2.163 1.74 3.912 3.889 3.912.04 0 .077-.002.112-.007l.008.008L56.992 33 57 12.92c0-2.158-1.741-3.908-3.889-3.908a.995.995 0 0 0-.094.005Z" clip-rule="evenodd"/><path fill="#181D2E" d="M11 36h214v10H11z"/><path fill="#fff" fill-rule="evenodd" d="M21.77 43.687c.508.268 1.082.401 1.722.401.64 0 1.213-.133 1.718-.4.505-.268.9-.64 1.186-1.114.287-.474.43-1.013.43-1.616 0-.602-.143-1.141-.43-1.616a2.99 2.99 0 0 0-1.186-1.113c-.505-.267-1.077-.4-1.718-.4-.64 0-1.214.133-1.723.4a2.982 2.982 0 0 0-1.192 1.113 3.068 3.068 0 0 0-.43 1.616c0 .603.144 1.142.43 1.616.286.475.684.846 1.192 1.113Zm2.835-1.503c-.29.305-.66.458-1.113.458-.452 0-.825-.153-1.118-.458-.294-.305-.441-.713-.441-1.226 0-.512.147-.92.44-1.226.294-.305.667-.457 1.12-.457.451 0 .822.152 1.113.457.29.305.434.714.434 1.226 0 .513-.145.921-.434 1.226Zm-4.65-2.82H17.9v4.634h-1.752v-4.633h-2.056v-1.447h5.865v1.447Zm11.662-1.536c.565 0 1.08.13 1.543.39.463.26.826.625 1.09 1.096.264.47.395 1.019.395 1.644 0 .626-.131 1.174-.395 1.644-.264.471-.627.837-1.09 1.097-.464.26-.978.39-1.543.39-.776 0-1.386-.245-1.83-.735v2.836h-1.763V37.92h1.683v.7c.437-.527 1.074-.79 1.91-.79Zm-.305 4.814c.452 0 .823-.153 1.113-.458.29-.305.435-.713.435-1.226 0-.512-.145-.92-.435-1.226-.29-.305-.661-.457-1.113-.457-.452 0-.823.152-1.113.457-.29.305-.435.714-.435 1.226 0 .513.145.921.435 1.226.29.305.661.458 1.113.458Zm9.436-3.277h-3.12v4.633h-1.75v-6.08h4.87v1.447Zm3.536 4.723c-.64 0-1.214-.133-1.723-.4a2.983 2.983 0 0 1-1.192-1.114 3.067 3.067 0 0 1-.43-1.616c0-.602.144-1.141.43-1.616a2.982 2.982 0 0 1 1.192-1.113c.509-.267 1.083-.4 1.723-.4.64 0 1.213.133 1.718.4.505.268.9.639 1.186 1.113.287.475.43 1.014.43 1.616 0 .603-.143 1.142-.43 1.616a2.991 2.991 0 0 1-1.186 1.113c-.505.268-1.077.401-1.718.401Zm0-1.446c.452 0 .823-.153 1.114-.458.29-.305.434-.713.434-1.226 0-.512-.145-.92-.434-1.226-.29-.305-.662-.457-1.114-.457-.452 0-.825.152-1.118.457-.294.305-.441.714-.441 1.226 0 .513.147.921.44 1.226.294.305.667.458 1.12.458Zm9.187-1.82c.716.242 1.074.724 1.074 1.447 0 .55-.207.976-.622 1.277-.414.301-1.032.452-1.853.452h-3.243v-6.08h3.108c.76 0 1.355.138 1.785.413.43.275.644.661.644 1.158 0 .302-.077.567-.232.797a1.52 1.52 0 0 1-.66.537Zm-3.028-.406h1.333c.618 0 .927-.219.927-.656 0-.429-.309-.644-.927-.644h-1.333v1.3Zm2.452 1.717c0 .445-.324.667-.972.667h-1.48v-1.345h1.514c.324 0 .561.055.712.164.15.11.226.28.226.514Zm5.808 1.955c-.64 0-1.215-.133-1.723-.4a2.983 2.983 0 0 1-1.192-1.114 3.067 3.067 0 0 1-.43-1.616c0-.602.144-1.141.43-1.616a2.982 2.982 0 0 1 1.192-1.113c.509-.267 1.083-.4 1.723-.4.64 0 1.213.133 1.718.4.505.268.9.639 1.186 1.113.287.475.43 1.014.43 1.616 0 .603-.143 1.142-.43 1.616a2.991 2.991 0 0 1-1.186 1.113c-.505.268-1.077.401-1.718.401Zm0-1.446c.452 0 .823-.153 1.113-.458.29-.305.435-.713.435-1.226 0-.512-.145-.92-.435-1.226-.29-.305-.66-.457-1.113-.457-.452 0-.825.152-1.119.457-.293.305-.44.714-.44 1.226 0 .513.147.921.44 1.226.294.305.667.458 1.12.458ZM63.1 40.11h3.198v1.412h-3.198v-1.412Zm10.396 3.887v-6.08h-5.198l-.09 2.441c-.023.49-.057.884-.102 1.181a1.748 1.748 0 0 1-.266.735c-.132.192-.33.288-.593.288a2.38 2.38 0 0 1-.26-.023l-.09 1.447c.354.09.659.135.915.135.482 0 .859-.15 1.13-.452.271-.301.467-.715.588-1.243.12-.527.196-1.19.226-1.989l.056-1.073h1.921v4.633h1.763Zm2.82-.31c.508.267 1.082.4 1.722.4.64 0 1.213-.133 1.718-.4.505-.268.9-.64 1.187-1.114.286-.474.429-1.013.429-1.616 0-.602-.143-1.141-.43-1.616a2.992 2.992 0 0 0-1.186-1.113c-.505-.267-1.077-.4-1.718-.4-.64 0-1.214.133-1.723.4a2.982 2.982 0 0 0-1.192 1.113 3.068 3.068 0 0 0-.43 1.616c0 .603.144 1.142.43 1.616.286.475.684.846 1.192 1.113Zm2.836-1.504c-.29.305-.661.458-1.114.458-.452 0-.824-.153-1.118-.458-.294-.305-.44-.713-.44-1.226 0-.512.146-.92.44-1.226.294-.305.666-.457 1.118-.457.453 0 .823.152 1.114.457.29.305.435.714.435 1.226 0 .513-.145.921-.435 1.226Zm5.18-2.82h3.12V37.92h-4.87v6.079h1.75v-4.633Zm4.057-1.445h1.752v3.616l2.96-3.616h1.616v6.079h-1.751v-3.616l-2.95 3.616h-1.627v-6.08Zm9.17 5.768c.516.268 1.098.401 1.746.401.64 0 1.2-.135 1.678-.407a2.42 2.42 0 0 0 1.045-1.13l-1.367-.745c-.309.557-.764.836-1.367.836-.46 0-.84-.15-1.142-.452-.3-.301-.451-.712-.451-1.232s.15-.93.451-1.231c.302-.302.682-.452 1.142-.452.595 0 1.051.278 1.367.836l1.367-.735a2.373 2.373 0 0 0-1.045-1.147c-.478-.267-1.037-.4-1.678-.4-.648 0-1.23.133-1.746.4-.516.268-.919.639-1.209 1.113a3.036 3.036 0 0 0-.435 1.616c0 .603.145 1.142.435 1.616.29.475.693.846 1.21 1.113Zm10.628-4.322h-2.057v4.633h-1.751v-4.633h-2.057v-1.447h5.865v1.447Zm2.689-1.447h-1.751v6.08h1.627l2.949-3.616v3.616h1.752v-6.08h-1.616l-2.961 3.617v-3.616Zm11.741 0v6.08h-1.763v-2.26a3.734 3.734 0 0 1-1.695.384c-.821 0-1.441-.186-1.859-.56-.418-.372-.627-.95-.627-1.734v-1.91h1.763v1.797c0 .37.096.637.288.802.192.166.469.25.831.25.459 0 .892-.099 1.299-.295V37.92h1.763Zm7.605 3.063c0 .022-.011.18-.034.474h-4.599c.083.377.279.675.588.893.308.219.693.328 1.152.328.317 0 .597-.047.842-.141a2.04 2.04 0 0 0 .684-.447l.938 1.017c-.573.656-1.409.983-2.509.983-.686 0-1.292-.133-1.819-.4a2.937 2.937 0 0 1-1.221-1.114 3.069 3.069 0 0 1-.429-1.616c0-.595.141-1.132.424-1.61.282-.478.67-.851 1.163-1.119a3.42 3.42 0 0 1 1.656-.4 3.39 3.39 0 0 1 1.616.383c.482.256.861.624 1.135 1.102.275.478.413 1.034.413 1.667Zm-3.153-1.82c-.399 0-.734.114-1.005.34-.272.226-.437.534-.498.926h2.995a1.457 1.457 0 0 0-.497-.92 1.489 1.489 0 0 0-.995-.346Zm7.402 4.927c-.648 0-1.23-.133-1.746-.4a3.004 3.004 0 0 1-1.209-1.114 3.037 3.037 0 0 1-.435-1.616c0-.602.145-1.141.435-1.616.29-.474.693-.845 1.209-1.113.516-.267 1.098-.4 1.746-.4.64 0 1.199.133 1.678.4.478.268.827.65 1.045 1.147l-1.367.735c-.317-.558-.772-.836-1.368-.836-.459 0-.84.15-1.141.452-.301.3-.452.711-.452 1.231 0 .52.151.93.452 1.232.301.301.682.452 1.141.452.603 0 1.059-.279 1.368-.836l1.367.745a2.426 2.426 0 0 1-1.045 1.13c-.479.272-1.038.407-1.678.407Zm5.559-2.395h.916l1.627 2.305h2.079l-2.271-3.164 2.124-2.916h-1.876l-1.649 2.362h-.95V37.92h-1.762v6.079h1.762v-2.305Zm9.91-3.192c-.504-.449-1.228-.673-2.169-.673-.49 0-.966.064-1.43.192-.463.128-.86.31-1.192.543l.633 1.231a2.52 2.52 0 0 1 .797-.412c.312-.102.631-.153.955-.153.467 0 .817.104 1.05.311.234.207.351.503.351.887h-1.401c-.889 0-1.547.162-1.972.486-.426.324-.639.768-.639 1.333 0 .354.091.67.271.95.181.278.443.497.786.655.343.158.747.237 1.215.237.904 0 1.521-.282 1.853-.847v.757h1.65v-3.47c0-.903-.253-1.58-.758-2.027Zm-1.502 4.192c-.234.14-.501.209-.803.209-.309 0-.552-.066-.729-.198a.634.634 0 0 1-.265-.537c0-.474.361-.712 1.085-.712h1.209v.622a1.146 1.146 0 0 1-.497.616Zm9.198-4.774v6.079h-1.571v-1.74h-1.299l-1.153 1.74h-1.876l1.39-1.989c-.422-.166-.744-.405-.966-.717-.222-.313-.333-.692-.333-1.136 0-.716.258-1.268.774-1.655.516-.389 1.226-.582 2.13-.582h2.904Zm-2.87 1.435c-.377 0-.662.067-.854.203-.192.136-.288.354-.288.655 0 .302.092.522.277.661.185.14.465.21.842.21h1.322v-1.73h-1.299Zm10.441 2.339h-.916v2.305h-1.762v-6.08h1.762v2.362h.95l1.649-2.361h1.876l-2.124 2.915 2.271 3.164h-2.079l-1.627-2.305Zm7.232 2.395c-.641 0-1.215-.133-1.724-.4a2.99 2.99 0 0 1-1.192-1.114 3.069 3.069 0 0 1-.429-1.616c0-.602.143-1.141.429-1.616a2.99 2.99 0 0 1 1.192-1.113c.509-.267 1.083-.4 1.724-.4.64 0 1.213.133 1.717.4.505.268.901.639 1.187 1.113a3.07 3.07 0 0 1 .429 1.616c0 .603-.143 1.142-.429 1.616a2.99 2.99 0 0 1-1.187 1.113c-.504.268-1.077.401-1.717.401Zm0-1.446c.452 0 .823-.153 1.113-.458.29-.305.435-.713.435-1.226 0-.512-.145-.92-.435-1.226-.29-.305-.661-.457-1.113-.457-.452 0-.825.152-1.119.457-.294.305-.441.714-.441 1.226 0 .513.147.921.441 1.226.294.305.667.458 1.119.458Zm10.475 1.356v-3.639l-1.819 3.051h-.746l-1.774-3.062v3.65h-1.594v-6.08h1.842l1.944 3.515 2.068-3.514h1.65l.022 6.079h-1.593Zm9.322 0v-6.08h-6.045v6.08h1.751v-4.633h2.532v4.633h1.762Zm6.227-5.497c-.505-.449-1.228-.673-2.17-.673-.49 0-.966.064-1.429.192a3.823 3.823 0 0 0-1.193.543l.633 1.231c.219-.173.484-.31.797-.412a3.07 3.07 0 0 1 .955-.153c.467 0 .817.104 1.051.311.233.207.35.503.35.887h-1.401c-.889 0-1.546.162-1.972.486-.426.324-.639.768-.639 1.333 0 .354.091.67.272.95.18.278.442.497.785.655.343.158.748.237 1.215.237.904 0 1.521-.282 1.853-.847v.757h1.65v-3.47c0-.903-.253-1.58-.757-2.027Zm-1.503 4.192c-.234.14-.501.209-.803.209-.308 0-.551-.066-.728-.198a.635.635 0 0 1-.266-.537c0-.474.362-.712 1.085-.712h1.209v.622a1.146 1.146 0 0 1-.497.616Zm5.548-4.774h-1.751v6.079h1.751v-2.271h2.644v2.27h1.763V37.92h-1.763v2.373h-2.644v-2.373Zm6.091 0h1.751v3.616l2.961-3.616h1.616v6.079h-1.752v-3.616l-2.949 3.616h-1.627v-6.08Zm13.424 0v6.079h-1.571v-1.74h-1.299l-1.153 1.74h-1.875l1.389-1.989c-.421-.166-.743-.405-.966-.717-.222-.313-.333-.692-.333-1.136 0-.716.258-1.268.774-1.655.516-.389 1.226-.582 2.13-.582h2.904Zm-2.87 1.435c-.377 0-.661.067-.853.203-.192.136-.288.354-.288.655 0 .302.092.522.276.661.185.14.466.21.842.21h1.322v-1.73h-1.299Z" clip-rule="evenodd"/></svg>