<svg width="27" height="37" fill="none" xmlns="http://www.w3.org/2000/svg"><mask id="a" maskUnits="userSpaceOnUse" x="-1.631" y=".574" width="29" height="36" fill="#000"><path fill="#fff" d="M-1.631.574h29v36h-29z"/><path fill-rule="evenodd" clip-rule="evenodd" d="M22.85 17.219c.079.627.224 1.039 1.076 1.575.403.254.782.764.692 1.568-.068.609-.462 3.207-.696 4.754-.075.496-.134.883-.16 1.063-.11.74-.328 2.05-.622 2.536-.174.287-.747.728-1.558.958-.678.19-1.526.302-3.16.336.01-.131.02-.261.02-.395 0-2.925-2.007-6.252-6.16-6.252-4.152 0-6.278 3.327-6.278 6.252 0 .123.004.244.012.365l-.21-.005c-.162 0-.314 0-.46-.002-.302-.001-.576-.003-.84.003-.221.005-1.526.014-2.642.014-1.017 0-1.495-.543-1.495-1.294V4.122c0-1.573.578-1.65 2.512-1.49 3.388.284 6.527 1.089 8.81 3.37.239.237.725.369 1.121.423.943.13 1.888.242 2.834.356 1.105.132 2.21.265 3.31.422 2.643.378 3.315 1.016 3.684 3.324l-.342-.068-.548-.109c.1.704.29 1.834.487 3.007.248 1.478.508 3.022.613 3.862ZM11.612 9.515v4.345s9.023 2.967 9.187 3.006c0 0-.816-5.39-.884-6.346-.036-.511-.253-.74-.997-.857-1.53-.242-2.997-.437-4.495-.636-.608-.081-1.221-.163-1.846-.249-.75-.102-.965.077-.965.737Zm.666 15.364a4.775 4.775 0 1 0 0 9.551 4.775 4.775 0 0 0 0-9.55ZM10 29.654a2.278 2.278 0 1 0 4.556 0 2.278 2.278 0 0 0-4.556 0Z"/></mask><path fill-rule="evenodd" clip-rule="evenodd" d="M22.85 17.219c.079.627.224 1.039 1.076 1.575.403.254.782.764.692 1.568-.068.609-.462 3.207-.696 4.754-.075.496-.134.883-.16 1.063-.11.74-.328 2.05-.622 2.536-.174.287-.747.728-1.558.958-.678.19-1.526.302-3.16.336.01-.131.02-.261.02-.395 0-2.925-2.007-6.252-6.16-6.252-4.152 0-6.278 3.327-6.278 6.252 0 .123.004.244.012.365l-.21-.005c-.162 0-.314 0-.46-.002-.302-.001-.576-.003-.84.003-.221.005-1.526.014-2.642.014-1.017 0-1.495-.543-1.495-1.294V4.122c0-1.573.578-1.65 2.512-1.49 3.388.284 6.527 1.089 8.81 3.37.239.237.725.369 1.121.423.943.13 1.888.242 2.834.356 1.105.132 2.21.265 3.31.422 2.643.378 3.315 1.016 3.684 3.324l-.342-.068-.548-.109c.1.704.29 1.834.487 3.007.248 1.478.508 3.022.613 3.862ZM11.612 9.515v4.345s9.023 2.967 9.187 3.006c0 0-.816-5.39-.884-6.346-.036-.511-.253-.74-.997-.857-1.53-.242-2.997-.437-4.495-.636-.608-.081-1.221-.163-1.846-.249-.75-.102-.965.077-.965.737Zm.666 15.364a4.775 4.775 0 1 0 0 9.551 4.775 4.775 0 0 0 0-9.55ZM10 29.654a2.278 2.278 0 1 0 4.556 0 2.278 2.278 0 0 0-4.556 0Z" fill="#fff"/><path d="m23.926 18.794-1.065 1.693 1.065-1.692ZM22.85 17.22l-1.985.248v.002l1.985-.25Zm1.768 3.143 1.988.222v-.001l-1.988-.221Zm-.696 4.754 1.977.304v-.004l-1.977-.3Zm0 0-1.977-.304v.005l1.977.3Zm-.16 1.063-1.979-.292 1.979.291Zm-.622 2.536 1.71 1.036.001-.001-1.711-1.035Zm-1.558.958.543 1.925.003-.001-.546-1.924Zm-3.16.336-1.994-.156-.172 2.2 2.207-.045-.04-2Zm-12.406-.03-.049 2 2.186.053-.141-2.182-1.996.13Zm-.21-.005.048-2h-.049v2Zm-.46-.002.01-2-.01 2Zm-.84.003.044 2h.002l-.045-2ZM2.882 2.634 3.048.64 2.88 2.632ZM11.691 6l-1.414 1.415.004.004L11.69 6Zm1.121.424-.273 1.981h.002l.271-1.98Zm2.834.356.248-1.985h-.01l-.238 1.985Zm0 0-.248 1.984.01.002.238-1.986Zm3.31.422-.283 1.98.283-1.98Zm3.684 3.324-.39 1.962 2.818.56-.453-2.837-1.975.315Zm-.342-.068-.39 1.962.39-1.962Zm-.548-.109.39-1.961-2.768-.551.398 2.794 1.98-.282Zm.487 3.007 1.972-.332-1.972.332Zm-10.625.503h-2v1.447l1.375.452.625-1.9Zm9.187 3.006-.46 1.946 2.88.68-.442-2.926-1.978.3Zm-.884-6.346-1.995.14v.001l1.995-.141Zm-.997-.857.313-1.976h-.001l-.312 1.976Zm-4.495-.636-.283 1.98h.01l.01.002.263-1.982Zm0 0 .283-1.98-.01-.002-.009-.001-.264 1.983Zm-1.846-.249.272-1.981-.272 1.981Zm12.415 8.324a1.665 1.665 0 0 1-.229-.164c-.018-.017.006.002.039.055.034.056.05.104.055.12 0 .003-.008-.028-.023-.144l-3.969.5c.05.397.15 1.001.53 1.62.373.608.9 1.042 1.466 1.398l2.13-3.385Zm1.614 3.48c.183-1.646-.635-2.864-1.615-3.48l-2.13 3.386a.513.513 0 0 1-.226-.326c-.006-.034-.002-.043-.005-.02l3.976.44Zm-.707 4.834c.23-1.512.633-4.172.707-4.832l-3.975-.444c-.063.557-.447 3.095-.686 4.677l3.954.599Zm0 .005-3.954-.609 3.954.609Zm-.159 1.049.16-1.054-3.955-.6-.162 1.071 3.957.583Zm-.889 3.28c.342-.566.524-1.33.623-1.78.12-.548.21-1.114.267-1.5l-3.958-.583c-.052.355-.126.814-.217 1.228-.045.207-.089.378-.129.504-.047.152-.06.145-.009.061l3.423 2.07Zm-2.723 1.847a5.716 5.716 0 0 0 1.57-.71c.39-.256.849-.634 1.152-1.136L21.43 27.68c.044-.072.081-.12.102-.143.02-.026.035-.039.037-.04.003-.004-.017.015-.066.047-.099.065-.259.147-.465.205l1.09 3.849Zm-3.665.411c1.692-.035 2.74-.15 3.662-.41l-1.085-3.85c-.435.122-1.083.229-2.659.26l.082 4Zm-2.021-2.394c0 .046-.003.105-.014.239l3.988.311c.01-.128.026-.33.026-.55h-4Zm-4.16-4.252c1.487 0 2.472.572 3.115 1.326.683.801 1.045 1.891 1.045 2.926h4c0-1.89-.642-3.927-2-5.52-1.399-1.64-3.494-2.732-6.16-2.732v4Zm-4.278 4.252c0-2.075 1.468-4.252 4.278-4.252v-4c-5.495 0-8.278 4.476-8.278 8.252h4Zm.008.236a3.625 3.625 0 0 1-.008-.236h-4c0 .168.006.332.016.494l3.992-.258Zm-2.255 2.123.21.006.098-4-.211-.004-.097 3.998Zm-.422 0 .47.001v-4l-.45-.001-.02 4Zm-.783.002c.23-.005.476-.004.783-.003l.02-4c-.294-.001-.597-.003-.893.004l.09 3.999Zm-2.688.014c1.113 0 2.44-.009 2.686-.014l-.086-4c-.197.005-1.48.014-2.6.014v4Zm-3.495-3.294c0 .806.268 1.707 1.003 2.392.72.671 1.64.902 2.492.902v-4c-.165 0 .007-.041.234.17.243.227.271.48.271.536h-4Zm0-24.573v24.573h4V4.122h-4ZM3.047.639C2.565.6 2.066.564 1.617.577 1.184.589.58.647-.006.943c-1.51.766-1.626 2.335-1.626 3.179h4c0-.14.007-.224.012-.268.006-.044.007-.019-.018.048a1.082 1.082 0 0 1-.196.323 1.208 1.208 0 0 1-.363.286.782.782 0 0 1-.195.072c-.007.002.026-.005.12-.008.092-.002.217 0 .387.008.17.009.365.023.599.043L3.047.639Zm10.057 3.947C10.317 1.802 6.592.936 3.048.64l-.334 3.986c3.232.27 5.785 1.014 7.563 2.79l2.827-2.83Zm-.02-.142a1.7 1.7 0 0 1-.238-.052c-.022-.008-.01-.006.023.013.019.01.049.027.087.054.037.027.088.067.145.124l-2.82 2.837c.43.428.942.643 1.258.752.354.123.708.194 1 .234l.546-3.962Zm2.8.351c-.948-.114-1.877-.225-2.8-.351l-.543 3.963c.962.131 1.924.247 2.867.36l.476-3.972Zm.01.001-.496 3.97.496-3.97Zm3.346.427c-1.127-.16-2.254-.296-3.356-.428l-.476 3.972c1.11.133 2.192.263 3.265.416l.567-3.96Zm5.375 4.989c-.196-1.23-.538-2.567-1.618-3.55-1.032-.939-2.412-1.246-3.758-1.439l-.566 3.96c1.297.186 1.575.386 1.632.438.008.007.188.143.36 1.222l3.95-.631Zm-2.707 2.209.342.068.78-3.923-.342-.068-.78 3.923Zm-.549-.11.548.11.781-3.923-.548-.11-.78 3.924Zm2.85.714c-.199-1.185-.383-2.284-.48-2.957l-3.96.564c.105.735.3 1.896.496 3.056l3.944-.663Zm.625 3.946c-.111-.893-.38-2.492-.625-3.946l-3.944.663c.252 1.502.502 2.992.6 3.78l3.97-.497ZM13.612 13.86V9.515h-4v4.345h4Zm7.647 1.06c.083.02.054.012-.287-.098-.26-.083-.623-.202-1.057-.344a2257.443 2257.443 0 0 1-6.266-2.054l-1.024-.337-.287-.094-.075-.025-.02-.006a.064.064 0 0 0-.005-.002h-.001l-.625 1.9-.625 1.9h.002l.005.002.019.006.075.025a775.274 775.274 0 0 1 1.312.43 6074.68 6074.68 0 0 0 6.274 2.058l1.068.348c.185.06.473.154.598.183l.919-3.893ZM17.92 10.66c.04.572.277 2.257.483 3.677a498.897 498.897 0 0 0 .383 2.592l.026.174.007.045.002.012v.004l1.978-.3 1.978-.299-.001-.003c0-.003 0-.007-.002-.012l-.007-.044a177.705 177.705 0 0 0-.118-.793c-.078-.519-.181-1.22-.287-1.95-.22-1.513-.425-3.001-.452-3.386l-3.99.283Zm.685.977c.112.018.128.029.09.015a1.118 1.118 0 0 1-.346-.218 1.382 1.382 0 0 1-.364-.522 1.101 1.101 0 0 1-.063-.235l-.002-.017 3.99-.282c-.036-.507-.193-1.299-.895-1.926-.6-.536-1.326-.693-1.784-.766l-.626 3.951Zm-4.446-.629c1.501.2 2.945.392 4.447.63l.624-3.952c-1.558-.246-3.049-.444-4.543-.643l-.527 3.965Zm-.019-.003.566-3.96-.566 3.96Zm0 0 .566-3.96-.566 3.96Zm-1.835-.246c.63.086 1.247.168 1.854.249l.528-3.965c-.609-.081-1.218-.162-1.838-.247l-.543 3.963Zm1.307-1.245c0-.081.01.001-.037.158-.055.19-.201.508-.536.768a1.455 1.455 0 0 1-.729.306c-.099.01-.122-.003-.003.013l.541-3.963c-.358-.05-1.392-.19-2.261.484-.962.746-.975 1.87-.975 2.234h4Zm-4.11 20.14a2.775 2.775 0 0 1 2.776-2.776v-4a6.775 6.775 0 0 0-6.775 6.776h4Zm2.776 2.774a2.775 2.775 0 0 1-2.775-2.774h-4a6.775 6.775 0 0 0 6.775 6.774v-4Zm2.775-2.774a2.775 2.775 0 0 1-2.775 2.774v4a6.775 6.775 0 0 0 6.775-6.774h-4Zm-2.775-2.776a2.775 2.775 0 0 1 2.775 2.776h4a6.775 6.775 0 0 0-6.775-6.776v4Zm0 3.053a.278.278 0 0 1-.278-.278H8a4.278 4.278 0 0 0 4.278 4.278v-4Zm.278-.278a.278.278 0 0 1-.278.278v4a4.278 4.278 0 0 0 4.278-4.278h-4Zm-.278-.278c.153 0 .278.125.278.278h4a4.278 4.278 0 0 0-4.278-4.278v4Zm-.278.278c0-.153.124-.278.278-.278v-4A4.278 4.278 0 0 0 8 29.654h4Z" fill="#5B5FA7" mask="url(#a)"/></svg>