<svg xmlns="http://www.w3.org/2000/svg" width="113" height="31" fill="none"><path fill="#fff" fill-rule="evenodd" d="M58.775 25.585c-2.096 2.282-4.748 3.619-7.76 4.192-4.676.893-9.258.683-13.517-1.7-3.912-2.19-5.943-5.688-6.614-10.012-.488-3.146-.28-6.262.92-9.24 1.69-4.189 4.824-6.843 9.163-8.008 4.494-1.204 8.98-1.09 13.291.778 4.57 1.98 7.101 5.595 7.96 10.416.183 1.024.214 2.075.314 3.114-.064 3.919-1.043 7.502-3.757 10.46Zm-5.222-12.273c-.26-3.485-1.99-6.475-6.517-6.706-3.386-.173-5.987 1.041-7.091 4.728-.372 1.241-.518 3.366-.525 3.812-.007.447.045 1.275.112 1.864.383 3.351 1.788 6.204 5.88 6.668 3.592.405 6.92-.817 7.876-5.048.386-1.71.399-3.556.265-5.318ZM112 24.838c-1.513 3.22-4.286 4.717-7.726 4.796-5.192.12-10.39.033-15.586.04-.723.001-1.153-.334-1.153-1.051 0-5.43.005-10.86.01-16.29a12.32 12.32 0 0 1-.08-1.317 11.2 11.2 0 0 0-.2-2.134c-.247-1.271-1.006-1.941-2.294-1.985-1.526-.053-3.057-.013-4.656-.013 0 1.53.025 3.04-.004 4.548-.068 3.674-.292 7.337-1.323 10.89-.84 2.897-2.205 5.47-5.176 6.698-1.108.457-2.352.729-3.551.798-1.784.104-3.582-.05-5.406-.095-.545-2.315-.514-4.474.082-6.536.85 0 1.627.066 2.388-.014 1.995-.214 3.465-1.285 4.096-3.153.564-1.677 1.028-3.44 1.166-5.197.194-2.487.05-5.004.05-7.721h-5.273c-.212-1.756-.362-2.098-.362-3.122 0-1.114-.03-2.153.362-3.342h1.086c6.035 0 12.07-.046 18.104.032 1.472.018 3.02.218 4.39.718 2.925 1.064 4.145 3.53 4.612 6.42.144.88.193 1.783.196 2.675v.285c.029.05.044.089.044.109 2.36 0 4.608-.036 6.853.014 1.285.028 2.589.072 3.843.324 3.236.652 5.297 2.63 6.092 5.836.657 2.65.588 5.295-.584 7.787Zm-7.396-6.362c-.382-.858-1.09-1.442-1.995-1.475-2.238-.079-4.481-.025-6.769-.025v6.593c2.305 0 4.554.088 6.789-.056.623-.039 1.384-.638 1.763-1.195.798-1.178.797-2.528.212-3.842Zm-87.84 5.282c3.373.096 6.524-.696 9.486-2.285.153-.082.317-.146.538-.246.854 1.614 1.165 3.321 1.189 5.09.025 1.977.018 1.997-1.874 2.628-3.165 1.053-6.434 1.338-9.752 1.273-3.499-.07-6.839-.742-9.864-2.58-3.58-2.176-5.584-5.426-6.224-9.49-.519-3.287-.315-6.542 1.017-9.655C3.16 4.096 6.643 1.642 11.19.625c5.527-1.238 10.89-.633 16.023 1.787.255.12.617.405.617.614.008 2.444-.481 4.777-1.674 6.862-1.709-.864-3.32-1.78-5.012-2.511a10.311 10.311 0 0 0-6.43-.608c-3.555.786-5.674 3.349-5.798 7.186-.044 1.383.076 2.822.42 4.16.889 3.439 3.766 5.54 7.428 5.643Z" clip-rule="evenodd"/><mask id="a" width="113" height="31" x="0" y="0" maskUnits="userSpaceOnUse" style="mask-type:luminance"><path fill="#fff" fill-rule="evenodd" d="M58.775 25.585c-2.096 2.282-4.748 3.619-7.76 4.192-4.676.893-9.258.683-13.517-1.7-3.912-2.19-5.943-5.688-6.614-10.012-.488-3.146-.28-6.262.92-9.24 1.69-4.189 4.824-6.843 9.163-8.008 4.494-1.204 8.98-1.09 13.291.778 4.57 1.98 7.101 5.595 7.96 10.416.183 1.024.214 2.075.314 3.114-.064 3.919-1.043 7.502-3.757 10.46Zm-5.222-12.273c-.26-3.485-1.99-6.475-6.517-6.706-3.386-.173-5.987 1.041-7.091 4.728-.372 1.241-.518 3.366-.525 3.812-.007.447.045 1.275.112 1.864.383 3.351 1.788 6.204 5.88 6.668 3.592.405 6.92-.817 7.876-5.048.386-1.71.399-3.556.265-5.318ZM112 24.838c-1.513 3.22-4.286 4.717-7.726 4.796-5.192.12-10.39.033-15.586.04-.723.001-1.153-.334-1.153-1.051 0-5.43.005-10.86.01-16.29a12.32 12.32 0 0 1-.08-1.317 11.2 11.2 0 0 0-.2-2.134c-.247-1.271-1.006-1.941-2.294-1.985-1.526-.053-3.057-.013-4.656-.013 0 1.53.025 3.04-.004 4.548-.068 3.674-.292 7.337-1.323 10.89-.84 2.897-2.205 5.47-5.176 6.698-1.108.457-2.352.729-3.551.798-1.784.104-3.582-.05-5.406-.095-.545-2.315-.514-4.474.082-6.536.85 0 1.627.066 2.388-.014 1.995-.214 3.465-1.285 4.096-3.153.564-1.677 1.028-3.44 1.166-5.197.194-2.487.05-5.004.05-7.721h-5.273c-.212-1.756-.362-2.098-.362-3.122 0-1.114-.03-2.153.362-3.342h1.086c6.035 0 12.07-.046 18.104.032 1.472.018 3.02.218 4.39.718 2.925 1.064 4.145 3.53 4.612 6.42.144.88.193 1.783.196 2.675v.285c.029.05.044.089.044.109 2.36 0 4.608-.036 6.853.014 1.285.028 2.589.072 3.843.324 3.236.652 5.297 2.63 6.092 5.836.657 2.65.588 5.295-.584 7.787Zm-7.396-6.362c-.382-.858-1.09-1.442-1.995-1.475-2.238-.079-4.481-.025-6.769-.025v6.593c2.305 0 4.554.088 6.789-.056.623-.039 1.384-.638 1.763-1.195.798-1.178.797-2.528.212-3.842Zm-87.84 5.282c3.373.096 6.524-.696 9.486-2.285.153-.082.317-.146.538-.246.854 1.614 1.165 3.321 1.189 5.09.025 1.977.018 1.997-1.874 2.628-3.165 1.053-6.434 1.338-9.752 1.273-3.499-.07-6.839-.742-9.864-2.58-3.58-2.176-5.584-5.426-6.224-9.49-.519-3.287-.315-6.542 1.017-9.655C3.16 4.096 6.643 1.642 11.19.625c5.527-1.238 10.89-.633 16.023 1.787.255.12.617.405.617.614.008 2.444-.481 4.777-1.674 6.862-1.709-.864-3.32-1.78-5.012-2.511a10.311 10.311 0 0 0-6.43-.608c-3.555.786-5.674 3.349-5.798 7.186-.044 1.383.076 2.822.42 4.16.889 3.439 3.766 5.54 7.428 5.643Z" clip-rule="evenodd"/></mask></svg>