<svg xmlns="http://www.w3.org/2000/svg">
    <symbol viewBox="0 0 34 34" id="arrow-up-right">
        <path stroke-linecap="round" stroke-linejoin="round" stroke-width="2" d="M9.916 24.083 24.084 9.917M9.916 9.917h14.167v14.166"/>
    </symbol>
    <symbol viewBox="0 0 12 10" id="chek">
        <path d="M4.418 6.579 10.722.152 12 1.39 4.386 9.152 0 4.453l1.308-1.206 3.11 3.332Z"/>
    </symbol>
    <symbol viewBox="0 0 16 20" id="attach">
        <path fill-rule="evenodd" d="m15.905 8.946-4.715 9.899a2.033 2.033 0 0 1-2.688.967l-7.334-3.381a1.99 1.99 0 0 1-.978-2.658L6.187 1.155a2.032 2.032 0 0 1 2.69-.967l4.582 2.113a1.99 1.99 0 0 1 .978 2.658l-4.286 8.993a2.033 2.033 0 0 1-2.689.967l-1.833-.845a1.99 1.99 0 0 1-.979-2.658l3.004-6.274a1.017 1.017 0 0 1 1.344-.484.996.996 0 0 1 .49 1.329l-2.576 5.368a.995.995 0 0 0 .488 1.329 1.016 1.016 0 0 0 1.345-.484l3.432-7.179a.996.996 0 0 0-.49-1.33l-2.75-1.268a1.016 1.016 0 0 0-1.344.484l-5.14 10.801a1 1 0 0 0 .492 1.335l5.491 2.532a1.021 1.021 0 0 0 1.35-.486l4.285-8.988a1.017 1.017 0 0 1 1.345-.484.995.995 0 0 1 .49 1.329Z" clip-rule="evenodd"/>
    </symbol>
    <symbol viewBox="0 0 16 17" id="clear">
        <path fill-rule="evenodd" d="M8 .152c-4.4 0-8 3.6-8 8s3.6 8 8 8 8-3.6 8-8-3.6-8-8-8Zm4 11.05-1.12 1.186L8 9.338l-2.88 3.05L4 11.202l2.88-3.05L4 5.102l1.12-1.185L8 6.967l2.88-3.05L12 5.103l-2.88 3.05L12 11.201Z" clip-rule="evenodd"/>
    </symbol>
    <symbol viewBox="0 0 26 36" id="phone">
        <path d="m25.413 30.292-3.504-4.476c-1.243-1.593-3.58-1.859-5.124-.57l-1.771 1.48c-.377.304-.98.266-1.319-.076a31.33 31.33 0 0 1-6.932-12.896c-.113-.494.15-1.025.64-1.176l2.148-.721c1.921-.645 2.939-2.731 2.298-4.666l-1.884-5.31A2.801 2.801 0 0 0 6.01.326c-5.69 3.11-9.156 9.862-1.922 23.214 7.235 13.352 14.77 14.035 20.46 10.924 1.507-.796 1.921-2.807.866-4.172Z"/>
    </symbol>
    <symbol viewBox="0 0 28 21" id="youtube">
        <path fill-rule="evenodd" clip-rule="evenodd" d="M26.6074 1.56625C27.4468 2.47275 27.7199 4.53162 27.7199 4.53162C27.7199 4.53162 28 6.9475 28 9.36425V11.6287C28 14.0455 27.7199 16.4614 27.7199 16.4614C27.7199 16.4614 27.446 18.5194 26.6074 19.4241C25.6471 20.4954 24.5829 20.6065 23.9818 20.6693C23.9162 20.6762 23.8561 20.6825 23.8022 20.6894C19.8836 20.9895 14 21 14 21C14 21 6.71947 20.9291 4.47965 20.6999C4.37364 20.6787 4.24521 20.6622 4.09981 20.6436C3.39048 20.5524 2.27729 20.4094 1.39256 19.4233C0.553173 18.5185 0.280088 16.4605 0.280088 16.4605C0.280088 16.4605 0 14.0455 0 11.6279V9.36337C0 6.9475 0.280088 4.53162 0.280088 4.53162C0.280088 4.53162 0.554048 2.47275 1.39256 1.56625C2.3571 0.491182 3.42481 0.383051 4.0246 0.322307C4.08775 0.315912 4.1457 0.310043 4.19781 0.303625C8.11554 0 13.993 0 13.993 0H14.0061C14.0061 0 19.8836 0 23.8022 0.303625C23.8543 0.310045 23.9123 0.315917 23.9755 0.322315C24.5754 0.38306 25.6437 0.491227 26.6074 1.56625ZM19.256 10.5L10.5033 15.75V5.25L19.256 10.5Z"/>
    </symbol>
    <symbol viewBox="0 0 24 24" id="instagram">
        <path fill-rule="evenodd" clip-rule="evenodd" d="M6.999 0h10C20.859 0 24 3.14 24 6.999v10C24 20.859 20.86 24 17.001 24h-10C3.141 24 0 20.86 0 17.001v-10C0 3.141 3.14 0 6.999 0ZM6 12c0 3.309 2.691 6 6 6s6-2.691 6-6-2.691-6-6-6-6 2.691-6 6Zm13.5-5a1.5 1.5 0 1 1 .001-3.001A1.5 1.5 0 0 1 19.5 7ZM12 15a3 3 0 1 0 0-6 3 3 0 0 0 0 6Z"/>
    </symbol>
    <symbol viewBox="0 0 29 19" id="be">
        <path fill-rule="evenodd" clip-rule="evenodd" d="M14.744 4.955c0 3.328-2.8 3.54-2.8 3.54 3.645 0 3.442 4.504 3.437 4.617v.002c0 5.678-5.83 5.492-5.83 5.492H0V0H9.551c2.903 0 5.193 1.625 5.193 4.955Zm3.87-3.86h7.57v2.292h-7.57V1.096ZM15.51 11.884s-.006-7.15 7.052-7.15c7.363 0 6.406 7.934 6.389 8.075v.002H19.44c0 3.456 3.23 3.238 3.23 3.238 3.05 0 2.942-2.001 2.942-2.001h3.231c0 5.311-6.28 4.948-6.28 4.948-7.537 0-7.053-7.112-7.053-7.112Zm7.123-4.424c-2.835 0-3.23 2.868-3.23 2.868h6.029s.038-2.868-2.799-2.868ZM8.863 3.307h.687s1.299 0 1.299 1.935c0 1.936-.764 2.217-1.63 2.217H4.208V3.307h4.655ZM9.021 15.3c.072 0 .16.002.26-.001.76-.016 2.205-.24 2.205-2.418 0-2.58-1.935-2.554-1.935-2.554H4.208V15.3h4.813Z"/>
    </symbol>
    <symbol viewBox="0 0 165 34" id="showreel">
        <path fill-rule="evenodd" clip-rule="evenodd" d="M78.664 23.197c-1.261.682-2.676 1.023-4.246 1.023-1.57 0-2.984-.341-4.246-1.023a7.576 7.576 0 0 1-2.97-2.838c-.718-1.21-1.078-2.563-1.078-4.06 0-1.495.36-2.848 1.078-4.058a7.577 7.577 0 0 1 2.97-2.838c1.262-.682 2.677-1.023 4.246-1.023 1.57 0 2.985.34 4.246 1.023a7.6 7.6 0 0 1 2.97 2.827c.719 1.202 1.078 2.56 1.078 4.07 0 1.51-.36 2.867-1.078 4.07a7.6 7.6 0 0 1-2.97 2.827ZM62.956 8.6V24H43.178V8.6h2.816v12.98h5.676V8.6h2.816v12.98h5.654V8.6h2.816Zm11.462 13.112c-1.026 0-1.95-.231-2.772-.693a5.013 5.013 0 0 1-1.936-1.936c-.47-.829-.704-1.756-.704-2.783s.235-1.955.704-2.783a5.013 5.013 0 0 1 1.936-1.936c.822-.462 1.746-.693 2.772-.693 1.027 0 1.95.23 2.772.693a5.011 5.011 0 0 1 1.936 1.936c.47.829.704 1.756.704 2.783 0 1.026-.234 1.954-.704 2.783a5.012 5.012 0 0 1-1.936 1.936c-.821.462-1.745.693-2.772.693Zm15.345 1.793a4.641 4.641 0 0 1-2.65.825 5.677 5.677 0 0 1-2.267-.484l.704-2.244c.602.19 1.1.286 1.496.286.924 0 1.687-.477 2.288-1.43l.242-.374L83.438 8.6h3.058l4.554 9.042L95.736 8.6h2.816l-6.688 12.43c-.586 1.1-1.287 1.925-2.1 2.475Zm13.629.495v-4.444h3.476c1.335 0 2.497-.22 3.487-.66.99-.44 1.749-1.075 2.277-1.903.528-.829.792-1.8.792-2.915 0-1.13-.264-2.105-.792-2.926-.528-.821-1.287-1.452-2.277-1.892-.99-.44-2.152-.66-3.487-.66h-6.336V24h2.86Zm0-6.864h3.344c1.247 0 2.193-.264 2.838-.792.646-.528.968-1.284.968-2.266 0-.983-.322-1.738-.968-2.266-.645-.528-1.591-.792-2.838-.792h-3.344v6.116ZM118.814 24l8.272-10.912V24h2.816V8.6h-2.662l-8.272 10.934V8.6h-2.816V24h2.662Zm17.512-.825c-.616.697-1.466 1.045-2.552 1.045-.381 0-.902-.073-1.562-.22l.198-2.486c.191.059.411.088.66.088.895 0 1.529-.532 1.903-1.595.374-1.064.605-2.74.693-5.027l.22-6.38h11.33V24H144.4V11.02h-6.072l-.132 3.85c-.073 2.156-.249 3.905-.528 5.247-.278 1.342-.726 2.361-1.342 3.058ZM160.249 0a4 4 0 0 1 4 4v8h-3V4a1 1 0 0 0-.883-.993L160.249 3h-8V0h8ZM3 30v-8H0v8a4 4 0 0 0 4 4h8v-3H4l-.117-.007A1 1 0 0 1 3 30Zm161.249 0v-8h-3v8l-.007.117a1 1 0 0 1-.876.876l-.117.007h-8v3h8l.2-.005a4 4 0 0 0 3.8-3.995ZM12 3V0H4l-.2.005A4 4 0 0 0 0 4v8h3V4l.007-.117a1 1 0 0 1 .876-.876L4 3h8ZM31 17l-14 7V10l14 7Z"/>
    </symbol>
    <symbol viewBox="0 0 43 34" id="showreel-min">
        <path fill-rule="evenodd" d="M39 0a4 4 0 0 1 4 4v8h-3V4a1 1 0 0 0-.883-.993L39 3h-8V0h8ZM3 30v-8H0v8a4 4 0 0 0 4 4h8v-3H4l-.117-.007A1 1 0 0 1 3 30Zm40 0v-8h-3v8l-.007.117a1 1 0 0 1-.876.876L39 31h-8v3h8l.2-.005A4 4 0 0 0 43 30ZM12 3V0H4l-.2.005A4 4 0 0 0 0 4v8h3V4l.007-.117a1 1 0 0 1 .876-.876L4 3h8ZM31 17l-14 7V10l14 7Z" clip-rule="evenodd"/>
    </symbol>
    <symbol viewBox="0 0 23 14" id="arrow">
        <path fill-rule="evenodd" d="M22.4 6.296H2.788L9.098 0H6.997L0 6.995 6.997 14h2.1L2.789 7.7H22.4V6.296Z" clip-rule="evenodd"/>
    </symbol>
    <symbol viewBox="0 0 29 32" id="sharing">
        <circle cx="24.065" cy="4.935" r="3.935" stroke-width="2"/><circle cx="4.935" cy="15.658" r="3.935" stroke-width="2"/><circle cx="24.065" cy="26.319" r="3.935" stroke-width="2"/><path d="m8.226 13.8 12.216-6.885M8.224 17.037l12.08 7.121" stroke-width="2"/>
    </symbol>
    <symbol viewBox="0 0 20 13" id="arrow-btn">
        <path fill-rule="evenodd" d="M20 5.796H2.663L8.436 0H6.47L0 6.495 6.471 13h1.965L2.663 7.204H20V5.796Z" clip-rule="evenodd"/>
    </symbol>
    <symbol viewBox="0 0 55 51" id="approach1">
        <path fill="#6688b4" class="service-approach-item__fill" d="m18.743 40.336.862-.506-.29-.494h-.572v1Zm5.048 8.595.862-.506-.862.506Zm1.694.048.832.555-.832-.555Zm5.763-8.643v-1h-.536l-.296.445.832.555ZM2 10a8 8 0 0 1 8-8V0C4.477 0 0 4.477 0 10h2Zm0 21.336V10H0v21.336h2Zm8 8a8 8 0 0 1-8-8H0c0 5.523 4.477 10 10 10v-2Zm8.743 0H10v2h8.743v-2Zm5.91 9.089-5.048-8.595-1.724 1.012 5.048 8.596 1.724-1.013Zm0 0-1.724 1.013a2 2 0 0 0 3.389.096l-1.665-1.11Zm5.763-8.644-5.763 8.644 1.665 1.109 5.762-8.643-1.664-1.11ZM45 39.336H31.248v2H45v-2Zm8-8a8 8 0 0 1-8 8v2c5.523 0 10-4.477 10-10h-2ZM53 10v21.336h2V10h-2Zm-8-8a8 8 0 0 1 8 8h2c0-5.523-4.477-10-10-10v2ZM10 2h35V0H10v2Z"/>
        <circle cx="13.422" cy="20.461" r="3.969" stroke-width="2"/>
        <circle cx="27.501" cy="20.461" r="3.969" stroke-width="2"/>
        <circle cx="40.75" cy="20.461" r="3.969" stroke-width="2"/>
    </symbol>
    <symbol viewBox="0 0 55 55" id="approach2">
        <path stroke-linecap="round" stroke-width="2" d="M1 1v52.361h53"/><path stroke-linecap="round" stroke-width="2" d="M6.109 52.084c2.341-5.321 7.152-17.24 7.662-22.35.64-6.385 8.302-14.686 12.133 3.832 3.065 14.814 8.088 18.518 10.217 18.518"/><path stroke-linecap="round" stroke-width="2" d="M14.41 52.085c2.13-2.341 6.642-9.195 7.663-17.88 1.022-8.684 2.98-15.112 3.832-17.24 2.341-4.896 8.173-11.111 12.77 3.192 5.748 17.88 6.387 28.735 12.134 31.928"/>
    </symbol>
    <symbol viewBox="0 0 46 56" id="approach3">
        <path stroke-linecap="round" stroke-width="2" d="M9.586 25.49h16.062M9.844 35.547H38.34"/><path stroke-width="2" d="M41 54.214H5a4 4 0 0 1-4-4V5a4 4 0 0 1 4-4h24.17L45 16.17v34.044a4 4 0 0 1-4 4Z"/>
    </symbol>
    <symbol viewBox="0 0 53 53" width="53" height="53" id="approach4">
        <circle cx="26.5" cy="26.5" r="25.5" stroke-width="2"/>
        <path fill="#6688b4" d="m35.276 25.586-11.344-7.925a1 1 0 0 0-1.573.82v16.015a1 1 0 0 0 1.581.814l11.344-8.09a1 1 0 0 0-.008-1.634Z"/>
    </symbol>
    <symbol viewBox="0 0 53 45" id="approach5">
        <rect width="51" height="42.756" x="1" y="1" stroke-width="2" rx="4"/>
        <path stroke-width="2" d="M1.178 12.367h50.644"/>
        <circle fill="#6688b4" cx="7.066" cy="5.889" r="2.356"/>
        <circle fill="#6688b4" cx="12.953" cy="5.889" r="2.356"/>
        <circle fill="#6688b4" cx="18.846" cy="5.889" r="2.356"/>
    </symbol>
    <symbol viewBox="0 0 53 45" id="approach6">
        <rect width="51" height="42.756" x="1" y="1" stroke-width="2" rx="4"/>
        <path stroke-linecap="round" stroke-width="2" d="M20.25 14.17 10.2 21.274a1 1 0 0 0 .028 1.653l10.022 6.57M32.75 14.17l10.05 7.105a1 1 0 0 1-.028 1.653l-10.022 6.57M30.249 12l-7.625 19.811"/>
    </symbol>
    <symbol viewBox="0 0 41 42" id="approach7">
        <circle cx="17.235" cy="17.235" r="15.735" stroke-width="3"/>
        <path stroke-width="2" d="M29.268 29.593 40 40.487"/>
    </symbol>
    <symbol viewBox="0 0 57 56 42" id="approach8">
        <path stroke-width="2" d="M45.588 25.05C51.655 17.04 56.164 8.573 55.56 1.837a.92.92 0 0 0-.908-.833C46.788.86 38.74 4.809 31.56 10.194M45.588 25.05l-7.657 28.9a1 1 0 0 1-1.78.326L28.474 43.57M45.588 25.05c-5.306 7.008-11.804 13.668-17.114 18.52m0 0c-1.058.966-2.07 1.861-3.014 2.673a.993.993 0 0 1-1.35-.054L10.985 33.064a.99.99 0 0 1-.115-1.267 88.102 88.102 0 0 1 2.801-3.776M31.56 10.194l-29.378 9.45c-.831.267-.945 1.396-.183 1.824L13.67 28.02M31.56 10.194C24.376 15.583 18.06 22.411 13.67 28.021"/>
        <circle cx="30.91" cy="23.212" r="4.219"/>
        <path stroke-width="2" d="m6.828 35.82 4.546-2.356a1 1 0 0 1 1.177.19l7.967 8.176a1 1 0 0 1 .19 1.12l-2.383 5.106a1 1 0 0 1-1.64.257L6.556 37.39a1 1 0 0 1 .273-1.568Z"/>
    </symbol>
    <symbol viewBox="0 0 50 49" id="approach9">
        <path stroke-width="2" d="m5.21 16.368 12.422-12.42m0 0V9.42m0-5.474h-6.106M2 37h9.79a1 1 0 0 0 1-1v-9.579a1 1 0 0 1 1-1h10.42a1 1 0 0 0 1-1V13.79a1 1 0 0 1 1-1H36a1 1 0 0 0 1-1V2a1 1 0 0 1 1-1h10a1 1 0 0 1 1 1v44.737a1 1 0 0 1-1 1H2a1 1 0 0 1-1-1V38a1 1 0 0 1 1-1Z"/>
    </symbol>
    <symbol viewBox="0 0 80 98" id="get1"><path stroke="#989CF8" stroke-width="3" d="m62.39 27.592 4.172-4.171a4.163 4.163 0 0 1 5.888 5.888l-4.172 4.17"/><circle cx="40" cy="58" r="38.5" stroke="#4B91D8" stroke-width="3"/><circle cx="40" cy="58" r="30.5" stroke="#4B91D8" stroke-width="3"/><circle cx="40" cy="58" r="4.5" stroke="#989CF8" stroke-width="3"/><path stroke="#989CF8" stroke-linecap="round" stroke-width="4" d="M40 39v13M40 63v3"/><path stroke="#989CF8" stroke-width="4" d="M36 10v9M44 10v9"/><rect width="24" height="8" x="28" y="2" stroke="#989CF8" stroke-width="4" rx="4"/></symbol>
    <symbol viewBox="0 0 104 101" id="get2"><path stroke="#4B91D8" stroke-width="4" d="M90 37V11a9 9 0 0 0-9-9H11a9 9 0 0 0-9 9v52a9 9 0 0 0 9 9h52"/><path stroke="#4B91D8" stroke-width="3" d="M2 58.5h62"/><path stroke="#4B91D8" stroke-width="4" d="m36.745 71.75-5.734 7.476c-1.017 1.326-.056 3.24 1.615 3.217l27.978-.389c1.629-.023 2.549-1.878 1.581-3.188l-5.44-7.366"/><rect width="39" height="61" x="63.5" y="38.5" fill="#022450" stroke="#989CF8" stroke-width="3" rx="7.5"/><path stroke="#989CF8" stroke-width="3" d="M64 52.5h39M64 87.5h39"/></symbol>
    <symbol viewBox="0 0 100 99" id="get3"><path stroke="#4B91D8" stroke-width="4" d="M2.006 19.5v23.913c0 .383.112.764.324 1.083C12.67 60.04 29.94 60.94 42.894 57m17.112-38v21.5"/><path fill="#022450" stroke="#989CF8" stroke-width="4" d="M60 19.5c0 4.453-2.874 8.78-8.145 12.096C46.611 34.894 39.243 37 31 37s-15.611-2.106-20.855-5.404C4.874 28.28 2 23.953 2 19.5s2.874-8.78 8.145-12.096C15.389 4.106 22.757 2 31 2s15.611 2.106 20.855 5.404C57.126 10.72 60 15.047 60 19.5Z"/><path fill="#022450" stroke="#4B91D8" stroke-width="4" d="M46 19.5c0 1.95-1.286 4.028-4.03 5.723C39.257 26.898 35.384 28 31 28s-8.257-1.102-10.97-2.777C17.286 23.528 16 21.45 16 19.5c0-1.95 1.286-4.028 4.03-5.723C22.743 12.102 26.616 11 31 11s8.257 1.101 10.97 2.777C44.714 15.472 46 17.551 46 19.5Z"/><path stroke="#4B91D8" stroke-width="4" d="M2.006 39.5v23.913c0 .383.112.764.324 1.083C12.302 79.488 28.724 80.858 41.5 77.4"/><path stroke="#4B91D8" stroke-width="4" d="M2.006 57.5v23.913c0 .383.113.766.326 1.085C15.385 102.12 39.488 98.404 52 91.072"/><circle cx="69" cy="68" r="29" fill="#022450" stroke="#4B91D8" stroke-width="4"/><circle cx="69" cy="68" r="19" fill="#022450" stroke="#989CF8" stroke-width="4"/><path stroke="#4B91D8" stroke-linecap="round" stroke-linejoin="round" stroke-width="2" d="M65.5 75v-7m0 0v-6a2 2 0 0 1 2-2h3c5 0 5.269 8 0 8h-5Zm0 0H63"/><path stroke="#4B91D8" stroke-linecap="round" stroke-width="2" d="M63 71h7"/></symbol>
    <symbol viewBox="0 0 124 100" id="get4"><path stroke="#4B91D8" stroke-linecap="round" stroke-linejoin="round" stroke-width="4" d="M24.374 29.892c.502-5.617 1.189-10.742 1.81-14.514.11-.666-.126-1.34-.592-1.827-8.002-8.372-.047-16.257 8.893-7.61.48.464 1.134.701 1.793.597C53.083 3.874 89.545.42 107.463 6.25c.797.259 1.667.02 2.261-.571 7.309-7.277 16.566-3.173 9.192 7.149a2.211 2.211 0 0 0-.339 1.858c3.044 11.266 1.251 34.282-.17 45.56-.078.617.139 1.228.55 1.695 6.333 7.203.657 14.999-8.094 7.619a2.184 2.184 0 0 0-1.89-.472c-2.229.512-4.972.959-8.077 1.34"/><path fill="#022450" stroke="#989CF8" stroke-linecap="round" stroke-linejoin="round" stroke-width="4" d="M88.172 30.706c-17.918-5.831-54.38-2.377-71.185.287-.66.104-1.313-.133-1.793-.597-8.94-8.647-16.895-.761-8.893 7.61.466.488.701 1.162.591 1.828-1.835 11.15-4.244 34.118-.77 46.678a2.25 2.25 0 0 1-.383 1.94c-5.626 7.547 1.71 12.361 7.7 6.023.997-1.056 3.116-1.381 4.488-.904 11.559 4.016 55.468 3.718 71.777-.032.667-.153 1.345.036 1.868.477 8.751 7.38 14.427-.415 8.094-7.619-.411-.467-.628-1.078-.55-1.695 1.421-11.278 3.214-34.294.17-45.56a2.215 2.215 0 0 1 .338-1.858c7.375-10.322-1.882-14.425-9.191-7.15-.594.592-1.464.83-2.26.572Z"/></symbol>
    <symbol viewBox="0 0 110 104" id="get5"><path fill="#022450" stroke="#989CF8" stroke-linecap="round" stroke-linejoin="round" stroke-width="3" d="M16.038 2C29.055 25.4 44.91 23.757 60.131 16.252a61.935 61.935 0 0 1 3.63-1.9 90.145 90.145 0 0 1-3.63 1.9C36.12 29.877 44.15 48.691 48.998 58.715c1.007 1.84 1.582 3.253 1.805 3.774a20.75 20.75 0 0 1 0 0c-.462-1.043-1.1-2.316-1.805-3.774-4.524-8.262-17.77-25.13-46.996-8.43C23.618 37.933 30.718 28.388 16.038 2Z"/><path fill="#022450" stroke="#4B91D8" stroke-linecap="round" stroke-linejoin="round" stroke-width="3" d="M76.898 26.143c8.52 15.166 18.898 14.101 28.861 9.237a40.601 40.601 0 0 1 2.377-1.232c-.789.43-1.582.843-2.377 1.232-15.716 8.831-10.46 21.025-7.287 27.522.66 1.193 1.036 2.108 1.181 2.446a13.907 13.907 0 0 1 0 0c-.302-.676-.72-1.5-1.181-2.446-2.961-5.355-11.631-16.288-30.761-5.464 14.149-8.006 18.796-14.192 9.187-31.295ZM31.319 71.059c6.863 12.133 15.223 11.281 23.249 7.39.6-.335 1.237-.664 1.914-.986a47.77 47.77 0 0 1-1.914.985c-12.66 7.065-8.426 16.82-5.87 22.018.53.954.834 1.687.951 1.957l.035.077c-.01-.019-.02-.045-.035-.077-.243-.541-.58-1.2-.951-1.957-2.386-4.284-9.37-13.03-24.78-4.37 11.398-6.406 15.141-11.355 7.4-25.037Z"/></symbol>
    <symbol viewBox="0 0 113 100" id="get6"><circle cx="56.249" cy="17.708" r="15.708" fill="#022450" stroke="#989CF8" stroke-width="4"/><circle cx="18.751" cy="17.708" r="12.042" fill="#022450" stroke="#989CF8" stroke-width="3"/><path stroke="#4B91D8" stroke-linecap="round" stroke-linejoin="round" stroke-width="4" d="m80.728 57.292 26.732-14.538c1.333-.725 2.956.24 2.956 1.757v50.563c0 1.517-1.623 2.481-2.956 1.757L80.729 82.292"/><rect width="78.292" height="56.417" x="2" y="41.584" fill="#022450" stroke="#4B91D8" stroke-width="4" rx="11"/></symbol>
    <symbol viewBox="0 0 59 59" id="service-additional1">
        <path d="M33.99 6.41 2.21 38.576c-.59.75-1.38 2.822.187 5.11 1.959 2.86 2.66 4.606 6.233 3.617 2.86-.791 29.717-7.998 42.788-11.502M33.99 6.41C40.863 3.426 58.129 34 51.418 35.8M33.99 6.41c-2.024 7.555 9.62 27.297 17.428 29.39" stroke-width="2"/>
        <path d="m24.985 42.925.649 1.618a1 1 0 0 1-.625 1.326l-3.69 1.171a1 1 0 0 1-1.034-.27l-1.987-2.133" stroke-width="2"/>
    </symbol>
    <symbol viewBox="0 0 47 47" id="service-additional2">
        <path d="M22.121 2.312 16.2 14.6a1 1 0 0 1-.728.55L1.876 17.54a1 1 0 0 0-.54 1.687l9.735 9.884a1 1 0 0 1 .279.83L9.549 43.9a1 1 0 0 0 1.448 1.018l11.56-5.929a1 1 0 0 1 .891-.011l12.42 5.986a1 1 0 0 0 1.423-1.05l-2.104-13.977a1 1 0 0 1 .26-.834l9.291-9.891a1 1 0 0 0-.551-1.669l-13.323-2.395a1 1 0 0 1-.715-.533L23.914 2.295a1 1 0 0 0-1.793.017Z" stroke-width="2"/>
    </symbol>
    <symbol viewBox="0 0 58 31" id="service-additional3">
        <path d="M4.355 1.343h8.054a1 1 0 0 1 1 1v27.11" stroke-width="2"/>
        <path d="M0 6.95h6.615a1 1 0 0 1 1 1v21.389M44.02 15.095c0-6.024-6.415-16.517-18.26-13.411-13.987 3.667-12.997 24.99 1.012 27.525.057.01.116.016.174.016h31.053" stroke-width="2"/>
        <path d="M37.84 15.277c0-3.41-3.635-9.35-10.348-7.592-7.915 2.073-7.369 14.11.535 15.577a.96.96 0 0 0 .174.015h29.798" stroke-width="2"/>
    </symbol>
    <symbol viewBox="0 0 58 49" id="service-additional4">
        <path d="M29 15.4v19.41M7.536 34.354c-.304-1.75.137-5.252 4.339-5.252H45.67c2.207-.152 6.348.685 5.252 5.252" stroke-width="2"/>
        <rect x="10.133" y="1.787" width="38.646" height="13.071" rx="1" stroke-width="2"/>
        <rect x="1" y="35.126" width="13.071" height="12.614" rx="1" stroke-width="2"/>
        <rect x="22.464" y="35.126" width="13.071" height="12.614" rx="1" stroke-width="2"/>
        <rect x="43.929" y="35.126" width="13.071" height="12.614" rx="1" stroke-width="2"/>
    </symbol>
    <symbol viewBox="0 0 86 102" id="service-advantage2"><path d="M2 58.03V15.226C11.108 14.29 31.687 10.332 41.14 2c12.153 11.248 32.985 13.504 41.882 13.226-.211 9.686-.507 31.806 0 42.804.633 13.747-16.774 30.618-41.883 41.97C15.567 88.752 4.391 67.333 2 58.03Z" stroke="#4B91D8" stroke-width="4" stroke-linejoin="round"/><path d="m39.814 69.855-1.171 1.62a2 2 0 0 0 2.861-.551l-1.69-1.07Zm25.533-36.632a2 2 0 1 0-3.38-2.138l3.38 2.138ZM51.735 51.005l1.69 1.069-1.69-1.07ZM22.502 59.81l16.14 11.665 2.344-3.242-16.141-11.665-2.343 3.242Zm19.003 11.113 11.92-18.85-3.38-2.139-11.921 18.85 3.38 2.139Zm11.92-18.85 11.922-18.85-3.38-2.139-11.922 18.85 3.38 2.139Z" fill="#989CF8"/></symbol>
    <symbol viewBox="0 0 98 98" id="service-advantage3"><path d="M21.627 34h8.365a1 1 0 0 1 1 1v28.533" stroke="#989CF8" stroke-width="2.5"/><path d="M16.585 40.482h6.924a1 1 0 0 1 1 1v22.05M66.875 48.684c0-6.33-6.672-17.356-18.992-14.093-14.55 3.854-13.52 26.265 1.055 28.927.057.01.117.015.175.015h32.302" stroke="#989CF8" stroke-width="2.5"/><path d="M60.142 48.72c0-3.551-3.836-9.737-10.92-7.906-8.354 2.159-7.775 14.699.571 16.22.056.01.114.016.171.016h31.45" stroke="#989CF8" stroke-width="2.5"/><rect x="1.75" y="1.75" width="94.5" height="94.5" rx="47.25" stroke="#4B91D8" stroke-width="3.5"/></symbol>
    <symbol viewBox="0 0 109 100" id="service-advantage4"><rect x="106.402" y="2" width="76.134" height="104.402" rx="11" transform="rotate(90 106.402 2)" stroke="#4B91D8" stroke-width="4"/><path d="M65.34 98V60.514h22.738V98l-11.062-5.531-11.675 5.53Z" fill="#0C2E5A" stroke="#989CF8" stroke-width="4" stroke-linecap="round" stroke-linejoin="round"/><path d="M81.18 37.849c.247.144.522.233.806.262l4.795.483 1.941 4.41c.116.263.285.497.499.687l3.595 3.21-1.022 4.709c-.06.28-.06.568 0 .848l1.022 4.71-3.595 3.209c-.214.19-.383.424-.499.686l-1.941 4.41-4.795.484c-.284.028-.56.118-.806.262l-4.164 2.427-4.163-2.427a1.998 1.998 0 0 0-.806-.262l-4.795-.484-1.941-4.41a2 2 0 0 0-.499-.687l-3.595-3.209 1.022-4.71c.06-.279.06-.568 0-.847l-1.022-4.71 3.595-3.209a2 2 0 0 0 .499-.686l1.941-4.41 4.795-.484c.284-.029.56-.118.806-.262l4.163-2.427 4.163 2.427Z" fill="#0C2E5A" stroke="#989CF8" stroke-width="4" stroke-linejoin="round"/><path d="M20.177 26.422h26.421M20.177 38.912h26.421M20.177 51.402h26.421" stroke="#4B91D8" stroke-width="2" stroke-linecap="round" stroke-linejoin="round"/></symbol>
    <symbol viewBox="0 0 106 106" id="service-advantage5"><rect x="71.804" y="2.828" width="43.688" height="97.98" rx="8" transform="rotate(44.747 71.804 2.828)" stroke="#4B91D8" stroke-width="4"/><circle cx="36.042" cy="69.257" r="3.777" fill="#4B91D8"/><circle cx="51.332" cy="53.787" r="4.875" stroke="#4B91D8" stroke-width="5"/><path d="m68.758 31.218 3.157-3.154 4.96 4.956-3.157 3.153 3.156 3.153-4.96 4.956-2.78-2.778-3.833 3.829-5.335-5.33 3.306-3.304-3.306-3.304 5.335-5.33 3.157 3.153" stroke="#989CF8" stroke-width="3" stroke-linecap="round" stroke-linejoin="round"/></symbol>
    <symbol viewBox="0 0 52 61" id="service-seo-works-icon1">
        <path fill="#022450" stroke-linecap="round" stroke-linejoin="round" stroke-width="2" d="M35.282 58.976 20.158 32.779l15.718-9.074L51 49.9l-9.878.55-5.84 8.525Z"/>
        <path fill="#022450" stroke-linecap="round" stroke-linejoin="round" stroke-width="2" d="m1 50.91 15.125-26.197 15.717 9.075-15.124 26.196-5.415-8.28L1 50.91Z"/>
        <path fill="#022450" stroke-linejoin="round" stroke-width="2" d="M31.419 4.317a1 1 0 0 0 .403.13l6.24.63 2.527 5.74c.057.131.142.248.249.343l4.679 4.177-1.33 6.13a1 1 0 0 0 0 .424l1.33 6.129-4.679 4.177a1.001 1.001 0 0 0-.25.343l-2.526 5.74-6.24.63a.999.999 0 0 0-.403.13L26 42.2l-5.418-3.16a1 1 0 0 0-.403-.13l-6.24-.63-2.527-5.74a1 1 0 0 0-.25-.343L6.484 28.02l1.33-6.13a1 1 0 0 0 0-.424l-1.33-6.129 4.678-4.177a1 1 0 0 0 .25-.343l2.526-5.74 6.24-.63a1 1 0 0 0 .404-.13L26 1.157l5.419 3.16Z"/>
    </symbol>
    <symbol viewBox="0 0 52 51" id="service-seo-works-icon2">
        <path stroke-linecap="round" stroke-linejoin="round" stroke-width="2" d="M11.98 37.986 21 19.995l11.715 13.383 9.952-25.05"/>
        <path stroke-linecap="round" stroke-linejoin="round" stroke-width="2" d="M1 1.984v47.178h50M36 9.995l7.5-3.333L46 13.33"/>
    </symbol>
    <symbol viewBox="0 0 52 56" id="service-seo-works-icon3">
        <circle cx="26.141" cy="15.056" r="13.894" stroke-width="2"/>
        <path stroke-linecap="round" stroke-linejoin="round" stroke-width="2" d="M11.73 36.187c-6.71.86-9.928 6.453-10.7 9.14-.01 2.524-.02 5.833-.03 9.335h49.982v-9.334c0-3.119-3.817-7.958-9.248-9.14-5.43-1.184-21.615-1.076-30.003 0Z"/>
    </symbol>
    <symbol viewBox="0 0 53 60" id="service-seo-works-icon4">
        <path stroke-linecap="round" stroke-linejoin="round" stroke-width="2" d="M24.01 3.033 3.454 21.451c-2.635 2.36-1.098 3.968 0 4.477H9.05c-.068 8.004-.163 24.9 0 28.44.163 3.541 2.917 4.426 4.274 4.426 7.02.12 22.172.285 26.609 0 4.436-.284 5.376-3.07 5.29-4.426v-28.44H49.5c3.663-.122 2.51-3.036 1.475-4.477-5.698-5.105-17.726-15.935-20.25-18.418-2.523-2.483-5.528-1.035-6.715 0Z"/>
        <circle cx="34.49" cy="28.218" r="4.698" stroke-width="2"/>
        <circle cx="19.837" cy="38.188" r="4.698" stroke-width="2"/>
        <path stroke-linecap="round" stroke-width="2" d="m21.103 21.07 12.21 24.116"/>
    </symbol>
    <symbol viewBox="0 0 123 101" id="service-advantage-seo-1"><path stroke="#4B91D8" stroke-linecap="round" stroke-linejoin="round" stroke-width="4" d="M66.232 89.698c10.254-17.09 50.207 5.539 54.568 2.003V12.383c-21.686-4.808-41.486-20.742-59.4 0-23.454-22.746-41.84 0-59.4 0v79.318c16.736 2.357 33.118-18.385 56.218-2.003"/><path stroke="#989CF8" stroke-linecap="round" stroke-linejoin="round" stroke-width="2" d="M61.4 24.404v59.754M2 98.89c22.078 6.322 41.014-19.918 54.568 0h9.193c16.382-17.207 39.452 6.322 55.039 0"/></symbol>
    <symbol viewBox="0 0 107 101" id="service-advantage-seo-2" ><path fill="#4B91D8" d="M8.258 56.133h2a2 2 0 0 0-1.251-1.855l-.75 1.855Zm0 21.373h-2A2 2 0 0 0 9.68 78.91l-1.423-1.405Zm20.387-20.65v-2a2 2 0 0 0-1.423.595l1.423 1.405ZM4 12a8 8 0 0 1 8-8V0C5.373 0 0 5.373 0 12h4Zm0 34.856V12H0v34.856h4Zm5.007 7.422A8.003 8.003 0 0 1 4 46.856H0c0 5.043 3.11 9.355 7.51 11.131l1.497-3.709Zm1.25 23.228V56.133h-4v21.373h4ZM27.223 55.45 6.835 76.101l2.846 2.81 20.387-20.65-2.846-2.81Zm9.924-.595h-8.501v4h8.5v-4Zm44.96 0h-44.96v4h44.96v-4Zm8-8a8 8 0 0 1-8 8v4c6.628 0 12-5.372 12-12h-4Zm0-8.25v8.25h4v-8.25h-4Zm0-26.606v26.606h4V12h-4Zm-8-8a8 8 0 0 1 8 8h4c0-6.627-5.372-12-12-12v4ZM12 4h70.106V0H12v4Z"/><path stroke="#4B91D8" stroke-linecap="round" stroke-linejoin="round" stroke-width="2" d="M22.491 22.527h44.115M22.491 31.145h44.115M22.491 39.363h44.115"/><path fill="#022450" fill-rule="evenodd" d="M95.873 38.293c5.522 0 10 4.477 10 10v22.55c0 4.533-3.016 8.36-7.15 9.588V100L81.107 80.843H47.25c-5.523 0-10-4.477-10-10v-22.55c0-5.523 4.477-10 10-10h48.623Z" clip-rule="evenodd"/><path fill="#989CF8" d="M98.723 80.431h-1a1 1 0 0 1 .716-.959l.284.959Zm0 19.569h1a1 1 0 0 1-1.736.677l.736-.677ZM81.107 80.843v-1a1 1 0 0 1 .737.323l-.737.677Zm23.766-32.55a9 9 0 0 0-9-9v-2c6.075 0 11 4.925 11 11h-2Zm0 22.55v-22.55h2v22.55h-2Zm-6.434 8.63a9.005 9.005 0 0 0 6.434-8.63h2c0 4.987-3.319 9.197-7.865 10.547l-.57-1.918ZM97.723 100V80.431h2V100h-2Zm-15.88-19.834L99.46 99.323l-1.472 1.354L80.371 81.52l1.473-1.354Zm-34.593-.323h33.857v2H47.25v-2Zm-9-9a9 9 0 0 0 9 9v2c-6.075 0-11-4.925-11-11h2Zm0-22.55v22.55h-2v-22.55h2Zm9-9a9 9 0 0 0-9 9h-2c0-6.075 4.925-11 11-11v2Zm48.623 0H47.25v-2h48.623v2Z"/><path stroke="#989CF8" stroke-linecap="round" stroke-linejoin="round" stroke-width="2" d="M54.98 53.102h32.955M54.98 59.984h32.955M54.98 66.87h32.955"/></symbol>
    <symbol viewBox="0 0 84 110" id="service-advantage-seo-3"><circle cx="45.293" cy="38.293" r="36.793" stroke="#4B91D8" stroke-width="3"/><circle cx="45.5" cy="38.5" r="24.5" stroke="#989CF8" stroke-width="2"/><path stroke="#4B91D8" stroke-linecap="round" stroke-linejoin="round" stroke-width="3" d="m3.12 99.28 18.608-32.16 10.541 5.915c-5.342 9.322-16.65 28.935-19.146 32.807-3.05 4.733-13.553 1.291-10.003-6.561Z"/></symbol>
    <symbol viewBox="0 0 100 100" id="service-advantage-seo-4"><circle cx="50.142" cy="50.238" r="35.5" stroke="#4B91D8" stroke-width="4"/><circle cx="50" cy="50.098" r="10.713" stroke="#989CF8" stroke-width="2"/><path stroke="#989CF8" stroke-linecap="round" stroke-linejoin="round" stroke-width="2" d="M50.195 1v29.185M50.195 69.814V99M69.717 50.098h29.186M1 50.098h29.185"/></symbol>
    <symbol viewBox="0 0 141 101" id="service-advantage-seo-6"><path stroke="#4B91D8" stroke-dasharray="10 10" stroke-linecap="round" stroke-linejoin="round" stroke-width="3" d="M33.56 36.236h39.266c27.325 2.998 23.33 30.774 0 31.064-23.33.291-38.118.121-42.596 0-21.584 2.998-21.125 27.976 0 31.7 23.881-.29 85.747 0 60.71 0"/><path stroke="#989CF8" stroke-linecap="round" stroke-linejoin="round" stroke-width="3" d="M139.331 68.966c-.489 9.614-10.353 20.806-16.968 29.989-6.902-8.61-17.337-21.015-18.55-28.124-4.972-29.128 37.1-33.002 35.518-1.865Z"/><path stroke="#989CF8" stroke-linecap="round" stroke-linejoin="round" stroke-width="2" d="M24.577 15.636c-.32 6.479-6.794 14.021-11.136 20.21C8.912 30.044 2.064 21.684 1.268 16.893c-3.263-19.63 24.347-22.24 23.309-1.257Z"/><circle cx="121.769" cy="66.611" r="5.5" stroke="#4B91D8" stroke-width="3"/><path stroke="#4B91D8" stroke-width="2" d="M16.869 13.992c0 1.55-1.453 3-3.5 3-2.047 0-3.5-1.45-3.5-3s1.453-3 3.5-3c2.047 0 3.5 1.45 3.5 3Z"/></symbol>
</svg>