<svg xmlns="http://www.w3.org/2000/svg">
    <symbol viewBox="0 0 34 34" id="arrow-up-right">
        <path stroke-linecap="round" stroke-linejoin="round" stroke-width="2" d="M9.916 24.083 24.084 9.917M9.916 9.917h14.167v14.166"/>
    </symbol>
    <symbol viewBox="0 0 12 10" id="chek">
        <path d="M4.418 6.579 10.722.152 12 1.39 4.386 9.152 0 4.453l1.308-1.206 3.11 3.332Z"/>
    </symbol>
    <symbol viewBox="0 0 16 20" id="attach">
        <path fill-rule="evenodd" d="m15.905 8.946-4.715 9.899a2.033 2.033 0 0 1-2.688.967l-7.334-3.381a1.99 1.99 0 0 1-.978-2.658L6.187 1.155a2.032 2.032 0 0 1 2.69-.967l4.582 2.113a1.99 1.99 0 0 1 .978 2.658l-4.286 8.993a2.033 2.033 0 0 1-2.689.967l-1.833-.845a1.99 1.99 0 0 1-.979-2.658l3.004-6.274a1.017 1.017 0 0 1 1.344-.484.996.996 0 0 1 .49 1.329l-2.576 5.368a.995.995 0 0 0 .488 1.329 1.016 1.016 0 0 0 1.345-.484l3.432-7.179a.996.996 0 0 0-.49-1.33l-2.75-1.268a1.016 1.016 0 0 0-1.344.484l-5.14 10.801a1 1 0 0 0 .492 1.335l5.491 2.532a1.021 1.021 0 0 0 1.35-.486l4.285-8.988a1.017 1.017 0 0 1 1.345-.484.995.995 0 0 1 .49 1.329Z" clip-rule="evenodd"/>
    </symbol>
    <symbol viewBox="0 0 16 17" id="clear">
        <path fill-rule="evenodd" d="M8 .152c-4.4 0-8 3.6-8 8s3.6 8 8 8 8-3.6 8-8-3.6-8-8-8Zm4 11.05-1.12 1.186L8 9.338l-2.88 3.05L4 11.202l2.88-3.05L4 5.102l1.12-1.185L8 6.967l2.88-3.05L12 5.103l-2.88 3.05L12 11.201Z" clip-rule="evenodd"/>
    </symbol>
    <symbol viewBox="0 0 26 36" id="phone">
        <path d="m25.413 30.292-3.504-4.476c-1.243-1.593-3.58-1.859-5.124-.57l-1.771 1.48c-.377.304-.98.266-1.319-.076a31.33 31.33 0 0 1-6.932-12.896c-.113-.494.15-1.025.64-1.176l2.148-.721c1.921-.645 2.939-2.731 2.298-4.666l-1.884-5.31A2.801 2.801 0 0 0 6.01.326c-5.69 3.11-9.156 9.862-1.922 23.214 7.235 13.352 14.77 14.035 20.46 10.924 1.507-.796 1.921-2.807.866-4.172Z"/>
    </symbol>
    <symbol viewBox="0 0 28 21" id="youtube">
        <path fill-rule="evenodd" clip-rule="evenodd" d="M26.6074 1.56625C27.4468 2.47275 27.7199 4.53162 27.7199 4.53162C27.7199 4.53162 28 6.9475 28 9.36425V11.6287C28 14.0455 27.7199 16.4614 27.7199 16.4614C27.7199 16.4614 27.446 18.5194 26.6074 19.4241C25.6471 20.4954 24.5829 20.6065 23.9818 20.6693C23.9162 20.6762 23.8561 20.6825 23.8022 20.6894C19.8836 20.9895 14 21 14 21C14 21 6.71947 20.9291 4.47965 20.6999C4.37364 20.6787 4.24521 20.6622 4.09981 20.6436C3.39048 20.5524 2.27729 20.4094 1.39256 19.4233C0.553173 18.5185 0.280088 16.4605 0.280088 16.4605C0.280088 16.4605 0 14.0455 0 11.6279V9.36337C0 6.9475 0.280088 4.53162 0.280088 4.53162C0.280088 4.53162 0.554048 2.47275 1.39256 1.56625C2.3571 0.491182 3.42481 0.383051 4.0246 0.322307C4.08775 0.315912 4.1457 0.310043 4.19781 0.303625C8.11554 0 13.993 0 13.993 0H14.0061C14.0061 0 19.8836 0 23.8022 0.303625C23.8543 0.310045 23.9123 0.315917 23.9755 0.322315C24.5754 0.38306 25.6437 0.491227 26.6074 1.56625ZM19.256 10.5L10.5033 15.75V5.25L19.256 10.5Z"/>
    </symbol>
    <symbol viewBox="0 0 24 24" id="instagram">
        <path fill-rule="evenodd" clip-rule="evenodd" d="M6.999 0h10C20.859 0 24 3.14 24 6.999v10C24 20.859 20.86 24 17.001 24h-10C3.141 24 0 20.86 0 17.001v-10C0 3.141 3.14 0 6.999 0ZM6 12c0 3.309 2.691 6 6 6s6-2.691 6-6-2.691-6-6-6-6 2.691-6 6Zm13.5-5a1.5 1.5 0 1 1 .001-3.001A1.5 1.5 0 0 1 19.5 7ZM12 15a3 3 0 1 0 0-6 3 3 0 0 0 0 6Z"/>
    </symbol>
    <symbol viewBox="0 0 29 19" id="be">
        <path fill-rule="evenodd" clip-rule="evenodd" d="M14.744 4.955c0 3.328-2.8 3.54-2.8 3.54 3.645 0 3.442 4.504 3.437 4.617v.002c0 5.678-5.83 5.492-5.83 5.492H0V0H9.551c2.903 0 5.193 1.625 5.193 4.955Zm3.87-3.86h7.57v2.292h-7.57V1.096ZM15.51 11.884s-.006-7.15 7.052-7.15c7.363 0 6.406 7.934 6.389 8.075v.002H19.44c0 3.456 3.23 3.238 3.23 3.238 3.05 0 2.942-2.001 2.942-2.001h3.231c0 5.311-6.28 4.948-6.28 4.948-7.537 0-7.053-7.112-7.053-7.112Zm7.123-4.424c-2.835 0-3.23 2.868-3.23 2.868h6.029s.038-2.868-2.799-2.868ZM8.863 3.307h.687s1.299 0 1.299 1.935c0 1.936-.764 2.217-1.63 2.217H4.208V3.307h4.655ZM9.021 15.3c.072 0 .16.002.26-.001.76-.016 2.205-.24 2.205-2.418 0-2.58-1.935-2.554-1.935-2.554H4.208V15.3h4.813Z"/>
    </symbol>
    <symbol viewBox="0 0 165 34" id="showreel">
        <path fill-rule="evenodd" clip-rule="evenodd" d="M78.664 23.197c-1.261.682-2.676 1.023-4.246 1.023-1.57 0-2.984-.341-4.246-1.023a7.576 7.576 0 0 1-2.97-2.838c-.718-1.21-1.078-2.563-1.078-4.06 0-1.495.36-2.848 1.078-4.058a7.577 7.577 0 0 1 2.97-2.838c1.262-.682 2.677-1.023 4.246-1.023 1.57 0 2.985.34 4.246 1.023a7.6 7.6 0 0 1 2.97 2.827c.719 1.202 1.078 2.56 1.078 4.07 0 1.51-.36 2.867-1.078 4.07a7.6 7.6 0 0 1-2.97 2.827ZM62.956 8.6V24H43.178V8.6h2.816v12.98h5.676V8.6h2.816v12.98h5.654V8.6h2.816Zm11.462 13.112c-1.026 0-1.95-.231-2.772-.693a5.013 5.013 0 0 1-1.936-1.936c-.47-.829-.704-1.756-.704-2.783s.235-1.955.704-2.783a5.013 5.013 0 0 1 1.936-1.936c.822-.462 1.746-.693 2.772-.693 1.027 0 1.95.23 2.772.693a5.011 5.011 0 0 1 1.936 1.936c.47.829.704 1.756.704 2.783 0 1.026-.234 1.954-.704 2.783a5.012 5.012 0 0 1-1.936 1.936c-.821.462-1.745.693-2.772.693Zm15.345 1.793a4.641 4.641 0 0 1-2.65.825 5.677 5.677 0 0 1-2.267-.484l.704-2.244c.602.19 1.1.286 1.496.286.924 0 1.687-.477 2.288-1.43l.242-.374L83.438 8.6h3.058l4.554 9.042L95.736 8.6h2.816l-6.688 12.43c-.586 1.1-1.287 1.925-2.1 2.475Zm13.629.495v-4.444h3.476c1.335 0 2.497-.22 3.487-.66.99-.44 1.749-1.075 2.277-1.903.528-.829.792-1.8.792-2.915 0-1.13-.264-2.105-.792-2.926-.528-.821-1.287-1.452-2.277-1.892-.99-.44-2.152-.66-3.487-.66h-6.336V24h2.86Zm0-6.864h3.344c1.247 0 2.193-.264 2.838-.792.646-.528.968-1.284.968-2.266 0-.983-.322-1.738-.968-2.266-.645-.528-1.591-.792-2.838-.792h-3.344v6.116ZM118.814 24l8.272-10.912V24h2.816V8.6h-2.662l-8.272 10.934V8.6h-2.816V24h2.662Zm17.512-.825c-.616.697-1.466 1.045-2.552 1.045-.381 0-.902-.073-1.562-.22l.198-2.486c.191.059.411.088.66.088.895 0 1.529-.532 1.903-1.595.374-1.064.605-2.74.693-5.027l.22-6.38h11.33V24H144.4V11.02h-6.072l-.132 3.85c-.073 2.156-.249 3.905-.528 5.247-.278 1.342-.726 2.361-1.342 3.058ZM160.249 0a4 4 0 0 1 4 4v8h-3V4a1 1 0 0 0-.883-.993L160.249 3h-8V0h8ZM3 30v-8H0v8a4 4 0 0 0 4 4h8v-3H4l-.117-.007A1 1 0 0 1 3 30Zm161.249 0v-8h-3v8l-.007.117a1 1 0 0 1-.876.876l-.117.007h-8v3h8l.2-.005a4 4 0 0 0 3.8-3.995ZM12 3V0H4l-.2.005A4 4 0 0 0 0 4v8h3V4l.007-.117a1 1 0 0 1 .876-.876L4 3h8ZM31 17l-14 7V10l14 7Z"/>
    </symbol>
    <symbol viewBox="0 0 43 34" id="showreel-min">
        <path fill-rule="evenodd" d="M39 0a4 4 0 0 1 4 4v8h-3V4a1 1 0 0 0-.883-.993L39 3h-8V0h8ZM3 30v-8H0v8a4 4 0 0 0 4 4h8v-3H4l-.117-.007A1 1 0 0 1 3 30Zm40 0v-8h-3v8l-.007.117a1 1 0 0 1-.876.876L39 31h-8v3h8l.2-.005A4 4 0 0 0 43 30ZM12 3V0H4l-.2.005A4 4 0 0 0 0 4v8h3V4l.007-.117a1 1 0 0 1 .876-.876L4 3h8ZM31 17l-14 7V10l14 7Z" clip-rule="evenodd"/>
    </symbol>
    <symbol viewBox="0 0 23 14" id="arrow">
        <path fill-rule="evenodd" d="M22.4 6.296H2.788L9.098 0H6.997L0 6.995 6.997 14h2.1L2.789 7.7H22.4V6.296Z" clip-rule="evenodd"/>
    </symbol>
</svg>