<svg width="28" height="28" fill="none" xmlns="http://www.w3.org/2000/svg"><mask id="a" maskUnits="userSpaceOnUse" x="0" y="0" width="28" height="28" fill="#000"><path fill="#fff" d="M0 0h28v28H0z"/><path fill-rule="evenodd" clip-rule="evenodd" d="M5.513 5.513c-4.684 4.684-4.684 12.29 0 16.974 4.684 4.684 12.29 4.684 16.974 0 4.684-4.684 4.684-12.29 0-16.974-4.684-4.684-12.29-4.684-16.974 0Zm5.023 17.365-.18.612-.186-.063a10.015 10.015 0 0 1-1.767-.932l-.481-.353.526-.75.041-1.736-.33-1.407-1.612-1.24-.35-.868.142-1.178.703-.97-.558-.62-.33-.043-.62-.702-.35-.848-.457-.39-.267-.456.147-.83.387-.83a10.145 10.145 0 0 1 1.813-2.461 10.14 10.14 0 0 1 7.191-2.977l.588.027.02.313-.64.31-.598.455-.084.207-.393-.268.021-.476-.992.206-.433.66.37.994.125.579-.806-.207-.206-.125-.517.683-1.88.763-1.2 1.261-.309.6-.042.373-.35-.911-.394-.041-.763.579-.332 1.197.745.146.082-.062-.207.765-.227.309.517.973 1.303-.209.412.064 1.26.268.724.785.95.599 1.199 1.054 1.715.29.724.289-.145.828-.331.577-.598 2.046-1.304 1.116-.785 1.241-.681.784Zm10.909-1.966.441-.49a10.182 10.182 0 0 0 1.116-11.148l-.48-.814v.22l-.31.25-.414-.145-.495.27-.434-.395-.31-.392-.477-.062-1.094.33-.599.145-.125.827-.703 1.178.145 1.674.95 1.528 1.385.352 1.468-.062.642.393.123.558.186.91-.517 1.466-.104 1.901-.455 1.323-.123.125.184.058ZM22.48 8.474l-.288.125-.538-.393-.62-.475-.185.247-.744-.102-.043-.682-.434-.27-.579.621-.29.702-.846.02-.331-.66.54-.392.308-.456-.62-.331.332-.35.102-.393-.123-.145-.331-.392-.58-.228-.376-.681.06.016a10.11 10.11 0 0 1 4.992 3.33l.604.818-.01.071Z"/></mask><path fill-rule="evenodd" clip-rule="evenodd" d="M5.513 5.513c-4.684 4.684-4.684 12.29 0 16.974 4.684 4.684 12.29 4.684 16.974 0 4.684-4.684 4.684-12.29 0-16.974-4.684-4.684-12.29-4.684-16.974 0Zm5.023 17.365-.18.612-.186-.063a10.015 10.015 0 0 1-1.767-.932l-.481-.353.526-.75.041-1.736-.33-1.407-1.612-1.24-.35-.868.142-1.178.703-.97-.558-.62-.33-.043-.62-.702-.35-.848-.457-.39-.267-.456.147-.83.387-.83a10.145 10.145 0 0 1 1.813-2.461 10.14 10.14 0 0 1 7.191-2.977l.588.027.02.313-.64.31-.598.455-.084.207-.393-.268.021-.476-.992.206-.433.66.37.994.125.579-.806-.207-.206-.125-.517.683-1.88.763-1.2 1.261-.309.6-.042.373-.35-.911-.394-.041-.763.579-.332 1.197.745.146.082-.062-.207.765-.227.309.517.973 1.303-.209.412.064 1.26.268.724.785.95.599 1.199 1.054 1.715.29.724.289-.145.828-.331.577-.598 2.046-1.304 1.116-.785 1.241-.681.784Zm10.909-1.966.441-.49a10.182 10.182 0 0 0 1.116-11.148l-.48-.814v.22l-.31.25-.414-.145-.495.27-.434-.395-.31-.392-.477-.062-1.094.33-.599.145-.125.827-.703 1.178.145 1.674.95 1.528 1.385.352 1.468-.062.642.393.123.558.186.91-.517 1.466-.104 1.901-.455 1.323-.123.125.184.058ZM22.48 8.474l-.288.125-.538-.393-.62-.475-.185.247-.744-.102-.043-.682-.434-.27-.579.621-.29.702-.846.02-.331-.66.54-.392.308-.456-.62-.331.332-.35.102-.393-.123-.145-.331-.392-.58-.228-.376-.681.06.016a10.11 10.11 0 0 1 4.992 3.33l.604.818-.01.071Z" fill="#fff"/><path d="m5.513 22.487-1.415 1.414 1.415-1.414Zm0-16.974L4.099 4.098l1.414 1.415Zm16.974 16.974 1.414 1.415-1.414-1.415Zm0-16.974 1.415-1.414-1.415 1.414ZM10.357 23.49l-.638 1.895 1.97.663.586-1.994-1.919-.564Zm.179-.612-1.51-1.312-.286.33-.123.418 1.919.564Zm-.366.549-.754 1.852.058.024.059.02.637-1.896Zm-1.767-.932-1.184 1.612.038.028.04.026 1.106-1.666Zm-.481-.353-1.638-1.149-1.124 1.603 1.578 1.158 1.184-1.612Zm.526-.75 1.637 1.148.348-.496.014-.605-1.999-.047Zm.041-1.736 2 .047.006-.256-.059-.25-1.947.459Zm-.33-1.407 1.946-.458-.163-.693-.564-.433-1.22 1.584Zm-1.612-1.24-1.854.748.203.504.43.332 1.221-1.585Zm-.35-.868-1.986-.24-.062.512.193.477 1.855-.749Zm.142-1.178-1.62-1.173-.304.42-.062.514 1.986.24Zm.703-.97 1.62 1.173.949-1.31-1.083-1.203-1.486 1.34Zm-.558-.62 1.485-1.339-.494-.549-.732-.095-.26 1.983Zm-.33-.043-1.499 1.324.497.562.744.097.258-1.983Zm-.62-.702-1.847.767.128.307.22.25 1.5-1.324Zm-.35-.848 1.846-.766-.182-.44-.362-.31-1.303 1.517Zm-.457-.39-1.724 1.013.17.287.251.216 1.303-1.517Zm-.267-.456-1.97-.351-.13.728.376.637 1.724-1.014Zm.147-.83-1.813-.843-.11.236-.045.256 1.968.351Zm.387-.83-1.771-.93-.022.043-.02.043 1.813.844Zm1.813-2.461L5.393 5.397l1.414 1.415Zm7.191-2.977.091-1.998-.045-.002h-.046v2Zm.588.027 1.996-.131-.117-1.786-1.788-.081-.09 1.998Zm.02.313.873 1.8 1.212-.587-.088-1.343-1.996.13Zm-.64.31-.872-1.8-.178.087-.157.12 1.208 1.594Zm-.598.455-1.209-1.594-.44.334-.207.513 1.856.747Zm-.084.207L12.157 6.8l2.054 1.4.928-2.305-1.855-.747Zm-.393-.268-1.998-.089-.05 1.113.921.628 1.127-1.652Zm.021-.476 1.998.088.114-2.57-2.518.523.406 1.959Zm-.992.206-.407-1.959-.811.169-.454.693L11.92 4.61Zm-.433.66L9.814 4.175l-.555.847.354.949 1.874-.7Zm.37.994 1.956-.42-.03-.143-.052-.136-1.874.699Zm.125.579-.498 1.937 3.133.804-.68-3.162-1.955.42Zm-.806-.207-1.034 1.712.252.152.284.073.498-1.937Zm-.206-.125L12.003 4.8l-1.54-.93-1.087 1.434 1.594 1.208Zm-.517.683.752 1.853.51-.207.332-.438-1.594-1.208Zm-1.88.763L7.82 6.104l-.4.162-.296.313 1.449 1.378Zm-1.2 1.261L5.924 7.84l-.197.207-.131.254 1.777.917Zm-.309.6L5.287 8.9l-.169.326-.041.365 1.987.226Zm-.042.373-1.867.717 3.854-.49-1.987-.227Zm-.35-.911 1.867-.717-.44-1.146-1.22-.127-.207 1.99Zm-.394-.041.206-1.99-.785-.081-.63.477L6.278 9.24Zm-.763.579L4.306 8.224l-.539.409-.18.651 1.928.534Zm-.332 1.197-1.927-.533-.576 2.082 2.12.414.383-1.963Zm.745.146-.384 1.963.875.17.712-.536-1.203-1.597Zm.082-.062 1.93.522 1.52-5.625-4.654 3.506 1.204 1.597Zm-.207.765 1.612 1.184.221-.301.098-.361-1.93-.522Zm-.227.309-1.612-1.184-.744 1.013.59 1.11 1.766-.939Zm.517.973-1.766.939.671 1.261 1.41-.225-.315-1.975Zm1.303-.209.303-1.976-.31-.048-.31.05.317 1.974Zm.412.064.417-1.957-.057-.011-.057-.01-.303 1.978Zm1.26.268 1.47-1.356-.431-.468-.623-.132-.416 1.956Zm.724.785-1.47 1.355.18.195.224.142 1.066-1.692Zm.95.599 1.322-1.502-.12-.105-.135-.085-1.066 1.692Zm1.199 1.054L10.62 17.21l.427.376.562.095.332-1.973Zm1.715.29.744-1.857-.2-.08-.211-.036-.333 1.972Zm.724.289 1.97.345.28-1.598-1.507-.604-.743 1.857Zm-.145.828 1.735.994.174-.304.06-.345-1.97-.345Zm-.331.577-1.736-.994-.117.206-.067.227 1.92.561Zm-.598 2.046 1.3 1.52.453-.387.167-.572-1.92-.56Zm-1.304 1.116-1.3-1.519-.229.196-.16.254 1.69 1.07Zm-.785 1.241 1.51 1.312.1-.114.08-.129-1.69-1.069Zm10.67-1.672 1.486 1.337.033-.036.03-.038-1.55-1.263Zm-.442.49-.609 1.905 1.231.394.864-.961-1.486-1.338Zm1.557-11.638 1.77-.931-.023-.044-.025-.043-1.722 1.018Zm-.48-.814 1.72-1.018-3.72-6.292v7.31h2Zm0 .22 1.255 1.557.744-.6V8.68h-2Zm-.31.25-.661 1.888 1.05.368.867-.7-1.256-1.556Zm-.414-.145.661-1.888-.838-.294-.78.426.957 1.756Zm-.495.27-1.346 1.48 1.053.957 1.25-.681-.957-1.756Zm-.434-.395-1.57 1.24.103.13.121.11 1.346-1.48Zm-.31-.392 1.569-1.24-.506-.64-.809-.104-.254 1.984Zm-.477-.062.255-1.983-.423-.055-.408.123.576 1.915Zm-1.094.33.47 1.944.054-.013.052-.016-.576-1.915Zm-.599.145-.47-1.944-1.307.316-.2 1.33 1.977.298Zm-.125.827 1.718 1.026.201-.338.06-.39-1.979-.298Zm-.703 1.178-1.717-1.025-.331.555.056.643 1.992-.173Zm.145 1.674-1.992.173.04.477.254.407 1.698-1.057Zm.95 1.528-1.697 1.057.425.684.78.198.493-1.939Zm1.385.352-.492 1.938.284.072.292-.012-.084-1.998Zm1.468-.062 1.043-1.706-.52-.317-.607.025.084 1.998Zm.642.393 1.954-.429-.183-.833-.728-.445-1.043 1.707Zm.123.558 1.959-.4-.003-.015-.003-.014-1.953.43Zm.186.91 1.886.664.184-.522-.11-.543-1.96.4Zm-.517 1.466-1.887-.665-.095.27-.015.286 1.997.109Zm-.104 1.901 1.891.65.09-.263.016-.277-1.997-.11Zm-.455 1.323 1.422 1.407.322-.325.148-.433-1.892-.649Zm-.123.125-1.421-1.407-2.294 2.319 3.107.993.608-1.905Zm.93-12.255-1.178 1.615.922.674 1.05-.453-.793-1.836Zm.29-.125.792 1.837 1.038-.448.151-1.12-1.982-.269Zm-.827-.268-1.217 1.588.019.014.019.014 1.179-1.616Zm-.62-.475 1.217-1.587-1.599-1.225-1.214 1.607 1.597 1.205Zm-.185.247-.27 1.981 1.16.158.706-.934-1.596-1.205Zm-.744-.102-1.997.125.102 1.636 1.625.221.27-1.982Zm-.043-.682 1.996-.124-.064-1.03-.876-.545-1.056 1.699Zm-.434-.27 1.057-1.698-1.398-.87-1.122 1.205 1.463 1.363Zm-.579.621-1.463-1.363-.247.265-.138.335 1.848.763Zm-.29.702.049 2 1.302-.032.498-1.204-1.849-.764Zm-.846.02-1.788.897.568 1.133 1.268-.03-.048-2Zm-.331-.66L16.405 5.99l-1.371.998.76 1.516 1.788-.897Zm.54-.392 1.176 1.617.283-.206.196-.29-1.656-1.121Zm.308-.456 1.656 1.122 1.246-1.84-1.96-1.046-.942 1.764Zm-.62-.331-1.453-1.375-1.8 1.904 2.31 1.235.943-1.764Zm.332-.35 1.453 1.374.352-.373.13-.496-1.935-.506Zm.102-.393 1.935.505.264-1.008-.675-.793-1.524 1.296Zm-.123-.145-1.529 1.29.006.006L18.12 5.54Zm-.331-.392 1.529-1.29-.328-.388-.472-.185-.729 1.863Zm-.58-.228-1.753.965.35.634.673.264.73-1.863Zm-.376-.681.506-1.935-4.5-1.175 2.242 4.075 1.752-.965Zm.06.016.567-1.918-.03-.01-.031-.007-.505 1.935Zm4.295 2.557 1.414-1.414-1.414 1.414Zm.697.773 1.61-1.187-.028-.037-.029-.036-1.553 1.26Zm.604.818 1.982.268.108-.803-.48-.652-1.61 1.187ZM6.927 21.073c-3.903-3.903-3.903-10.243 0-14.146L4.098 4.099c-5.464 5.465-5.464 14.337 0 19.802l2.83-2.828Zm14.146 0c-3.903 3.903-10.243 3.903-14.146 0l-2.828 2.829c5.465 5.464 14.337 5.464 19.802 0l-2.828-2.83Zm0-14.146c3.903 3.903 3.903 10.243 0 14.146l2.829 2.828c5.464-5.465 5.464-14.337 0-19.802l-2.83 2.828Zm-14.146 0c3.903-3.903 10.243-3.903 14.146 0l2.828-2.829c-5.465-5.464-14.337-5.464-19.802 0l2.828 2.83Zm5.348 17.127.18-.612-3.838-1.128-.18.612 3.838 1.128Zm-2.742 1.269.186.062 1.274-3.791-.186-.063-1.274 3.792ZM7.296 24.16c.679.45 1.39.821 2.12 1.118l1.508-3.704a8.012 8.012 0 0 1-1.415-.746L7.296 24.16Zm-.558-.407.481.353 2.367-3.224-.48-.353-2.368 3.224Zm.073-3.51-.527.75L9.56 23.29l.527-.75-3.275-2.297Zm-.32-.636-.042 1.736 3.998.095.042-1.736-3.999-.095Zm-.28-.9.332 1.406 3.893-.917-.331-1.406-3.894.917Zm-.884-.115 1.61 1.24 2.441-3.168-1.61-1.241-2.441 3.169Zm-.985-1.703.35.867 3.71-1.498-.35-.867-3.71 1.498Zm.011-2.166-.142 1.178 3.971.479.142-1.178-3.97-.48Zm1.07-1.905-.704.97 3.24 2.348.703-.971-3.24-2.347Zm-.425 1.893.558.62 2.972-2.679-.559-.619L5 14.712Zm.898.601.329.043.518-3.966-.33-.043-.517 3.966Zm-1.86-1.36.62.7 2.998-2.647-.62-.702-2.998 2.648Zm-.7-1.406.351.848 3.695-1.533-.352-.848-3.694 1.533Zm.088.36.456.39 2.606-3.034-.456-.391-2.606 3.034Zm-.688-.96.267.456 3.448-2.028-.268-.455-3.447 2.028Zm-.097-2.194-.148.83 3.937.702.148-.83-3.937-.702ZM3.18 8.43l-.386.831 3.627 1.687.386-.831L3.18 8.43Zm2.213-3.032a12.145 12.145 0 0 0-2.17 2.946l3.542 1.86a8.146 8.146 0 0 1 1.457-1.977L5.393 5.398Zm8.605-3.562a12.14 12.14 0 0 0-8.605 3.562l2.829 2.829a8.14 8.14 0 0 1 5.776-2.391v-4Zm.679.029-.588-.027-.181 3.996.588.027.18-3.996Zm1.925 2.18-.02-.313-3.992.261.021.314 3.991-.261ZM14.84 6.287l.64-.31-1.745-3.6-.64.31 1.745 3.6Zm-.263.249.599-.455-2.416-3.187-.6.454 2.417 3.188Zm.563-.64.084-.207-3.71-1.494-.084.207 3.71 1.494Zm-3.375.637.393.268 2.254-3.305-.393-.268-2.254 3.305Zm-.85-2.217-.02.476 3.995.177.021-.476-3.996-.177Zm1.413 2.253.992-.206-.814-3.917-.992.206.814 3.917Zm.832-.2.433-.662-3.344-2.193-.434.66 3.345 2.194Zm.572-.803-.37-.994L9.613 5.97l.37.993 3.748-1.398Zm.206.857-.124-.579-3.911.841.124.579 3.911-.84Zm-3.258 2.15.805.208.995-3.875-.806-.206-.995 3.874Zm-.743-.348.206.124 2.068-3.425-.207-.124-2.067 3.425Zm2.11.178.518-.683-3.188-2.416-.517.683 3.188 2.416ZM9.327 9.81l1.88-.763L9.7 5.34l-1.88.763L9.325 9.81Zm-.503.787 1.199-1.262L7.124 6.58l-1.2 1.26 2.899 2.758Zm.019.138.309-.6-3.555-1.834-.31.6 3.556 1.834Zm.167-.318.042-.373-3.974-.452-.042.373 3.974.452Zm-4.204-.42.35.911 3.734-1.434-.35-.911-3.734 1.434Zm1.267 1.231.393.041.413-3.979-.394-.04-.412 3.978Zm.651.183.764-.579-2.418-3.187-.763.58 2.417 3.186Zm.388.138.331-1.198-3.855-1.067-.331 1.198L7.11 11.55Zm-.8-2.35-.744-.146-.767 3.925.744.146.767-3.926Zm-1.505.303-.082.061 2.407 3.195.082-.061-2.407-3.195Zm2.928 2.883.207-.764-3.862-1.044-.207.765 3.862 1.043Zm-.546.972.227-.309-3.223-2.369-.228.31 3.224 2.368Zm.671-1.15-.517-.973-3.532 1.878.517.973 3.532-1.878Zm-.78-1.245-1.302.209.632 3.95 1.302-.209-.631-3.95Zm1.032.062L7.7 10.96l-.606 3.953.412.064.606-3.954Zm1.373.289-1.26-.269-.832 3.913 1.26.268.832-3.912Zm1.778 1.385-.724-.785-2.94 2.712.724.784 2.94-2.711Zm.547.263-.95-.6-2.133 3.385.95.599 2.133-3.384Zm1.453 1.245-1.198-1.055-2.643 3.003 1.199 1.055 2.642-3.003Zm.727-.182-1.716-.289-.664 3.945 1.715.288.665-3.944Zm1.134.405-.723-.29-1.487 3.714.723.29 1.487-3.714Zm1.082 3.03.145-.828-3.94-.69-.146.828 3.94.69Zm-.565 1.226.33-.577L12.5 16.12l-.33.577 3.47 1.988Zm-.414 1.613.598-2.046-3.84-1.122-.598 2.046 3.84 1.122Zm-1.923 2.075 1.304-1.116-2.601-3.039-1.304 1.116 2.601 3.039Zm-.395.79.785-1.24-3.38-2.139-.786 1.24 3.38 2.14Zm-.862 1.027.68-.784-3.018-2.624-.681.784 3.019 2.624Zm8.353-5.106-.44.49 2.973 2.676.44-.49-2.973-2.676Zm.833-8.88a8.182 8.182 0 0 1-.896 8.954l3.1 2.527c3.12-3.828 3.565-9.104 1.336-13.342l-3.54 1.861Zm-.432-.726.48.814 3.444-2.036-.482-.814L20.8 9.478Zm3.721-.797v-.22h-4v.22h4Zm-1.053 1.805.31-.25-2.513-3.112-.31.25 2.513 3.112Zm-2.332.186.415.146 1.323-3.775-.415-.146-1.323 3.775Zm1.124.139.495-.27-1.915-3.512-.495.27 1.915 3.512Zm-2.737-.671.434.394 2.691-2.959-.433-.394-2.692 2.959Zm-.533-.632.31.392 3.138-2.48-.31-.393-3.138 2.48Zm.838.682.476.061.51-3.967-.477-.061-.51 3.967Zm-.264.26 1.095-.328-1.153-3.83-1.094.329 1.152 3.83Zm-.704.175.599-.145-.941-3.888-.6.145.942 3.888Zm1.382-.819.125-.827-3.956-.596-.124.827 3.955.596Zm-.964 1.906.704-1.178-3.435-2.05-.703 1.177 3.434 2.05Zm.42.476-.144-1.674-3.985.345.144 1.674 3.986-.345Zm.657.644-.95-1.528-3.397 2.113.95 1.528 3.397-2.113Zm.178-.53-1.384-.352-.985 3.877 1.385.351.985-3.876Zm.892-.122-1.468.062.168 3.996 1.468-.061-.168-3.997Zm1.77.684-.643-.392-2.086 3.413.642.392 2.086-3.413Zm1.032 1.836-.122-.558-3.907.858.122.558 3.907-.858Zm.192.938-.186-.91-3.919.802.186.91 3.92-.802Zm-.59 2.532.517-1.467-3.773-1.33-.517 1.467 3.773 1.33Zm.007 1.345.104-1.9-3.994-.22-.104 1.902 3.994.218Zm-.56 1.863.454-1.323-3.783-1.298-.454 1.323 3.783 1.299Zm-.593.882.123-.124-2.843-2.813-.123.124 2.843 2.813Zm-.63-3.253-.183-.059-1.218 3.81.184.06 1.218-3.81Zm.931-8.572.289-.124-1.585-3.673-.288.124 1.584 3.673Zm-2.509-.613.538.392 2.358-3.23-.538-.393-2.358 3.23Zm-.657-.503.62.475 2.433-3.175-.62-.475-2.433 3.175Zm2.627-.136.186-.247-3.193-2.41-.186.247 3.193 2.41Zm-2.61.675.744.101.54-3.963-.745-.101-.539 3.963Zm-1.77-2.54.043.683 3.993-.249-.043-.682-3.992.248Zm.507 1.304.434.27 2.112-3.397-.433-.27-2.113 3.397Zm1.94.287.58-.622-2.927-2.726-.579.621 2.927 2.727Zm.096.102.29-.702L17.2 6.782l-.29.701 3.697 1.528Zm-2.647 1.256.847-.02-.096-4-.847.02.096 4Zm-2.167-1.763.331.66 3.576-1.793-.331-.66-3.576 1.793Zm1.15-2.907-.54.393 2.355 3.234.539-.392-2.354-3.235Zm-.17.04-.309.455 3.312 2.245.309-.456-3.311-2.244Zm.094 2.555.62.33 1.884-3.527-.62-.331-1.884 3.528Zm-.18-3.489-.33.35 2.905 2.749.332-.35-2.906-2.749Zm-.379.476-.102.393 3.87 1.01.102-.392-3.87-1.01Zm.289 1.657.123.145 3.047-2.592-.123-.145-3.047 2.592Zm-.337-.399.331.393 3.058-2.58-.331-.392-3.058 2.58Zm.22.346.58.227 1.458-3.725-.58-.227-1.459 3.725Zm-1.399-1.58.375.682 3.505-1.93-.376-.68-3.504 1.929ZM17.4 2.32l-.06-.016-1.01 3.87.06.016 1.01-3.87Zm5.203 3.078a12.11 12.11 0 0 0-5.142-3.061l-1.133 3.836a8.11 8.11 0 0 1 3.447 2.054l2.828-2.829Zm.836.927a11.987 11.987 0 0 0-.836-.927l-2.828 2.829c.2.2.385.405.558.618l3.106-2.52Zm.66.89-.604-.817-3.218 2.375.604.818 3.218-2.375Zm.363 1.528.01-.072-3.964-.536-.01.071 3.964.537Z" fill="#5B5FA7" mask="url(#a)"/></svg>