<svg width="19" height="18" fill="none" xmlns="http://www.w3.org/2000/svg"><mask id="a" maskUnits="userSpaceOnUse" x="0" y="-.5" width="19" height="19" fill="#000"><path fill="#fff" d="M0-.5h19v19H0z"/><path fill-rule="evenodd" clip-rule="evenodd" d="M6.437 4.338 9.5 1.5 17 8.858l-3.063 3.121-1.096-1.116 1.967-2.005L9.5 3.451 7.533 5.454 6.437 4.338Zm-1.374 1.4L2 8.857 9.5 16.5l3.063-3.121-1.096-1.117L9.5 14.267 4.192 8.858 6.16 6.854 5.063 5.737ZM6.587 8.83l2.94 2.94 2.886-2.885-2.94-2.94L6.587 8.83Z"/></mask><path fill-rule="evenodd" clip-rule="evenodd" d="M6.437 4.338 9.5 1.5 17 8.858l-3.063 3.121-1.096-1.116 1.967-2.005L9.5 3.451 7.533 5.454 6.437 4.338Zm-1.374 1.4L2 8.857 9.5 16.5l3.063-3.121-1.096-1.117L9.5 14.267 4.192 8.858 6.16 6.854 5.063 5.737ZM6.587 8.83l2.94 2.94 2.886-2.885-2.94-2.94L6.587 8.83Z" fill="#fff"/><path d="m9.5 1.5.7-.714-.68-.668-.7.648.68.734ZM6.437 4.338l-.68-.734-.755.7.721.735.714-.701ZM17 8.858l.714.701.7-.714-.714-.7-.7.713Zm-3.063 3.121-.714.7.714.728.713-.727-.713-.7Zm-1.096-1.116-.714-.7-.687.7.687.7.714-.7Zm1.967-2.005.713.7.688-.7-.688-.7-.713.7ZM9.5 3.451l.714-.7-.714-.728-.714.727.714.7ZM7.533 5.454l-.714.701.714.727.714-.727-.714-.7ZM2 8.858l-.714-.7-.687.7.687.701.714-.7Zm3.063-3.12.714-.7-.714-.728-.713.727.713.7ZM9.5 16.5l-.714.7.714.728.714-.727L9.5 16.5Zm3.063-3.121.714.7.688-.7-.688-.7-.714.7Zm-1.096-1.117.714-.7-.714-.727-.714.727.714.7ZM9.5 14.267l-.714.7.714.727.714-.727-.714-.7ZM4.192 8.858l-.714-.7-.687.7.688.701.713-.7ZM6.16 6.854l.714.7.687-.7-.687-.7-.714.7Zm3.368 4.916-.707.707.707.707.707-.707-.707-.707Zm-2.94-2.94-.707-.707-.707.707.707.707.707-.707Zm5.826.055.707.707.707-.707-.707-.707-.707.707Zm-2.94-2.94.707-.707-.707-.707-.707.707.707.707ZM8.82.766 5.757 3.604l1.36 1.468 3.063-2.838L8.82.766Zm8.88 7.379L10.2.786 8.8 2.214l7.5 7.358 1.4-1.427Zm-3.05 4.535 3.064-3.121-1.428-1.401-3.063 3.121 1.427 1.4Zm-2.523-1.117 1.096 1.117 1.428-1.4-1.096-1.118-1.428 1.401Zm1.967-3.405-1.967 2.004 1.428 1.401L15.52 9.56l-1.427-1.401ZM8.786 4.151l5.308 5.408 1.428-1.401-5.308-5.408-1.428 1.401Zm-.54 2.004 1.968-2.004L8.786 2.75 6.82 4.754l1.428 1.401ZM5.724 5.039 6.82 6.155l1.428-1.401L7.15 3.637 5.723 5.04Zm-3.01 4.52 3.064-3.121L4.35 5.037 1.286 8.158l1.428 1.401Zm7.5 6.24-7.5-7.641-1.427 1.401 7.5 7.642 1.428-1.402Zm1.637-3.12-3.064 3.12 1.428 1.402 3.063-3.122-1.427-1.4Zm-1.097.284 1.097 1.117 1.427-1.402-1.096-1.116-1.428 1.401Zm-.54 2.004 1.968-2.004-1.428-1.401-1.967 2.004 1.428 1.401ZM3.48 9.559l5.307 5.408 1.428-1.401-5.308-5.408-1.427 1.401Zm1.966-3.405L3.478 8.158l1.428 1.4 1.967-2.003-1.428-1.401Zm-1.096.284 1.096 1.117 1.428-1.401-1.096-1.117-1.428 1.4Zm5.885 4.625-2.94-2.94L5.88 9.537l2.94 2.94 1.414-1.414Zm1.472-2.885L8.82 11.063l1.414 1.414 2.886-2.885-1.414-1.414Zm-2.94-1.526 2.94 2.94 1.414-1.414-2.94-2.94-1.414 1.414ZM7.294 9.537l2.886-2.885-1.414-1.414L5.88 8.123l1.414 1.414Z" fill="#5B5FA7" mask="url(#a)"/></svg>