<svg width="86" height="57" fill="none" xmlns="http://www.w3.org/2000/svg"><g clip-path="url(#a)"><path fill-rule="evenodd" clip-rule="evenodd" d="M65 21.322c0 3.98-1.1 7.706-3.014 10.894h.036l-.188.249a21.42 21.42 0 0 1-2.368 3.137L43.315 57 27.49 35.554A21.144 21.144 0 0 1 22 21.322C22 9.546 31.626 0 43.5 0S65 9.546 65 21.322Zm-21.5 8.884c4.947 0 8.958-3.978 8.958-8.884 0-4.907-4.01-8.884-8.958-8.884-4.947 0-8.958 3.977-8.958 8.884 0 4.906 4.01 8.884 8.958 8.884Z" fill="#215ECA"/><g filter="url(#b)"><path fill-rule="evenodd" clip-rule="evenodd" d="M44.9 7.089h40.306c.438 0 .794.354.794.791v15.831a.793.793 0 0 1-.794.792H58.584C56.807 30.54 50.544 35 43.089 35c-7.454 0-13.718-4.46-15.495-10.497H.794A.793.793 0 0 1 0 23.711V7.881c0-.438.356-.792.794-.792h40.485a18.458 18.458 0 0 1 3.62 0Z" fill="url(#c)"/><path d="M11.155 11.758v6.05h-1.107v-5.1H7.663l-.052 1.513c-.028.847-.098 1.534-.207 2.06-.11.528-.285.928-.527 1.202-.242.274-.576.41-1.003.41-.15 0-.354-.028-.613-.086l.078-.976a.885.885 0 0 0 .259.034c.351 0 .6-.209.747-.626.147-.418.238-1.076.273-1.975l.086-2.506h4.45Z" fill="#fff"/><path fill-rule="evenodd" clip-rule="evenodd" d="M17.04 15.846a4.15 4.15 0 0 0 .017-.32c0-.473-.099-.889-.298-1.249a2.111 2.111 0 0 0-.83-.838 2.42 2.42 0 0 0-1.205-.298c-.455 0-.864.1-1.227.302a2.175 2.175 0 0 0-.851.843c-.205.36-.307.764-.307 1.214 0 .455.105.863.315 1.223.21.36.509.64.895.842.386.202.832.303 1.34.303.397 0 .754-.064 1.07-.19.318-.127.58-.314.787-.562l-.579-.665c-.328.334-.746.5-1.253.5-.397 0-.73-.099-.998-.297a1.255 1.255 0 0 1-.497-.808h3.621Zm-3.193-1.534c.239-.205.531-.307.877-.307.351 0 .645.103.881.31.237.208.378.48.424.813h-2.618a1.29 1.29 0 0 1 .436-.816Z" fill="#fff"/><path d="M20.341 17.868c-.478 0-.907-.101-1.287-.303a2.221 2.221 0 0 1-.89-.842 2.354 2.354 0 0 1-.32-1.223c0-.455.106-.861.32-1.219.213-.357.508-.636.885-.838a2.698 2.698 0 0 1 1.292-.302c.455 0 .854.092 1.197.276.343.184.6.45.774.795l-.83.484a1.316 1.316 0 0 0-.497-.48 1.359 1.359 0 0 0-.652-.16c-.404 0-.738.132-1.003.394-.265.262-.397.612-.397 1.05 0 .438.13.788.393 1.05.262.262.598.393 1.007.393.236 0 .453-.053.652-.16.199-.106.364-.266.497-.48l.83.485a1.87 1.87 0 0 1-.782.799c-.343.187-.74.28-1.189.28Z" fill="#fff"/><path fill-rule="evenodd" clip-rule="evenodd" d="M23.988 17.565c.374.202.795.303 1.261.303.473 0 .896-.101 1.27-.303.375-.201.668-.482.878-.842.21-.36.315-.768.315-1.223 0-.455-.105-.861-.315-1.219a2.214 2.214 0 0 0-.877-.838 2.636 2.636 0 0 0-1.27-.302c-.467 0-.888.1-1.262.302a2.213 2.213 0 0 0-.878.838c-.21.358-.315.764-.315 1.219 0 .455.105.863.315 1.223.21.36.503.64.878.842Zm2.246-1.02c-.259.266-.587.398-.985.398-.397 0-.724-.132-.98-.397-.257-.265-.385-.614-.385-1.046 0-.432.128-.78.384-1.046.257-.265.584-.397.981-.397.398 0 .726.132.985.397.26.265.39.614.39 1.046 0 .432-.13.78-.39 1.046Z" fill="#fff"/><path d="M33.2 13.195v4.615h-1.072v-3.699h-2.272v3.7h-1.08v-4.616H33.2ZM34.661 13.195h1.08v3.042l2.55-3.042h.985v4.615h-1.08v-3.042l-2.541 3.042h-.994v-4.615ZM44.91 13.195v4.615h-1.08v-3.699h-1.728l-.043.916c-.03.611-.085 1.122-.169 1.534-.083.412-.225.738-.423.977-.2.239-.471.358-.817.358-.161 0-.36-.031-.596-.095l.052-.907c.08.017.15.026.207.026a.542.542 0 0 0 .493-.264c.109-.175.18-.386.211-.63.032-.245.06-.595.082-1.05l.078-1.78h3.733Z" fill="#fff"/><path fill-rule="evenodd" clip-rule="evenodd" d="M50.03 15.114c-.313-.265-.764-.398-1.352-.398l-1.235-.008v-1.513h-1.08v4.615l2.16.009c.628.006 1.115-.13 1.46-.406.346-.277.519-.669.519-1.176 0-.484-.157-.858-.471-1.123Zm-.876 1.71c-.167.14-.41.205-.726.2l-.985-.009v-1.564l.985.008c.328.006.573.07.734.19.162.122.242.312.242.571 0 .265-.083.467-.25.605ZM58.253 16.894v-3.699h-1.08v3.7h1.08Zm-.345.916v.95h1.01v-1.866h-.665v.916h-.345Zm-.77 0v-.916h-1.736v-3.699h-1.08v3.7h-1.79v-3.7h-1.08v4.615h5.687Z" fill="#fff"/><path d="M59.705 13.195h1.08v3.042l2.55-3.042h.985v4.615h-1.08v-3.042l-2.541 3.042h-.994v-4.615ZM67.69 15.96h-.838v1.85h-1.08v-4.615h1.08v1.867h.864l1.365-1.867h1.158l-1.676 2.221 1.789 2.394h-1.27l-1.392-1.85Z" fill="#fff"/><path fill-rule="evenodd" clip-rule="evenodd" d="M71.752 17.565c.375.202.795.303 1.262.303.472 0 .896-.101 1.27-.303.375-.201.667-.482.877-.842.21-.36.316-.768.316-1.223 0-.455-.105-.861-.316-1.219a2.215 2.215 0 0 0-.877-.838 2.636 2.636 0 0 0-1.27-.302c-.467 0-.887.1-1.262.302a2.214 2.214 0 0 0-.877.838c-.21.358-.315.764-.315 1.219 0 .455.105.863.315 1.223.21.36.503.64.877.842ZM74 16.545c-.26.266-.588.398-.985.398-.398 0-.725-.132-.981-.397s-.385-.614-.385-1.046c0-.432.129-.78.385-1.046.256-.265.583-.397.98-.397.398 0 .727.132.986.397.26.265.389.614.389 1.046 0 .432-.13.78-.389 1.046ZM79.885 15.408c.57.173.855.541.855 1.106 0 .415-.155.734-.467.96-.31.224-.772.336-1.382.336H76.54v-4.615h2.256c.564 0 1.005.104 1.322.311a.994.994 0 0 1 .475.882c0 .236-.062.44-.186.614a1.229 1.229 0 0 1-.522.406Zm-2.317-.285h1.133c.558 0 .838-.193.838-.58 0-.374-.28-.561-.838-.561h-1.133v1.14Zm2.126 1.322c0 .386-.296.579-.89.579h-1.236V15.84h1.27c.295 0 .51.05.649.151.138.1.207.252.207.454Z" fill="#fff"/><path d="M38.33 22.375v6.806h-1.263v-5.746h-1.44v-1.06h2.704Z" fill="#fff"/><path fill-rule="evenodd" clip-rule="evenodd" d="M43.979 25.242a2.742 2.742 0 0 0-1.206-.258 2.9 2.9 0 0 0-1.05.18 1.89 1.89 0 0 0-.768.53v-.01c0-.758.185-1.338.554-1.74.37-.402.882-.603 1.536-.603.526 0 .956.11 1.294.33l.466-.952a2.684 2.684 0 0 0-.802-.326 4.18 4.18 0 0 0-.987-.112c-.66 0-1.242.141-1.745.423A2.898 2.898 0 0 0 40.1 23.94c-.279.541-.418 1.194-.418 1.959 0 1.089.257 1.925.773 2.508.515.584 1.24.875 2.172.875.467 0 .888-.09 1.264-.272.376-.181.674-.44.895-.773.22-.334.33-.721.33-1.162 0-.415-.1-.78-.301-1.098a1.984 1.984 0 0 0-.836-.734Zm-.457 2.732c-.246.21-.567.316-.963.316-.44 0-.785-.109-1.035-.326a1.043 1.043 0 0 1-.374-.822c0-.337.128-.615.384-.836.256-.22.588-.33.996-.33.415 0 .746.103.992.31.246.208.37.49.37.847 0 .35-.124.63-.37.84ZM47.159 28.868c.428.276.914.413 1.458.413.545 0 1.032-.137 1.463-.413.431-.275.77-.677 1.016-1.205.247-.529.37-1.156.37-1.882s-.123-1.353-.37-1.881c-.246-.528-.585-.93-1.016-1.206a2.66 2.66 0 0 0-1.463-.413c-.544 0-1.03.138-1.458.413-.428.276-.765.678-1.011 1.206-.247.528-.37 1.155-.37 1.881s.123 1.353.37 1.882c.246.528.583.93 1.01 1.205Zm2.61-1.288a1.335 1.335 0 0 1-1.152.603c-.48 0-.86-.201-1.142-.603-.282-.402-.423-1.002-.423-1.799 0-.797.14-1.396.423-1.798.282-.402.663-.603 1.142-.603.486 0 .87.2 1.152.603.282.401.423 1.001.423 1.798 0 .797-.14 1.397-.423 1.799Z" fill="#fff"/></g></g><defs><linearGradient id="c" x1="0" y1="7" x2="0" y2="35" gradientUnits="userSpaceOnUse"><stop stop-color="#4293E6"/><stop offset="1" stop-color="#1F5AC8"/></linearGradient><clipPath id="a"><path fill="#fff" d="M0 0h86v57H0z"/></clipPath><filter id="b" x="-6" y="7" width="98" height="40" filterUnits="userSpaceOnUse" color-interpolation-filters="sRGB"><feFlood flood-opacity="0" result="BackgroundImageFix"/><feColorMatrix in="SourceAlpha" values="0 0 0 0 0 0 0 0 0 0 0 0 0 0 0 0 0 0 127 0" result="hardAlpha"/><feOffset dy="6"/><feGaussianBlur stdDeviation="3"/><feColorMatrix values="0 0 0 0 0 0 0 0 0 0 0 0 0 0 0 0 0 0 0.307665 0"/><feBlend in2="BackgroundImageFix" result="effect1_dropShadow_31_3333"/><feBlend in="SourceGraphic" in2="effect1_dropShadow_31_3333" result="shape"/></filter></defs></svg>