<svg xmlns="http://www.w3.org/2000/svg">
  <symbol viewBox="0 0 12 7" id="arrow-dropdown">
    <path fill-rule="evenodd" d="M.571 1.145 1.318.43 6 4.999l4.682-4.57.746.716L6 6.43.57 1.145Z" clip-rule="evenodd"></path>
  </symbol>
  <symbol viewBox="0 0 49 49" id="arrow-icon">
    <path fill-rule="evenodd" clip-rule="evenodd" d="M48.12 24c0-13.255-10.745-24-24-24s-24 10.745-24 24 10.745 24 24 24 24-10.745 24-24Zm-14.987-.755H12.12v1.505h21.013l-6.76 6.75h2.25l7.497-7.505-7.496-7.495h-2.251l6.76 6.745Z"/>
  </symbol>
  <symbol viewBox="0 0 14 40" id="arrow-slider">
    <path fill-rule="evenodd" clip-rule="evenodd" d="m11.884.04 1.732 1L2.67 19.997l10.946 18.96-1.732 1-11.5-19.919.07-.04-.07-.041L11.884.039Z"/>
  </symbol>
  <symbol viewBox="0 0 16 17" id="clear">
    <path fill-rule="evenodd" d="M8 .152c-4.4 0-8 3.6-8 8s3.6 8 8 8 8-3.6 8-8-3.6-8-8-8Zm4 11.05-1.12 1.186L8 9.338l-2.88 3.05L4 11.202l2.88-3.05L4 5.102l1.12-1.185L8 6.967l2.88-3.05L12 5.103l-2.88 3.05L12 11.201Z" clip-rule="evenodd"/>
  </symbol>
  <symbol viewBox="0 0 12 10" id="chek">
    <path d="M4.418 6.579 10.722.152 12 1.39 4.386 9.152 0 4.453l1.308-1.206 3.11 3.332Z"/>
  </symbol>
  <symbol viewBox="0 0 138 97" id="sharing">
    <path fill-rule="evenodd" d="M74.359 49.818V12.742a5.173 5.173 0 0 1 5.168-5.168h29.552l3.565-5.294A5.172 5.172 0 0 1 116.939 0h8.128a5.173 5.173 0 0 1 5.169 5.169v2.406h1.853a5.173 5.173 0 0 1 5.169 5.168v37.072a5.173 5.173 0 0 1-5.169 5.17H79.546c-2.87 0-5.187-2.317-5.187-5.169v.002Zm58.337-37.075a.617.617 0 0 0-.607-.623h-4.118a2.274 2.274 0 0 1-2.281-2.282l.001-4.67a.601.601 0 0 0-.606-.606h-8.128a.677.677 0 0 0-.517.268l-4.259 6.31a2.302 2.302 0 0 1-1.889.997H79.528a.605.605 0 0 0-.607.623v13.244h3.761V21.76a4.872 4.872 0 0 1 4.866-4.866l36.539.001a4.873 4.873 0 0 1 4.866 4.866v4.242h3.742l.001-13.26ZM87.246 25.97v-4.242h-.001c0-.161.125-.286.286-.303h36.539a.3.3 0 0 1 .303.303v4.242H87.246Zm45.45 23.848V30.549H78.921v19.268c0 .339.268.606.606.606h52.563a.6.6 0 0 0 .605-.606h.001ZM5.186 49.09H34.72l3.564-5.293a5.174 5.174 0 0 1 4.296-2.281l8.128-.001a5.173 5.173 0 0 1 5.168 5.169v2.405h1.836a5.173 5.173 0 0 1 5.168 5.17V91.33a5.173 5.173 0 0 1-5.168 5.169H5.168A5.173 5.173 0 0 1 0 91.331V54.26c0-2.851 2.317-5.169 5.186-5.169v.001Zm-.623 42.242c0 .34.268.607.606.607h52.56a.601.601 0 0 0 .607-.607V72.065H4.562l.001 19.268Zm45.45-28.072v4.242H12.868v-4.242c0-.16.143-.303.303-.303H49.71c.16 0 .303.143.303.303ZM4.582 67.504h3.742V63.26a4.872 4.872 0 0 1 4.866-4.866h36.538a4.872 4.872 0 0 1 4.866 4.866v4.242h3.76V54.26a.601.601 0 0 0-.606-.606h-4.117a2.274 2.274 0 0 1-2.281-2.281v-4.688a.617.617 0 0 0-.624-.606h-8.128a.648.648 0 0 0-.517.267l-4.26 6.31a2.3 2.3 0 0 1-1.888.997H5.188a.601.601 0 0 0-.606.607v13.244ZM60.6 12.588H46.394a2.587 2.587 0 0 0-2.585 2.585v8.788l3.458-3.458a2.281 2.281 0 1 1 3.226 3.226l-7.343 7.343a2.3 2.3 0 0 1-1.604.677c-.517.054-1.426-.48-1.64-.695l-7.325-7.325a2.281 2.281 0 1 1 3.227-3.226l3.458 3.458v-8.752c0-3.938 3.208-7.147 7.147-7.147h14.186a2.274 2.274 0 0 1 2.282 2.28c0 1.23-1.016 2.246-2.282 2.246Zm30.246 74.35H76.64a2.275 2.275 0 0 0-2.281 2.28 2.274 2.274 0 0 0 2.28 2.282h14.206c3.939 0 7.147-3.208 7.147-7.147v-8.751l3.458 3.457a2.187 2.187 0 0 0 1.604.678c.589 0 1.177-.232 1.623-.677a2.281 2.281 0 0 0 0-3.227l-7.326-7.325a2.304 2.304 0 0 0-1.64-.695c-.837 0-1.568.606-1.621.66l-7.344 7.343a2.281 2.281 0 1 0 3.227 3.226l3.458-3.458v8.77a2.587 2.587 0 0 1-2.585 2.585Z" clip-rule="evenodd"/>
  </symbol>
  <symbol viewBox="0 0 83 66" id="info">
    <path fill-rule="evenodd" d="M65.763 3.058a8.752 8.752 0 0 1 2.558 6.18v17.479a2.384 2.384 0 0 1-4.767 0V10.352L40.001 23.174a11.91 11.91 0 0 1-11.312.045L4.767 10.443v28.985c0 1.055.42 2.062 1.163 2.81A3.977 3.977 0 0 0 8.739 43.4h31.477a2.384 2.384 0 0 1 0 4.767H8.739a8.755 8.755 0 0 1-6.18-2.559A8.752 8.752 0 0 1 0 39.428V9.238c0-2.315.922-4.54 2.558-6.18A8.752 8.752 0 0 1 8.738.5h50.844c2.316 0 4.541.922 6.18 2.558Zm-6.18 2.21a3.97 3.97 0 0 1 2.162.64l-24.022 13.08a7.151 7.151 0 0 1-6.787.026L6.498 5.96a3.97 3.97 0 0 1 2.24-.693h50.844ZM82.32 37.696a5.559 5.559 0 0 0-5.56-5.561H51.337a5.559 5.559 0 0 0-5.56 5.56V59.94a5.56 5.56 0 0 0 5.56 5.561H76.76a5.56 5.56 0 0 0 5.561-5.56V37.695Zm-4.766 22.243a.795.795 0 0 1-.795.794H51.338a.795.795 0 0 1-.794-.794V37.696c0-.442.356-.795.794-.795h4.767v7.293a2.384 2.384 0 0 0 2.383 2.384H69.61a2.384 2.384 0 0 0 2.384-2.384v-7.293h4.766c.439 0 .794.353.794.794V59.94ZM67.227 36.901h-6.356v4.91h6.356v-4.91Z" clip-rule="evenodd"/>
  </symbol>
  <symbol viewBox="0 0 56 70" id="download">
    <path fill-rule="evenodd" d="M52 10.65h-2.667V9.318a4.002 4.002 0 0 0-4-3.993H29.2A6.675 6.675 0 0 0 22.667 0a6.675 6.675 0 0 0-6.532 5.325H4c-2.205 0-4 1.792-4 3.993v47.924a4.002 4.002 0 0 0 4 3.993h1.333v3.994a4.002 4.002 0 0 0 4 3.993H52c2.205 0 4-1.792 4-3.993V14.643a4.002 4.002 0 0 0-4-3.993ZM4 58.573a1.333 1.333 0 0 1-1.333-1.331V9.318c0-.734.597-1.33 1.333-1.33h12v2.662H9.333c-2.205 0-4 1.791-4 3.993v43.93H4Zm48 7.987c.736 0 1.333-.597 1.333-1.331V14.643c0-.735-.597-1.331-1.333-1.331H32V10.65h14.667V9.318c0-.734-.598-1.33-1.334-1.33H26.667V6.655a4.002 4.002 0 0 0-4-3.994c-2.206 0-4 1.792-4 3.994v10.65a4.002 4.002 0 0 0 4 3.993c2.205 0 4-1.792 4-3.993v-1.334a1.333 1.333 0 0 0-2.667 0v2.665h-2.667v-2.665a4.002 4.002 0 0 1 4-3.994c2.206 0 4 1.792 4 3.994v1.334c0 3.67-2.99 6.655-6.666 6.655S16 20.977 16 17.306v-3.994H9.333c-.736 0-1.333.596-1.333 1.331V65.23c0 .734.597 1.33 1.333 1.33H52ZM32 15.974h13.333v2.663H32v-2.663ZM45.333 21.3H32v2.663h13.333v-2.663ZM16 32.95a1 1 0 0 1 1-1h27.333a1 1 0 0 1 1 1v.662a1 1 0 0 1-1 1H17a1 1 0 0 1-1-1v-.662Zm1 4.325a1 1 0 0 0-1 1v.662a1 1 0 0 0 1 1h23.333a1 1 0 0 0 1-1v-.663a1 1 0 0 0-1-1H17Zm-1 6.324a1 1 0 0 1 1-1h27.333a1 1 0 0 1 1 1v.663a1 1 0 0 1-1 1H17a1 1 0 0 1-1-1v-.663Zm1.333 6.65H34c.679 0 1.24-.507 1.323-1.162.007.055.01.111.01.168v-.337c0 .057-.003.113-.01.169A1.333 1.333 0 0 0 34 47.923H17.333c-.678 0-1.24.507-1.322 1.163a1.344 1.344 0 0 1-.011-.17v.338c0-.057.004-.113.01-.168a1.333 1.333 0 0 0 1.323 1.162Z" clip-rule="evenodd"/>
  </symbol>
</svg>