<svg xmlns="http://www.w3.org/2000/svg">
  <symbol viewBox="0 0 12 7" id="arrow-dropdown">
    <path fill-rule="evenodd" d="M.571 1.145 1.318.43 6 4.999l4.682-4.57.746.716L6 6.43.57 1.145Z" clip-rule="evenodd"></path>
  </symbol>
  <symbol viewBox="0 0 49 49" id="arrow-icon">
    <path fill-rule="evenodd" clip-rule="evenodd" d="M48.12 24c0-13.255-10.745-24-24-24s-24 10.745-24 24 10.745 24 24 24 24-10.745 24-24Zm-14.987-.755H12.12v1.505h21.013l-6.76 6.75h2.25l7.497-7.505-7.496-7.495h-2.251l6.76 6.745Z"/>
  </symbol>
  <svg viewBox="0 0 14 40" id="arrow-slider">
    <path fill-rule="evenodd" clip-rule="evenodd" d="m11.884.04 1.732 1L2.67 19.997l10.946 18.96-1.732 1-11.5-19.919.07-.04-.07-.041L11.884.039Z"/>
  </svg>
  <svg viewBox="0 0 16 17" id="clear">
    <path fill-rule="evenodd" d="M8 .152c-4.4 0-8 3.6-8 8s3.6 8 8 8 8-3.6 8-8-3.6-8-8-8Zm4 11.05-1.12 1.186L8 9.338l-2.88 3.05L4 11.202l2.88-3.05L4 5.102l1.12-1.185L8 6.967l2.88-3.05L12 5.103l-2.88 3.05L12 11.201Z" clip-rule="evenodd"/>
  </svg>
  <svg viewBox="0 0 12 10" id="chek">
    <path d="M4.418 6.579 10.722.152 12 1.39 4.386 9.152 0 4.453l1.308-1.206 3.11 3.332Z"/>
  </svg>
</svg>