<svg xmlns="http://www.w3.org/2000/svg">
  <symbol viewBox="0 0 12 7" id="arrow-dropdown">
    <path fill-rule="evenodd" d="M.571 1.145 1.318.43 6 4.999l4.682-4.57.746.716L6 6.43.57 1.145Z" clip-rule="evenodd"></path>
  </symbol>
  <symbol viewBox="0 0 49 49" id="arrow-icon">
    <path fill-rule="evenodd" clip-rule="evenodd" d="M48.12 24c0-13.255-10.745-24-24-24s-24 10.745-24 24 10.745 24 24 24 24-10.745 24-24Zm-14.987-.755H12.12v1.505h21.013l-6.76 6.75h2.25l7.497-7.505-7.496-7.495h-2.251l6.76 6.745Z"/>
  </symbol>
  <symbol viewBox="0 0 14 40" id="arrow-slider">
    <path fill-rule="evenodd" clip-rule="evenodd" d="m11.884.04 1.732 1L2.67 19.997l10.946 18.96-1.732 1-11.5-19.919.07-.04-.07-.041L11.884.039Z"/>
  </symbol>
  <symbol viewBox="0 0 16 17" id="clear">
    <path fill-rule="evenodd" d="M8 .152c-4.4 0-8 3.6-8 8s3.6 8 8 8 8-3.6 8-8-3.6-8-8-8Zm4 11.05-1.12 1.186L8 9.338l-2.88 3.05L4 11.202l2.88-3.05L4 5.102l1.12-1.185L8 6.967l2.88-3.05L12 5.103l-2.88 3.05L12 11.201Z" clip-rule="evenodd"/>
  </symbol>
  <symbol viewBox="0 0 12 10" id="chek">
    <path d="M4.418 6.579 10.722.152 12 1.39 4.386 9.152 0 4.453l1.308-1.206 3.11 3.332Z"/>
  </symbol>
  <symbol viewBox="0 0 138 97" id="sharing">
    <path fill-rule="evenodd" d="M74.359 49.818V12.742a5.173 5.173 0 0 1 5.168-5.168h29.552l3.565-5.294A5.172 5.172 0 0 1 116.939 0h8.128a5.173 5.173 0 0 1 5.169 5.169v2.406h1.853a5.173 5.173 0 0 1 5.169 5.168v37.072a5.173 5.173 0 0 1-5.169 5.17H79.546c-2.87 0-5.187-2.317-5.187-5.169v.002Zm58.337-37.075a.617.617 0 0 0-.607-.623h-4.118a2.274 2.274 0 0 1-2.281-2.282l.001-4.67a.601.601 0 0 0-.606-.606h-8.128a.677.677 0 0 0-.517.268l-4.259 6.31a2.302 2.302 0 0 1-1.889.997H79.528a.605.605 0 0 0-.607.623v13.244h3.761V21.76a4.872 4.872 0 0 1 4.866-4.866l36.539.001a4.873 4.873 0 0 1 4.866 4.866v4.242h3.742l.001-13.26ZM87.246 25.97v-4.242h-.001c0-.161.125-.286.286-.303h36.539a.3.3 0 0 1 .303.303v4.242H87.246Zm45.45 23.848V30.549H78.921v19.268c0 .339.268.606.606.606h52.563a.6.6 0 0 0 .605-.606h.001ZM5.186 49.09H34.72l3.564-5.293a5.174 5.174 0 0 1 4.296-2.281l8.128-.001a5.173 5.173 0 0 1 5.168 5.169v2.405h1.836a5.173 5.173 0 0 1 5.168 5.17V91.33a5.173 5.173 0 0 1-5.168 5.169H5.168A5.173 5.173 0 0 1 0 91.331V54.26c0-2.851 2.317-5.169 5.186-5.169v.001Zm-.623 42.242c0 .34.268.607.606.607h52.56a.601.601 0 0 0 .607-.607V72.065H4.562l.001 19.268Zm45.45-28.072v4.242H12.868v-4.242c0-.16.143-.303.303-.303H49.71c.16 0 .303.143.303.303ZM4.582 67.504h3.742V63.26a4.872 4.872 0 0 1 4.866-4.866h36.538a4.872 4.872 0 0 1 4.866 4.866v4.242h3.76V54.26a.601.601 0 0 0-.606-.606h-4.117a2.274 2.274 0 0 1-2.281-2.281v-4.688a.617.617 0 0 0-.624-.606h-8.128a.648.648 0 0 0-.517.267l-4.26 6.31a2.3 2.3 0 0 1-1.888.997H5.188a.601.601 0 0 0-.606.607v13.244ZM60.6 12.588H46.394a2.587 2.587 0 0 0-2.585 2.585v8.788l3.458-3.458a2.281 2.281 0 1 1 3.226 3.226l-7.343 7.343a2.3 2.3 0 0 1-1.604.677c-.517.054-1.426-.48-1.64-.695l-7.325-7.325a2.281 2.281 0 1 1 3.227-3.226l3.458 3.458v-8.752c0-3.938 3.208-7.147 7.147-7.147h14.186a2.274 2.274 0 0 1 2.282 2.28c0 1.23-1.016 2.246-2.282 2.246Zm30.246 74.35H76.64a2.275 2.275 0 0 0-2.281 2.28 2.274 2.274 0 0 0 2.28 2.282h14.206c3.939 0 7.147-3.208 7.147-7.147v-8.751l3.458 3.457a2.187 2.187 0 0 0 1.604.678c.589 0 1.177-.232 1.623-.677a2.281 2.281 0 0 0 0-3.227l-7.326-7.325a2.304 2.304 0 0 0-1.64-.695c-.837 0-1.568.606-1.621.66l-7.344 7.343a2.281 2.281 0 1 0 3.227 3.226l3.458-3.458v8.77a2.587 2.587 0 0 1-2.585 2.585Z" clip-rule="evenodd"/>
  </symbol>
  <symbol viewBox="0 0 83 66" id="info">
    <path fill-rule="evenodd" d="M65.763 3.058a8.752 8.752 0 0 1 2.558 6.18v17.479a2.384 2.384 0 0 1-4.767 0V10.352L40.001 23.174a11.91 11.91 0 0 1-11.312.045L4.767 10.443v28.985c0 1.055.42 2.062 1.163 2.81A3.977 3.977 0 0 0 8.739 43.4h31.477a2.384 2.384 0 0 1 0 4.767H8.739a8.755 8.755 0 0 1-6.18-2.559A8.752 8.752 0 0 1 0 39.428V9.238c0-2.315.922-4.54 2.558-6.18A8.752 8.752 0 0 1 8.738.5h50.844c2.316 0 4.541.922 6.18 2.558Zm-6.18 2.21a3.97 3.97 0 0 1 2.162.64l-24.022 13.08a7.151 7.151 0 0 1-6.787.026L6.498 5.96a3.97 3.97 0 0 1 2.24-.693h50.844ZM82.32 37.696a5.559 5.559 0 0 0-5.56-5.561H51.337a5.559 5.559 0 0 0-5.56 5.56V59.94a5.56 5.56 0 0 0 5.56 5.561H76.76a5.56 5.56 0 0 0 5.561-5.56V37.695Zm-4.766 22.243a.795.795 0 0 1-.795.794H51.338a.795.795 0 0 1-.794-.794V37.696c0-.442.356-.795.794-.795h4.767v7.293a2.384 2.384 0 0 0 2.383 2.384H69.61a2.384 2.384 0 0 0 2.384-2.384v-7.293h4.766c.439 0 .794.353.794.794V59.94ZM67.227 36.901h-6.356v4.91h6.356v-4.91Z" clip-rule="evenodd"/>
  </symbol>
  <symbol viewBox="0 0 56 70" id="download">
    <path fill-rule="evenodd" d="M52 10.65h-2.667V9.318a4.002 4.002 0 0 0-4-3.993H29.2A6.675 6.675 0 0 0 22.667 0a6.675 6.675 0 0 0-6.532 5.325H4c-2.205 0-4 1.792-4 3.993v47.924a4.002 4.002 0 0 0 4 3.993h1.333v3.994a4.002 4.002 0 0 0 4 3.993H52c2.205 0 4-1.792 4-3.993V14.643a4.002 4.002 0 0 0-4-3.993ZM4 58.573a1.333 1.333 0 0 1-1.333-1.331V9.318c0-.734.597-1.33 1.333-1.33h12v2.662H9.333c-2.205 0-4 1.791-4 3.993v43.93H4Zm48 7.987c.736 0 1.333-.597 1.333-1.331V14.643c0-.735-.597-1.331-1.333-1.331H32V10.65h14.667V9.318c0-.734-.598-1.33-1.334-1.33H26.667V6.655a4.002 4.002 0 0 0-4-3.994c-2.206 0-4 1.792-4 3.994v10.65a4.002 4.002 0 0 0 4 3.993c2.205 0 4-1.792 4-3.993v-1.334a1.333 1.333 0 0 0-2.667 0v2.665h-2.667v-2.665a4.002 4.002 0 0 1 4-3.994c2.206 0 4 1.792 4 3.994v1.334c0 3.67-2.99 6.655-6.666 6.655S16 20.977 16 17.306v-3.994H9.333c-.736 0-1.333.596-1.333 1.331V65.23c0 .734.597 1.33 1.333 1.33H52ZM32 15.974h13.333v2.663H32v-2.663ZM45.333 21.3H32v2.663h13.333v-2.663ZM16 32.95a1 1 0 0 1 1-1h27.333a1 1 0 0 1 1 1v.662a1 1 0 0 1-1 1H17a1 1 0 0 1-1-1v-.662Zm1 4.325a1 1 0 0 0-1 1v.662a1 1 0 0 0 1 1h23.333a1 1 0 0 0 1-1v-.663a1 1 0 0 0-1-1H17Zm-1 6.324a1 1 0 0 1 1-1h27.333a1 1 0 0 1 1 1v.663a1 1 0 0 1-1 1H17a1 1 0 0 1-1-1v-.663Zm1.333 6.65H34c.679 0 1.24-.507 1.323-1.162.007.055.01.111.01.168v-.337c0 .057-.003.113-.01.169A1.333 1.333 0 0 0 34 47.923H17.333c-.678 0-1.24.507-1.322 1.163a1.344 1.344 0 0 1-.011-.17v.338c0-.057.004-.113.01-.168a1.333 1.333 0 0 0 1.323 1.162Z" clip-rule="evenodd"/>
  </symbol>
  <symbol viewBox="0 0 16 20" id="attach">
    <path fill-rule="evenodd" d="m15.905 8.946-4.715 9.899a2.033 2.033 0 0 1-2.688.967l-7.334-3.381a1.99 1.99 0 0 1-.978-2.658L6.187 1.155a2.032 2.032 0 0 1 2.69-.967l4.582 2.113a1.99 1.99 0 0 1 .978 2.658l-4.286 8.993a2.033 2.033 0 0 1-2.689.967l-1.833-.845a1.99 1.99 0 0 1-.979-2.658l3.004-6.274a1.017 1.017 0 0 1 1.344-.484.996.996 0 0 1 .49 1.329l-2.576 5.368a.995.995 0 0 0 .488 1.329 1.016 1.016 0 0 0 1.345-.484l3.432-7.179a.996.996 0 0 0-.49-1.33l-2.75-1.268a1.016 1.016 0 0 0-1.344.484l-5.14 10.801a1 1 0 0 0 .492 1.335l5.491 2.532a1.021 1.021 0 0 0 1.35-.486l4.285-8.988a1.017 1.017 0 0 1 1.345-.484.995.995 0 0 1 .49 1.329Z" clip-rule="evenodd"/>
  </symbol>
  <symbol viewBox="0 0 53 55" id="arms">
    <path fill-rule="evenodd" clip-rule="evenodd" d="M24.745 10.237a2.496 2.496 0 0 1-2.384-1.704l-.75-2.384a3.148 3.148 0 0 1 2.998-4.156h.477v-.068a1.073 1.073 0 0 1 .272-1.159l.41-.408c.476-.477 1.157-.477 1.634 0l.41.408c.272.273.408.75.272 1.159v.068h.477c2.18 0 3.679 2.112 2.997 4.156l-.75 2.384a2.496 2.496 0 0 1-2.384 1.704h-3.679ZM51.93 9.35c-.068-.204-.136-.34-.272-.477a.774.774 0 0 0-.545-.204c-.205 0-.409 0-.545.136-.136.068-.273.204-.409.409-.613 1.09-1.771 3.066-2.861 4.633-3.203 4.632-6.473 7.903-11.106 8.04-.545 0-1.09-.137-1.567-.342a3.703 3.703 0 0 1-2.112-3.951c0-.75.273-1.43.613-2.044a4.164 4.164 0 0 1 1.635-1.43c.954-.478 2.249-.546 3.27-.341.546.068 1.09.272 1.568.545.477.272.75.204.817-.41.068-1.43-.204-3.338-1.499-4.223-1.635-1.159-4.224-.341-5.859.545-1.703.885-3.134 2.248-4.36 3.747-.818 1.022-1.635 2.112-2.18 3.338a21.618 21.618 0 0 0-2.18-3.338c-1.227-1.499-2.658-2.862-4.361-3.747-1.567-.886-4.156-1.704-5.86-.545-1.294.885-1.566 2.793-1.498 4.224.068.545.34.681.817.409a4.3 4.3 0 0 1 1.567-.545c1.09-.205 2.317-.137 3.27.34.682.34 1.227.818 1.636 1.43.409.614.613 1.363.613 2.045.204 1.635-.681 3.27-2.112 3.951a4.041 4.041 0 0 1-1.567.341c-4.633-.136-7.903-3.407-11.105-8.04-1.09-1.566-2.249-3.542-2.862-4.632a.614.614 0 0 0-.409-.41 1.284 1.284 0 0 0-.545-.135c-.204 0-.34.068-.545.204-.136.136-.272.273-.272.477a33.448 33.448 0 0 0-.613 14.24c.613 3.678 2.793 9.333 6.472 11.241 3.68 1.908 6.745.477 8.857-.613 1.226-.681 2.044-1.022 2.725-.886.477.068.682.613.34 1.022l-2.724 3.407c-.75.817-.954 1.907-.75 2.93l-3.747 3.338-.818-.75c.273-.545.41-1.226.41-1.84 0-.749-.614-1.362-1.363-1.362-.75 0-1.363.613-1.363 1.363 0 .885-.75 1.567-1.567 1.567-.75 0-1.363.613-1.363 1.362 0 .75.614 1.363 1.363 1.363.75 0 1.43-.204 2.044-.477l1.84 1.635 3.27 2.93c.545.477 1.43.477 1.907-.136.477-.546.477-1.431-.136-1.908l-2.112-1.908 3.27-2.93a2.41 2.41 0 0 0 1.704.273c1.771-.204 3.542-1.09 5.11-1.976.727 2.35-1.67 4.333-3.532 5.872-.405.335-.785.65-1.101.941l-.134.132c-.685.678-1.655 1.636-.888 2.594.417.536 1.2.76 1.845.944l.267.078c.34.068.681.136 1.022.272a11.325 11.325 0 0 1 4.182 1.96c.195.144.357.263.519.425.136.136.34.204.545.204a.774.774 0 0 0 .545-.204c.11-.074.221-.168.343-.27.102-.088.213-.182.338-.275 1.158-.886 2.52-1.567 4.02-1.84.34-.068.681-.136 1.022-.272l.15-.041c.715-.193 1.516-.409 1.962-.981.817-1.022-.34-2.112-1.022-2.726a24.18 24.18 0 0 0-1.187-1.033c-1.826-1.526-4.159-3.476-3.446-5.78 1.567.886 3.338 1.704 5.11 1.976.613.068 1.158 0 1.635-.273l3.202 2.862c0 .068-.017.153-.034.238-.017.086-.034.17-.034.239a4.274 4.274 0 0 0 4.292 4.292 4.274 4.274 0 0 0 4.292-4.292 4.274 4.274 0 0 0-4.292-4.292c-1.226 0-2.316.477-3.066 1.294l-2.725-2.453c.204-1.021 0-2.112-.75-2.997l-2.725-3.407c-.272-.34-.068-.954.341-1.022.681-.136 1.499.273 2.725.886 2.112 1.09 5.178 2.589 8.857.613 3.68-1.908 5.791-7.563 6.473-11.241.681-4.77.477-9.607-.682-14.308Zm-9.947 36.314c.205-.613.818-1.09 1.5-1.09.885 0 1.566.75 1.566 1.567 0 .885-.75 1.567-1.567 1.567-.886 0-1.567-.75-1.567-1.567 0-.137 0-.341.068-.477Z"/>
  </symbol>
  <symbol viewBox="0 0 59 47" id="heart">
    <path fill-rule="evenodd" clip-rule="evenodd" d="M44.3639 2.77871C46.1874 4.5617 47.2079 6.98013 47.1998 9.49943L47.2 9.49981C47.1962 12.0178 46.1612 14.4301 44.3253 16.1989L31.1323 29.0774C30.5546 29.6409 29.6186 29.6409 29.0405 29.0774L15.8224 16.1808C13.3717 13.7897 12.4139 10.3038 13.3103 7.03649C14.2062 3.76916 16.8198 1.21658 20.1665 0.340299C23.5135 -0.536001 27.0845 0.39734 29.5353 2.7888L29.5357 2.78838L30.0801 3.31981L30.6121 2.80046C32.4296 1.01206 34.9025 0.00427834 37.4833 1.35856e-05C40.0641 -0.00425117 42.5404 0.995727 44.3639 2.77871ZM12.6463 46.02H27.14L27.08 40.904C27.0649 37.018 25.4997 33.2953 22.7256 30.5472L13.8489 21.7208C13.2494 21.1305 12.4268 20.8173 11.5824 20.858C10.7375 20.8987 9.94927 21.2896 9.41059 21.9352C8.94284 22.5301 8.71379 23.275 8.76707 24.0269C8.82035 24.7789 9.15217 25.4847 9.69963 26.009L13.9815 30.2493C14.1883 30.4529 14.294 30.7366 14.2709 31.0245C14.2479 31.3124 14.0981 31.5758 13.8611 31.7441C13.4382 32.0291 12.8677 31.9601 12.5258 31.5833L7.60041 26.7057C6.8881 26.0007 6.51392 25.0274 6.57221 24.0315L7.33613 12.7157C7.40577 11.6169 6.87803 10.5642 5.95216 9.95473C5.0259 9.3457 3.84168 9.27176 2.84572 9.76156C1.84982 10.2509 1.19327 11.2297 1.12325 12.3286L0.0169965 26.6286C-0.127737 28.7414 0.657154 30.8133 2.1699 32.3101L12.5983 42.6253L12.6463 46.02ZM58.983 26.6283C59.1277 28.7412 58.3429 30.813 56.8301 32.3098L46.4019 42.625V46.02H31.86L31.92 40.904C31.9355 37.0184 33.5007 33.2957 36.2744 30.5472L45.1509 21.7208C45.7504 21.1305 46.573 20.8173 47.4174 20.858C48.2623 20.8987 49.0505 21.2896 49.5892 21.9352C50.057 22.5301 50.286 23.275 50.2327 24.0269C50.1795 24.7789 49.8476 25.4847 49.3002 26.009L45.0184 30.2493C44.8116 30.4529 44.7058 30.7366 44.7289 31.0245C44.752 31.3124 44.9018 31.5758 45.1388 31.7441C45.5616 32.0291 46.1321 31.9601 46.4741 31.5833L51.3994 26.7057C52.1117 26.0007 52.4859 25.0274 52.4276 24.0315L51.6637 12.7157C51.594 11.6169 52.1217 10.5642 53.0476 9.95473C53.9739 9.3457 55.1581 9.27176 56.154 9.76156C57.1499 10.2509 57.8064 11.2297 57.8765 12.3286L58.983 26.6283Z"/>
  </symbol>
  <symbol viewBox="0 0 54 55" id="bus">
    <path fill-rule="evenodd" clip-rule="evenodd" d="M1.48302 13.5194C1.84229 13.1654 2.32766 12.9689 2.83207 12.973C2.90484 12.9677 2.97761 12.9677 3.05038 12.973V8.39592C2.98104 7.17834 3.33993 5.9748 4.06528 4.99374C4.79067 4.01306 5.83645 3.31737 7.02096 3.02712C12.0266 1.52875 17.1798 0.576264 22.3909 0.18692C31.0552 -0.449694 39.7621 0.543133 48.0611 3.1148C49.1293 3.42149 50.0688 4.06649 50.7394 4.95307C51.4103 5.83923 51.7752 6.91891 51.7806 8.03027V12.9895H52.0046C52.5106 12.9895 52.9959 13.1903 53.3545 13.5477C53.7126 13.9047 53.9145 14.3896 53.916 14.8956V20.1934C53.9103 20.6963 53.7072 21.1767 53.351 21.5311C52.9944 21.8858 52.5129 22.0858 52.01 22.0888C51.9353 22.0942 51.8606 22.0942 51.7859 22.0888V44.362C51.7859 46.4429 50.6937 47.9832 48.9187 48.5349C48.6889 48.6016 48.4515 48.6456 48.1982 48.6927L48.1981 48.6927C48.0781 48.715 47.9545 48.7379 47.8265 48.7642V52.4182C47.8265 52.9973 47.596 53.5532 47.1864 53.9627C46.7769 54.3727 46.221 54.6028 45.6415 54.6028H39.7592C39.1798 54.6028 38.6243 54.3727 38.2147 53.9627C37.8048 53.5532 37.5747 52.9973 37.5747 52.4182V48.7532H17.2902V52.4182C17.2902 52.9973 17.0601 53.5532 16.6501 53.9627C16.2406 54.3727 15.6851 54.6028 15.1056 54.6028H9.21759C8.6385 54.6028 8.08262 54.3727 7.67308 53.9627C7.26315 53.5532 7.03304 52.9973 7.03304 52.4182V48.7422L6.60138 48.6713C5.57848 48.549 4.6412 48.0404 3.98102 47.2495C3.32116 46.4586 2.98854 45.4448 3.05143 44.4165V22.0731C2.97676 22.0785 2.90209 22.0785 2.82741 22.0731C2.32109 22.0716 1.83572 21.8697 1.47758 21.5116C1.11908 21.1535 0.917538 20.6681 0.916016 20.1614V14.8691C0.917538 14.3617 1.12213 13.8759 1.48405 13.5201L1.48302 13.5194ZM38.4697 40.6262H42.3366H46.0013C46.463 40.662 46.9183 40.5005 47.2544 40.182C47.5904 39.8635 47.7763 39.4177 47.7656 38.9548C47.7839 38.5614 47.7778 38.1655 47.7717 37.7705C47.7687 37.5732 47.7656 37.3762 47.7656 37.1799C47.7816 36.7192 47.6033 36.2735 47.2738 35.9512C46.9442 35.6289 46.4943 35.4605 46.0341 35.4867C44.8965 35.4601 43.7577 35.5073 42.6262 35.6289C40.3323 35.9729 38.8411 37.4751 37.7109 39.359H37.7105C37.5322 39.6211 37.5223 39.9633 37.6853 40.2353C37.8484 40.5073 38.1543 40.6601 38.4698 40.6262L38.4697 40.6262ZM42.7245 28.2721C43.1394 28.6642 43.4731 29.1335 43.7074 29.6539C40.5483 30.1648 37.3591 30.4715 34.1604 30.5717C34.3376 29.5834 34.8557 28.6885 35.6242 28.0427C36.6338 27.213 37.9112 26.7782 39.2176 26.8206C40.524 26.8629 41.7702 27.3787 42.7245 28.2721ZM31.3971 30.6426C31.5674 28.8277 32.4417 27.1513 33.8331 25.9729C35.3639 24.6879 37.3149 24.0131 39.3124 24.0779C41.3098 24.1423 43.2132 24.9416 44.6583 26.3223C45.4511 27.0957 46.0545 28.0413 46.4222 29.0859L46.5479 29.0478C47.6402 28.7312 47.7713 28.5781 47.7713 27.4092V10.1286C47.7713 8.95447 47.58 8.70869 46.4332 8.41347C33.8917 5.18577 20.7358 5.2007 8.20107 8.45728C7.24519 8.70835 7.04328 8.95979 7.04328 9.97018V18.8017V27.6279C7.04328 28.5019 7.19605 28.8131 8.05896 28.9659C8.49213 29.0455 8.92462 29.1267 9.35693 29.2079C11.3885 29.5894 13.4161 29.9703 15.4923 30.1729L15.4927 30.1732C20.7784 30.6693 26.0904 30.8262 31.3971 30.643V30.6426ZM7.60964 40.1957C7.28581 39.8978 7.0957 39.4825 7.0816 39.0429L7.08156 39.0427C7.04423 38.3894 7.04803 37.7345 7.09261 37.0819C7.10518 36.6415 7.29491 36.2247 7.61836 35.9257C7.94219 35.6266 8.3727 35.4704 8.81312 35.4925H10.4517C13.4283 35.3451 15.5256 36.7813 17.0549 39.1956C17.2987 39.4665 17.3463 39.8612 17.1738 40.1824C17.0008 40.5035 16.6449 40.6811 16.2845 40.6266H12.5434H8.80215C8.36284 40.6487 7.93309 40.4936 7.60964 40.1957Z"/>
  </symbol>
  <symbol viewBox="0 0 57 62" id="career-growth">
    <path fill-rule="evenodd" clip-rule="evenodd" d="M19.4987 11C21.9817 11 24 8.83336 24 6.17378L23.9996 4.82344C23.9996 2.16386 21.9814 0 19.4987 0C17.0182 0 15 2.16386 15 4.82344V6.17378C14.9996 8.83336 17.0182 11 19.4987 11ZM6.12032 29.9683C7.26259 30.717 8.80217 30.3962 9.5515 29.2509L14.9568 20.9847C15.0708 20.8095 15.2622 20.7097 15.4634 20.7097C15.5215 20.7097 15.5796 20.717 15.6356 20.7341C15.8927 20.8121 16.0696 21.0477 16.0696 21.3175V35.0395C16.0696 35.9587 15.803 36.8509 15.3011 37.6191L11.6832 43.1528C10.9339 44.298 11.2539 45.8395 12.3962 46.5907C12.949 46.9552 13.6086 47.082 14.2587 46.9479C14.9063 46.8117 15.4639 46.4327 15.8278 45.878L20.1659 39.2407C20.5829 38.6038 20.8037 37.8645 20.8037 37.1013V33.1335C20.8037 30.7851 22.7099 28.874 25.0522 28.874H26.2184C28.5611 28.874 30.4668 30.7851 30.4668 33.1335V37.0088C30.4668 38.3802 31.5797 39.4933 32.9454 39.4933C33.6071 39.4933 34.2304 39.2355 34.7012 38.7639C35.1694 38.2945 35.4261 37.67 35.4261 37.0062C35.4235 33.8698 35.4235 29.4814 35.4235 29.4814V28.0226C35.4235 25.7517 33.5806 23.9041 31.3157 23.9041H28.4228C27.3681 23.9041 26.5073 23.0432 26.5073 21.9831V19.457C26.5073 18.6329 26.9097 17.8599 27.5816 17.3857L35.9422 11.5201C36.5048 11.1261 36.8709 10.5329 36.973 9.85233C37.0725 9.17176 36.8952 8.49799 36.4736 7.9558C35.6611 6.91289 34.1795 6.69149 33.1005 7.44998L25.7601 12.5994C24.4238 13.5353 22.8573 14.0338 21.2254 14.0363L16.6473 14.0436C14.7168 14.0462 12.932 15.0163 11.8726 16.6353L5.40532 26.5256C4.6556 27.6735 4.97557 29.217 6.12044 29.9682L6.12032 29.9683ZM47.6429 43.9413L45.7014 40L57 42.2611L51.8385 52.4489L50.0104 48.7418C49.9386 48.5952 49.8104 48.4831 49.6574 48.432C49.5022 48.3783 49.3319 48.3877 49.1863 48.4586L26.4449 59.4074L23.2298 52.388C23.1607 52.2393 23.0346 52.1224 22.8768 52.0661C22.7217 52.0124 22.5487 52.0197 22.3983 52.0928L1.82338 62L0 58.3001L24.9979 46.2612L28.2104 53.2806C28.2795 53.4319 28.4077 53.5487 28.5633 53.6024C28.7211 53.6609 28.8936 53.651 29.0419 53.5779L47.3591 44.7586C47.6651 44.6095 47.7933 44.2464 47.6429 43.9413Z"/>
  </symbol>
</svg>