<svg xmlns="http://www.w3.org/2000/svg" width="22" height="951" fill="none"><path fill="#006D9B" fill-rule="evenodd" d="m0 0 21.805 34.423L.518 30.37l21.287 33.605L.518 59.924l21.287 33.605L.518 89.477l21.287 33.606-21.287-4.052 21.287 33.605-21.287-4.052 21.287 33.605-21.287-4.052 21.287 33.606-21.287-4.052 21.287 33.605-21.287-4.052 21.287 33.605-21.287-4.052 21.287 33.606-21.287-4.052 21.287 33.605-21.287-4.052 21.287 33.605-21.287-4.052 21.287 33.606-21.287-4.052 21.287 33.605-21.287-4.052 21.287 33.606-21.287-4.053 21.287 33.606-21.393-4.072 21.393 33.772-21.287-4.052 21.287 33.605-21.287-4.052 21.287 33.605-21.287-4.052 21.287 33.606-21.287-4.052 21.287 33.605-21.287-4.052 21.287 33.605-21.287-4.052 21.287 33.606-21.287-4.052 21.287 33.605-21.287-4.052 21.287 33.605-21.287-4.052 21.287 33.606-21.287-4.052 21.287 33.605-21.287-4.052 21.287 33.606-21.287-4.053 21.287 33.606-21.287-4.052 21.287 33.605-21.287-4.052 21.287 33.606-21.287-4.053 21.287 33.606L0 946.572V0" clip-rule="evenodd"/></svg>