<svg xmlns="http://www.w3.org/2000/svg">
    <symbol viewBox="0 0 22 23" id="viber">
        <path fill-rule="evenodd" d="M.168 22.126a.54.54 0 0 0 .586.107l4.654-1.974a11.13 11.13 0 0 0 5.895 1.689c2.879 0 5.572-1.108 7.583-3.119 4.226-4.225 4.14-11.187-.191-15.518C16.559 1.176 13.74 0 10.759 0 7.88 0 5.187 1.108 3.176 3.12A10.7 10.7 0 0 0 .092 9.821a11.2 11.2 0 0 0 1.729 6.893L.034 21.546a.54.54 0 0 0 .134.58m14.312-4.8c.764 0 1.568-.393 2.264-1.103.48-.49.963-1.212.963-1.723 0-.787-.372-.997-.936-1.314-.137-.077-.293-.165-.48-.278a13 13 0 0 1-.371-.238l-.005-.003c-.716-.47-1.259-.803-1.72-.803a.8.8 0 0 0-.304.055c-.405.155-.737.572-1.058.974l-.002.002a5 5 0 0 1-.387.451c-.405-.074-1.261-.604-2.184-1.527-.925-.924-1.455-1.78-1.527-2.186.093-.102.304-.27.452-.388l.003-.002c.4-.32.815-.651.972-1.055.2-.518-.166-1.138-.748-2.024a13 13 0 0 1-.24-.375c-.114-.188-.202-.344-.279-.481-.317-.564-.527-.936-1.314-.936-.511 0-1.234.483-1.723.962-.712.696-1.103 1.5-1.103 2.265.001 2.077 1.16 4.46 3.18 6.536l.011.01c2.076 2.02 4.458 3.18 6.536 3.181" clip-rule="evenodd"/>
    </symbol>
    <symbol viewBox="0 0 25 21" id="telegram">
        <path fill-rule="evenodd" d="M1.167 8.693 23.312.14c1.012-.46 1.988.243 1.602 1.794L21.143 19.73c-.264 1.265-1.027 1.567-2.084.983l-5.745-4.251-.106.103-2.655 2.587-.022.02c-.31.305-.566.556-1.128.556-.584 0-.632-.173-.75-.59a6 6 0 0 0-.125-.402l-2.113-6.49-5.523-1.726c-1.227-.376-1.236-1.22.275-1.828M19.73 3.985 7.281 11.851l2.098 6.441.415-4.433 10.66-9.633c.468-.415-.102-.618-.724-.24" clip-rule="evenodd"/>
    </symbol>
    <symbol viewBox="0 0 25 20" id="mail">
        <path fill-rule="evenodd" d="M24.65 2.4 22.25 0l-2.4 2.4-2.4-2.4-2.4 2.4-2.4-2.4-2.4 2.4L7.85 0l-2.4 2.4L3.05 0 .65 2.4l2.4 2.4-2.4 2.4 2.4 2.4L.65 12l2.4 2.4-2.4 2.4 2.4 2.4 2.4-2.4 2.4 2.4 2.4-2.4 2.4 2.4 2.4-2.4 2.4 2.4 2.4-2.4 2.4 2.4 2.4-2.4-2.4-2.4 2.4-2.4-2.4-2.4 2.4-2.4-2.4-2.4zm-12 10.8-7.2-6V4.8l7.2 4.8 7.2-4.8v2.4z" clip-rule="evenodd"/>
    </symbol>
    <symbol viewBox="0 0 24 23" id="search">
        <path fill-rule="evenodd" d="M16.133 17.128a9.7 9.7 0 0 1-6.38 2.377C4.365 19.505 0 15.138 0 9.752S4.366 0 9.752 0s9.753 4.366 9.753 9.752a9.7 9.7 0 0 1-1.613 5.373l5.558 5.558-1.881 1.88zm.712-7.376a7.093 7.093 0 1 1-14.185 0 7.093 7.093 0 0 1 14.185 0" clip-rule="evenodd"/>
    </symbol>
    <symbol viewBox="0 0 14 8" id="arrow-drop">
        <path fill-rule="evenodd" d="m12 .023-5 5-5-5H0l7 7 7-7z" clip-rule="evenodd"/>
    </symbol>
    <symbol viewBox="0 0 32 33" id="sidebar-btn-catalog-saw">
        <path fill-rule="evenodd" d="m5.913 23.417.507.406-3.379 1.993s4.494 2.4 9.9 2.602h.643l-1.318 3.683s4.967-1.047 9.259-4.359c.169-.135.338-.27.473-.439l1.385 3.683s3.143-3.987 4.292-9.292q.026-.154.05-.321l.051-.321 3.413 1.926s-.169-5.069-2.703-9.867a3 3 0 0 0-.338-.54L32 11.86s-3.38-3.785-8.414-5.846l-.608-.203 2.5-3.007s-5.035-.71-10.205.946a4.5 4.5 0 0 0-.608.236V0S10.34 2.67 7.468 7.265q-.076.15-.152.287-.077.138-.152.287L4.629 4.866S3.041 9.698 3.785 15.07l.012.076c.03.184.063.388.123.566L0 15.037s1.892 4.73 5.913 8.38m3.143-12.604c3.007-3.987 8.684-4.832 12.705-1.825 3.988 3.008 4.833 8.685 1.825 12.706-1.453 1.926-3.582 3.21-5.98 3.548q-.66.1-1.319.101a8.77 8.77 0 0 1-5.406-1.825c-1.926-1.453-3.21-3.581-3.548-5.98s.27-4.765 1.723-6.725m3.041 11.05a6.92 6.92 0 0 0 5.17 1.318 6.96 6.96 0 0 0 4.596-2.738c2.297-3.075 1.69-7.467-1.42-9.799a6.93 6.93 0 0 0-4.19-1.385 7.04 7.04 0 0 0-5.609 2.804 6.92 6.92 0 0 0-1.318 5.17c.304 1.859 1.284 3.515 2.771 4.63m1.42-7.705c1.148-1.554 3.345-1.858 4.899-.71 1.554 1.15 1.859 3.346.71 4.9s-3.346 1.859-4.9.71a3.47 3.47 0 0 1-.71-4.9" clip-rule="evenodd"/>
    </symbol>
    <symbol viewBox="0 0 17 17" id="sidebar-btn-services-star">
        <path fill-rule="evenodd" d="M.98 8.424h.094l.073-.002.053-.001.051-.002.064-.002.068-.003.11-.006.063-.005.055-.004.111-.01.066-.006.099-.01.083-.01.099-.014.09-.012.084-.014.08-.013.074-.013.072-.013.107-.021.083-.018.076-.016.081-.02.12-.029.078-.02.104-.028.105-.03.1-.03.102-.033.11-.036.081-.028.117-.043.104-.039.147-.059.119-.05.099-.043.096-.043.101-.048.081-.04.072-.035.085-.044.081-.043.077-.042.084-.047.077-.044.084-.05.09-.054.086-.054.118-.076.104-.07.124-.086.157-.114.123-.095.105-.082.112-.092.084-.071.048-.042.062-.055.055-.049.065-.06.076-.071.063-.061.092-.092.08-.081.086-.09.083-.09.083-.094.082-.095.082-.098.068-.085.09-.112.105-.14.09-.124.08-.116.073-.109.098-.153.064-.104.073-.123.047-.083.068-.124.048-.089.036-.071.046-.09.051-.106.062-.133.03-.065.054-.126.04-.096.06-.151.043-.115.042-.12.032-.093.033-.101.029-.093.035-.12.027-.097.033-.125.037-.149.026-.115.02-.091.016-.083.02-.106.017-.095.013-.077.013-.09.013-.094.012-.091.008-.066.01-.094.006-.06.006-.06.005-.06.005-.064.004-.064.004-.07.006-.113L8.9.769 8.9.71l.002-.063L8.904.5v.08l.002.096.003.095.003.085.003.063L8.92 1l.005.076.007.086.005.062.008.078.008.07.01.09.012.09.013.094.014.092.02.117.017.101.025.124.02.1.025.107.02.086.025.1.032.12.037.13.029.098.038.12.03.093.04.114.046.127.016.04.018.046.024.06.027.07.025.06.028.066.035.082.025.055.026.057.027.057.03.063.025.052.032.065.04.08.04.077.036.067.036.064.045.082.03.052.047.078.037.063.045.072.032.053.04.062.038.058.042.063.047.068.044.064.04.058.042.057.05.068.055.073.053.069.07.088.057.07.081.097.046.053.053.061.047.053.054.06.05.053.051.054.06.062.053.054.057.058.054.052.077.073.071.067.082.075.082.071.078.067.087.073.077.063.093.073.099.076.107.08.077.054.068.047.065.045.07.047.065.043.07.045.09.057.08.047.078.047.077.044.082.046.092.05.111.059.098.05.12.058.135.063.094.042.084.037.112.046.115.045.117.045.047.018.027.01.022.007.14.05.136.044.148.044.117.034.173.046.158.038.15.034.105.021.06.012.067.012.1.018.128.02.093.013.076.01.11.014.115.012.115.01.087.008.097.007.109.005.083.004.085.003h.046l.083.002h.085-.044l-.07.001-.071.002-.056.001-.05.002-.073.003-.066.003-.075.005-.057.003-.078.006-.08.007-.098.01-.047.005-.055.006-.048.006-.061.008-.035.004-.061.009-.047.007-.047.007-.063.01-.032.005-.047.008-.037.007-.031.005-.039.007-.056.011-.054.011-.048.01-.046.01-.057.012-.057.013-.03.007-.025.006-.048.012-.057.014-.059.015-.057.015-.049.013-.055.016-.069.02-.05.015-.068.02-.07.023-.05.016-.049.016-.053.018-.06.02-.025.01-.025.009-.027.01-.054.02-.048.017-.047.019-.036.013-.038.016-.057.022-.036.015-.044.019-.052.022-.039.016-.048.022-.053.024-.06.027-.063.029-.06.029-.08.04-.057.028-.063.032-.077.04-.06.032-.064.036-.049.027-.056.032-.106.062-.108.066-.102.064-.072.046-.107.071-.115.08-.132.095-.123.092-.02.016-.021.015-.028.022-.087.07-.072.058-.063.053-.055.047-.052.044-.054.048-.06.054-.07.064-.052.05-.053.05-.07.068-.05.05-.073.074-.093.099-.098.106-.097.11-.071.083-.08.095-.044.055-.044.056-.083.107-.08.106-.062.086-.064.092-.012.017-.017.024-.024.037-.05.074-.052.079-.03.049-.06.096-.061.1-.057.097-.05.089-.048.087-.055.104-.051.1-.049.099-.05.107-.052.112-.02.046-.026.057-.04.093-.034.086-.05.125-.036.097-.032.088-.034.098-.04.118-.026.087-.025.081-.023.077-.024.087-.021.078-.026.101-.026.106-.016.068-.012.056-.019.086-.017.085-.017.092L9.02 15l-.014.08-.016.106-.013.089-.012.093-.01.084-.008.076-.008.072-.007.078-.006.078-.006.088-.006.099-.004.095-.003.09-.001.073-.002.122v.024-.075l-.001-.064-.001-.062-.001-.042-.002-.06-.003-.06-.003-.064-.003-.056-.004-.06-.004-.055-.004-.054-.005-.06-.007-.068-.006-.059-.008-.077-.006-.05-.01-.074-.006-.049-.01-.06-.008-.062-.013-.08-.01-.058-.01-.064-.013-.067-.01-.053-.01-.051-.012-.054-.015-.07-.01-.046-.016-.068-.02-.082-.015-.063-.02-.074-.02-.077-.023-.079-.013-.044-.022-.074-.027-.088-.03-.092-.03-.086-.027-.08-.03-.08-.017-.048-.035-.09-.039-.098-.031-.076-.044-.102-.035-.08-.037-.08-.028-.062-.038-.078-.048-.097-.04-.08-.05-.096-.052-.093-.045-.082-.05-.088-.043-.07-.061-.102-.027-.042-.013-.022-.03-.045-.065-.101-.058-.087-.052-.076-.054-.075-.04-.056-.03-.04-.044-.058-.052-.07-.039-.05-.045-.057-.055-.067-.059-.071-.05-.06-.056-.065-.045-.051-.046-.051-.059-.065-.04-.043-.062-.065-.061-.064-.064-.064-.085-.084-.05-.047-.06-.056-.045-.042-.045-.041-.05-.046-.066-.057-.045-.04-.056-.047-.056-.046-.066-.055-.057-.045-.067-.052-.073-.056-.055-.042-.06-.044-.061-.043-.067-.049-.06-.04-.056-.038-.056-.038-.067-.044-.079-.05-.058-.036-.073-.045-.098-.058-.106-.06-.067-.038-.085-.046-.072-.038-.09-.046-.101-.05-.095-.046-.096-.044-.1-.045-.115-.049-.141-.057-.08-.032-.107-.04-.16-.056-.04-.014-.099-.033-.082-.026-.075-.022-.089-.027-.079-.022-.142-.038-.171-.042L2.64 8.6l-.14-.03-.073-.013-.091-.016-.096-.016-.1-.016-.08-.01-.092-.013-.088-.01-.084-.01-.087-.008-.112-.01-.054-.004-.062-.004-.079-.004-.074-.004-.12-.004-.048-.001-.084-.002z" clip-rule="evenodd"/>
    </symbol>
    <symbol viewBox="0 0 32 13" id="sidebar-btn-services-saw">
        <path d="m.38 4.1 2.303.843L5.647.524l1.09 4.945 1.28.278 2.964-4.638 1.089 4.967 1.28.026 2.965-4.418 1.089 4.392 1.281-.044 2.963-4.982 1.09 4.622 1.28-.296L26.982.405l1.09 4.392 3.547-.952V9.76s-7.707 2.48-15.55 2.523S.38 9.931.38 9.931z"/>
    </symbol>
    <symbol viewBox="0 0 13 20" id="phone">
        <path fill-rule="evenodd" d="M0 2a2 2 0 0 1 2-2h9a2 2 0 0 1 2 2v16a2 2 0 0 1-2 2H2a2 2 0 0 1-2-2zm3 15a1 1 0 0 1 1-1h5a1 1 0 1 1 0 2H4a1 1 0 0 1-1-1M6.5 2a1.5 1.5 0 1 0 0 3 1.5 1.5 0 0 0 0-3" clip-rule="evenodd"/>
    </symbol>
    <symbol viewBox="0 0 17 17" id="clocks">
        <path fill-rule="evenodd" d="M0 8.5a8.5 8.5 0 1 1 17 0 8.5 8.5 0 0 1-17 0m11.824 4.502 1.163-1.541-3.71-2.8V3.306h-1.93v6.316z" clip-rule="evenodd"/>
    </symbol>
    <symbol viewBox="0 0 14 20" id="marker">
        <path fill-rule="evenodd" d="M7 20S0 12.2 0 7c0-3.9 3.1-7 7-7s7 3.1 7 7c0 5.2-7 13-7 13M7 4.5C5.6 4.5 4.5 5.6 4.5 7S5.6 9.5 7 9.5 9.5 8.4 9.5 7 8.4 4.5 7 4.5" clip-rule="evenodd"/>
    </symbol>
    <symbol viewBox="0 0 38 38" id="close">
        <path fill-rule="evenodd" d="M2.066 0 0 2.066 16.934 19 0 35.934 2.066 38 19 21.066 35.934 38 38 35.934 21.066 19 38 2.066 35.934 0 19 16.934z" clip-rule="evenodd"/>
    </symbol>
    <symbol viewBox="0 0 16 17" id="clear">
        <path fill-rule="evenodd" d="M8 .152c-4.4 0-8 3.6-8 8s3.6 8 8 8 8-3.6 8-8-3.6-8-8-8Zm4 11.05-1.12 1.186L8 9.338l-2.88 3.05L4 11.202l2.88-3.05L4 5.102l1.12-1.185L8 6.967l2.88-3.05L12 5.103l-2.88 3.05L12 11.201Z" clip-rule="evenodd"/>
    </symbol>
    <symbol viewBox="0 0 38 38" id="circle-arrow">
        <path fill-rule="evenodd" d="M19 0c10.493 0 19 8.507 19 19s-8.507 19-19 19S0 29.493 0 19 8.507 0 19 0m0 1.188C9.162 1.188 1.188 9.162 1.188 19S9.162 36.813 19 36.813 36.813 28.838 36.813 19 28.838 1.188 19 1.188m7.135 17.215H9.5v1.19h16.635l-5.352 5.345h1.782l5.935-5.942-5.935-5.933h-1.782z" clip-rule="evenodd"/>
    </symbol>
    <symbol viewBox="0 0 130 128" id="home-advantages1">
        <path fill-rule="evenodd" d="M37.908.594c.381-.38.9-.594 1.438-.594h51.303c1.117 0 2.026.909 2.031 2.031v49.273H116.3c.543 0 1.056.213 1.437.594.386.38.599.899.599 1.437v49.278h4.012c4.2 0 7.653 3.443 7.653 7.648 0 4.204-3.448 7.647-7.653 7.647h-5.22v8.029a2.03 2.03 0 0 1-2.032 2.031h-8.455a2.035 2.035 0 0 1-1.894-1.264l-3.544-8.796H28.798l-3.555 8.796a2.04 2.04 0 0 1-1.879 1.264h-8.46a2.03 2.03 0 0 1-2.031-2.031v-8.029H7.648c-4.205 0-7.648-3.443-7.648-7.647s3.443-7.648 7.648-7.648h4.011V53.335a2.03 2.03 0 0 1 2.032-2.031h23.623V2.03c0-.538.214-1.056.594-1.437m17.068 3.469h-13.6v47.241H88.62l-.005-47.236h-13.6v17.316c0 .726-.385 1.396-1.015 1.757a2.04 2.04 0 0 1-2.036-.005L65 19.088l-6.972 4.048a2.03 2.03 0 0 1-3.052-1.752zm4.063 0h11.913v13.786l-4.931-2.874v.005a2.04 2.04 0 0 0-2.041 0l-4.941 2.874zM29.322 55.367h-13.6v47.247H62.97V55.367h-13.6v17.316a2.037 2.037 0 0 1-3.052 1.757l-6.972-4.047-6.972 4.047a2.03 2.03 0 0 1-3.052-1.757zm4.062 0h11.919v13.797l-4.941-2.874a2.03 2.03 0 0 0-2.037 0l-4.94 2.874zm47.248 0h-13.6v47.247h47.237V55.367H100.67v17.316c0 .726-.386 1.397-1.016 1.757a2.04 2.04 0 0 1-2.036 0l-6.972-4.047-6.963 4.047c-.63.36-1.401.366-2.03.005a2.04 2.04 0 0 1-1.021-1.762zm4.062 0h11.913v13.797l-4.94-2.874a2.03 2.03 0 0 0-2.037 0l-4.93 2.864zm37.653 51.31H7.648c-2.02 0-3.585 1.564-3.585 3.585s1.564 3.585 3.585 3.585h114.699c2.021 0 3.591-1.564 3.591-3.585s-1.57-3.585-3.591-3.585M16.931 117.91h7.48l-2.422 5.997H16.93zm96.134 0h-7.48l2.422 5.997h5.058z" clip-rule="evenodd"/>
    </symbol>
    <symbol viewBox="0 0 143 116" id="home-advantages2">
        <path fill-rule="evenodd" d="m31.778 21.365 6.586 19.365 62.855-21.364L94.633 0zm8.748 14.975-4.357-12.82 5.506-1.873 4.358 12.82zm8.783-2.987 5.504-1.871-4.357-12.82-5.505 1.872zm14.28-4.856-5.5 1.87-4.357-12.819 5.5-1.87zm3.277-1.114 5.498-1.87-4.357-12.818-5.498 1.87zm14.277-4.855L75.64 24.4l-4.357-12.818 5.503-1.87zm3.276-1.114 5.5-1.87-4.357-12.817-5.5 1.87zM96.84 17.19l-3.646 1.24-4.356-12.817 3.639-1.237zM3.53 84.974c1.32 1.673 2.972 3.23 4.904 4.652v12.403c-3.244-2.96-4.971-6.282-4.972-9.698v-7.443zm14.178 9.646a45 45 0 0 1-5.815-2.759v12.816a36 36 0 0 0 2.64 1.555 43 43 0 0 0 3.175 1.52zm3.458 1.226a63 63 0 0 0 5.81 1.539v13.336a57 57 0 0 1-5.81-1.64zm15.084 2.899a74 74 0 0 1-5.815-.708v13.37c1.892.322 3.835.569 5.815.737zm3.459.205q1.443.054 2.905.054 1.465 0 2.91-.054v13.407a75 75 0 0 1-5.815 0zm15.084-.911a74 74 0 0 1-5.81.706v13.4c1.98-.168 3.92-.415 5.81-.737zm3.459-.652a63 63 0 0 0 5.815-1.539v13.234a57 57 0 0 1-5.815 1.641zm15.082-5.523a45 45 0 0 1-5.808 2.757v13.133a43 43 0 0 0 3.187-1.522 36 36 0 0 0 2.621-1.541zm3.459-2.24c1.926-1.42 3.572-2.977 4.885-4.65l.086-.11v7.467h3.459V75.47h-.005c-.003-6.496-4.583-12.512-12.888-16.942-7.972-4.256-18.523-6.593-29.723-6.593S20.855 54.28 12.884 58.53C4.576 62.967-.004 68.985-.004 75.477q0 .219.007.437V92.33c0 6.492 4.573 12.517 12.888 16.941 7.972 4.256 18.523 6.593 29.722 6.593 11.198 0 21.756-2.344 29.74-6.572 8.309-4.438 12.888-10.457 12.888-16.948h-3.458c0 3.418-1.736 6.743-4.992 9.705zm4.971-14.153v-.001c0-5.154-3.93-10.085-11.07-13.888-7.465-3.986-17.435-6.18-28.08-6.18-10.639 0-20.616 2.194-28.093 6.18-7.133 3.803-11.058 8.74-11.058 13.888 0 2.526.94 4.998 2.797 7.356 2.877 3.66 7.734 6.795 14.036 9.078 6.586 2.378 14.307 3.628 22.318 3.628 8.01 0 15.732-1.257 22.317-3.628 6.303-2.283 11.16-5.417 14.037-9.078 1.832-2.326 2.77-4.776 2.796-7.254zM20.31 87.967c5.978 3.04 13.908 4.722 22.304 4.722 8.403 0 16.326-1.675 22.332-4.722 6.35-3.236 9.855-7.667 9.855-12.49 0-4.816-3.5-9.254-9.855-12.49-5.992-3.04-13.922-4.721-22.318-4.721-8.403 0-16.333 1.675-22.318 4.722-6.363 3.235-9.868 7.666-9.868 12.49 0 4.816 3.505 9.254 9.868 12.49m-6.417-12.496c0-7.45 13.158-13.753 28.721-13.753 15.57 0 28.721 6.296 28.721 13.753 0 7.45-13.152 13.753-28.72 13.753-15.57 0-28.722-6.296-28.722-13.753m121.6.014L72.861 53.477l6.782-19.299 62.631 22.014zm-58.22-24.128 5.481 1.925 4.489-12.777-5.471-1.922zm14.223 4.996-5.479-1.925 4.489-12.777 5.479 1.924zm3.263 1.146 5.486 1.926 4.488-12.776-5.485-1.927zm13.238-9.704-4.489 12.777 5.481 1.925 4.489-12.777zm8.744 3.071-4.489 12.777 5.486 1.927 4.489-12.777zm9.752 17.78L121 66.715l4.489-12.776 5.492 1.928zm3.263 1.146 3.629 1.274 4.499-12.773-3.639-1.278z" clip-rule="evenodd"/>
    </symbol>
    <symbol viewBox="0 0 113 128" id="home-advantages3">
        <path fill-rule="evenodd" d="M56.063 0c30.913 0 56.062 25.15 56.062 56.063 0 .613-.355 1.318-.911 1.68h-.004v.001L79.52 78.25c1.572 1.463 2.572 3.532 2.572 5.845v36.04c0 4.417-3.592 8.009-8.01 8.009h-36.04c-4.417 0-8.009-3.592-8.009-8.009v-36.04c0-2.312 1-4.382 2.572-5.845L.915 57.744H.913l-.002-.002C.348 57.376 0 56.665 0 56.062 0 25.15 25.15 0 56.063 0m2.002 106.118a2 2 0 0 0-2.002 2.003v8.008c0 1.107.895 2.003 2.002 2.003h12.013a2 2 0 0 0 2.002-2.003v-8.008a2 2 0 0 0-2.002-2.003zm2.002 8.009v-4.004h8.009v4.004zm47.962-61.187-1.299-.577c-9.272-4.12-19.989-4.323-29.406-.555l-2.42.968c4.1-17.641-1.053-35.72-13.478-48.492C86.6 6.873 106.514 27.468 108.029 52.94m-65.595 4.274 5.147 18.87h16.963l5.147-18.87a33.92 33.92 0 0 0-27.257 0m28.542-5.203c4.115-17.486-1.59-35.475-14.913-47.365-13.324 11.89-19.03 29.879-14.914 47.363l.298 1.269c4.662-1.95 9.63-2.978 14.615-2.978 4.987 0 9.954 1.029 14.616 2.978zM50.699 4.284C38.274 17.056 33.121 35.136 37.221 52.776l-2.42-.968c-9.415-3.766-20.138-3.563-29.406.555l-1.299.577C5.611 27.468 25.526 6.873 50.7 4.284M7.022 56.024l-.827.367 30.627 19.817c.401-.062.803-.123 1.22-.123h5.388l-5.055-18.533-5.06-2.025c-8.422-3.37-18.005-3.191-26.293.496m71.065 64.11a4.01 4.01 0 0 1-4.004 4.004h-36.04a4.01 4.01 0 0 1-4.005-4.004v-36.04a4.01 4.01 0 0 1 4.004-4.005h10.012V90.1c0 1.107.895 2.003 2.002 2.003h12.013a2 2 0 0 0 2.002-2.003V80.09h10.012a4.01 4.01 0 0 1 4.004 4.004zm-9.392-44.05h5.388c.417 0 .819.062 1.22.124l30.627-19.817-.826-.368c-8.289-3.685-17.872-3.863-26.293-.496L73.75 57.55zM52.058 80.09h8.009v8.01h-8.009z" clip-rule="evenodd"/>
    </symbol>
    <symbol viewBox="0 0 130 110" id="home-advantages4">
        <path fill-rule="evenodd" d="M116.91 58.808c8.127-2.71 12.423-6.454 12.423-10.83 0-6.033-8.41-10.936-22.612-13.272a26.18 26.18 0 0 1 6.809-13.846h5.373a4.176 4.176 0 0 0 4.172-4.172v-4.172c0-2.3-1.871-4.172-4.172-4.172h-12.516V6.258A6.265 6.265 0 0 0 100.129 0H66.753a4.177 4.177 0 0 0-4.172 4.172H39.545A5.106 5.106 0 0 0 34.534 0a5.1 5.1 0 0 0-3.412 1.31L16.645 14.337a18.8 18.8 0 0 0-6.215 13.954v20.909l-3.203 3.203a10.36 10.36 0 0 0-3.055 7.375v28.49A4.177 4.177 0 0 0 0 92.44v4.172c0 2.3 1.872 4.172 4.172 4.172h41.72c2.3 0 4.172-1.872 4.172-4.172V92.44c0-2.3-1.871-4.172-4.172-4.172v-2.086a6.265 6.265 0 0 1 6.258-6.258h22.947v.93L61.35 89.446a6.22 6.22 0 0 0-2.941 5.307v1.86a4.177 4.177 0 0 0-4.172 4.172v4.172c0 2.3 1.871 4.172 4.172 4.172h50.064c2.3 0 4.172-1.872 4.172-4.172v-4.172c0-2.3-1.872-4.172-4.172-4.172V92.44h8.344v4.172h4.172V84.097h-4.172v4.172h-8.344v-2.086a6.27 6.27 0 0 0-4.172-5.9V61.622c4.651-.64 8.93-1.587 12.609-2.813m-27.211-.4c-21.971 0-35.462-6.074-35.462-10.43q.001-.613.35-1.263c6.594 4.614 19.947 7.522 35.112 7.522 15.167 0 28.522-2.908 35.114-7.524q.347.653.348 1.265c0 4.356-13.491 10.43-35.462 10.43M77.183 20.86H39.634v2.95l-6.51 6.511a6.22 6.22 0 0 0-1.834 4.426V49.2l7.376 7.374a6.22 6.22 0 0 0 4.425 1.834h18.253c-7.384-2.673-11.28-6.266-11.28-10.43 0-4.376 4.297-8.12 12.424-10.83 7.3-2.433 16.963-3.773 27.21-3.773 1.362 0 2.727.028 4.085.076l-1.415-4.248H83.44a6.265 6.265 0 0 1-6.258-6.258zm44.49 22.933c-6.05 3.759-18.546 6.272-31.974 6.272-13.413 0-25.898-2.508-31.955-6.26 5.35-3.28 16.574-6.257 31.955-6.257 1.835 0 3.678.048 5.496.14l1.345 4.032h9.847v-2.813l.001-.027c7.061 1.195 12.191 3.01 15.285 4.913m-22.127-6.245h2.699a30.3 30.3 0 0 1 5.867-16.688H81.355v2.086c0 1.15.936 2.086 2.086 2.086h11.933zm19.357-25.032v4.172h-12.516v-4.172zm-18.774-8.344H66.753v4.172h18.774v8.344h16.688V6.258c0-1.15-.936-2.086-2.086-2.086m-33.376 8.344h14.602v4.172h-41.72V8.344H62.58c0 2.3 1.871 4.172 4.172 4.172M33.912 4.411 19.436 17.439a14.62 14.62 0 0 0-4.834 10.853v19.686h12.516V34.747c0-2.786 1.085-5.406 3.056-7.376l5.289-5.289V5.102a.93.93 0 0 0-1.551-.691M4.172 96.613l-.003-4.172h41.723v4.172zm37.548-10.43c0-5.751 4.68-10.43 10.43-10.43h22.947V62.58H43.09a10.36 10.36 0 0 1-7.376-3.055L28.34 52.15H13.38l-3.203 3.204a6.22 6.22 0 0 0-1.833 4.425v28.49H41.72zm16.689 18.774-.003-4.172h50.067v4.172zm4.172-10.204v1.86h41.72v-10.43c0-1.15-.936-2.086-2.086-2.086H77.781l-14.22 8.887a2.07 2.07 0 0 0-.98 1.77m16.688-14.828V62.099c3.356.315 6.856.482 10.43.482s7.074-.167 10.43-.483v17.827zM83.44 92.44v-4.172h-4.172v4.172zm16.688-4.172h-4.172v4.172h4.172zM87.613 92.44v-4.172h4.172v4.172zM20.86 79.925h4.172v4.172H20.86zm-4.172 0h-4.172v4.172h4.172z" clip-rule="evenodd"/>
    </symbol>
    <symbol viewBox="0 0 107 128" id="home-advantages5">
        <path fill-rule="evenodd" d="M88.026 104.229V114.4c-.543.007-20.653.004-39.783 0h-.05c-16.622-.003-32.49-.005-34.123 0V19.445c.577.01 1.7.006 2.796.002h.001a189 189 0 0 1 2.444-.002v4.9c-.128 6.62 8.591 10.017 13.203 5.33 2.429-2.054 2.36-5.62 2.301-8.666-.01-.541-.02-1.067-.016-1.564h53.227v35.453c.031 2.796 4.227 2.803 4.264 0V17.313a2.13 2.13 0 0 0-2.132-2.131H34.8v-4.953C34.8 4.59 30.06.002 24.232.002 18.667-.12 13.579 4.644 13.688 10.23v4.953h-1.75a2.13 2.13 0 0 0-2.132 2.131v7.162H2.603A2.13 2.13 0 0 0 .47 26.607v99.176c0 1.179.954 2.132 2.132 2.132h78.236a2.13 2.13 0 0 0 2.132-2.132v-7.12h7.187a2.13 2.13 0 0 0 2.132-2.132v-12.302a2.132 2.132 0 1 0-4.264 0m-57.49-79.885c-.114 4.31-6.887 4.262-6.961 0v-4.899h1.336v4.712c.047 2.802 4.217 2.802 4.264 0v-4.712h1.36zm-6.961-9.162h1.336V9.996c.002-.625-1.335-.648-1.336 0zm-5.623-4.953c.249-7.928 12.388-7.8 12.584 0v4.953h-1.36V9.996c-.17-6.366-9.697-6.387-9.865 0v5.186h-1.36zM4.735 28.739v94.913h73.973v-4.989h-66.77a2.13 2.13 0 0 1-2.132-2.132V28.739zM87.97 58.563a2.14 2.14 0 0 0-2.053 0c-4.936 2.71-10.5 4.253-16.542 4.584a2.13 2.13 0 0 0-2.015 2.128v12.302c0 7.147 3.647 13.69 9.754 17.504l8.701 5.432a2.13 2.13 0 0 0 2.257 0l8.703-5.432c6.107-3.816 9.752-10.36 9.752-17.504V65.275a2.13 2.13 0 0 0-2.015-2.128c-6.04-.331-11.606-1.874-16.542-4.584m14.294 19.014c0 5.665-2.896 10.857-7.747 13.886l-7.573 4.728-7.572-4.728c-4.852-3.03-7.748-8.22-7.748-13.886V67.25c5.507-.535 10.647-2.013 15.32-4.405 4.673 2.392 9.813 3.87 15.32 4.405zm-18.417 5.762-3.234-4.503c-1.619-2.271 1.83-4.746 3.462-2.486l1.878 2.613 7.01-6.027c2.122-1.815 4.883 1.41 2.779 3.231l-8.774 7.545a2.126 2.126 0 0 1-3.12-.373M67.623 30.894c2.808.047 2.796 4.219 0 4.264H33.905c-2.808-.048-2.795-4.22 0-4.264zm11.352 14.088H22.553c-2.788.042-2.815 4.216 0 4.264h56.422c2.788-.042 2.814-4.216 0-4.264m-15.87 13.814h-40.55c-2.81-.048-2.793-4.22 0-4.264h40.55c2.808.047 2.795 4.22 0 4.264m-5.762 5.284h-35.11c-2.365.044-2.38 4.216 0 4.264h35.11c2.364-.044 2.38-4.217 0-4.264m-35.288 9.273H57.34c2.143.047 2.127 4.22 0 4.263H22.055c-2.141-.047-2.13-4.22 0-4.263m36.242 10h-36.2c-2.185.044-2.197 4.216 0 4.263h36.2c2.183-.043 2.199-4.216 0-4.263m-37.032 15h17.864c1.085.047 1.078 4.22 0 4.263H21.265c-1.085-.047-1.079-4.22 0-4.263" clip-rule="evenodd"/>
    </symbol>
    <symbol viewBox="0 0 110 121" id="home-advantages6">
        <path fill-rule="evenodd" d="M95.298 14.438v98.758c0 3.957 3.217 7.204 7.176 7.204 3.986 0 7.203-3.219 7.232-7.206V2.192A2.193 2.193 0 0 0 107.514 0L2.494.001A2.193 2.193 0 0 0 .304 2.193v111.002c0 3.958 3.217 7.204 7.176 7.204s7.176-3.218 7.176-7.204V14.438zm2.163-4.386H12.463c-1.197 0-2.165.997-2.165 2.192v100.951a2.825 2.825 0 0 1-2.82 2.819 2.807 2.807 0 0 1-2.818-2.819V4.385h100.631v108.81a2.826 2.826 0 0 1-2.819 2.819 2.807 2.807 0 0 1-2.819-2.819V12.245a2.19 2.19 0 0 0-2.192-2.193M42.475 42.565a2.19 2.19 0 0 1-2.192-2.192V26.996h-5.61v4.324a2.193 2.193 0 0 1-4.384 0v-4.325h-5.64V40.37a2.193 2.193 0 0 1-2.192 2.192 2.175 2.175 0 0 1-2.192-2.192v-15.57c0-1.196.968-2.192 2.192-2.192h19.99c1.196 0 2.192.968 2.192 2.192v15.57c.029 1.197-.967 2.194-2.164 2.194m42.828-2.192c0 1.224.996 2.192 2.192 2.192s2.164-.997 2.164-2.195V22.295a2.193 2.193 0 0 0-2.192-2.192l-19.99.002a2.193 2.193 0 0 0-2.191 2.192V40.37c0 1.224.968 2.192 2.192 2.192a2.193 2.193 0 0 0 2.192-2.192V24.49h5.61v4.326c0 1.223.996 2.192 2.192 2.192a2.175 2.175 0 0 0 2.192-2.193V24.49h5.639zM55.335 72.449a2.2 2.2 0 0 1-.045-.443V52.588H44.667v4.353a2.192 2.192 0 0 1-4.384 0v-4.353H29.661v19.418a2.193 2.193 0 0 1-2.192 2.192 2.175 2.175 0 0 1-2.192-2.192v-21.61c0-1.196.968-2.192 2.192-2.192h60.026c1.196 0 2.192.967 2.192 2.191v21.61c-.028 1.225-.996 2.193-2.192 2.193a2.193 2.193 0 0 1-2.192-2.192V52.588H74.68v4.353a2.192 2.192 0 1 1-4.384 0v-4.353H59.675v19.418a2.2 2.2 0 0 1-.442 1.32 2.18 2.18 0 0 1-1.75.872h-.001l-.053-.001a2.17 2.17 0 0 1-2.095-1.748m-12.86 30.381a2.19 2.19 0 0 1-2.192-2.191V87.262h-5.61v3.324a2.193 2.193 0 0 1-4.384 0v-3.325h-5.64v13.376a2.19 2.19 0 0 1-2.192 2.192 2.175 2.175 0 0 1-2.192-2.192v-15.57c0-1.196.968-2.191 2.192-2.191h19.99c1.196 0 2.192.968 2.192 2.192v15.569c.029 1.225-.967 2.193-2.164 2.193m42.828-2.191c0 1.223.996 2.191 2.192 2.191a2.163 2.163 0 0 0 2.164-2.165V82.59a2.193 2.193 0 0 0-2.192-2.192H77.83a2.3 2.3 0 0 0-.713 0l-9.64.001a2.193 2.193 0 0 0-2.192 2.192v18.075c0 1.224.968 2.192 2.192 2.192a2.193 2.193 0 0 0 2.192-2.192V84.755h5.61v3.325c0 1.224.996 2.192 2.192 2.192a2.174 2.174 0 0 0 2.192-2.192v-3.325h5.639z" clip-rule="evenodd"/>
    </symbol>
    <symbol viewBox="0 0 124 121" id="home-advantages7">
        <path fill-rule="evenodd" d="M38.013 7.178A7.183 7.183 0 0 1 45.191 0h71.507a7.18 7.18 0 0 1 7.177 7.177l.005 55.972c0 3.97-3.217 7.198-7.177 7.198H45.197c-3.96 0-7.178-3.228-7.178-7.198v-3.511h-2.743l-1.382 59.099a2.066 2.066 0 0 1-2.062 2.016H12.619a2.066 2.066 0 0 1-2.062-2.016l-.748-31.55H7.252c-3.93 0-7.126-3.207-7.126-7.157V54.821c0-5.682 4.62-10.302 10.302-10.302h27.585zM22.22 84.965c1.139 0 2.062.923 2.062 2.062l.006 29.601h5.527l1.382-59.1a1 1 0 0 1 .048-.234q.02-.065.035-.132.014-.068.025-.138c.015-.094.03-.188.068-.274.077-.186.2-.335.324-.485q.028-.033.049-.07a.4.4 0 0 1 .06-.084c.33-.33.768-.521 1.253-.557a1 1 0 0 0 .084-.02.4.4 0 0 1 .117-.022h25.883a3.44 3.44 0 0 0 3.434-3.434 3.44 3.44 0 0 0-3.434-3.434H10.432c-3.465 0-6.177 2.712-6.177 6.177v25.21c0 1.701 1.32 3.031 3.001 3.031h2.46l-.588-24.765a2.055 2.055 0 0 1 2.01-2.11c1.135-.107 2.084.872 2.11 2.012l1.382 58.425h5.527V87.027c0-1.14.923-2.062 2.063-2.062m97.529-21.822c0 1.697-1.372 3.073-3.053 3.073H45.19c-1.681 0-3.053-1.376-3.053-3.073v-3.511h17c3.362 0 6.188-2.227 7.168-5.27L94.11 28.53a2.07 2.07 0 0 0 .109-2.918 2.07 2.07 0 0 0-2.919-.108l-25.28 23.48c-1.186-2.629-3.815-4.475-6.883-4.475h-17V7.177a3.06 3.06 0 0 1 3.052-3.052h71.506a3.06 3.06 0 0 1 3.053 3.052zM22.209 42.73c-6.389 0-11.586-5.197-11.586-11.586 0-6.388 5.197-11.586 11.586-11.586 6.388 0 11.586 5.198 11.586 11.586 0 6.389-5.198 11.586-11.586 11.586m0-4.125c4.115 0 7.461-3.346 7.461-7.46 0-4.115-3.346-7.462-7.46-7.462-4.115 0-7.462 3.347-7.462 7.461s3.347 7.461 7.461 7.461m88.346 56.1a12.26 12.26 0 0 0 3.485-8.564c0-6.79-5.522-12.313-12.313-12.313-6.785 0-12.312 5.522-12.312 12.313 0 3.331 1.335 6.347 3.485 8.565a16.9 16.9 0 0 0-11.256 8.409c-2.32-4.233-6.404-7.368-11.256-8.41a12.26 12.26 0 0 0 3.486-8.564c0-6.79-5.522-12.313-12.313-12.313-6.786 0-12.313 5.522-12.313 12.313 0 3.331 1.335 6.347 3.486 8.565-7.6 1.629-13.32 8.394-13.32 16.478v7.503c0 1.139.924 2.062 2.063 2.062h80.324c1.14 0 2.063-.923 2.063-2.062v-7.503c0-8.085-5.719-14.85-13.319-16.478zm-8.822-16.751c4.511 0 8.188 3.67 8.188 8.188 0 4.511-3.672 8.188-8.188 8.188-4.512 0-8.188-3.671-8.188-8.188s3.67-8.188 8.188-8.188m-31.974 8.188c0-4.517-3.677-8.188-8.188-8.188-4.517 0-8.188 3.67-8.188 8.188 0 4.517 3.676 8.188 8.188 8.188 4.517 0 8.188-3.677 8.188-8.188M43.55 111.186c0-7.023 5.713-12.736 12.736-12.736h10.565c7.023 0 12.736 5.713 12.736 12.736v5.439H43.55zm40.162 5.439h36.037v-5.439c0-7.023-5.713-12.736-12.736-12.736H96.448c-7.023 0-12.736 5.713-12.736 12.736z" clip-rule="evenodd"/>
    </symbol>
    <symbol viewBox="0 0 113 123" id="home-advantages8">
        <path fill-rule="evenodd" d="M90.3 0c17.89.057 25.046 23.142 10.617 33.33a22.33 22.33 0 0 1 11.833 19.734v6.122a2.04 2.04 0 0 1-1.254 1.884A55.5 55.5 0 0 1 90.3 65.309a54.7 54.7 0 0 1-21.196-4.24 2.04 2.04 0 0 1-1.254-1.883v-6.123A22.29 22.29 0 0 1 79.654 33.31C65.26 23.109 72.428.056 90.3 0m0 4.082c-7.886.009-14.277 6.4-14.286 14.286.009 7.886 6.4 14.277 14.286 14.287 18.921-.716 18.927-27.855 0-28.573m2.04 32.534v2.161a2.04 2.04 0 1 1-4.08 0v-2.161c1.355.158 2.725.158 4.08 0M71.933 57.807a51.15 51.15 0 0 0 36.736 0v-4.744a18.34 18.34 0 0 0-12.245-17.282v2.996a6.123 6.123 0 1 1-12.246 0v-3.012a18.49 18.49 0 0 0-12.245 17.298zM33.568 90.475c14.428-10.188 7.272-33.272-10.618-33.33-17.872.057-25.041 23.108-10.645 33.309A22.29 22.29 0 0 0 .5 110.209v6.123a2.04 2.04 0 0 0 1.254 1.883 54.7 54.7 0 0 0 21.196 4.239 55.5 55.5 0 0 0 21.196-4.239 2.04 2.04 0 0 0 1.254-1.883v-6.123a22.33 22.33 0 0 0-11.832-19.734M8.664 75.514c.009-7.887 6.4-14.278 14.286-14.287 18.927.719 18.922 27.857 0 28.573-7.886-.01-14.277-6.4-14.286-14.287m-4.082 34.695v4.743a51.15 51.15 0 0 0 36.736 0v-4.743a18.355 18.355 0 0 0-12.402-17.341 18.23 18.23 0 0 1-11.95-.007A18.49 18.49 0 0 0 4.583 110.21M97.02 50.425a2.04 2.04 0 0 1 1.444-3.484h6.123a2.04 2.04 0 0 1 0 4.082h-6.123a2.04 2.04 0 0 1-1.444-.598m-41.853-7.098c.817 1.82 1.592 3.542.086 5.402a4.04 4.04 0 0 1-4.271 1.44 18.46 18.46 0 0 1-11.662-9.35H12.746a8.17 8.17 0 0 1-8.164-8.165V8.165A8.17 8.17 0 0 1 12.746 0h44.9a8.17 8.17 0 0 1 8.163 8.164v24.49a8.17 8.17 0 0 1-8.163 8.164h-3.4c.183.87.556 1.699.92 2.51m-14.577-6.59c.8 0 1.528.468 1.858 1.197a14.62 14.62 0 0 0 9.625 8.301c-.904-1.666-4.51-9.213-.292-9.499h5.865a4.087 4.087 0 0 0 4.081-4.081V8.163a4.087 4.087 0 0 0-4.081-4.082h-44.9a4.086 4.086 0 0 0-4.082 4.082v24.49a4.087 4.087 0 0 0 4.082 4.082zm12.376-21.853a2.04 2.04 0 0 1-1.443 3.484H18.869a2.04 2.04 0 0 1 0-4.082h32.654c.541 0 1.06.215 1.443.598m.598 9.607a2.04 2.04 0 0 0-2.041-2.041H35.196a2.04 2.04 0 0 0 0 4.082h16.327a2.04 2.04 0 0 0 2.04-2.041m51.023 57.145H78.012a18.46 18.46 0 0 0-11.662-9.351 4.03 4.03 0 0 0-4.27 1.44c-1.506 1.86-.731 3.584.086 5.404.364.81.737 1.639.92 2.507h-3.4a8.17 8.17 0 0 0-8.163 8.164v24.491a8.17 8.17 0 0 0 8.164 8.163h44.9a8.17 8.17 0 0 0 8.163-8.163V89.8a8.17 8.17 0 0 0-8.163-8.164m4.081 32.655a4.086 4.086 0 0 1-4.081 4.082h-44.9a4.087 4.087 0 0 1-4.082-4.082V89.8a4.087 4.087 0 0 1 4.082-4.082h5.864c4.222-.29.61-7.831-.292-9.499a14.62 14.62 0 0 1 9.625 8.301 2.04 2.04 0 0 0 1.858 1.198h27.845a4.086 4.086 0 0 1 4.081 4.082zm-8.193-8.164a2.04 2.04 0 0 0-2.011-2.041H65.809a2.042 2.042 0 0 0 0 4.082h32.655a2.04 2.04 0 0 0 2.011-2.041M82.137 95.923h16.327a2.041 2.041 0 0 1 0 4.081H82.137a2.04 2.04 0 0 1 0-4.081" clip-rule="evenodd"/>
    </symbol>
    <symbol viewBox="0 0 27 27" id="triangle">
        <path stroke-width="4" d="M2 3.236 22.528 13.5 2 23.764z"/>
    </symbol>
    <symbol viewBox="0 0 28 10" id="arrow-btn">
        <path fill-rule="evenodd" d="M24.565 4.1c.23 0 .332-.28.179-.434L22.29 1.213a.37.37 0 0 1 0-.536l.562-.562a.37.37 0 0 1 .537 0l4.47 4.496a.37.37 0 0 1 0 .536l-4.47 4.471a.37.37 0 0 1-.537 0l-.536-.537a.37.37 0 0 1 0-.536l2.452-2.452c.153-.18.051-.46-.179-.46H.383C.18 5.633 0 5.48 0 5.275V4.51C0 4.304.153 4.1.358 4.1z" clip-rule="evenodd"/>
    </symbol>
    <symbol viewBox="0 0 33 23" id="burger">
        <path fill-rule="evenodd" d="M.1 0h32v3H.1zm0 10h32v3H.1zm32 10H.1v3h32z" clip-rule="evenodd"/>
    </symbol>
    <symbol viewBox="0 0 22 31" id="phone2">
        <path fill-rule="evenodd" d="M20.052 19.975a4.113 4.113 0 0 0-5.764-1.551l-.77.463s-1.01-1.681-1.808-3.543-1.393-3.925-1.393-3.925l.872-.53c1.98-1.2 2.661-3.79 1.552-5.838l-1.344-2.424a4.13 4.13 0 0 0-5.753-1.572L2.702 2.843C-.615 4.864-.04 11.566 4.394 19.634c4.482 8.13 9.098 12.455 12.516 10.385l.077-.052c.08-.055.146-.1.223-.15.081-.04.109-.053.146-.07l.15-.08 2.335-1.415c1.985-1.224 2.662-3.808 1.547-5.866zm-4.212 1.017a1.114 1.114 0 0 1 1.582.43l1.337 2.411c.349.65.13 1.482-.484 1.86l-2.258 1.368-.27.13-.193.09-.16.138a2 2 0 0 1-.116.083c-1.035.624-4.622-2.726-8.255-9.314-1.7-3.093-2.159-5.404-2.646-7.855q-.083-.424-.171-.855c-.484-2.368-.303-3.853.057-4.072l2.928-1.78c.555-.33 1.257-.137 1.577.448l1.341 2.419c.345.636.127 1.465-.478 1.831l-1.96 1.194-1.07.65.45 1.17s.853 2.92 2.03 5.454c1.178 2.533 2.823 4.988 2.823 4.988l.812 1.09z" clip-rule="evenodd"/>
    </symbol>
    <symbol viewBox="0 0 25 25" id="close-mobi">
        <path d="M22.7026 0.125L24.8239 2.24632L14.5702 12.499L24.8239 22.7524L22.7026 24.8737L12.4492 14.62L2.19652 24.8737L0.0751953 22.7524L10.3282 12.499L0.0751953 2.24632L2.19652 0.125L12.4492 10.378L22.7026 0.125Z" fill="white"/>
    </symbol>
</svg>