<svg xmlns="http://www.w3.org/2000/svg" width="70" height="60" fill="none"><path fill="#00A0E3" fill-rule="evenodd" d="m11.33 50.848-2.678 1.474-.037-.448a28 28 0 0 1-.067-.916c-.013-.241-.018-.483-.024-.725-.01-.447-.02-.894-.073-1.336-.024-.203-.102-.4-.18-.595a2.5 2.5 0 0 1-.18-.577 88 88 0 0 1-.444-3.914 500 500 0 0 1-.522-6.389c-.07-.902-.131-1.806-.192-2.71q-.05-.748-.103-1.495l-.151-2.126v-.001q-.129-1.778-.251-3.554-.135-2.015-.26-4.031l-.056-.894a2534 2534 0 0 1-.349-5.633v-.001q-.099-1.594-.189-3.19-.164-3.002-.312-6.004a148 148 0 0 1-.143-3.409c-.011-.411-.119-.545-.563-.471-.543.09-1.1.106-1.654.12l-.134.005c-.3.008-.425.097-.43.414-.007.518-.024 1.037-.04 1.555a86 86 0 0 0-.04 1.453Q2.22 9.81 2.19 12.17q-.023 1.772-.049 3.542-.074 4.984-.156 9.97-.077 4.671-.158 9.342l-.054 3.187-.047 2.838q-.058 3.633-.128 7.266l-.011.549c-.034 1.717-.067 3.435-.154 5.15-.05.97-.153 1.938-.257 2.906q-.061.557-.116 1.115a.54.54 0 0 1-.113.279c-.2.237-.405.47-.647.743l-.3.34.03-.477c.02-.289.036-.539.041-.789q.033-1.665.061-3.33l.048-2.687Q.322 44.64.47 37.163q.041-2.123.087-4.245l.078-3.702.19-9.632.28-14.03.022-1.165q.033-1.73.073-3.46c.018-.724.025-.751.735-.785q.475-.023.951-.05C4.035.034 5.184-.03 6.33.016 7.497.062 8.541.633 9.505 1.28c1.36.913 2.326 2.17 3.113 3.596.363.66.787 1.288 1.21 1.915q.194.285.383.57c.105.158.254.31.418.4.434.236.585.584.549 1.062-.014.19-.006.38.002.571q.009.186.01.372c-.004.507.078.975.253 1.472.217.617.253 1.316.273 1.983.035 1.205.052 2.41.069 3.616.013.905.025 1.81.046 2.714q.083 3.604.176 7.21.052 2.006.1 4.013a3170 3170 0 0 1 .199 8.4v.004c.03 1.194.06 2.388.045 3.581-.005.361-.103.72-.2 1.08-.048.175-.096.348-.132.522-.028.129-.05.262-.05.393l.005.461c.008 1.044.016 2.088.042 3.132.007.309-.107.458-.391.554a10 10 0 0 0-.76.307h-.001q-.19.083-.404.173l.162-.353v-.002c.104-.225.194-.42.283-.617.47-1.03.593-2.112.558-3.24-.063-2-.105-4-.148-6.001v-.001q-.025-1.242-.054-2.482l-.001-.132c-.002-.136-.003-.272-.022-.406a1 1 0 0 1-.01-.119c-.008-.179-.017-.365-.323-.332-.296.032-.417.154-.444.483l-.012.15c-.118 1.484-.236 2.97-.44 4.444-.085.62-.332 1.244-.626 1.802-.338.641-.848.603-1.235-.01-.501-.797-.605-1.709-.708-2.604l-.011-.104a262 262 0 0 1-.698-6.959c-.066-.744-.1-1.49-.134-2.237-.025-.524-.049-1.047-.084-1.57-.025-.376.13-.54.471-.627q.703-.179 1.404-.365h.001c.689-.182 1.377-.364 2.069-.53.34-.083.469-.225.455-.576q-.092-2.436-.177-4.873v-.003q-.079-2.25-.162-4.5c-.106-2.786-.501-5.54-1.018-8.272-.132-.699-.396-1.373-.66-2.047-.114-.29-.227-.579-.33-.87-.033-.094-.094-.18-.153-.263l-.031-.045c-.616-.883-1.583-.86-1.995.13-.48 1.153-.962 2.343-1.176 3.564a58 58 0 0 0-.744 6.316c-.155 2.46-.179 4.93-.202 7.397l-.003.231-.01.959v.018c-.026 2.459-.052 4.92.054 7.374.124 2.895.388 5.786.688 8.669.217 2.093.553 4.177.913 6.25.231 1.33.684 2.605 1.422 3.82m29.402 3.244-.003-.11a55 55 0 0 0-.839-.096c-.637-.07-1.274-.138-1.902-.258-.95-.18-1.89-.434-2.815-.717-.17-.052-.306-.208-.443-.365a3 3 0 0 0-.191-.205q.094-.098.183-.206c.132-.157.264-.314.432-.39a11.6 11.6 0 0 1 1.77-.633c2.283-.61 4.626-.82 6.975-.875 4.113-.097 8.194.192 12.191 1.252.858.227 1.698.506 2.289 1.237.324.4.323.843-.035 1.208a3 3 0 0 1-.565.437c-.99.602-2.087.904-3.219 1.06l-.957.131c-2.05.283-4.101.565-6.159.774a82 82 0 0 1-5.686.35c-2.589.081-5.173-.05-7.75-.336-2.524-.281-5-.762-7.377-1.662a8.4 8.4 0 0 1-1.918-1.046c-.675-.489-.698-1.205-.08-1.766a7 7 0 0 1 1.571-1.1c2.026-1.006 4.205-1.56 6.413-1.98a56 56 0 0 1 8.91-.963c2.096-.061 4.194-.055 6.292-.05q1.41.006 2.82.002.12-.002.241-.013l.06-.005.052-.004c-.057-.095-.11-.127-.164-.133-.777-.082-1.553-.174-2.33-.267-1.777-.21-3.555-.422-5.34-.513-3.543-.181-7.093-.038-10.625.34q-4.24.448-8.398 1.413c-1.668.388-3.235.992-4.588 2.055-1.365 1.07-1.329 2.245.092 3.25 1.133.801 2.457 1.169 3.78 1.485 3.595.859 7.262 1.144 10.943 1.297l.193.009.417.017c.888.039 1.776.077 2.664.088q1.027.014 2.056.035c1.92.038 3.842.077 5.757-.003 2.926-.122 5.847-.4 8.761-.7 2.598-.267 5.141-.828 7.546-1.887.416-.183.81-.46 1.147-.766.498-.45.494-.851-.075-1.21a6.4 6.4 0 0 0-1.756-.76c-3.01-.789-6.046-1.474-9.138-1.853-2.045-.25-4.098-.486-6.155-.58-3.096-.144-6.19-.034-9.267.411l-.148.022c-1.936.28-3.873.559-5.705 1.276-.715.28-1.412.649-2.046 1.081-.454.31-.416.655.044.976.334.234.736.455 1.13.504 1.779.22 3.563.417 5.35.544.959.068 1.92.084 2.883.1q.713.009 1.424.03c.294.008.589.026.883.044zm5.498 5.513c-.589-.014-1.178-.021-1.767-.029-1.313-.017-2.626-.034-3.934-.123a225 225 0 0 1-8.844-.778c-4.303-.465-8.54-1.304-12.718-2.434-1.883-.509-3.74-1.087-5.412-2.125-.428-.266-.85-.568-1.2-.927-.722-.737-.65-1.454.169-2.104 1.117-.887 2.41-1.445 3.735-1.929 3.717-1.358 7.502-2.496 11.403-3.171 2.471-.428 4.97-.72 7.467-.966 1.664-.163 3.347-.187 5.022-.181 2.634.009 5.254.26 7.86.657a56 56 0 0 1 14.879 4.434c1.67.762 3.284 1.657 4.892 2.549l.352.195c.456.253.852.669 1.183 1.084.673.844.563 1.663-.262 2.368-.91.776-1.992 1.186-3.137 1.48-2.818.725-5.68 1.18-8.575 1.427-2.19.186-4.383.34-6.578.438-1.043.046-2.088.035-3.133.023q-.7-.009-1.4-.01zM33.31 44.475l-.045.005h-.001l-.001-.002-.002-.004-1.164.174c-.12-.46-.115-.919-.111-1.376.005-.618.01-1.234-.287-1.842-.267-.548-.288-1.247-.305-1.881a346 346 0 0 1-.085-4.69q-.017-1.335-.04-2.67-.065-3.518-.138-7.034l-.048-2.345q-.015-.66-.042-1.322c-.037-1.011-.075-2.023-.02-3.03.04-.766.227-1.526.412-2.284q.086-.345.165-.69c.027-.12.132-.22.236-.321a2 2 0 0 0 .138-.142q.06.075.131.146c.1.104.2.209.226.33q.053.25.11.502c.154.693.309 1.39.35 2.091.061 1.059.076 2.12.09 3.182.01.63.018 1.26.036 1.888q.085 2.853.178 5.704v.007q.085 2.639.165 5.278l.014.485c.054 1.812.109 3.624.115 5.436.001.344-.096.689-.193 1.033-.045.16-.09.319-.125.478q-.012.057-.029.114c-.024.092-.048.183-.049.274l-.001.159c-.005.636-.01 1.272.02 1.906.004.104.08.205.156.306q.053.068.095.134zm.19 0h-.19l.61-.084h.001c.488-.067.977-.134 1.466-.188l.027-.004c.469-.051.703-.077.815-.208.112-.13.104-.363.087-.829q-.007-.227-.008-.454l-.002-.13v-.037c-.005-.414-.01-.804-.257-1.2-.2-.322-.235-.77-.265-1.169a42 42 0 0 1-.095-2.422q-.026-1.58-.045-3.16c-.019-1.386-.037-2.773-.065-4.16-.046-2.335-.1-4.67-.184-7.002l-.026-.71c-.087-2.394-.174-4.79-.34-7.178-.148-2.116-.4-4.23-1.064-6.263l-.022-.065c-.249-.763-.503-1.543-1.492-1.718.676-2.56-.903-4.059-2.593-5.579q.086-.005.15-.014c.08-.009.14-.016.195-.003q1.517.353 3.033.713l.768.182c1.524.36 2.694 1.256 3.657 2.45 1.054 1.306 1.66 2.825 2.078 4.43-1.355.532-1.88 1.704-2.151 2.948-.641 2.946-.847 5.948-.937 8.957a109 109 0 0 1-.058 1.502c-.048 1.086-.095 2.171-.072 3.255.045 2.167.13 4.34.332 6.497.22 2.365.535 4.725.917 7.07.142.87.392 1.722.642 2.574v.001c.113.385.225.77.328 1.156.062.233.161.39.454.394l.11.001c.951.01 1.903.022 2.85.087.5.034.714-.172.803-.613q.117-.566.245-1.131c.18-.805.36-1.61.465-2.425.562-4.331.561-8.69.438-13.043-.113-3.979-.483-7.938-1.501-11.808-.113-.428-.235-.853-.363-1.3l-.001-.006-.002-.004-.185-.65c.866.1 1.68.126 2.435-.407l.024.149c.013.074.022.127.022.18q-.01 1.01-.032 2.021c-.009.436.109.824.252 1.242.226.664.308 1.397.336 2.105.04 1.002.055 2.005.07 3.008v.005c.013.867.026 1.734.055 2.6l.01.324.011.338c.09 2.83.18 5.66.791 8.443l.017.076c.218.998.438 2 1.044 2.858.573.81 1.406.765 1.89-.102.134-.237.254-.481.385-.745l.197-.395q.015.06.029.105c.015.052.026.09.026.127l.007.42v.009q.044 2.975.08 5.949c.005.492-.007.96-.367 1.39-.115.138-.1.39-.086.632q.009.125.01.24c-.007 1.055-.003 1.056 1.015 1.284h.003c.444.1.888.2 1.315.38l-.756-.144c-.55-.104-1.1-.209-1.652-.303-3.806-.645-7.643-.817-11.494-.714-.805.022-1.61.09-2.414.157q-.626.055-1.253.1c-.173.011-.348.01-.522.008M26.242 9.203a56 56 0 0 1-.076-1.769c-.008-.328-.122-.423-.446-.45a28 28 0 0 1-1.545-.19q-.321-.047-.647-.09v1.064l.001.408c0 .373 0 .747.015 1.12q.007.225.005.451c-.002.568-.003 1.133.324 1.675.193.32.204.777.213 1.175v.003c.05 2.083.09 4.166.129 6.25v.001a2375 2375 0 0 0 .25 11.66l.076 3.042v.001c.061 2.442.123 4.883.162 7.325.005.337-.08.675-.166 1.013-.043.169-.086.338-.117.508-.033.174-.06.352-.06.528a369 369 0 0 0-.004 2.308v.806l-.718.2v-.817c.001-.63.002-1.244-.002-1.856a3.5 3.5 0 0 0-.275-1.359c-.26-.625-.292-1.368-.313-2.064a320 320 0 0 1-.097-4.54q-.02-1.299-.047-2.598a6528 6528 0 0 0-.205-9.281l-.062-2.748-.037-1.657q-.066-3.054-.141-6.107-.038-1.538-.083-3.075v-.005q-.045-1.557-.084-3.113c-.006-.254-.08-.386-.358-.393a57 57 0 0 1-2.017-.085c-.323-.02-.415.12-.412.422q.008 1.109.003 2.217l-.003 1.124c-.003.074-.006.15.027.203.49.776.486 1.632.482 2.48-.002.27-.003.54.011.806.09 1.633.139 3.268.188 4.903q.036 1.248.08 2.496c.01.237-.045.383-.297.394l-.27.012c-.403.02-.806.039-1.208.026-.094-.003-.249-.197-.26-.314a21 21 0 0 1-.099-1.703q-.04-2.277-.07-4.553v-.001l-.037-2.495-.022-1.25c-.017-.915-.034-1.83-.037-2.746 0-.203.063-.476.201-.6 1.345-1.212 1.338-3.057.393-4.55C17.67 1.969 16.364.97 14.84.23a.44.44 0 0 1-.215-.194q.528.023 1.058.044c.818.032 1.636.064 2.452.123.555.04 1.108.109 1.66.177.352.044.704.088 1.057.124 1.51.155 2.695.926 3.733 1.968 1.264 1.268 2.025 2.842 2.688 4.473a.4.4 0 0 1 .017.257c-.253.705-.512 1.409-.784 2.147v.002h-.001v.003h-.001l-.224.608q-.018-.386-.04-.76m30.896 4.258q-.402-.298-.816-.612l.158.6c.102.388.194.737.278 1.088.294 1.24-.072 2.293-.91 3.222a.88.88 0 0 0-.206.546c0 .545.017 1.09.032 1.636v.002q.018.594.029 1.19.037 2.543.07 5.087l.038 2.952c0 .045.008.09.02.161l.023.159q.196-.692.387-1.357c.318-1.11.624-2.176.894-3.252.13-.521.25-1.139.09-1.618-.25-.754-.279-1.507-.308-2.267l-.013-.337a10 10 0 0 1-.004-.57l.002-.284q.074.022.118.03c.047.012.074.018.092.033l.183.15h.001a369 369 0 0 1 2.83 2.332.54.54 0 0 1 .182.338q.06 1.098.072 2.198c.001.11-.085.298-.161.316-.472.11-.621.48-.76.864l-.21.575c-.329.906-.658 1.811-.975 2.72-.06.174-.076.381-.049.563.104.692.22 1.381.338 2.07v.001l.084.495.37 2.187q.334 1.958.662 3.915.144.878.274 1.758v.001c.19 1.263.38 2.525.663 3.767.08.353.176.703.27 1.052.269.981.536 1.96.465 3.007-.008.107.12.276.228.33.31.154.627.29.93.419q.166.07.324.139-.099-.292-.207-.581v-.001c-.156-.422-.31-.844-.408-1.279-.6-2.684-.88-5.4-.643-8.151.092-1.074.236-2.14.718-3.13.526-1.08 1.522-1.594 2.697-1.379.12.022.241.037.395.056h.003q.12.014.275.034-.04-.42-.073-.825c-.048-.598-.095-1.17-.195-1.732-.154-.86-.476-1.673-1.133-2.3-.432-.41-.937-.316-1.147.236-.088.232-.13.483-.171.733l-.04.226c-.037.203-.066.408-.097.621l-.044.296c-.972-.512-1.009-.592-1.023-1.551-.024-1.541-.05-3.083-.113-4.623-.017-.426.134-.585.522-.57q.498.021 1.006.055l.45.028c-.418-.958-.442-1.98-.466-2.992q-.006-.336-.02-.668c-.069-1.612-.56-3.056-1.577-4.254-.7-.825-1.539-1.538-2.371-2.246l-.34-.29c-.537-.459-1.104-.88-1.693-1.319m-12.323-.989c1.82-2.335.597-4.289-.664-6.3l.691.288q.765.316 1.524.64c1.471.633 2.845 1.393 3.815 2.738.73 1.013 1.108 2.129 1.245 3.364.129 1.17.322 2.337.547 3.493.116.596.441 1.1 1.011 1.421.126.07.208.315.214.483.034.964.052 1.93.07 2.895v.001l.014.695.07 3.575q.065 3.331.134 6.663.083 3.928.18 7.857c.005.262.018.524.03.786.024.502.048 1.002.028 1.501-.01.26-.1.516-.19.772h-.001a6 6 0 0 0-.15.465c-.036.123-.073.248-.077.373-.01.35-.008.7-.006 1.075l.002.463-.552-.092.001-.474c.002-.428.003-.851-.008-1.274a.67.67 0 0 0-.142-.404c-.371-.406-.463-.898-.473-1.415q-.054-2.618-.103-5.237v-.013a5065 5065 0 0 0-.267-12.98 988 988 0 0 0-.184-7.362c-.005-.18-.099-.44-.235-.52-.651-.381-1.318-.738-1.984-1.094l-.535-.287c-.022-.012-.05-.013-.09-.014l-.077-.005q0 .32-.006.637c-.006.49-.013.977.017 1.46l.007.123c.027.482.054.961.34 1.422.19.309.202.753.213 1.15l.002.073.038 1.28v.005c.071 2.4.142 4.8.143 7.2 0 .515-.184 1.033-.367 1.547-.06.17-.122.34-.175.51-.042.131-.263.295-.39.286-.13-.009-.329-.197-.356-.334q-.064-.321-.133-.642c-.151-.707-.303-1.417-.33-2.13-.14-3.7-.237-7.402-.334-11.104v-.002l-.05-1.907c-.008-.31-.11-.495-.392-.628-.487-.23-.969-.472-1.46-.719q-.3-.15-.605-.303M27.816 14.66q-.075-.136-.154-.298-.091.118-.164.203a1.1 1.1 0 0 0-.191.274c-.474 1.144-.747 2.348-.763 3.577-.014 1.001.029 2.004.07 3.006.023.539.046 1.077.06 1.615q.148 5.565.277 11.13c.02.847.032 1.694.045 2.542.019 1.204.037 2.406.074 3.608.01.357.098.711.184 1.065q.046.188.089.375c.027.125.065.248.103.371.061.198.122.396.138.597.046.61.067 1.223.09 1.843l.027.75.924-.16-.001-.683c0-.546-.001-1.083.002-1.62a4 4 0 0 0-.013-.284c-.017-.249-.034-.5.07-.676.244-.407.28-.81.272-1.244l-.087-4.172v-.003q-.045-2.133-.088-4.264-.091-4.507-.18-9.016l-.001-.028-.068-3.393c-.03-1.557-.072-3.113-.495-4.626-.045-.161-.126-.312-.22-.49M69.63 52.93q.177.114.368.242v-.237c.001-.13.002-.233 0-.335l-.04-2.179v-.003q-.06-3.353-.123-6.706-.011-.585-.019-1.169c-.016-1.122-.032-2.243-.094-3.362-.144-2.642-.294-5.285-.535-7.918-.136-1.492-.397-2.974-.658-4.452l-.074-.42c-.057-.325-.197-.636-.338-.946a9 9 0 0 1-.185-.429l-.131.039c-.178.591-.463 1.108-1.014 1.426-.56.322-1.147.286-1.75.061a.6.6 0 0 0 .111.245c.75.967 1.295 2.046 1.71 3.19.824 2.268 1 4.636 1.068 7.019q.028.975.064 1.95v.001c.06 1.683.121 3.366.098 5.048-.036 2.675.214 5.316.606 7.951.023.156.056.359.161.444.236.189.49.354.775.54M41.676 32.296v.004a194 194 0 0 1-.17 4.25c-.028.503-.13 1.003-.231 1.501q-.06.29-.114.577a.9.9 0 0 1-.149.372c-.09.124-.219.3-.336.303-.116.004-.303-.153-.349-.28q-.07-.192-.144-.384c-.182-.475-.365-.954-.433-1.446-.185-1.344-.334-2.7-.379-4.055-.093-2.828-.154-5.657-.215-8.486v-.001q-.03-1.455-.064-2.91a15.6 15.6 0 0 1 .449-4.18c.057-.229.141-.46.256-.666.209-.377.493-.385.636.021l.017.049c.226.643.46 1.307.52 1.977.252 2.814.46 5.633.638 8.453.047.737.034 1.478.022 2.219q-.01.506-.011 1.013h.114q-.03.835-.057 1.67M3.698 55.138l.031.612.364-.281c.296-.227.567-.435.822-.66.101-.09.166-.28.161-.42-.015-.443-.039-.886-.063-1.328q-.034-.59-.059-1.18a2 2 0 0 1 .054-.46l.029-.156a10 10 0 0 1 .105-.512c.08-.359.16-.717.15-1.072a161 161 0 0 0-.284-5.42 309 309 0 0 0-.25-3.454 470 470 0 0 1-.168-2.27q-.08-1.14-.153-2.277-.067-1.032-.138-2.064-.106-1.489-.216-2.978l-.123-1.671q-.103-1.403-.203-2.805l-.1-1.392-.141-.001q0 .475.003.95c.003.692.006 1.384-.006 2.076a2058 2058 0 0 1-.09 5.11v.001q-.041 2.247-.079 4.494-.04 2.505-.073 5.01l-.038 2.712q-.004.18-.012.36l-.01.268-.042 1.44a174 174 0 0 0-.091 4.032c-.003.343.098.688.199 1.03q.045.154.088.309c.022.082.069.16.116.236.057.094.113.186.122.284.046.48.07.963.095 1.477m15.818-7.667q-.017-.218-.035-.41c-.024-.266-.045-.504-.055-.742a87 87 0 0 1-.035-.97c-.017-.544-.035-1.089-.07-1.632-.013-.222-.097-.48-.238-.644-.234-.274-.294-.559-.303-.902-.086-3.636-.183-7.272-.28-10.907q-.017-.57-.039-1.141c-.022-.607-.044-1.213-.052-1.82-.001-.119.154-.333.257-.346.404-.052.812-.077 1.23-.102q.221-.014.446-.029.01.056.022.11c.015.07.03.136.03.201l.039 2.459c.022 1.44.043 2.88.074 4.321q.038 1.697.086 3.393.043 1.535.08 3.069c.005.28-.014.576-.101.839-.315.95-.266 1.915-.209 2.888.035.583.039 1.168.03 1.751-.006.376-.231.423-.483.476a1.1 1.1 0 0 0-.394.138m37.89-.545q.13.032.28.077l-.022-.47v-.001c-.017-.368-.034-.711-.04-1.055l-.001-.033v-.026c-.005-.167-.01-.372.078-.452.495-.44.407-.974.32-1.494l-.029-.184c-.183-1.22-.382-2.436-.582-3.654v-.001a652 652 0 0 1-.639-3.954l-.17-1.063c-.367 1.04-.673 1.953-.624 2.977.053 1.12.07 2.241.087 3.363.012.735.023 1.47.044 2.204.01.351.024.786.223 1.03.294.36.292.722.29 1.113v.058q0 .144-.006.288c-.007.234-.014.47.017.699.021.151.16.332.297.411.134.078.29.118.476.167M10.45 21.808q-.001-.303-.005-.586c-.005-.397-.01-.77.01-1.142.098-1.909.205-3.818.335-5.724.024-.351.147-.702.27-1.036a.54.54 0 0 1 .337-.296c.076-.016.257.164.288.282q.027.108.057.217c.117.447.236.897.272 1.352.154 1.935.273 3.872.389 5.81.039.652.017.657-.616.8l-.022.005c-.286.064-.57.134-.874.21zm55.352 20.92q-.009-.296-.01-.59h-.087l-.001-.858q-.005-1.095.004-2.19c.004-.346-.163-.416-.452-.342-.579.148-.912.554-1.09 1.092-.385 1.156-.46 2.353-.297 3.546.089.642.29 1.283.542 1.883.203.485.6.51.889.066.234-.361.42-.801.471-1.225.055-.456.043-.92.03-1.383M30.379 11.491 29.85 9.29l1.275-.222zm34.74 38.716.963.515.085-1.632z" clip-rule="evenodd"/></svg>