<svg xmlns="http://www.w3.org/2000/svg">
    <symbol viewBox="0 0 100 100" id="play">
        <path fill="#fff" fill-rule="evenodd" d="M100 50 0 100V0z" clip-rule="evenodd"/>
        <path fill-rule="evenodd" d="M75 50 11 82V18z" clip-rule="evenodd"/>
    </symbol>
    <symbol viewBox="0 0 72 101" id="logo">
        <path fill-rule="evenodd" d="M35.691 0C14.134 0 0 12.43 0 12.43v35.76c0 34.13 29.285 49.513 35.691 51.857 6.203-2.446 35.692-17.626 35.692-51.858V12.43S57.147 0 35.69 0m.102 12.328h1.627c8.542 0 15.253 2.445 19.32 4.788L51.758 29.24c-3.661-1.63-7.525-3.057-14.541-3.057-.509 0-1.017 0-1.424.102zM7.22 48.189c0 27.1 20.947 40.04 28.37 43.809 0-.4.004-1.059.01-1.947.024-3.195.07-9.35-.01-17.003-16.372-.713-23.693-12.43-23.693-30.258 0-19.154 7.22-29.851 23.693-30.564V7.234c-13.524 0-23.896 5.807-28.37 8.863zm17.998-5.297c0-9.985 3.559-15.792 10.473-16.607V59.6c-6-.815-10.473-6.011-10.473-16.708M35.69 59.6c.509.102.915.102 1.424.102 2.847 0 7.118-.611 8.542-.917V42.077h13.32v27.202s-8.541 3.871-21.862 3.871H35.69z" clip-rule="evenodd"/>
    </symbol>
    <symbol viewBox="0 0 29 29" id="close">
        <path fill-rule="evenodd" d="m27.142 0 1.414 1.414-12.864 12.864 12.864 12.864-1.414 1.414-12.864-12.864L1.414 28.556 0 27.142l12.864-12.864L0 1.414 1.414 0l12.864 12.864z" clip-rule="evenodd"/>
    </symbol>
    <symbol viewBox="0 0 16 17" id="clear">
        <path fill-rule="evenodd" d="M8 .152c-4.4 0-8 3.6-8 8s3.6 8 8 8 8-3.6 8-8-3.6-8-8-8Zm4 11.05-1.12 1.186L8 9.338l-2.88 3.05L4 11.202l2.88-3.05L4 5.102l1.12-1.185L8 6.967l2.88-3.05L12 5.103l-2.88 3.05L12 11.201Z" clip-rule="evenodd"/>
    </symbol>
    <symbol viewBox="0 0 32 10" id="arrow">
        <path stroke-linecap="round" stroke-linejoin="round" stroke-width="1.5" d="M1 5h31m0 0-5.391 4M32 5l-5.391-4"/>
    </symbol>
</svg>